<svg width="27" height="31" viewBox="0 0 27 31" fill="none" xmlns="http://www.w3.org/2000/svg">
<path d="M13.1025 30.0513V28.5129H23.6408C23.94 28.5129 24.1858 28.4168 24.3783 28.2246C24.5706 28.0324 24.6667 27.7867 24.6667 27.4875V26.1796H19.6921V16.2308H24.6667V13.1029C24.6667 9.90903 23.5369 7.18319 21.2775 4.92542C19.0181 2.66764 16.2903 1.53875 13.0942 1.53875C9.89778 1.53875 7.17278 2.66764 4.91917 4.92542C2.66528 7.18319 1.53833 9.90903 1.53833 13.1029V16.2308H6.51292V26.1796H2.56708C1.84458 26.1796 1.23611 25.9324 0.741667 25.4379C0.247222 24.9435 0 24.3382 0 23.6221V13.1142C0 11.2956 0.343333 9.59125 1.03 8.00125C1.71694 6.41125 2.65486 5.02291 3.84375 3.83625C5.03264 2.64986 6.42153 1.71389 8.01042 1.02833C9.59958 0.342778 11.2989 0 13.1083 0C14.9089 0 16.6051 0.342917 18.1971 1.02875C19.7893 1.71458 21.1793 2.65097 22.3671 3.83792C23.5551 5.02514 24.4918 6.41333 25.1771 8.0025C25.8624 9.59167 26.205 11.2899 26.205 13.0971V27.4912C26.205 28.209 25.9578 28.8151 25.4633 29.3096C24.9689 29.804 24.364 30.0513 23.6488 30.0513H13.1025ZM2.56417 24.6412H4.97417V17.7696H1.53833V23.6154C1.53833 23.9146 1.63444 24.1604 1.82667 24.3529C2.01917 24.5451 2.265 24.6412 2.56417 24.6412ZM21.2308 24.6412H24.6667V17.7696H21.2308V24.6412ZM2.56417 17.7696H1.53833H4.97417H2.56417Z" fill="#333333"/>
</svg>
