<svg width="48" height="44" viewBox="0 0 48 44" fill="none" xmlns="http://www.w3.org/2000/svg">
<path d="M39.8029 0H8.1331C3.65065 0 0 3.66606 0 8.1331V27.8189C0 32.3014 3.66606 35.952 8.1331 35.952H19.3161L21.2416 39.2792L23.1362 42.5602C23.4751 43.1609 24.3377 43.1609 24.692 42.5602L26.5866 39.2792L28.5121 35.952H39.8183C44.3008 35.952 47.9514 32.286 47.9514 27.8189V8.14851C47.9514 3.66606 44.2854 0 39.8029 0Z" fill="url(#paint0_linear_25_36)"/>
<path d="M26.1859 14.4177C23.7367 14.4177 21.7496 16.374 21.7496 18.7924C21.7496 21.2107 23.7367 23.167 26.1859 23.167C28.635 23.167 30.6221 21.2107 30.6221 18.7924C30.6221 16.374 28.6504 14.4177 26.1859 14.4177ZM26.1859 20.8872C25.0152 20.8872 24.0602 19.9476 24.0602 18.7924C24.0602 17.6371 25.0152 16.6975 26.1859 16.6975C27.3565 16.6975 28.3116 17.6371 28.3116 18.7924C28.3116 19.9476 27.3719 20.8872 26.1859 20.8872Z" fill="white"/>
<path d="M12.1534 14.4177C11.1984 14.4177 10.305 14.7874 9.61179 15.4189V11.7991H7.14722V22.9667H9.61179V22.1811C10.305 22.7973 11.183 23.1824 12.1534 23.1824C14.3561 23.1824 16.1429 21.2261 16.1429 18.8077C16.1429 16.3894 14.3715 14.4177 12.1534 14.4177ZM11.6605 20.9796C10.7517 20.9796 9.96608 20.4405 9.6272 19.6549C9.51937 19.3931 9.44235 19.1004 9.44235 18.7923C9.44235 18.4843 9.50397 18.1916 9.6272 17.9297C9.96608 17.1441 10.7517 16.605 11.6605 16.605C12.8928 16.605 13.8786 17.5754 13.8786 18.7923C13.8786 20.0092 12.8928 20.9796 11.6605 20.9796Z" fill="white"/>
<path d="M38.3085 14.6026V15.2958C37.6154 14.7566 36.7528 14.4332 35.8286 14.4332C33.5642 14.4332 31.7312 16.3278 31.7312 18.6538C31.7312 20.9797 33.5642 22.8743 35.8286 22.8743C36.7682 22.8743 37.6308 22.5509 38.3085 22.0117V23.1824C38.3085 23.1824 38.0621 24.3377 36.3369 24.3377V26.5096C36.3369 26.5096 38.2007 26.7252 39.8643 25.0617C39.8643 25.0617 40.6345 24.2453 40.8039 23.167V14.6026H38.3085V14.6026ZM36.2907 20.7949C35.043 20.7949 34.0417 19.8244 34.0417 18.6384C34.0417 17.4523 35.0584 16.4818 36.2907 16.4818C37.1687 16.4818 37.9389 16.9748 38.3085 17.6833C38.4626 17.976 38.5396 18.2995 38.5396 18.6384C38.5396 18.9772 38.4472 19.3161 38.3085 19.5934C37.9389 20.3173 37.1687 20.7949 36.2907 20.7949Z" fill="white"/>
<path d="M16.4203 11.5835V13.817C16.4203 13.817 17.5602 13.971 17.7758 15.0801V22.9667H20.3174V15.0801V15.0185C20.1634 13.9094 19.501 13.0776 19.501 13.0776C18.0531 11.3678 16.4203 11.5835 16.4203 11.5835Z" fill="white"/>
<defs>
<linearGradient id="paint0_linear_25_36" x1="23.9728" y1="43.0075" x2="23.9728" y2="0.00432666" gradientUnits="userSpaceOnUse">
<stop stop-color="#00D44D"/>
<stop offset="1" stop-color="#00E56D"/>
</linearGradient>
</defs>
</svg>
