<svg width="108" height="108" viewBox="0 0 108 108" fill="none" xmlns="http://www.w3.org/2000/svg">
<g filter="url(#filter0_d_31_91)">
<circle cx="54" cy="54" r="44" fill="#088EE2"/>
<path d="M39.7242 67.2665V66.0951H47.9028V67.2665H44.4737V77H43.1532V67.2665H39.7242ZM58.6879 71.5476C58.6879 72.6977 58.4802 73.6916 58.0649 74.5294C57.6496 75.3671 57.0798 76.0132 56.3557 76.4675C55.6315 76.9219 54.8044 77.1491 53.8744 77.1491C52.9444 77.1491 52.1173 76.9219 51.3931 76.4675C50.669 76.0132 50.0992 75.3671 49.6839 74.5294C49.2686 73.6916 49.0609 72.6977 49.0609 71.5476C49.0609 70.3974 49.2686 69.4035 49.6839 68.5658C50.0992 67.728 50.669 67.082 51.3931 66.6276C52.1173 66.1732 52.9444 65.946 53.8744 65.946C54.8044 65.946 55.6315 66.1732 56.3557 66.6276C57.0798 67.082 57.6496 67.728 58.0649 68.5658C58.4802 69.4035 58.6879 70.3974 58.6879 71.5476ZM57.41 71.5476C57.41 70.6033 57.252 69.8064 56.9361 69.1568C56.6237 68.5072 56.1995 68.0155 55.6635 67.6819C55.131 67.3482 54.5347 67.1814 53.8744 67.1814C53.2141 67.1814 52.616 67.3482 52.08 67.6819C51.5475 68.0155 51.1233 68.5072 50.8074 69.1568C50.495 69.8064 50.3388 70.6033 50.3388 71.5476C50.3388 72.4918 50.495 73.2887 50.8074 73.9383C51.1233 74.5879 51.5475 75.0796 52.08 75.4133C52.616 75.7469 53.2141 75.9138 53.8744 75.9138C54.5347 75.9138 55.131 75.7469 55.6635 75.4133C56.1995 75.0796 56.6237 74.5879 56.9361 73.9383C57.252 73.2887 57.41 72.4918 57.41 71.5476ZM60.9082 77V66.0951H64.5929C65.4484 66.0951 66.1477 66.2495 66.6908 66.5584C67.2375 66.8637 67.6422 67.2772 67.9048 67.799C68.1675 68.3208 68.2989 68.903 68.2989 69.5455C68.2989 70.188 68.1675 70.7719 67.9048 71.2973C67.6457 71.8227 67.2446 72.2415 66.7015 72.5539C66.1583 72.8628 65.4626 73.0172 64.6142 73.0172H61.9732V71.8457H64.5716C65.1573 71.8457 65.6277 71.7446 65.9826 71.5422C66.3376 71.3399 66.595 71.0666 66.7547 70.7222C66.918 70.3744 66.9996 69.9821 66.9996 69.5455C66.9996 69.1089 66.918 68.7184 66.7547 68.3741C66.595 68.0297 66.3358 67.76 65.9773 67.5647C65.6188 67.3659 65.1431 67.2665 64.5503 67.2665H62.2288V77H60.9082Z" fill="white"/>
<path d="M53.8785 56V27M53.8785 27L45 35.4811M53.8785 27L62.7568 35.4811" stroke="white" stroke-width="1.84968" stroke-linecap="round" stroke-linejoin="round"/>
</g>
<defs>
<filter id="filter0_d_31_91" x="0" y="0" width="108" height="108" filterUnits="userSpaceOnUse" color-interpolation-filters="sRGB">
<feFlood flood-opacity="0" result="BackgroundImageFix"/>
<feColorMatrix in="SourceAlpha" type="matrix" values="0 0 0 0 0 0 0 0 0 0 0 0 0 0 0 0 0 0 127 0" result="hardAlpha"/>
<feOffset/>
<feGaussianBlur stdDeviation="5"/>
<feComposite in2="hardAlpha" operator="out"/>
<feColorMatrix type="matrix" values="0 0 0 0 0 0 0 0 0 0 0 0 0 0 0 0 0 0 0.1 0"/>
<feBlend mode="normal" in2="BackgroundImageFix" result="effect1_dropShadow_31_91"/>
<feBlend mode="normal" in="SourceGraphic" in2="effect1_dropShadow_31_91" result="shape"/>
</filter>
</defs>
</svg>
