<svg width="37" height="36" viewBox="0 0 37 36" fill="none" xmlns="http://www.w3.org/2000/svg">
<path d="M25.7829 22.9062C24.4282 22.9062 23.2768 22.423 22.3286 21.4565C21.3801 20.4901 20.9058 19.3166 20.9058 17.9359C20.9058 16.5552 21.3801 15.3815 22.3286 14.4148C23.2768 13.4484 24.4282 12.9651 25.7829 12.9651C27.1375 12.9651 28.2889 13.4484 29.2371 14.4148C30.1857 15.3815 30.6599 16.5552 30.6599 17.9359C30.6599 19.3166 30.1857 20.4901 29.2371 21.4565C28.2889 22.423 27.1375 22.9062 25.7829 22.9062ZM25.7829 21.183C26.6641 21.183 27.4154 20.8664 28.0368 20.2331C28.6584 19.5995 28.9693 18.8338 28.9693 17.9359C28.9693 17.0377 28.6584 16.272 28.0368 15.6387C27.4154 15.0051 26.6641 14.6883 25.7829 14.6883C24.9016 14.6883 24.1503 15.0051 23.529 15.6387C22.9073 16.272 22.5965 17.0377 22.5965 17.9359C22.5965 18.8338 22.9073 19.5995 23.529 20.2331C24.1503 20.8664 24.9016 21.183 25.7829 21.183ZM14.5657 36V31.2139C14.5657 30.7171 14.6813 30.2497 14.9123 29.8117C15.1434 29.3737 15.4669 29.0246 15.8829 28.7644C16.8614 28.163 17.8759 27.6728 18.9266 27.2937C19.9773 26.9147 21.0502 26.6341 22.1453 26.4521L25.7829 31.2322L29.3798 26.4521C30.4999 26.6341 31.5898 26.9147 32.6497 27.2937C33.7092 27.6728 34.7338 28.1614 35.7235 28.7595C36.1409 29.0162 36.4512 29.3612 36.6545 29.7945C36.8577 30.2278 36.9729 30.6855 37 31.1676V36H14.5657ZM16.2564 34.2768H25.99L21.4912 28.3987C20.5469 28.6134 19.6286 28.8922 18.7364 29.235C17.8446 29.5778 17.0179 30.002 16.2564 30.5074V34.2768ZM25.5758 34.2768H35.3093V30.5074C34.5207 30.0296 33.6768 29.6175 32.7775 29.2711C31.8779 28.9243 30.9634 28.6473 30.0339 28.4402L25.5758 34.2768ZM2.99726 31.8784C2.15333 31.8784 1.44271 31.5799 0.865417 30.9829C0.288472 30.3859 0 29.6681 0 28.8295V3.04891C0 2.21031 0.292875 1.49251 0.878625 0.895504C1.46438 0.298501 2.16865 0 2.99145 0H28.2861C29.1089 0 29.8132 0.298501 30.399 0.895504C30.9847 1.49251 31.2776 2.21031 31.2776 3.04891V8.90173C30.993 8.70572 30.7031 8.57451 30.4079 8.50809C30.1124 8.44168 29.8387 8.30634 29.5869 8.10207V3.04891C29.5869 2.66228 29.465 2.34457 29.2213 2.09579C28.9772 1.84737 28.6655 1.72316 28.2861 1.72316H2.99145C2.6121 1.72316 2.30038 1.84737 2.05629 2.09579C1.81255 2.34457 1.69068 2.66228 1.69068 3.04891V28.8295C1.69068 29.2161 1.81255 29.5339 2.05629 29.7826C2.30038 30.0311 2.6121 30.1553 2.99145 30.1553H9.36795C9.2732 30.31 9.21086 30.4766 9.18092 30.655C9.15098 30.8338 9.13601 31.0124 9.13601 31.1908V31.8784H2.99726ZM6.55138 8.89742H21.0236C21.5329 8.48601 22.1046 8.16633 22.7386 7.93837C23.3726 7.71077 24.0351 7.56933 24.7262 7.51404V7.17426H6.55138V8.89742ZM6.55138 16.8008H15.6795C15.6633 16.5136 15.674 16.2243 15.7117 15.9327C15.7497 15.6416 15.7932 15.3566 15.8422 15.0776H6.55138V16.8008ZM6.55138 24.7042H12.1438C12.6098 24.3369 13.1054 24.0081 13.6306 23.7177C14.1554 23.4276 14.692 23.1779 15.2404 22.9686V22.981H6.55138V24.7042ZM1.69068 30.1553V1.72316V8.14354V7.43112V30.1553Z" fill="#333333"/>
</svg>
