<svg width="590" height="815" viewBox="0 0 590 815" fill="none" xmlns="http://www.w3.org/2000/svg">
<rect width="590" height="815" fill="white"/>
<path d="M45 0H545V197C545 208.046 536.046 217 525 217H65C53.9543 217 45 208.046 45 197V0Z" fill="#E1EBEF"/>
<mask id="mask0_49_10" style="mask-type:alpha" maskUnits="userSpaceOnUse" x="45" y="0" width="500" height="217">
<path d="M45 0H545V197C545 208.046 536.046 217 525 217H65C53.9543 217 45 208.046 45 197V0Z" fill="#E1EBEF"/>
</mask>
<g mask="url(#mask0_49_10)">
<g style="mix-blend-mode:multiply">
<path d="M461.21 -73.6455H498.565V-30.5439H461.21V6.81055H418.109V-30.5439H380.754V-73.6455H418.109V-111H461.21V-73.6455Z" fill="#C1D4DA"/>
<path d="M482.642 3.76852H500.864V24.7939H482.642V43.0156H461.617V24.7939H443.395V3.76852H461.617V-14.4532H482.642V3.76852Z" fill="#C1D4DA" fill-opacity="0.4"/>
<path d="M438.433 122.686H468.681V157.587H438.433V187.835H403.531V157.587H373.283V122.686H403.531V92.438H438.433V122.686Z" fill="white" fill-opacity="0.2"/>
<path d="M508.544 192.223H538.792V227.124H508.544V257.372H473.643V227.124H443.395V192.223H473.643V161.975H508.544V192.223Z" fill="#C1D4DA" fill-opacity="0.4"/>
<path d="M445.904 232.451H476.152V267.352H445.904V297.6H411.002V267.352H380.754V232.451H411.002V202.203H445.904V232.451Z" fill="#C1D4DA" fill-opacity="0.2"/>
<path d="M396.144 33.3718H427.303V69.325H396.144V100.483H360.192V69.325H329.033V33.3718H360.192V2.21266H396.144V33.3718Z" fill="#C1D4DA" fill-opacity="0.6"/>
<path d="M517.978 102.334H549.137L549.136 138.287H517.978V169.445H482.025V138.287H450.866V102.334H482.025V71.1747H517.978V102.334Z" fill="#C1D4DA"/>
<path d="M458.477 61.8395H468.681V73.614H458.477V83.8181H446.703V73.614H436.499V61.8395H446.703V51.6354H458.477V61.8395Z" fill="#C1D4DA" fill-opacity="0.6"/>
<path d="M421.978 156.204H432.183V167.979H421.978V178.183H410.204V167.979H400V156.204H410.204V146H421.978V156.204Z" fill="#C1D4DA" fill-opacity="0.2"/>
</g>
</g>
<circle cx="295" cy="521" r="140" stroke="#C5C5C5" stroke-width="5" stroke-linecap="round" stroke-dasharray="1 20"/>
<circle cx="296" cy="521" r="63" fill="#EAEAEA"/>
<circle cx="296" cy="521" r="80" stroke="#EAEAEA" stroke-width="6"/>
<g clip-path="url(#clip0_49_10)">
<path d="M291.721 545.435C274.811 545.035 261.148 542.8 261.205 540.443C261.241 538.967 266.661 537.793 274.864 537.222L274.862 537C264.463 537.552 257.328 538.989 257.282 540.839C257.218 543.485 271.644 545.972 289.504 546.396C306.642 546.802 320.709 545.159 321.873 542.687C319.118 544.593 306.651 545.789 291.721 545.435Z" fill="#909090"/>
<path d="M298.097 522.435L292.88 531.843C292.613 532.324 291.921 532.285 291.71 531.778L277.778 498.559C277.595 498.122 277.91 497.635 278.38 497.635H287.542C287.804 497.635 288.04 497.793 288.144 498.039L298.128 521.848C298.207 522.039 298.196 522.254 298.097 522.435Z" fill="#004A8C"/>
<path d="M314.548 522.435L309.331 531.843C309.065 532.324 308.373 532.285 308.161 531.778L294.229 498.559C294.046 498.122 294.361 497.635 294.831 497.635H303.993C304.255 497.635 304.491 497.793 304.595 498.039L314.581 521.85C314.661 522.039 314.65 522.254 314.548 522.435Z" fill="#004A8C"/>
<path d="M326.151 497.635H317.026C316.79 497.635 316.572 497.765 316.455 497.974L312.847 504.489C312.748 504.67 312.737 504.885 312.816 505.074L317.044 515.152C317.26 515.667 317.969 515.696 318.225 515.198L326.73 498.604C326.957 498.163 326.64 497.635 326.151 497.635Z" fill="#008EC6"/>
<path d="M328.375 519.261C328.212 519.37 328.17 519.585 328.276 519.748C331.725 525.065 332.834 530.315 330.868 534.457C326.409 543.854 307.626 544.472 288.913 535.835C270.2 527.2 258.647 512.58 263.105 503.18C265.133 498.909 270.167 496.354 276.815 495.648C276.985 495.63 277.112 495.489 277.11 495.322C277.108 495.143 276.956 495 276.775 495C267.701 495.057 260.701 497.872 258.087 503.383C253.086 513.922 265.819 530.702 286.762 540.37C307.705 550.037 328.926 548.928 333.927 538.389C336.481 533.004 334.348 526.096 328.862 519.335C328.745 519.189 328.531 519.157 328.375 519.261Z" fill="#008EC6"/>
<path d="M275.73 501.341L274.401 497.75C274.366 497.654 274.26 497.602 274.163 497.63C269.784 498.852 266.566 501.089 265.153 504.296C263.174 508.778 265.091 514.298 269.781 519.596C269.907 519.737 270.127 519.567 270.019 519.413C267.134 515.298 266.154 511.148 267.692 507.663C268.962 504.787 271.781 502.75 275.602 501.589C275.708 501.557 275.768 501.443 275.73 501.341Z" fill="#004A8C"/>
<path d="M325.968 518.396C325.968 518.396 324.694 516.493 322.13 513.911C322.058 513.839 321.934 513.854 321.888 513.946L320.037 517.457C320.006 517.515 320.017 517.585 320.063 517.63C320.332 517.896 321.286 518.896 322.882 521.233C325.525 525.257 326.464 529.265 325.137 532.639C323.744 536.183 320.089 538.45 315.108 539.37C314.921 539.404 314.956 539.678 315.146 539.665C322.252 539.157 327.55 536.565 329.34 532.009C330.911 528.022 329.532 523.193 325.968 518.396Z" fill="#004A8C"/>
</g>
<path d="M371.91 351.955C371.91 394.456 337.456 428.91 294.955 428.91C252.454 428.91 218 394.456 218 351.955C218 309.454 252.454 275 294.955 275C337.456 275 371.91 309.454 371.91 351.955Z" fill="#31C7FF"/>
<path d="M289.045 324.702C290.149 324.702 291.076 324.325 291.826 323.569C292.577 322.814 292.952 321.885 292.952 320.781C292.952 319.678 292.575 318.751 291.819 318C291.064 317.25 290.135 316.875 289.031 316.875C287.928 316.875 287.001 317.252 286.25 318.007C285.5 318.762 285.125 319.691 285.125 320.795C285.125 321.899 285.502 322.826 286.257 323.576C287.012 324.327 287.941 324.702 289.045 324.702ZM289.115 335.702C290.567 335.702 291.98 335.44 293.354 334.915C294.727 334.39 295.973 333.633 297.09 332.643C295.682 331.951 294.312 331.442 292.978 331.115C291.643 330.788 290.347 330.625 289.091 330.625C287.518 330.625 286.02 330.797 284.597 331.141C283.174 331.486 282.001 331.987 281.076 332.643C282.194 333.626 283.442 334.381 284.818 334.91C286.194 335.438 287.626 335.702 289.115 335.702ZM317.526 356.485L302.577 341.537C300.588 343.18 298.501 344.451 296.318 345.352C294.135 346.252 291.704 346.702 289.025 346.702C283.339 346.702 278.517 344.724 274.56 340.766C270.603 336.81 268.625 331.983 268.625 326.288C268.625 320.593 270.603 315.767 274.56 311.81C278.517 307.853 283.343 305.875 289.038 305.875C294.734 305.875 299.56 307.853 303.516 311.81C307.474 315.767 309.452 320.589 309.452 326.274C309.452 328.954 309.002 331.394 308.102 333.594C307.201 335.795 305.93 337.891 304.287 339.88L319.182 354.776L317.526 356.485ZM289.062 344.375C294.057 344.375 298.317 342.606 301.84 339.067C305.363 335.528 307.125 331.261 307.125 326.266C307.125 321.27 305.365 317.01 301.844 313.487C298.323 309.964 294.055 308.202 289.038 308.202C284.058 308.202 279.798 309.962 276.26 313.483C272.721 317.004 270.952 321.272 270.952 326.288C270.952 331.269 272.721 335.528 276.26 339.067C279.798 342.606 284.066 344.375 289.062 344.375Z" fill="white"/>
<path d="M274.293 372.102V384.855H272.105V372.102H274.293ZM274.781 387.629V389.387H262.613V383.566H264.801V387.629H274.781ZM264.664 373.254C267.34 373.254 269.41 375.109 269.41 377.668C269.41 380.285 267.34 382.102 264.664 382.102C261.969 382.102 259.898 380.285 259.898 377.668C259.898 375.109 261.969 373.254 264.664 373.254ZM264.664 375.148C263.16 375.148 262.008 376.145 262.027 377.668C262.008 379.23 263.16 380.207 264.664 380.207C266.129 380.207 267.281 379.23 267.281 377.668C267.281 376.145 266.129 375.148 264.664 375.148ZM292.965 380.305V382.062H276.871V380.305H292.965ZM284.898 383.234C288.707 383.234 290.992 384.426 291.012 386.477C290.992 388.547 288.707 389.719 284.898 389.719C281.051 389.719 278.746 388.547 278.746 386.477C278.746 384.426 281.051 383.234 284.898 383.234ZM284.898 384.934C282.32 384.934 280.934 385.461 280.953 386.477C280.934 387.492 282.32 388.02 284.898 388.02C287.418 388.02 288.824 387.492 288.844 386.477C288.824 385.461 287.418 384.934 284.898 384.934ZM291.52 372.922V374.699H286.422C286.744 376.164 288.863 377.482 292.203 377.805L291.441 379.523C288.238 379.182 285.855 377.922 284.898 376.125C283.941 377.912 281.598 379.182 278.395 379.523L277.652 377.805C280.924 377.482 283.053 376.164 283.395 374.699H278.336V372.922H291.52ZM303.355 373.547C303.355 375.773 305.836 378.02 309.605 378.508L308.746 380.266C305.748 379.816 303.365 378.342 302.223 376.34C301.061 378.342 298.688 379.816 295.719 380.266L294.859 378.508C298.59 378.02 301.07 375.773 301.07 373.547V372.648H303.355V373.547ZM310.25 381.789V383.586H303.238V389.738H301.09V383.586H294.156V381.789H310.25ZM320.582 373.156C320.562 377.707 317.574 380.891 312.438 382.336L311.559 380.637C315.514 379.553 317.857 377.492 318.258 374.914H312.516V373.156H320.582ZM326.227 372.102V382.043H324.059V378.195H320.66V376.418H324.059V372.102H326.227ZM326.227 382.746V389.504H314.605V382.746H326.227ZM316.734 384.465V387.785H324.078V384.465H316.734Z" fill="white"/>
<path d="M479.756 542.164C439.335 555.298 395.921 533.177 382.787 492.756C369.654 452.335 391.774 408.921 432.195 395.787C472.616 382.654 516.031 404.774 529.164 445.195C542.298 485.616 520.177 529.031 479.756 542.164Z" fill="#0095FF"/>
<path d="M434.25 462.394V460.068H460.534V462.394H434.25ZM434.25 449.015V446.688H446.519V449.015H434.25ZM434.25 435.635V433.307H446.519V435.635H434.25ZM482.093 462.5L471.266 451.831C470.257 452.62 469.159 453.229 467.972 453.659C466.784 454.088 465.556 454.303 464.288 454.303C461.201 454.303 458.57 453.235 456.394 451.101C454.218 448.966 453.13 446.358 453.13 443.276C453.13 440.195 454.219 437.587 456.397 435.452C458.576 433.317 461.21 432.25 464.301 432.25C467.392 432.25 470.022 433.317 472.192 435.452C474.362 437.587 475.447 440.186 475.447 443.25C475.447 444.518 475.232 445.746 474.803 446.934C474.373 448.121 473.747 449.201 472.923 450.175L483.75 460.843L482.093 462.5ZM464.278 451.976C466.747 451.976 468.839 451.133 470.551 449.446C472.264 447.76 473.12 445.707 473.12 443.287C473.12 440.867 472.267 438.81 470.562 437.117C468.857 435.424 466.769 434.577 464.299 434.577C461.829 434.577 459.738 435.42 458.026 437.107C456.313 438.793 455.457 440.846 455.457 443.266C455.457 445.686 456.309 447.742 458.015 449.435C459.72 451.129 461.808 451.976 464.278 451.976Z" fill="white"/>
<path d="M428.742 486.082V503.738H426.652V494.676H424.758V502.918H422.727V486.551H424.758V492.918H426.652V486.082H428.742ZM421.223 488.309C421.223 493.074 419.719 497.176 414.699 500.047L413.449 498.543C417.209 496.365 418.801 493.572 419.113 490.047H414.27V488.309H421.223ZM437.297 489.207C437.297 491.551 438.703 493.836 441.438 494.773L440.246 496.473C438.342 495.75 436.975 494.373 436.242 492.645C435.471 494.578 434.035 496.111 431.965 496.883L430.812 495.164C433.645 494.207 435.09 491.766 435.109 489.188V487.176H437.297V489.207ZM445.656 486.102V499.207H443.488V491.766H439.973V489.988H443.488V486.102H445.656ZM446.047 501.629V503.387H434.016V497.781H436.223V501.629H446.047ZM462.082 486.082V491.258H464.543V493.055H462.082V498.992H459.914V486.082H462.082ZM462.785 501.629V503.387H450.773V497.645H452.941V501.629H462.785ZM453.117 487.254C455.793 487.254 457.863 489.109 457.883 491.707C457.863 494.266 455.793 496.141 453.117 496.141C450.441 496.141 448.332 494.266 448.352 491.707C448.332 489.109 450.441 487.254 453.117 487.254ZM453.117 489.148C451.633 489.148 450.461 490.145 450.48 491.707C450.461 493.23 451.633 494.227 453.117 494.227C454.602 494.227 455.754 493.23 455.754 491.707C455.754 490.145 454.602 489.148 453.117 489.148ZM479.777 487.156C479.758 491.707 476.77 494.891 471.633 496.336L470.754 494.637C474.709 493.553 477.053 491.492 477.453 488.914H471.711V487.156H479.777ZM485.422 486.102V496.043H483.254V492.195H479.855V490.418H483.254V486.102H485.422ZM485.422 496.746V503.504H473.801V496.746H485.422ZM475.93 498.465V501.785H483.273V498.465H475.93ZM502.277 494.969V496.707H497.062V499.93H504.055V501.668H487.922V499.93H494.875V496.707H489.895V487.391H502.121V489.148H492.102V491.141H501.711V492.859H492.102V494.969H502.277Z" fill="white"/>
<path d="M332.703 703.193C307.721 668.809 315.343 620.684 349.727 595.703C384.112 570.721 432.237 578.343 457.218 612.727C482.2 647.112 474.577 695.237 440.193 720.218C405.809 745.2 357.684 737.577 332.703 703.193Z" fill="#0066FF"/>
<path d="M394.485 661.423C398.036 661.423 401.059 660.18 403.555 657.694C406.05 655.209 407.298 652.191 407.298 648.64C407.298 645.089 406.055 642.066 403.569 639.57C401.084 637.075 398.066 635.827 394.515 635.827C390.964 635.827 387.941 637.07 385.445 639.555C382.95 642.041 381.702 645.059 381.702 648.61C381.702 652.161 382.945 655.184 385.43 657.68C387.916 660.175 390.934 661.423 394.485 661.423ZM386.206 635.996C387.194 635.324 388.254 634.793 389.386 634.401C390.518 634.009 391.7 633.736 392.933 633.581L386.476 620.807H378.621L386.206 635.996ZM402.794 635.996L410.438 620.807H402.524L396.578 632.64L397.102 633.722C398.143 633.912 399.139 634.195 400.09 634.569C401.041 634.944 401.942 635.419 402.794 635.996ZM381.73 658.581C381.651 658.231 381.635 657.823 381.683 657.358C381.731 656.892 381.86 656.396 382.072 655.87C381.226 654.392 380.649 652.814 380.34 651.136C380.032 649.458 380.019 647.741 380.302 645.984C380.302 644.609 380.54 643.305 381.016 642.071C381.492 640.837 382.153 639.726 383 638.739C382.144 638.824 381.388 639.097 380.731 639.558C380.074 640.019 379.639 640.591 379.428 641.274C377.383 641.957 375.869 643.258 374.887 645.176C373.904 647.094 373.735 649.113 374.379 651.231C374.379 653.299 375.093 655.041 376.521 656.457C377.949 657.873 379.685 658.581 381.73 658.581ZM407.27 658.581C409.959 658.508 412.24 657.513 414.113 655.594C415.986 653.676 416.923 651.353 416.923 648.625C416.923 645.897 415.986 643.574 414.113 641.656C412.24 639.737 409.959 638.73 407.27 638.634C407.058 638.634 406.847 638.648 406.635 638.678C406.424 638.707 406.212 638.727 406.001 638.739C407.13 640.108 408.016 641.626 408.66 643.291C409.303 644.957 409.625 646.735 409.625 648.625C409.625 650.515 409.303 652.293 408.66 653.959C408.016 655.624 407.13 657.13 406.001 658.475C406.212 658.511 406.424 658.537 406.635 658.555C406.847 658.573 407.058 658.581 407.27 658.581ZM394.5 663.75C392.737 663.75 391.072 663.478 389.505 662.933C387.938 662.388 386.514 661.605 385.235 660.582C384.751 660.744 384.242 660.854 383.706 660.913C383.17 660.971 382.62 661 382.056 661C378.661 661 375.761 659.798 373.357 657.393C370.952 654.989 369.75 652.089 369.75 648.694C369.75 645.341 370.921 642.473 373.262 640.09C375.602 637.706 378.439 636.478 381.771 636.403C382.159 636.403 382.529 636.43 382.881 636.482C383.234 636.536 383.586 636.597 383.939 636.668L374.827 618.481H387.943L394.5 631.596L401.057 618.481H414.173L405.182 636.478C405.5 636.407 405.826 636.354 406.161 636.319C406.496 636.283 406.84 636.266 407.193 636.266C410.56 636.351 413.411 637.585 415.746 639.968C418.082 642.351 419.25 645.237 419.25 648.625C419.25 652.066 418.048 654.989 415.643 657.393C413.239 659.798 410.316 661 406.875 661C406.321 661 405.783 660.971 405.259 660.913C404.736 660.854 404.233 660.744 403.75 660.582C402.47 661.569 401.049 662.344 399.487 662.906C397.925 663.469 396.263 663.75 394.5 663.75ZM390.206 654.918L391.813 649.614L387.519 646.552H392.824L394.5 640.957L396.176 646.552H401.481L397.187 649.614L398.794 654.918L394.5 651.65L390.206 654.918Z" fill="white"/>
<path d="M373.293 679.102V691.855H371.105V679.102H373.293ZM373.781 694.629V696.387H361.613V690.566H363.801V694.629H373.781ZM363.664 680.254C366.34 680.254 368.41 682.109 368.41 684.668C368.41 687.285 366.34 689.102 363.664 689.102C360.969 689.102 358.898 687.285 358.898 684.668C358.898 682.109 360.969 680.254 363.664 680.254ZM363.664 682.148C362.16 682.148 361.008 683.145 361.027 684.668C361.008 686.23 362.16 687.207 363.664 687.207C365.129 687.207 366.281 686.23 366.281 684.668C366.281 683.145 365.129 682.148 363.664 682.148ZM391.965 687.305V689.062H375.871V687.305H391.965ZM383.898 690.234C387.707 690.234 389.992 691.426 390.012 693.477C389.992 695.547 387.707 696.719 383.898 696.719C380.051 696.719 377.746 695.547 377.746 693.477C377.746 691.426 380.051 690.234 383.898 690.234ZM383.898 691.934C381.32 691.934 379.934 692.461 379.953 693.477C379.934 694.492 381.32 695.02 383.898 695.02C386.418 695.02 387.824 694.492 387.844 693.477C387.824 692.461 386.418 691.934 383.898 691.934ZM390.52 679.922V681.699H385.422C385.744 683.164 387.863 684.482 391.203 684.805L390.441 686.523C387.238 686.182 384.855 684.922 383.898 683.125C382.941 684.912 380.598 686.182 377.395 686.523L376.652 684.805C379.924 684.482 382.053 683.164 382.395 681.699H377.336V679.922H390.52ZM404.23 680.488V682.09H393.781V680.488H397.902V678.984H400.07V680.488H404.23ZM399.016 682.598C401.594 682.578 403.352 683.613 403.352 685.254C403.352 686.641 402.062 687.568 400.07 687.812V688.75C401.564 688.682 403.059 688.555 404.465 688.379L404.621 689.863C400.832 690.508 396.652 690.566 393.527 690.566L393.234 688.887C394.641 688.896 396.242 688.887 397.902 688.828V687.793C395.9 687.559 394.641 686.631 394.66 685.254C394.641 683.613 396.379 682.578 399.016 682.598ZM399.016 684.062C397.629 684.043 396.73 684.473 396.75 685.254C396.73 685.977 397.629 686.406 399.016 686.387C400.363 686.406 401.262 685.977 401.281 685.254C401.262 684.473 400.363 684.043 399.016 684.062ZM407.883 679.121V690.996H405.695V679.121H407.883ZM407.883 691.719V696.738H405.695V693.418H395.734V691.719H407.883ZM426.555 687.5V689.258H410.441V687.5H426.555ZM424.602 690.977V696.777H422.453V692.715H412.219V690.977H424.602ZM424.758 684.18V685.918H412.414V679.707H424.602V681.445H414.582V684.18H424.758Z" fill="white"/>
<path d="M133.703 612.727C158.684 578.343 206.809 570.721 241.193 595.703C275.577 620.684 283.2 668.809 258.218 703.193C233.237 737.577 185.111 745.2 150.727 720.218C116.343 695.237 108.721 647.111 133.703 612.727Z" fill="#203DB3"/>
<path d="M209.25 639.784C207.487 639.784 205.989 639.167 204.755 637.932C203.521 636.699 202.904 635.2 202.904 633.438C202.904 631.675 203.521 630.176 204.755 628.943C205.989 627.708 207.487 627.091 209.25 627.091C211.013 627.091 212.511 627.708 213.745 628.943C214.979 630.176 215.596 631.675 215.596 633.438C215.596 635.2 214.979 636.699 213.745 637.932C212.511 639.167 211.013 639.784 209.25 639.784ZM209.25 637.457C210.383 637.457 211.336 637.07 212.109 636.297C212.883 635.524 213.269 634.571 213.269 633.438C213.269 632.305 212.883 631.351 212.109 630.578C211.336 629.805 210.383 629.418 209.25 629.418C208.117 629.418 207.164 629.805 206.391 630.578C205.617 631.351 205.231 632.305 205.231 633.438C205.231 634.571 205.617 635.524 206.391 636.297C207.164 637.07 208.117 637.457 209.25 637.457ZM194.654 656.019V649.948C194.654 649.318 194.804 648.726 195.105 648.171C195.405 647.616 195.826 647.174 196.368 646.844C197.589 646.118 198.869 645.504 200.207 645.001C201.546 644.499 202.91 644.108 204.3 643.829L209.25 650.371L214.147 643.829C215.554 644.108 216.925 644.499 218.26 645.001C219.595 645.504 220.88 646.118 222.117 646.844C222.66 647.171 223.075 647.61 223.362 648.158C223.65 648.706 223.811 649.285 223.846 649.895V656.019H194.654ZM196.922 653.693H208.823L203.387 646.51C202.232 646.818 201.119 647.193 200.048 647.636C198.979 648.079 197.937 648.584 196.922 649.151V653.693ZM209.712 653.693H221.519V649.151C220.508 648.58 219.464 648.083 218.386 647.661C217.308 647.238 216.203 646.873 215.071 646.563L209.712 653.693ZM177.545 652C176.432 652 175.48 651.602 174.688 650.806C173.896 650.01 173.5 649.068 173.5 647.981V612.019C173.5 610.932 173.898 609.99 174.694 609.194C175.49 608.398 176.432 608 177.519 608H213.481C214.568 608 215.51 608.398 216.306 609.194C217.102 609.99 217.5 610.932 217.5 612.019V623.164C217.166 622.8 216.81 622.464 216.432 622.157C216.053 621.85 215.634 621.564 215.173 621.299V612.019C215.173 611.526 215.014 611.12 214.697 610.803C214.38 610.486 213.974 610.327 213.481 610.327H177.519C177.026 610.327 176.62 610.486 176.303 610.803C175.986 611.12 175.827 611.526 175.827 612.019V647.981C175.827 648.474 175.986 648.88 176.303 649.197C176.62 649.514 177.026 649.673 177.519 649.673H187.423C187.436 649.713 187.446 649.765 187.452 649.828C187.459 649.891 187.462 649.931 187.462 649.948V652H177.545ZM183.125 620.587H204.818C205.326 620.422 205.832 620.302 206.334 620.225C206.838 620.149 207.351 620.075 207.875 620.005V618.26H183.125V620.587ZM183.125 631.163H195.976C196.046 630.748 196.126 630.35 196.214 629.967C196.302 629.584 196.406 629.207 196.524 628.837H183.125V631.163ZM183.125 641.74H191.237C191.796 641.311 192.367 640.917 192.95 640.556C193.534 640.195 194.148 639.876 194.793 639.599V639.413H183.125V641.74ZM175.827 649.673V610.327V621.293V619.899V649.673Z" fill="white"/>
<path d="M157.727 678.188V679.945H150.734V681.41C153.898 681.625 155.754 682.719 155.773 684.555C155.754 686.586 153.469 687.719 149.66 687.719C145.812 687.719 143.508 686.586 143.508 684.555C143.508 682.719 145.383 681.615 148.586 681.41V679.945H141.633V678.188H157.727ZM149.66 683.051C147.082 683.07 145.695 683.578 145.715 684.555C145.695 685.531 147.082 686.059 149.66 686.059C152.18 686.059 153.586 685.531 153.605 684.555C153.586 683.578 152.18 683.07 149.66 683.051ZM156.281 670.863V672.602H151.203C151.545 674.057 153.654 675.365 156.965 675.668L156.203 677.387C153 677.064 150.617 675.785 149.66 673.988C148.703 675.775 146.359 677.064 143.156 677.387L142.414 675.668C145.656 675.365 147.766 674.037 148.137 672.602H143.098V670.863H156.281ZM172.844 670.082V675.16H175.305V676.977H172.844V682.816H170.637V670.082H172.844ZM168.039 671.43C168.039 676.117 164.992 679.457 159.758 680.98L158.859 679.262C162.893 678.1 165.295 675.902 165.676 673.207H159.602V671.43H168.039ZM173.508 685.629V687.387H161.496V681.508H163.703V685.629H173.508ZM182.531 675.102C182.531 677.836 184.152 680.941 186.945 682.23L185.734 683.949C183.742 683.012 182.268 681.117 181.477 678.91C180.676 681.332 179.133 683.402 177.102 684.379L175.832 682.68C178.645 681.352 180.344 678.031 180.363 675.102V673.617H176.516V671.82H186.223V673.617H182.531V675.102ZM190.031 670.082V676.957H192.746V678.773H190.031V687.738H187.863V670.082H190.031ZM198.879 675.473C198.879 678.207 200.012 680.961 202.473 682.289L201.262 683.891C199.621 683.021 198.508 681.469 197.883 679.613C197.258 681.615 196.145 683.324 194.484 684.301L193.215 682.66C195.715 681.215 196.828 678.266 196.828 675.473V674.926H193.82V673.168H196.828V670.707H198.879V673.168H201.828V674.926H198.879V675.473ZM208.684 670.082V687.738H206.613V670.082H208.684ZM205.09 670.414V686.879H203.039V678.656H200.734V676.859H203.039V670.414H205.09ZM226.906 683.832V685.609H210.773V683.832H217.746V679.77H219.914V683.832H226.906ZM225.52 671.508V673.285H219.953C220.021 675.824 222.639 678.158 226.262 678.695L225.402 680.414C222.414 679.867 219.973 678.295 218.84 676.098C217.697 678.324 215.275 679.955 212.336 680.512L211.477 678.793C215.002 678.197 217.6 675.824 217.668 673.285H212.121V671.508H225.52ZM234.367 674.32C234.348 677.465 235.93 680.668 238.664 681.977L237.336 683.715C235.422 682.748 234.045 680.883 233.293 678.637C232.521 681.039 231.076 683.031 229.055 684.047L227.727 682.309C230.559 680.961 232.18 677.582 232.199 674.32V671.508H234.367V674.32ZM241.887 670.082V676.996H244.602V678.852H241.887V687.738H239.719V670.082H241.887ZM185.461 699.102C185.461 701.992 187.16 705.039 190.012 706.23L188.82 707.949C186.73 707.051 185.207 705.195 184.406 702.949C183.586 705.371 182.043 707.402 179.973 708.379L178.723 706.68C181.516 705.391 183.254 702.109 183.254 699.102V697.617H179.367V695.82H189.328V697.617H185.461V699.102ZM193.488 694.082V711.738H191.301V694.082H193.488ZM210.891 694.102V707.461H208.703V705.918H205.246V704.395H208.703V694.102H210.891ZM211.301 709.629V711.387H198.352V706.172H200.52V709.629H211.301ZM196.008 702.031C199.27 702.012 203.645 701.973 207.395 701.504L207.512 703.066C206.057 703.311 204.553 703.477 203.059 703.574V706.973H200.891V703.691C199.24 703.76 197.668 703.77 196.281 703.77L196.008 702.031ZM201.77 694.746C204.348 694.746 206.145 696.016 206.164 697.871C206.145 699.766 204.348 700.977 201.77 700.977C199.152 700.977 197.355 699.766 197.355 697.871C197.355 696.016 199.152 694.746 201.77 694.746ZM201.77 696.348C200.363 696.348 199.406 696.914 199.406 697.871C199.406 698.828 200.363 699.395 201.77 699.395C203.117 699.395 204.074 698.828 204.094 697.871C204.074 696.914 203.117 696.348 201.77 696.348Z" fill="white"/>
<path d="M157.756 395.787C198.177 408.921 220.298 452.335 207.164 492.756C194.031 533.177 150.616 555.298 110.195 542.164C69.7744 529.031 47.6537 485.616 60.7872 445.195C73.9208 404.774 117.335 382.654 157.756 395.787Z" fill="#001F6C"/>
<path d="M109.25 433.702V425.763C109.25 424.64 109.638 423.691 110.415 422.915C111.191 422.138 112.143 421.75 113.269 421.75H154.731C155.857 421.75 156.809 422.138 157.585 422.915C158.362 423.691 158.75 424.643 158.75 425.769V441H156.423V425.769C156.423 425.346 156.247 424.958 155.894 424.606C155.542 424.253 155.154 424.077 154.731 424.077H113.269C112.846 424.077 112.458 424.253 112.106 424.606C111.753 424.958 111.577 425.346 111.577 425.769V433.702H109.25ZM113.269 460.25C112.143 460.25 111.191 459.862 110.415 459.085C109.638 458.309 109.25 457.36 109.25 456.237V448.298H111.577V456.231C111.577 456.654 111.753 457.042 112.106 457.394C112.458 457.747 112.846 457.923 113.269 457.923H131.187V460.25H113.269ZM150.5 467.548L147.047 464.622C143.432 461.511 141.112 459.324 140.086 458.062C139.061 456.799 138.548 455.521 138.548 454.227C138.548 452.61 139.107 451.217 140.225 450.05C141.343 448.882 142.706 448.298 144.313 448.298C145.14 448.298 145.927 448.485 146.675 448.859C147.423 449.232 148.169 449.788 148.913 450.525L150.5 451.953L151.981 450.578C152.714 449.841 153.47 449.276 154.247 448.885C155.024 448.494 155.838 448.298 156.688 448.298C158.26 448.298 159.613 448.882 160.749 450.05C161.884 451.217 162.452 452.61 162.452 454.227C162.452 455.521 161.92 456.802 160.857 458.072C159.793 459.342 157.421 461.57 153.74 464.756L150.5 467.548ZM150.5 464.424L152.714 462.543C155.81 459.899 157.818 458.069 158.741 457.053C159.664 456.037 160.125 455.093 160.125 454.221C160.125 453.248 159.781 452.406 159.094 451.693C158.406 450.981 157.604 450.625 156.688 450.625C156.13 450.625 155.625 450.734 155.172 450.952C154.719 451.17 154.233 451.537 153.712 452.054L150.5 455.113L147.219 452.054C146.699 451.537 146.21 451.17 145.753 450.952C145.296 450.734 144.821 450.625 144.33 450.625C143.372 450.625 142.557 450.981 141.884 451.693C141.211 452.406 140.875 453.251 140.875 454.228C140.875 455.043 141.426 456.065 142.528 457.296C143.63 458.526 145.575 460.311 148.365 462.649L150.5 464.424ZM120.249 453.163C119.991 453.163 119.774 453.119 119.597 453.031C119.42 452.942 119.27 452.791 119.147 452.578L114.012 442.163H109.25V439.837H114.75C114.965 439.837 115.165 439.898 115.35 440.02C115.535 440.142 115.665 440.297 115.739 440.485L120.25 449.428L130.193 429.485C130.278 429.311 130.42 429.183 130.618 429.099C130.817 429.016 131.025 428.974 131.242 428.974C131.46 428.974 131.664 429.016 131.853 429.099C132.042 429.183 132.176 429.311 132.255 429.485L137.42 439.837H146.163V442.163H136.75C136.484 442.163 136.262 442.119 136.085 442.031C135.908 441.942 135.777 441.791 135.693 441.578L131.187 432.641L121.239 452.578C121.135 452.791 120.995 452.942 120.819 453.031C120.643 453.119 120.453 453.163 120.249 453.163Z" fill="white"/>
<path d="M98.8242 489.188V490.945H91.832V492.41C94.9961 492.625 96.8516 493.719 96.8711 495.555C96.8516 497.586 94.5664 498.719 90.7578 498.719C86.9102 498.719 84.6055 497.586 84.6055 495.555C84.6055 493.719 86.4805 492.615 89.6836 492.41V490.945H82.7305V489.188H98.8242ZM90.7578 494.051C88.1797 494.07 86.793 494.578 86.8125 495.555C86.793 496.531 88.1797 497.059 90.7578 497.059C93.2773 497.059 94.6836 496.531 94.7031 495.555C94.6836 494.578 93.2773 494.07 90.7578 494.051ZM97.3789 481.863V483.602H92.3008C92.6426 485.057 94.752 486.365 98.0625 486.668L97.3008 488.387C94.0977 488.064 91.7148 486.785 90.7578 484.988C89.8008 486.775 87.457 488.064 84.2539 488.387L83.5117 486.668C86.7539 486.365 88.8633 485.037 89.2344 483.602H84.1953V481.863H97.3789ZM113.941 481.082V486.16H116.402V487.977H113.941V493.816H111.734V481.082H113.941ZM109.137 482.43C109.137 487.117 106.09 490.457 100.855 491.98L99.957 490.262C103.99 489.1 106.393 486.902 106.773 484.207H100.699V482.43H109.137ZM114.605 496.629V498.387H102.594V492.508H104.801V496.629H114.605ZM132.086 481.102V494.539H129.918V491.062H127.301V489.324H129.918V487.352H127.301V485.594H129.918V481.102H132.086ZM127.203 483.055V484.793H117.34V483.055H121.285V481.082H123.453V483.055H127.203ZM122.34 485.516C124.742 485.516 126.461 486.922 126.48 488.953C126.461 490.984 124.742 492.391 122.34 492.391C119.957 492.391 118.238 490.984 118.258 488.953C118.238 486.922 119.957 485.516 122.34 485.516ZM122.34 487.215C121.129 487.234 120.27 487.879 120.289 488.953C120.27 490.066 121.129 490.711 122.34 490.711C123.551 490.711 124.43 490.066 124.43 488.953C124.43 487.879 123.551 487.234 122.34 487.215ZM132.477 496.629V498.387H120.445V493.387H122.652V496.629H132.477ZM140.914 484.266C140.914 486.434 142.32 488.465 145.074 489.305L144.039 491.004C142.057 490.389 140.65 489.129 139.879 487.527C139.098 489.383 137.604 490.857 135.484 491.57L134.391 489.852C137.242 488.914 138.727 486.629 138.727 484.285V484.07H134.996V482.312H144.586V484.07H140.914V484.266ZM148.512 481.082V485.32H150.973V487.098H148.512V491.609H146.344V481.082H148.512ZM142.77 492C146.422 492 148.668 493.23 148.688 495.34C148.668 497.469 146.422 498.719 142.77 498.719C139.078 498.719 136.793 497.469 136.793 495.34C136.793 493.23 139.078 492 142.77 492ZM142.77 493.699C140.348 493.699 138.961 494.266 138.961 495.34C138.961 496.434 140.348 497.02 142.77 497.02C145.191 497.02 146.539 496.434 146.539 495.34C146.539 494.266 145.191 493.699 142.77 493.699ZM168.004 494.832V496.609H151.871V494.832H158.844V490.77H161.012V494.832H168.004ZM166.617 482.508V484.285H161.051C161.119 486.824 163.736 489.158 167.359 489.695L166.5 491.414C163.512 490.867 161.07 489.295 159.938 487.098C158.795 489.324 156.373 490.955 153.434 491.512L152.574 489.793C156.1 489.197 158.697 486.824 158.766 484.285H153.219V482.508H166.617ZM175.465 485.32C175.445 488.465 177.027 491.668 179.762 492.977L178.434 494.715C176.52 493.748 175.143 491.883 174.391 489.637C173.619 492.039 172.174 494.031 170.152 495.047L168.824 493.309C171.656 491.961 173.277 488.582 173.297 485.32V482.508H175.465V485.32ZM182.984 481.082V487.996H185.699V489.852H182.984V498.738H180.816V481.082H182.984ZM123.961 510.102C123.961 512.992 125.66 516.039 128.512 517.23L127.32 518.949C125.23 518.051 123.707 516.195 122.906 513.949C122.086 516.371 120.543 518.402 118.473 519.379L117.223 517.68C120.016 516.391 121.754 513.109 121.754 510.102V508.617H117.867V506.82H127.828V508.617H123.961V510.102ZM131.988 505.082V522.738H129.801V505.082H131.988ZM149.391 505.102V518.461H147.203V516.918H143.746V515.395H147.203V505.102H149.391ZM149.801 520.629V522.387H136.852V517.172H139.02V520.629H149.801ZM134.508 513.031C137.77 513.012 142.145 512.973 145.895 512.504L146.012 514.066C144.557 514.311 143.053 514.477 141.559 514.574V517.973H139.391V514.691C137.74 514.76 136.168 514.77 134.781 514.77L134.508 513.031ZM140.27 505.746C142.848 505.746 144.645 507.016 144.664 508.871C144.645 510.766 142.848 511.977 140.27 511.977C137.652 511.977 135.855 510.766 135.855 508.871C135.855 507.016 137.652 505.746 140.27 505.746ZM140.27 507.348C138.863 507.348 137.906 507.914 137.906 508.871C137.906 509.828 138.863 510.395 140.27 510.395C141.617 510.395 142.574 509.828 142.594 508.871C142.574 507.914 141.617 507.348 140.27 507.348Z" fill="white"/>
<path d="M96.9141 156.129C96.9141 162.117 99.5391 168.639 106.102 171.305L102.943 175.939C98.5752 174.135 95.6836 170.607 94.002 166.301C92.3613 171.018 89.3877 174.914 84.9785 176.883L81.6152 172.248C88.1367 169.377 90.8848 162.486 90.8848 156.129V154.652H83.1738V149.854H104.461V154.652H96.9141V156.129ZM113.607 146.285V183.938H107.66V146.285H113.607ZM152.572 164.414V169.09H118.283V164.414H132.434V159.697H138.34V164.414H152.572ZM138.381 148.008C138.381 152.191 141.785 156.334 150.85 157.4L148.594 161.994C142.134 161.071 137.663 158.528 135.305 154.898C132.926 158.487 128.476 161.071 122.057 161.994L119.965 157.4C128.824 156.334 132.352 151.986 132.352 148.008V146.941H138.381V148.008ZM148.471 171.428V183.938H142.564V175.98H122.098V171.428H148.471ZM176.32 148.254V152.93H169.184C169.389 157.031 171.788 161.235 177.592 163.143L174.721 167.695C170.599 166.424 167.83 163.86 166.189 160.641C164.549 164.188 161.657 167.06 157.289 168.434L154.254 163.799C160.406 161.871 162.888 157.277 163.113 152.93H155.895V148.254H176.32ZM186.451 170.238V183.938H180.586V174.914H160.447V170.238H186.451ZM186.451 146.285V168.68H180.586V159.902H175.295V155.104H180.586V146.285H186.451ZM222.504 146.326V173.232H216.598V146.326H222.504ZM223.447 178.605V183.322H196.992V170.525H202.98V178.605H223.447ZM201.791 148.664C207.615 148.664 212.209 152.684 212.209 158.221C212.209 163.881 207.615 167.859 201.791 167.859C195.967 167.859 191.332 163.881 191.373 158.221C191.332 152.684 195.967 148.664 201.791 148.664ZM201.791 153.791C199.125 153.75 197.115 155.391 197.115 158.221C197.115 161.174 199.125 162.732 201.791 162.732C204.334 162.732 206.344 161.174 206.344 158.221C206.344 155.391 204.334 153.75 201.791 153.791ZM270.943 167.08V171.797H263.191V183.938H257.203V171.797H250.107V183.938H244.078V171.797H236.531V167.08H270.943ZM253.635 147.475C261.756 147.475 267.498 150.838 267.498 156.047C267.498 161.174 261.756 164.414 253.635 164.414C245.514 164.414 239.812 161.174 239.854 156.047C239.812 150.838 245.514 147.475 253.635 147.475ZM253.635 152.15C248.836 152.191 245.924 153.463 245.924 156.047C245.924 158.508 248.836 159.738 253.635 159.779C258.475 159.738 261.387 158.508 261.387 156.047C261.387 153.463 258.475 152.191 253.635 152.15ZM287.801 156.129C287.801 162.117 290.426 168.639 296.988 171.305L293.83 175.939C289.462 174.135 286.57 170.607 284.889 166.301C283.248 171.018 280.274 174.914 275.865 176.883L272.502 172.248C279.023 169.377 281.771 162.486 281.771 156.129V154.652H274.061V149.854H295.348V154.652H287.801V156.129ZM304.494 146.285V183.938H298.547V146.285H304.494ZM330.334 148.951V151.453C330.334 154.119 330.334 157.852 329.514 162.445L323.73 161.912C324.325 158.569 324.489 155.944 324.551 153.75H310.77V148.951H330.334ZM321.064 157.77V164.701C324.694 164.537 328.386 164.25 331.811 163.758L332.098 167.982C324.305 169.459 315.568 169.582 309.088 169.582L308.596 164.947C310.585 164.947 312.82 164.947 315.199 164.906V157.77H321.064ZM339.727 146.285V157.523H343.992V162.404H339.727V174.422H333.656V146.285H339.727ZM340.875 178.605V183.322H314.01V171.92H319.957V178.605H340.875ZM377.133 146.285V184.02H371.268V146.285H377.133ZM365.402 149.361V164.209H353.549V170.443C359.106 170.402 363.741 170.115 368.889 169.254L369.381 174.012C363.434 175.078 357.896 175.324 350.883 175.324H347.438V159.574H359.373V154.078H347.438V149.361H365.402Z" fill="#008FC5"/>
<path d="M91.3027 115.135C94.8574 115.135 97.3711 117.293 97.3711 120.441C97.3711 123.59 94.8574 125.748 91.3027 125.748C87.748 125.748 85.1836 123.59 85.209 120.441C85.1836 117.293 87.748 115.135 91.3027 115.135ZM91.3027 116.887C88.8906 116.887 87.1387 118.334 87.1641 120.441C87.1387 122.549 88.8906 123.996 91.3027 123.996C93.6895 123.996 95.416 122.549 95.416 120.441C95.416 118.334 93.6895 116.887 91.3027 116.887ZM102.424 113.484V136.107H100.443V113.484H102.424ZM84.041 129.43C88.2051 129.43 93.9434 129.404 98.9453 128.668L99.0977 130.141C93.9434 131.105 88.3828 131.131 84.3203 131.131L84.041 129.43ZM127.053 131.588V133.264H106.385V131.588H112.199V127.297H108.975V120.34H122.482V116.811H108.924V115.16H124.438V121.99H110.955V125.646H124.971V127.297H121.441V131.588H127.053ZM114.154 131.588H119.486V127.297H114.154V131.588ZM147.518 113.484V136.057H145.512V113.484H147.518ZM140.84 115.947C140.814 122.447 137.793 128.186 130.227 131.816L129.135 130.191C135.241 127.297 138.352 122.968 138.809 117.572H130.176V115.947H140.84ZM163.844 115.236V116.43C163.818 117.902 163.818 120.162 163.26 123.107L161.254 122.955C161.8 120.251 161.851 118.334 161.889 116.912H152.596V115.236H163.844ZM158.029 120.238V125.088C160.53 124.986 163.12 124.809 165.469 124.479L165.596 125.951C160.873 126.764 155.414 126.865 151.402 126.865L151.199 125.215C152.659 125.202 154.31 125.189 156.049 125.139V120.238H158.029ZM169.023 113.484V120.848H172.324V122.549H169.023V130.471H166.992V113.484H169.023ZM169.76 133.898V135.574H154.678V128.947H156.684V133.898H169.76ZM198.959 113.51V130.014H196.979V113.51H198.959ZM199.67 133.898V135.574H184.385V128.338H186.365V133.898H199.67ZM186.771 115.084C190.148 115.084 192.688 117.369 192.688 120.619C192.688 123.92 190.148 126.18 186.771 126.18C183.395 126.18 180.855 123.92 180.855 120.619C180.855 117.369 183.395 115.084 186.771 115.084ZM186.771 116.836C184.486 116.836 182.785 118.41 182.811 120.619C182.785 122.879 184.486 124.428 186.771 124.428C189.006 124.428 190.732 122.879 190.732 120.619C190.732 118.41 189.006 116.836 186.771 116.836ZM223.359 124.225V125.875H202.793V124.225H223.359ZM213.076 127.855C217.926 127.855 220.82 129.354 220.846 131.943C220.82 134.559 217.926 136.006 213.076 136.006C208.201 136.006 205.281 134.559 205.281 131.943C205.281 129.354 208.201 127.855 213.076 127.855ZM213.076 129.43C209.445 129.455 207.287 130.344 207.312 131.943C207.287 133.518 209.445 134.406 213.076 134.406C216.656 134.406 218.84 133.518 218.84 131.943C218.84 130.344 216.656 129.455 213.076 129.43ZM221.531 114.652V116.303H214.371C214.447 118.867 218.205 120.822 222.217 121.279L221.48 122.879C217.786 122.409 214.32 120.759 213.076 118.232C211.845 120.759 208.392 122.409 204.672 122.879L203.961 121.279C207.896 120.822 211.68 118.867 211.781 116.303H204.672V114.652H221.531ZM243.52 115.312C243.494 121.152 240.473 125.52 233.211 127.957L232.398 126.357C236.271 125.088 238.733 123.298 240.117 121.076L232.627 121.711L232.271 120.061L240.828 119.654C241.146 118.804 241.349 117.902 241.438 116.963H233.414V115.312H243.52ZM250.502 113.51V130.268H248.496V122.371H243.469V120.695H248.496V113.51H250.502ZM251.137 133.898V135.574H236.232V128.592H238.264V133.898H251.137ZM272.973 113.484V125.164H270.967V119.299H265.939V117.648H270.967V113.484H272.973ZM272.973 126.307V131.689H260.354V134.152H273.811V135.752H258.398V130.166H270.992V127.906H258.348V126.307H272.973ZM261.953 116.354C261.928 119.324 264.264 122.016 267.564 123.107L266.498 124.656C263.997 123.768 262.004 121.99 261.014 119.705C260.049 122.282 258.005 124.25 255.326 125.215L254.234 123.615C257.637 122.498 259.973 119.654 259.998 116.354V114.221H261.953V116.354ZM288.867 115.16V116.785H280.057V119.629H288.232V121.254H280.057V124.225C284.868 124.225 287.534 124.136 290.721 123.615L290.924 125.24C287.623 125.773 284.855 125.875 279.879 125.875H278.051V115.16H288.867ZM295.367 113.51V127.5H293.387V113.51H295.367ZM287.877 127.83C292.574 127.805 295.469 129.303 295.469 131.893C295.469 134.533 292.574 136.006 287.877 136.006C283.078 136.006 280.234 134.533 280.234 131.893C280.234 129.303 283.078 127.805 287.877 127.83ZM287.877 129.404C284.322 129.404 282.215 130.344 282.215 131.893C282.215 133.492 284.322 134.432 287.877 134.432C291.33 134.432 293.514 133.492 293.514 131.893C293.514 130.344 291.33 129.404 287.877 129.404Z" fill="black"/>
<defs>
<clipPath id="clip0_49_10">
<rect width="78" height="52" fill="white" transform="translate(257 495)"/>
</clipPath>
</defs>
</svg>
