<svg width="640" height="230" viewBox="0 0 640 230" fill="none" xmlns="http://www.w3.org/2000/svg">
<rect width="640" height="230" rx="12" fill="white"/>
<g clip-path="url(#clip0_26_865)">
<path d="M48 60.1895H52.7904L60.6494 77.5219L68.5425 60.1895H73.3329L68.8834 69.9928L72.293 77.5563L80.1861 60.224H84.9424L74.1853 83.8966H70.4007L66.4797 75.1615L62.5587 83.776H58.7741C57.3251 80.5886 56.0636 77.8148 54.9896 75.4889C53.9156 73.163 53.0291 71.1299 52.2619 69.4587C51.4948 67.7875 50.8811 66.4264 50.4037 65.341L49.2445 62.7566C48.9376 62.1192 48.716 61.6367 48.5796 61.3266L48.2387 60.7753L48.1023 60.4824C48.0511 60.3963 48.017 60.2929 48 60.1895Z" fill="#1D2B4E"/>
<path d="M90.8579 60.1551V63.7904H86.5278V60.1551H90.8579ZM86.5278 83.8966V66.2197H90.8579V83.8966H86.5278Z" fill="#0A4E99"/>
<path d="M98.5977 66.2197V68.1666C99.1091 67.5291 99.7569 67.0294 100.507 66.7021C101.223 66.392 102.007 66.2197 102.791 66.2197C103.917 66.2197 105.025 66.4264 106.065 66.8227C107.053 67.219 107.974 67.8047 108.758 68.5456C109.525 69.2864 110.139 70.1823 110.565 71.1816C111.025 72.2671 111.264 73.4386 111.23 74.6274V84H106.951V74.5241C106.968 73.9727 106.849 73.4214 106.627 72.9218C106.423 72.4738 106.116 72.0603 105.741 71.733C105.349 71.3884 104.905 71.1299 104.411 70.9749C103.865 70.7854 103.286 70.6992 102.706 70.7164C102.041 70.6992 101.394 70.8198 100.78 71.0955C100.285 71.3195 99.8422 71.664 99.5012 72.0775C99.1603 72.491 98.9216 72.9562 98.7682 73.4731C98.6147 73.99 98.5295 74.5241 98.5295 75.0582V83.8966H94.2676V66.2197H98.5977Z" fill="#0A4E99"/>
<path d="M124.851 79.3999C125.891 79.3999 126.914 79.1759 127.851 78.7107C128.806 78.2627 129.641 77.5908 130.289 76.7466L133.596 79.6238C132.54 80.9677 131.21 82.0359 129.693 82.7767C128.192 83.5176 126.522 83.9139 124.851 83.8966C123.334 83.8966 121.817 83.5865 120.419 82.9835C119.055 82.3805 117.827 81.519 116.787 80.4336C115.748 79.3309 114.912 78.056 114.333 76.6604C113.122 73.6971 113.122 70.3719 114.333 67.4085C114.912 66.0129 115.748 64.738 116.787 63.6525C117.827 62.5844 119.055 61.7229 120.419 61.1199C121.817 60.4996 123.317 60.1723 124.851 60.1895C128.261 60.1895 131.483 61.7746 133.596 64.4623L130.289 67.3396C129.641 66.4953 128.806 65.8234 127.851 65.3754C126.044 64.4968 123.93 64.4623 122.089 65.2548C121.254 65.6339 120.487 66.168 119.839 66.8399C119.191 67.5118 118.663 68.3044 118.305 69.1658C117.947 70.079 117.759 71.0438 117.759 72.0258C117.759 73.0079 117.947 73.99 118.305 74.9031C118.663 75.7818 119.191 76.5743 119.839 77.2462C120.487 77.9182 121.254 78.4523 122.089 78.8313C122.959 79.2103 123.896 79.3999 124.851 79.3999Z" fill="#1D2B4E"/>
<path d="M140.109 60.1895V68.1665C140.62 67.5463 141.268 67.0467 142.001 66.7021C142.734 66.3747 143.536 66.2024 144.337 66.2197C145.462 66.2197 146.57 66.4264 147.627 66.8227C148.616 67.2189 149.519 67.8047 150.303 68.5456C151.071 69.2864 151.701 70.1823 152.11 71.1816C152.571 72.267 152.809 73.4386 152.775 74.6274V84H148.462V74.524C148.479 73.9727 148.36 73.4214 148.138 72.9217C147.934 72.4566 147.627 72.0603 147.252 71.7329C146.86 71.3884 146.417 71.1299 145.922 70.9749C145.377 70.7853 144.797 70.6992 144.217 70.7164C143.553 70.6992 142.905 70.8198 142.308 71.0955C141.814 71.3195 141.37 71.6468 141.012 72.0775C140.689 72.4738 140.45 72.939 140.296 73.4386C140.143 73.9555 140.058 74.4896 140.058 75.0237V83.8622H135.779V60.1895H140.109Z" fill="#0A4E99"/>
<path d="M163.549 66.2197C164.862 66.2197 166.141 66.5298 167.3 67.1328C168.476 67.7358 169.482 68.5973 170.266 69.6655C171.903 71.8363 172.465 74.6619 171.766 77.2979H159.952C160.293 77.9009 160.771 78.4178 161.35 78.7796C161.913 79.1587 162.561 79.3654 163.243 79.3999C163.907 79.3999 164.572 79.2965 165.186 79.0553C165.8 78.7796 166.345 78.3661 166.771 77.832L170.079 80.7093C168.493 82.7078 166.09 83.8794 163.549 83.8966C162.885 83.8966 162.237 83.8277 161.589 83.6727C160.941 83.5348 160.31 83.2936 159.731 82.9835C158.861 82.5528 158.077 81.967 157.412 81.2606C156.764 80.5542 156.219 79.7272 155.827 78.8485C155.418 77.9699 155.162 77.005 155.06 76.0402C154.957 75.0409 155.026 74.0416 155.247 73.0596C155.452 72.0775 155.844 71.1472 156.372 70.303C156.884 69.4932 157.515 68.7696 158.248 68.1493C158.981 67.5291 159.833 67.0294 160.754 66.7193C161.657 66.392 162.595 66.2197 163.549 66.2197ZM167.129 72.8184C166.754 72.1809 166.226 71.6468 165.595 71.285C164.334 70.5269 162.748 70.5269 161.487 71.285C160.856 71.6468 160.327 72.1809 159.952 72.8184H167.129Z" fill="#0A4E99"/>
<path d="M182.217 79.3999C182.813 79.3999 183.393 79.2448 183.921 78.9864C184.484 78.7107 184.978 78.3144 185.371 77.832L188.678 80.7093C187.109 82.7251 184.689 83.8966 182.149 83.8966C181.006 83.9139 179.881 83.6726 178.841 83.2075C174.579 81.1744 172.619 76.1263 174.392 71.7157C174.818 70.6648 175.449 69.7172 176.233 68.9074C177 68.0976 177.921 67.4602 178.927 67.0122C179.966 66.547 181.092 66.3058 182.234 66.3058C184.774 66.3058 187.195 67.4774 188.763 69.4932L185.456 72.3704C185.064 71.888 184.569 71.4917 184.007 71.2161C183.478 70.9576 182.899 70.8026 182.302 70.8026C181.722 70.7854 181.143 70.906 180.597 71.1472C180.103 71.3711 179.643 71.6813 179.267 72.0603C178.875 72.4566 178.586 72.939 178.381 73.4559C178.159 74.0072 178.04 74.593 178.057 75.1788C178.04 75.7645 178.159 76.3503 178.381 76.9017C178.586 77.4185 178.875 77.9009 179.267 78.2972C180.035 79.107 181.109 79.5721 182.234 79.5549L182.217 79.3999Z" fill="#0A4E99"/>
<path d="M200.083 72.5772L207.788 83.8966H202.316C201.378 82.5011 200.611 81.2606 199.793 80.1752L197.832 77.3496L196.417 75.1615C196.008 74.5757 195.667 74.0933 195.377 73.7143V83.8277H191.047V60.1895H195.377V71.0438L196.008 70.4752L197.065 69.5965C197.491 69.2347 198.071 68.7868 198.77 68.2527L201.327 66.2197H208.146L200.083 72.5772Z" fill="#0A4E99"/>
<path d="M48 39.0151H117.964" stroke="#154797" stroke-width="3.5" stroke-miterlimit="10"/>
<path d="M217.011 59.4831V63.5664H221V65.6511H217.011V69.9928H214.812V65.6511H210.874V63.5664H214.863V59.4831H217.011Z" fill="#224899"/>
</g>
<path d="M52.625 99.6562C52.625 101.891 53.7656 104.172 55.6562 105.188L54.9531 106.109C53.5703 105.359 52.5703 103.922 52.0625 102.25C51.5625 104.031 50.5703 105.578 49.1875 106.422L48.4531 105.484C50.3438 104.391 51.4531 101.953 51.4688 99.6562V98.9688H48.8281V97.9531H51.4688V95.8906H52.6406V97.9531H55.2344V98.9688H52.625V99.6562ZM60.4375 95.375V109.266H59.2656V95.375H60.4375ZM57.625 95.7188V108.547H56.4688V101.906H54.2812V100.859H56.4688V95.7188H57.625ZM74.2812 95.375V109.266H73.1094V95.375H74.2812ZM71.4688 95.75V108.562H70.2969V103.75H67.7188V102.734H70.2969V100.266H67.9531C67.2734 102.617 65.75 104.695 63.125 106.266L62.375 105.375C65.3984 103.586 66.9141 101.078 67.1562 98.1719H63V97.1562H68.375C68.375 97.8672 68.3125 98.5703 68.1875 99.25H70.2969V95.75H71.4688ZM81.0469 97.9375C81.0469 99.75 82.4375 101.469 84.4688 102.172L83.8281 103.141C82.2578 102.578 81.0469 101.414 80.4531 99.9844C79.8516 101.586 78.5703 102.867 76.9219 103.469L76.2812 102.5C78.3281 101.766 79.8125 99.9062 79.8125 97.9531V97.3438H76.6719V96.3438H84.1562V97.3438H81.0469V97.9375ZM87.7344 104.438V109.266H86.5V105.453H78.3906V104.438H87.7344ZM87.7344 95.375V103.703H86.5V100.047H83.7188V99.0156H86.5V95.375H87.7344ZM101.516 95.3906V105.547H100.297V95.3906H101.516ZM101.953 107.938V108.969H92.5469V104.516H93.7656V107.938H101.953ZM94.0156 96.3594C96.0938 96.3594 97.6562 97.7656 97.6562 99.7656C97.6562 101.797 96.0938 103.188 94.0156 103.188C91.9375 103.188 90.375 101.797 90.375 99.7656C90.375 97.7656 91.9375 96.3594 94.0156 96.3594ZM94.0156 97.4375C92.6094 97.4375 91.5625 98.4062 91.5781 99.7656C91.5625 101.156 92.6094 102.109 94.0156 102.109C95.3906 102.109 96.4531 101.156 96.4531 99.7656C96.4531 98.4062 95.3906 97.4375 94.0156 97.4375ZM115.109 96.5C115.094 100.094 113.234 102.781 108.766 104.281L108.266 103.297C110.648 102.516 112.164 101.414 113.016 100.047L108.406 100.438L108.188 99.4219L113.453 99.1719C113.648 98.6484 113.773 98.0938 113.828 97.5156H108.891V96.5H115.109ZM119.406 95.3906V105.703H118.172V100.844H115.078V99.8125H118.172V95.3906H119.406ZM119.797 107.938V108.969H110.625V104.672H111.875V107.938H119.797ZM133.234 95.375V102.562H132V98.9531H128.906V97.9375H132V95.375H133.234ZM133.234 103.266V106.578H125.469V108.094H133.75V109.078H124.266V105.641H132.016V104.25H124.234V103.266H133.234ZM126.453 97.1406C126.438 98.9688 127.875 100.625 129.906 101.297L129.25 102.25C127.711 101.703 126.484 100.609 125.875 99.2031C125.281 100.789 124.023 102 122.375 102.594L121.703 101.609C123.797 100.922 125.234 99.1719 125.25 97.1406V95.8281H126.453V97.1406ZM143.016 96.4062V97.4062H137.594V99.1562H142.625V100.156H137.594V101.984C140.555 101.984 142.195 101.93 144.156 101.609L144.281 102.609C142.25 102.938 140.547 103 137.484 103H136.359V96.4062H143.016ZM147.016 95.3906V104H145.797V95.3906H147.016ZM142.406 104.203C145.297 104.188 147.078 105.109 147.078 106.703C147.078 108.328 145.297 109.234 142.406 109.234C139.453 109.234 137.703 108.328 137.703 106.703C137.703 105.109 139.453 104.188 142.406 104.203ZM142.406 105.172C140.219 105.172 138.922 105.75 138.922 106.703C138.922 107.688 140.219 108.266 142.406 108.266C144.531 108.266 145.875 107.688 145.875 106.703C145.875 105.75 144.531 105.172 142.406 105.172ZM166.094 102.734V103.734H160.438V106.453H159.219V103.734H153.375V102.734H166.094ZM164.672 107.938V108.969H155V105.172H156.219V107.938H164.672ZM156.297 95.8281V97.6094H163.172V95.8281H164.391V101.375H155.078V95.8281H156.297ZM156.297 100.375H163.172V98.5469H156.297V100.375ZM171.953 97.6094C171.953 99.5312 173.375 101.297 175.391 101.984L174.719 102.969C173.172 102.398 171.969 101.211 171.375 99.7344C170.789 101.375 169.539 102.656 167.906 103.297L167.234 102.281C169.344 101.531 170.734 99.7031 170.75 97.5625V96.0938H171.953V97.6094ZM178.734 104.359V109.266H177.5V105.344H169.391V104.359H178.734ZM178.734 95.375V103.594H177.5V99.3281H174.406V98.2969H177.5V95.375H178.734ZM188.844 96.4375V97.4531H187.422V101.891C188.07 101.852 188.695 101.797 189.297 101.719L189.359 102.656C186.656 103.078 183.484 103.109 181.234 103.109L181.078 102.078L182.875 102.062V97.4531H181.469V96.4375H188.844ZM192.562 95.375V103.953H191.328V101.375H188.984V100.359H191.328V98.8906H188.984V97.875H191.328V95.375H192.562ZM187.953 104.25C190.859 104.25 192.609 105.156 192.609 106.734C192.609 108.328 190.859 109.234 187.953 109.234C185.047 109.234 183.297 108.328 183.297 106.734C183.297 105.156 185.047 104.25 187.953 104.25ZM187.953 105.203C185.812 105.203 184.5 105.781 184.516 106.734C184.5 107.703 185.812 108.266 187.953 108.266C190.094 108.266 191.391 107.703 191.391 106.734C191.391 105.781 190.094 105.203 187.953 105.203ZM184.062 102.047C184.773 102.031 185.508 102.008 186.234 101.969V97.4531H184.062V102.047ZM205.625 95.375V101.031H207.875V102.062H205.625V109.266H204.406V95.375H205.625ZM202.031 96.875C202.031 100.812 200.188 104.391 195.656 106.625L194.969 105.656C198.562 103.867 200.516 101.195 200.797 97.9062H195.609V96.875H202.031ZM225.438 106.438V107.484H212.719V106.438H225.438ZM224.219 96.7812V97.7969H222.016V102.656H224.188V103.656H213.875V102.656H216.047V97.7969H213.844V96.7812H224.219ZM217.266 102.656H220.812V97.7969H217.266V102.656ZM239.266 106.516V107.547H226.547V106.516H232.266V103.891H228.141V99.6094H236.453V97.4219H228.109V96.4062H237.656V100.609H229.359V102.875H237.984V103.891H233.469V106.516H239.266ZM251.328 96.8594V98.25C251.328 100 251.328 101.984 250.812 105L249.562 104.875C250.125 102.031 250.125 99.9531 250.125 98.25V97.875H241.75V96.8594H251.328ZM253.031 106.203V107.219H240.375V106.203H253.031ZM266 95.3906V103.672H264.828V99.9375H262.875V103.484H261.734V95.6562H262.875V98.9219H264.828V95.3906H266ZM266 104.328V109.078H256.828V104.328H266ZM258.031 105.328V108.078H264.797V105.328H258.031ZM260.078 96.2969V100.078H256.031V102.078C257.859 102.07 259.258 101.984 260.906 101.656L261.047 102.656C259.25 103 257.766 103.047 255.75 103.047H254.844V99.125H258.906V97.2969H254.812V96.2969H260.078ZM60.4531 116.375V130.266H59.2656V116.375H60.4531ZM57.6094 116.719V129.547H56.4375V122.719H53.4062V121.688H56.4375V116.719H57.6094ZM54.3438 118.094V119.109H50.2969V125.891C52.2969 125.883 53.5625 125.797 55.0625 125.469L55.1875 126.516C53.5781 126.844 52.2188 126.906 49.9844 126.922H49.1094V118.094H54.3438ZM73.8438 116.375V130.297H72.6094V116.375H73.8438ZM66.4531 117.453C68.5156 117.469 70 119.344 70 122.297C70 125.25 68.5156 127.125 66.4531 127.125C64.375 127.125 62.9062 125.25 62.9062 122.297C62.9062 119.344 64.375 117.469 66.4531 117.453ZM66.4531 118.547C65.0625 118.562 64.0938 120.031 64.0938 122.297C64.0938 124.562 65.0625 126.031 66.4531 126.031C67.8438 126.031 68.8125 124.562 68.8125 122.297C68.8125 120.031 67.8438 118.562 66.4531 118.547ZM87.7344 116.375V130.297H86.5156V122.641H83.5781V121.625H86.5156V116.375H87.7344ZM83.3438 117.656V118.672H78.0938V121.562H82.7344V122.562H78.0938V125.922C80.6484 125.922 82.2734 125.836 84.1875 125.5L84.3281 126.516C82.3125 126.844 80.6094 126.938 77.9219 126.938H76.8594V117.656H83.3438ZM105.547 116.375V130.266H104.312V116.375H105.547ZM101.438 117.891C101.422 121.891 99.5625 125.422 94.9062 127.656L94.2344 126.656C97.9922 124.875 99.9062 122.211 100.188 118.891H94.875V117.891H101.438ZM118.75 116.391V120.594H120.844V121.625H118.75V126.594H117.531V116.391H118.75ZM119.391 128.938V129.969H110.062V125.594H111.266V128.938H119.391ZM109.688 117.391V119.734H113.734V117.391H114.953V124.25H108.484V117.391H109.688ZM109.688 123.25H113.734V120.703H109.688V123.25ZM128.047 117.281C130.953 117.281 133.125 118.797 133.125 121.094C133.125 123.406 130.953 124.922 128.047 124.906C125.141 124.922 122.969 123.406 122.969 121.094C122.969 118.797 125.141 117.281 128.047 117.281ZM128.047 118.281C125.812 118.266 124.125 119.438 124.141 121.094C124.125 122.781 125.812 123.906 128.047 123.906C130.266 123.906 131.938 122.781 131.938 121.094C131.938 119.438 130.266 118.266 128.047 118.281ZM134.438 127.391V128.422H121.719V127.391H134.438ZM148.266 127.516V128.547H135.547V127.516H141.266V124.891H137.141V120.609H145.453V118.422H137.109V117.406H146.656V121.609H138.359V123.875H146.984V124.891H142.469V127.516H148.266ZM160.406 117.328V123.266H153.984V117.328H160.406ZM155.188 118.328V122.266H159.219V118.328H155.188ZM164.25 116.375V119.719H166.344V120.75H164.25V124.312H163.031V116.375H164.25ZM164.5 125.125V126.125H160.562C160.695 127.609 162.766 128.906 165.031 129.266L164.578 130.219C162.547 129.883 160.703 128.875 159.906 127.484C159.117 128.883 157.289 129.875 155.266 130.203L154.797 129.266C157.094 128.906 159.125 127.633 159.281 126.125H155.344V125.125H164.5ZM179.875 123.25V124.25H174.141V125.781H178.328V130.078H168.766V125.781H172.938V124.25H167.219V123.25H179.875ZM174.141 116.297V117.688H178.594V118.672H174.219C174.305 120.219 176.516 121.258 179.125 121.5L178.766 122.422C176.453 122.18 174.391 121.383 173.547 120C172.695 121.383 170.633 122.18 168.328 122.422L167.953 121.5C170.578 121.258 172.773 120.219 172.875 118.672H168.531V117.688H172.938V116.297H174.141ZM169.984 126.766V129.078H177.125V126.766H169.984ZM191.984 120.625V122.453H197.719V123.453H185.062V122.453H190.781V120.625H191.984ZM192 117.016C192 118.812 194.469 120.141 197 120.422L196.562 121.359C194.375 121.062 192.258 120.117 191.391 118.594C190.5 120.117 188.375 121.062 186.203 121.359L185.766 120.422C188.297 120.141 190.766 118.812 190.766 117.016V116.484H192V117.016ZM196.094 124.609V127.766H187.844V129.141H196.516V130.109H186.625V126.844H194.891V125.562H186.594V124.609H196.094ZM210.047 116.938V120.547H201.672V122.344H210.344V123.359H200.438V119.578H208.797V117.938H200.406V116.938H210.047ZM211.594 124.828V125.812H205.812V130.297H204.594V125.812H198.875V124.828H211.594ZM217.469 118.953C217.469 120.984 218.859 122.906 220.875 123.703L220.188 124.656C218.656 124.023 217.469 122.758 216.891 121.172C216.289 122.883 215.039 124.242 213.422 124.906L212.75 123.922C214.812 123.125 216.25 121.125 216.266 118.953V117.172H217.469V118.953ZM224.234 116.391V126.766H223V122.312H220.141V121.312H223V119.469H220.141V118.453H223V116.391H224.234ZM224.547 128.938V129.969H215.25V125.688H216.484V128.938H224.547Z" fill="#6C757D"/>
<rect x="48" y="154" width="207" height="40" rx="20" fill="#0061B2"/>
<path d="M89.0469 178.514V180.148H74.5273V178.514H89.0469ZM87.7812 167.65V169.215H85.4609V174.277H87.7285V175.824H75.7754V174.277H78.0078V169.215H75.7227V167.65H87.7812ZM79.959 174.277H83.5273V169.215H79.959V174.277ZM104.604 178.602V180.219H90.084V178.602H96.3418V176.018H91.8066V170.814H100.947V168.846H91.7715V167.264H102.881V172.361H93.7578V174.418H103.25V176.018H98.2754V178.602H104.604ZM118.279 167.721V169.514C118.279 171.641 118.279 173.838 117.699 177.178L115.713 177.002C116.328 173.873 116.328 171.57 116.328 169.514V169.303H107.17V167.721H118.279ZM120.125 178.285V179.885H105.641V178.285H120.125ZM134.785 166.191V175.596H132.922V171.605H131.27V175.438H129.441V166.49H131.27V170.023H132.922V166.191H134.785ZM134.785 176.264V181.871H124.062V176.264H134.785ZM126.014 177.828V180.289H132.852V177.828H126.014ZM127.895 167.158V171.746H123.764V173.469C125.609 173.451 127.016 173.372 128.633 173.047L128.809 174.594C126.893 174.945 125.275 174.998 122.955 174.98H121.865V170.287H126.014V168.705H121.848V167.158H127.895ZM153.471 166.174V172.221H155.914V173.873H153.471V182.064H151.52V166.174H153.471ZM143.521 167.475V171.447H147.266V167.475H149.217V178.338H141.588V167.475H143.521ZM143.521 176.738H147.266V172.977H143.521V176.738ZM171.102 178.602V180.219H156.582V178.602H162.84V176.018H158.305V170.814H167.445V168.846H158.27V167.264H169.379V172.361H160.256V174.418H169.748V176.018H164.773V178.602H171.102ZM184.584 166.174V172.379H186.939V174.014H184.584V182.029H182.633V166.174H184.584ZM180.383 167.826C180.383 172.502 178.449 176.598 173.158 179.199L172.051 177.688C175.918 175.763 178.01 173.056 178.414 169.443H172.912V167.826H180.383ZM200.967 166.174V182.064H198.998V166.174H200.967ZM196.221 167.861C196.221 172.59 194.393 176.615 188.82 179.252L187.801 177.688C191.958 175.71 193.892 173.021 194.234 169.408H188.609V167.861H196.221Z" fill="white"/>
<path d="M228 180L234 174L228 168" stroke="white" stroke-width="2" stroke-linecap="round" stroke-linejoin="round"/>
<path d="M384.4 66.8558C382.744 66.8558 381.337 66.2763 380.178 65.1172C379.018 63.9581 378.438 62.5507 378.438 60.8947C378.438 59.2388 379.018 57.8311 380.178 56.6716C381.337 55.5126 382.744 54.9331 384.4 54.9331C386.056 54.9331 387.463 55.5126 388.622 56.6716C389.782 57.8311 390.362 59.2388 390.362 60.8947C390.362 62.5507 389.782 63.9581 388.622 65.1172C387.463 66.2763 386.056 66.8558 384.4 66.8558ZM384.4 64.7891C385.477 64.7891 386.396 64.4094 387.155 63.6499C387.915 62.8899 388.295 61.9716 388.295 60.8947C388.295 59.8175 387.915 58.8991 387.155 58.1396C386.396 57.3797 385.477 56.9997 384.4 56.9997C383.323 56.9997 382.404 57.3797 381.645 58.1396C380.885 58.8991 380.505 59.8175 380.505 60.8947C380.505 61.9716 380.885 62.8899 381.645 63.6499C382.404 64.4094 383.323 64.7891 384.4 64.7891ZM370.688 82.5599V76.8197C370.688 76.2238 370.83 75.6632 371.112 75.138C371.394 74.6127 371.79 74.194 372.298 73.8818C373.494 73.1606 374.735 72.5727 376.019 72.118C377.303 71.6634 378.615 71.3269 379.953 71.1086L384.4 76.8417L388.797 71.1086C390.166 71.3269 391.498 71.6634 392.794 72.118C394.089 72.5727 395.341 73.1587 396.551 73.876C397.062 74.1838 397.441 74.5976 397.689 75.1173C397.938 75.637 398.079 76.1859 398.112 76.7642V82.5599H370.688ZM372.755 80.4932H384.653L379.154 73.4433C378 73.7008 376.877 74.0351 375.786 74.4463C374.696 74.8574 373.686 75.3661 372.755 75.9724V80.4932ZM384.147 80.4932H396.045V75.9724C395.081 75.3993 394.049 74.905 392.95 74.4895C391.851 74.0736 390.733 73.7415 389.596 73.493L384.147 80.4932ZM356.547 77.6167C355.516 77.6167 354.647 77.2587 353.941 76.5426C353.236 75.8266 352.883 74.9657 352.883 73.96V43.04C352.883 42.0343 353.241 41.1734 353.957 40.4574C354.673 39.7413 355.534 39.3833 356.54 39.3833H387.46C388.466 39.3833 389.327 39.7413 390.043 40.4574C390.759 41.1734 391.117 42.0343 391.117 43.04V50.0596C390.769 49.8245 390.414 49.6672 390.054 49.5875C389.692 49.5078 389.358 49.3455 389.05 49.1005V43.04C389.05 42.5763 388.901 42.1953 388.603 41.8969C388.305 41.599 387.924 41.45 387.46 41.45H356.54C356.076 41.45 355.695 41.599 355.397 41.8969C355.099 42.1953 354.95 42.5763 354.95 43.04V73.96C354.95 74.4237 355.099 74.8047 355.397 75.1031C355.695 75.401 356.076 75.55 356.54 75.55H364.335C364.219 75.7356 364.143 75.9353 364.106 76.1493C364.069 76.3638 364.051 76.5779 364.051 76.7919V77.6167H356.547ZM360.892 50.0544H378.582C379.205 49.561 379.904 49.1776 380.679 48.9042C381.454 48.6312 382.264 48.4616 383.108 48.3953V47.9878H360.892V50.0544ZM360.892 59.5333H372.05C372.03 59.1889 372.043 58.8419 372.089 58.4922C372.136 58.1431 372.189 57.8012 372.249 57.4667H360.892V59.5333ZM360.892 69.0122H367.728C368.297 68.5718 368.903 68.1774 369.545 67.8291C370.187 67.4812 370.843 67.1817 371.513 66.9307V66.9456H360.892V69.0122ZM354.95 75.55V41.45V49.1503V48.2958V75.55Z" fill="#6C757D"/>
<path d="M436.875 21.3594C436.875 25.2031 435.125 27.9062 430.422 29.4375L429.75 28.0781C431.922 27.3828 433.297 26.4688 434.109 25.3438L429.984 25.6875L429.719 24.3125L434.75 24.1094C434.906 23.6875 435 23.2344 435.047 22.7656H430.438V21.3594H436.875ZM441.297 20.2812V30.7188H439.562V26.0469H436.812V24.625H439.562V20.2812H441.297ZM441.672 32.7031V34.1094H432.141V29.6875H433.891V32.7031H441.672ZM455.125 20.2656V27.5H453.391V23.9219H450.578V22.5312H453.391V20.2656H455.125ZM455.125 28.1094V31.7656H447.547V32.8438H455.578V34.2188H445.844V30.4688H453.406V29.4688H445.828V28.1094H455.125ZM448.422 21.8594C448.422 23.5938 449.562 25.25 451.75 25.9219L450.828 27.2656C449.297 26.75 448.188 25.7578 447.578 24.4688C446.953 25.9141 445.797 27.0312 444.125 27.5781L443.219 26.1875C445.484 25.5 446.672 23.7656 446.672 21.8594V20.7344H448.422V21.8594ZM464.734 21.2812V22.6562H459.672V24H464.328V25.3594H459.672V26.7188C462.312 26.7344 463.922 26.6953 465.781 26.375L465.953 27.75C463.922 28.0781 462.156 28.1406 459.109 28.125H457.906V21.2812H464.734ZM468.891 20.2812V28.8906H467.141V20.2812H468.891ZM464.125 29.0938C467.094 29.0938 468.953 30.0625 468.953 31.7344C468.953 33.4062 467.094 34.375 464.125 34.375C461.109 34.375 459.281 33.4062 459.297 31.7344C459.281 30.0625 461.109 29.0938 464.125 29.0938ZM464.125 30.4375C462.125 30.4375 461.016 30.9062 461.031 31.7344C461.016 32.5781 462.125 33.0312 464.125 33.0312C466.078 33.0312 467.219 32.5781 467.219 31.7344C467.219 30.9062 466.078 30.4375 464.125 30.4375ZM487.656 31.2344V32.6406H474.75V31.2344H480.281V27.9688H482V31.2344H487.656ZM482.047 22.1562C482.047 24.2969 484.188 26.4062 487.156 26.875L486.406 28.3125C484.016 27.8594 482.062 26.4922 481.125 24.6406C480.188 26.4844 478.25 27.875 475.875 28.3125L475.125 26.875C478.078 26.4062 480.188 24.2812 480.203 22.1562V21.125H482.047V22.1562ZM500.703 20.2656V34.3906H499.031V27.1406H497.516V33.7344H495.891V20.6406H497.516V25.7344H499.031V20.2656H500.703ZM494.688 22.0469C494.688 25.8594 493.484 29.1406 489.469 31.4375L488.469 30.2344C491.477 28.4922 492.75 26.2578 493 23.4375H489.125V22.0469H494.688Z" fill="black"/>
<path d="M432.832 45.293C434.473 45.293 435.633 46.2891 435.633 47.7422C435.633 49.1953 434.473 50.1914 432.832 50.1914C431.191 50.1914 430.008 49.1953 430.02 47.7422C430.008 46.2891 431.191 45.293 432.832 45.293ZM432.832 46.1016C431.719 46.1016 430.91 46.7695 430.922 47.7422C430.91 48.7148 431.719 49.3828 432.832 49.3828C433.934 49.3828 434.73 48.7148 434.73 47.7422C434.73 46.7695 433.934 46.1016 432.832 46.1016ZM437.965 44.5312V54.9727H437.051V44.5312H437.965ZM429.48 51.8906C431.402 51.8906 434.051 51.8789 436.359 51.5391L436.43 52.2188C434.051 52.6641 431.484 52.6758 429.609 52.6758L429.48 51.8906ZM449.332 52.8867V53.6602H439.793V52.8867H442.477V50.9062H440.988V47.6953H447.223V46.0664H440.965V45.3047H448.125V48.457H441.902V50.1445H448.371V50.9062H446.742V52.8867H449.332ZM443.379 52.8867H445.84V50.9062H443.379V52.8867ZM459.656 50.0508V50.7891H450.152V50.0508H459.656ZM458.426 51.8086V54.9492H457.488V52.5469H451.219V51.8086H458.426ZM458.531 48.3281V49.043H451.418V44.8125H458.473V45.5508H452.344V46.5469H458.191V47.2617H452.344V48.3281H458.531ZM468.621 44.5312V48.9727H470.285V49.7461H468.621V54.9492H467.695V44.5312H468.621ZM460.406 52.1719C461.256 52.1719 462.246 52.1719 463.277 52.1367V50.9766C462.064 50.8418 461.273 50.1328 461.285 49.1016C461.273 47.9297 462.27 47.168 463.746 47.168C465.199 47.168 466.207 47.9297 466.219 49.1016C466.207 50.1328 465.404 50.8418 464.203 50.9883V52.1016C465.176 52.0547 466.154 51.9785 467.062 51.8438L467.121 52.5469C464.848 52.9336 462.387 52.957 460.559 52.957L460.406 52.1719ZM466.875 45.8086V46.5586H460.594V45.8086H463.277V44.5547H464.203V45.8086H466.875ZM463.746 47.8828C462.785 47.8828 462.141 48.375 462.141 49.1016C462.141 49.8281 462.785 50.2969 463.746 50.2852C464.695 50.2969 465.34 49.8281 465.34 49.1016C465.34 48.375 464.695 47.8828 463.746 47.8828ZM482.555 44.543V52.1836H481.629V48.1875H479.484V47.4258H481.629V44.543H482.555ZM482.848 53.9531V54.7266H475.863V51.4922H476.789V53.9531H482.848ZM477.539 46.6875C477.539 48.0352 478.582 49.3477 480.105 49.8633L479.625 50.6016C478.447 50.1797 477.539 49.3008 477.094 48.2227C476.643 49.4238 475.682 50.3848 474.445 50.8477L473.965 50.0977C475.5 49.5586 476.613 48.1875 476.613 46.6875V46.1484H474.258V45.3867H479.871V46.1484H477.539V46.6875ZM493.816 49.8633V50.625H489.574V52.7578H488.66V50.625H484.277V49.8633H493.816ZM492.574 45.0469V48.668H485.52V45.0469H492.574ZM486.422 45.7734V47.9297H491.66V45.7734H486.422ZM492.75 53.9531V54.7266H485.496V51.7266H486.422V53.9531H492.75ZM503.027 45.5859V46.7461C503.027 48.082 503.027 49.4297 502.652 51.3633L501.75 51.2578C502.125 49.418 502.125 48.0469 502.125 46.7461V46.3477H495.656V45.5859H503.027ZM504.152 52.7109V53.4727H494.66V52.7109H497.016V49.2773H497.93V52.7109H499.617V49.2773H500.52V52.7109H504.152ZM514.523 49.5586V50.3086H511.992V51.6328H513.352V54.9492H512.426V52.3711H506.086V51.6328H507.551V50.3086H505.031V49.5586H514.523ZM509.777 44.7891C512.039 44.7773 513.457 45.5273 513.457 46.7695C513.457 48.0234 512.039 48.7734 509.777 48.7617C507.516 48.7734 506.086 48.0234 506.086 46.7695C506.086 45.5273 507.516 44.7773 509.777 44.7891ZM509.777 45.5273C508.09 45.5156 507.023 45.9961 507.035 46.7695C507.023 47.5664 508.09 48.0469 509.777 48.0469C511.441 48.0469 512.52 47.5664 512.52 46.7695C512.52 45.9961 511.441 45.5156 509.777 45.5273ZM508.477 51.6328H511.09V50.3086H508.477V51.6328ZM432.832 61.293C434.473 61.293 435.633 62.2891 435.633 63.7422C435.633 65.1953 434.473 66.1914 432.832 66.1914C431.191 66.1914 430.008 65.1953 430.02 63.7422C430.008 62.2891 431.191 61.293 432.832 61.293ZM432.832 62.1016C431.719 62.1016 430.91 62.7695 430.922 63.7422C430.91 64.7148 431.719 65.3828 432.832 65.3828C433.934 65.3828 434.73 64.7148 434.73 63.7422C434.73 62.7695 433.934 62.1016 432.832 62.1016ZM437.965 60.5312V70.9727H437.051V60.5312H437.965ZM429.48 67.8906C431.402 67.8906 434.051 67.8789 436.359 67.5391L436.43 68.2188C434.051 68.6641 431.484 68.6758 429.609 68.6758L429.48 67.8906ZM449.332 68.8867V69.6602H439.793V68.8867H442.477V66.9062H440.988V63.6953H447.223V62.0664H440.965V61.3047H448.125V64.457H441.902V66.1445H448.371V66.9062H446.742V68.8867H449.332ZM443.379 68.8867H445.84V66.9062H443.379V68.8867ZM458.777 60.5312V70.9492H457.852V60.5312H458.777ZM455.695 61.668C455.684 64.668 454.289 67.3164 450.797 68.9922L450.293 68.2422C453.111 66.9062 454.547 64.9082 454.758 62.418H450.773V61.668H455.695ZM466.312 61.3398V61.8906C466.301 62.5703 466.301 63.6133 466.043 64.9727L465.117 64.9023C465.369 63.6543 465.393 62.7695 465.41 62.1133H461.121V61.3398H466.312ZM463.629 63.6484V65.8867C464.783 65.8398 465.979 65.7578 467.062 65.6055L467.121 66.2852C464.941 66.6602 462.422 66.707 460.57 66.707L460.477 65.9453C461.15 65.9395 461.912 65.9336 462.715 65.9102V63.6484H463.629ZM468.703 60.5312V63.9297H470.227V64.7148H468.703V68.3711H467.766V60.5312H468.703ZM469.043 69.9531V70.7266H462.082V67.668H463.008V69.9531H469.043ZM482.555 60.543V68.1836H481.629V64.1875H479.484V63.4258H481.629V60.543H482.555ZM482.848 69.9531V70.7266H475.863V67.4922H476.789V69.9531H482.848ZM477.539 62.6875C477.539 64.0352 478.582 65.3477 480.105 65.8633L479.625 66.6016C478.447 66.1797 477.539 65.3008 477.094 64.2227C476.643 65.4238 475.682 66.3848 474.445 66.8477L473.965 66.0977C475.5 65.5586 476.613 64.1875 476.613 62.6875V62.1484H474.258V61.3867H479.871V62.1484H477.539V62.6875ZM493.816 65.8633V66.625H489.574V68.7578H488.66V66.625H484.277V65.8633H493.816ZM492.574 61.0469V64.668H485.52V61.0469H492.574ZM486.422 61.7734V63.9297H491.66V61.7734H486.422ZM492.75 69.9531V70.7266H485.496V67.7266H486.422V69.9531H492.75ZM500.074 61.375C500.062 64.0703 498.668 66.0859 495.316 67.2109L494.941 66.4727C496.729 65.8867 497.865 65.0605 498.504 64.0352L495.047 64.3281L494.883 63.5664L498.832 63.3789C498.979 62.9863 499.072 62.5703 499.113 62.1367H495.41V61.375H500.074ZM503.297 60.543V68.2773H502.371V64.6328H500.051V63.8594H502.371V60.543H503.297ZM503.59 69.9531V70.7266H496.711V67.5039H497.648V69.9531H503.59ZM513.668 60.5312V65.9219H512.742V63.2148H510.422V62.4531H512.742V60.5312H513.668ZM513.668 66.4492V68.9336H507.844V70.0703H514.055V70.8086H506.941V68.2305H512.754V67.1875H506.918V66.4492H513.668ZM508.582 61.8555C508.57 63.2266 509.648 64.4688 511.172 64.9727L510.68 65.6875C509.525 65.2773 508.605 64.457 508.148 63.4023C507.703 64.5918 506.76 65.5 505.523 65.9453L505.02 65.207C506.59 64.6914 507.668 63.3789 507.68 61.8555V60.8711H508.582V61.8555ZM521.004 61.3047V62.0547H516.938V63.3672H520.711V64.1172H516.938V65.4883C519.158 65.4883 520.389 65.4473 521.859 65.207L521.953 65.957C520.43 66.2031 519.152 66.25 516.855 66.25H516.012V61.3047H521.004ZM524.004 60.543V67H523.09V60.543H524.004ZM520.547 67.1523C522.715 67.1406 524.051 67.832 524.051 69.0273C524.051 70.2461 522.715 70.9258 520.547 70.9258C518.332 70.9258 517.02 70.2461 517.02 69.0273C517.02 67.832 518.332 67.1406 520.547 67.1523ZM520.547 67.8789C518.906 67.8789 517.934 68.3125 517.934 69.0273C517.934 69.7656 518.906 70.1992 520.547 70.1992C522.141 70.1992 523.148 69.7656 523.148 69.0273C523.148 68.3125 522.141 67.8789 520.547 67.8789Z" fill="#6C757D"/>
<path d="M435.891 85.8145C435.891 89.1777 434.359 91.543 430.244 92.8828L429.656 91.6934C431.557 91.085 432.76 90.2852 433.471 89.3008L429.861 89.6016L429.629 88.3984L434.031 88.2207C434.168 87.8516 434.25 87.4551 434.291 87.0449H430.258V85.8145H435.891ZM439.76 84.8711V94.0039H438.242V89.916H435.836V88.6719H438.242V84.8711H439.76ZM440.088 95.7402V96.9707H431.748V93.1016H433.279V95.7402H440.088ZM451.859 84.8574V91.1875H450.342V88.0566H447.881V86.8398H450.342V84.8574H451.859ZM451.859 91.7207V94.9199H445.229V95.8633H452.256V97.0664H443.738V93.7852H450.355V92.9102H443.725V91.7207H451.859ZM445.994 86.252C445.994 87.7695 446.992 89.2188 448.906 89.8066L448.1 90.9824C446.76 90.5312 445.789 89.6631 445.256 88.5352C444.709 89.7998 443.697 90.7773 442.234 91.2559L441.441 90.0391C443.424 89.4375 444.463 87.9199 444.463 86.252V85.2676H445.994V86.252ZM460.268 85.7461V86.9492H455.838V88.125H459.912V89.3145H455.838V90.5039C458.148 90.5176 459.557 90.4834 461.184 90.2031L461.334 91.4062C459.557 91.6934 458.012 91.748 455.346 91.7344H454.293V85.7461H460.268ZM463.904 84.8711V92.4043H462.373V84.8711H463.904ZM459.734 92.582C462.332 92.582 463.959 93.4297 463.959 94.8926C463.959 96.3555 462.332 97.2031 459.734 97.2031C457.096 97.2031 455.496 96.3555 455.51 94.8926C455.496 93.4297 457.096 92.582 459.734 92.582ZM459.734 93.7578C457.984 93.7578 457.014 94.168 457.027 94.8926C457.014 95.6309 457.984 96.0273 459.734 96.0273C461.443 96.0273 462.441 95.6309 462.441 94.8926C462.441 94.168 461.443 93.7578 459.734 93.7578ZM477.002 94.4551V95.6855H465.709V94.4551H470.549V91.5977H472.053V94.4551H477.002ZM472.094 86.5117C472.094 88.3848 473.967 90.2305 476.564 90.6406L475.908 91.8984C473.816 91.502 472.107 90.3057 471.287 88.6855C470.467 90.2988 468.771 91.5156 466.693 91.8984L466.037 90.6406C468.621 90.2305 470.467 88.3711 470.48 86.5117V85.6094H472.094V86.5117ZM488.418 84.8574V97.2168H486.955V90.873H485.629V96.6426H484.207V85.1855H485.629V89.6426H486.955V84.8574H488.418ZM483.154 86.416C483.154 89.752 482.102 92.623 478.588 94.6328L477.713 93.5801C480.345 92.0557 481.459 90.1006 481.678 87.6328H478.287V86.416H483.154ZM494.475 87.8242C494.475 90.1211 495.568 92.377 497.537 93.2383L496.621 94.4551C495.22 93.7715 494.235 92.459 493.709 90.8457C493.169 92.5479 492.164 93.9629 490.742 94.6875L489.785 93.457C491.795 92.5137 492.916 90.1348 492.93 87.8242V85.8555H494.475V87.8242ZM500.271 84.8574V97.2305H498.768V90.0801H496.17V88.8496H498.768V84.8574H500.271ZM515.01 84.8574V89.5469H516.91V90.791H515.01V97.2305H513.492V84.8574H515.01ZM511.619 86.0332V87.2637H507.354V92.9375C509.274 92.9375 510.792 92.8418 512.494 92.541L512.672 93.8262C510.758 94.1543 509.09 94.209 506.861 94.209H505.836V86.0332H511.619ZM528.709 90.9688V92.1855H523.938V94.4551H522.393V92.1855H517.416V90.9688H528.709ZM527.465 95.7266V96.9707H518.797V93.3066H520.328V95.7266H527.465ZM523.049 85.1309C525.715 85.1309 527.479 86.1016 527.479 87.6602C527.479 89.2188 525.715 90.1758 523.049 90.1758C520.383 90.1758 518.619 89.2188 518.619 87.6602C518.619 86.1016 520.383 85.1309 523.049 85.1309ZM523.049 86.334C521.354 86.334 520.246 86.8125 520.26 87.6602C520.246 88.4805 521.354 88.959 523.049 88.959C524.758 88.959 525.852 88.4805 525.852 87.6602C525.852 86.8125 524.758 86.334 523.049 86.334ZM540.822 94.5234V95.7812H529.529V94.5234H534.396V92.5137H530.869V88.4668H537.979V86.9355H530.842V85.7051H539.482V89.6699H532.387V91.2695H539.77V92.5137H535.9V94.5234H540.822ZM551.664 90.6543V91.8711H542.996V85.9375H551.568V87.168H544.5V90.6543H551.664ZM552.922 94.3867V95.6445H541.629V94.3867H552.922Z" fill="#0A4E99"/>
<path d="M562 95L566 91L562 87" stroke="#0A4E99" stroke-width="1.5" stroke-linecap="round" stroke-linejoin="round"/>
<line x1="328" y1="114.5" x2="592" y2="114.5" stroke="black" stroke-opacity="0.2"/>
<path d="M372 194.273C369.228 192.081 366.234 190.214 363.018 188.674C359.803 187.134 356.425 186.231 352.883 185.967V165.439C356.576 165.671 360.018 166.668 363.209 168.43C366.4 170.192 369.331 172.229 372 174.541C374.669 172.229 377.6 170.192 380.791 168.43C383.982 166.668 387.424 165.671 391.117 165.439V185.967C387.568 186.231 384.188 187.134 380.976 188.674C377.764 190.214 374.772 192.081 372 194.273ZM372 191.615C374.54 189.754 377.231 188.149 380.073 186.8C382.915 185.451 385.907 184.559 389.05 184.123V167.824C385.46 168.427 382.26 169.666 379.45 171.542C376.639 173.418 374.156 175.435 372 177.591C369.844 175.435 367.361 173.418 364.55 171.542C361.74 169.666 358.54 168.427 354.95 167.824V184.123C358.093 184.516 361.085 185.397 363.927 186.768C366.769 188.138 369.46 189.754 372 191.615ZM372 165.757C369.532 165.757 367.438 164.897 365.718 163.177C363.997 161.456 363.137 159.362 363.137 156.894C363.137 154.427 363.997 152.333 365.718 150.612C367.438 148.892 369.532 148.032 372 148.032C374.467 148.032 376.561 148.892 378.282 150.612C380.002 152.333 380.863 154.427 380.863 156.894C380.863 159.362 380.002 161.456 378.282 163.177C376.561 164.897 374.467 165.757 372 165.757ZM372.002 163.691C373.871 163.691 375.471 163.025 376.801 161.694C378.131 160.362 378.796 158.762 378.796 156.893C378.796 155.023 378.13 153.423 376.799 152.093C375.468 150.763 373.868 150.098 371.998 150.098C370.129 150.098 368.529 150.764 367.199 152.095C365.869 153.426 365.204 155.026 365.204 156.896C365.204 158.765 365.87 160.365 367.201 161.695C368.532 163.025 370.132 163.691 372.002 163.691Z" fill="#6C757D"/>
<path d="M442.344 140.625V142.031H429.469V140.625H435.016V139.375C432.438 139.188 430.797 138.148 430.797 136.516C430.797 134.75 432.812 133.656 435.891 133.656C438.969 133.656 440.969 134.75 440.984 136.516C440.969 138.148 439.344 139.188 436.766 139.375V140.625H442.344ZM440.891 145.703V147.109H431.062V143H432.797V145.703H440.891ZM435.891 135.031C433.844 135.047 432.594 135.578 432.609 136.516C432.594 137.5 433.844 138 435.891 138C437.953 138 439.188 137.5 439.188 136.516C439.188 135.578 437.953 135.047 435.891 135.031ZM454.359 133.266V138.688H456.531V140.141H454.359V147.406H452.641V133.266H454.359ZM450.359 134.5V139.828H445.609V142.641C447.844 142.625 449.586 142.531 451.562 142.188L451.719 143.594C449.547 143.984 447.609 144.078 445.047 144.078H443.891V138.438H448.625V135.906H443.859V134.5H450.359ZM468.891 133.281V143.484H467.141V133.281H468.891ZM469.281 145.703V147.109H459.547V142.453H461.297V145.703H469.281ZM461.188 134.203C463.328 134.203 464.984 135.688 464.984 137.734C464.984 139.828 463.328 141.281 461.188 141.281C459.031 141.281 457.375 139.828 457.375 137.734C457.375 135.688 459.031 134.203 461.188 134.203ZM461.188 135.719C459.984 135.719 459.062 136.516 459.078 137.734C459.062 138.984 459.984 139.766 461.188 139.766C462.359 139.766 463.281 138.984 463.281 137.734C463.281 136.516 462.359 135.719 461.188 135.719ZM482.531 134.562V136C482.531 137.75 482.531 139.656 482.016 142.422L480.312 142.25C480.797 139.641 480.797 137.703 480.797 136V135.953H472.25V134.562H482.531ZM483.828 144.141V145.562H470.953V144.141H473.844V139.641H475.578V144.141H477.375V139.641H479.078V144.141H483.828ZM497.656 139.938V141.328H494.438V142.797H496.078V147.391H494.344V144.156H486.203V142.797H487.953V141.328H484.781V139.938H497.656ZM491.203 133.562C494.297 133.562 496.281 134.609 496.297 136.312C496.281 138.031 494.297 139.078 491.203 139.078C488.109 139.078 486.109 138.031 486.109 136.312C486.109 134.609 488.109 133.562 491.203 133.562ZM491.203 134.922C489.141 134.922 487.906 135.422 487.922 136.312C487.906 137.234 489.141 137.734 491.203 137.734C493.266 137.734 494.5 137.234 494.5 136.312C494.5 135.422 493.266 134.922 491.203 134.922ZM489.688 142.797H492.719V141.328H489.688V142.797ZM510.688 133.266V143.844H509.031V133.266H510.688ZM507.859 133.516V143.422H506.203V138.047H504.312V136.625H506.203V133.516H507.859ZM511.078 145.703V147.109H501.234V142.578H502.969V145.703H511.078ZM502.969 136.156C502.969 137.797 503.781 139.453 505.578 140.25L504.609 141.594C503.422 141.047 502.609 140.094 502.141 138.938C501.641 140.234 500.758 141.328 499.469 141.938L498.516 140.625C500.391 139.719 501.281 137.828 501.281 136.156V134.234H502.969V136.156ZM524.281 133.266V147.406H522.562V139.781H519.906V138.375H522.562V133.266H524.281ZM519.688 134.484V135.906H514.828V138.438H519.125V139.812H514.828V142.719C516.977 142.711 518.586 142.641 520.406 142.344L520.578 143.75C518.516 144.062 516.719 144.141 514.188 144.156H513.078V134.484H519.688Z" fill="black"/>
<path d="M438.422 159.09V159.852H429.891V159.09H433.711V157.707H434.613V159.09H438.422ZM438.961 165.992V166.754H429.422V165.992H431.941V164.059C431.168 163.73 430.74 163.197 430.746 162.488C430.734 161.246 432.047 160.531 434.168 160.531C436.277 160.531 437.59 161.246 437.59 162.488C437.59 163.197 437.156 163.736 436.383 164.059V165.992H438.961ZM434.168 161.258C432.609 161.258 431.66 161.715 431.672 162.488C431.66 163.25 432.609 163.707 434.168 163.707C435.703 163.707 436.652 163.25 436.652 162.488C436.652 161.715 435.703 161.258 434.168 161.258ZM432.867 165.992H435.48V164.316C435.088 164.398 434.648 164.434 434.168 164.434C433.693 164.434 433.254 164.398 432.867 164.328V165.992ZM445.33 158.691V159.23C445.319 160.051 445.319 161.434 445.026 163.367L444.1 163.285C444.381 161.539 444.405 160.273 444.405 159.441H440.033V158.691H445.33ZM442.6 161.668V164.832C443.754 164.791 444.938 164.715 446.022 164.586L446.069 165.277C443.877 165.617 441.428 165.664 439.565 165.652L439.448 164.891C440.133 164.885 440.895 164.879 441.698 164.855V161.668H442.6ZM447.592 157.531V161.891H449.28V162.688H447.592V167.949H446.678V157.531H447.592ZM453.305 159.453C453.305 160.812 454.348 162.102 455.872 162.629L455.391 163.355C454.213 162.934 453.305 162.061 452.86 160.988C452.409 162.189 451.448 163.15 450.211 163.602L449.731 162.875C451.266 162.324 452.379 160.93 452.379 159.465V159.008H450.024V158.258H455.637V159.008H453.305V159.453ZM458.321 164.328V167.949H457.395V165.09H451.313V164.328H458.321ZM458.321 157.531V163.777H457.395V161.035H455.309V160.262H457.395V157.531H458.321ZM468.417 157.543V165.16H467.503V157.543H468.417ZM468.745 166.953V167.727H461.69V164.387H462.604V166.953H468.745ZM462.792 158.27C464.35 158.27 465.522 159.324 465.522 160.824C465.522 162.348 464.35 163.391 462.792 163.391C461.233 163.391 460.061 162.348 460.061 160.824C460.061 159.324 461.233 158.27 462.792 158.27ZM462.792 159.078C461.737 159.078 460.952 159.805 460.964 160.824C460.952 161.867 461.737 162.582 462.792 162.582C463.823 162.582 464.62 161.867 464.62 160.824C464.62 159.805 463.823 159.078 462.792 159.078ZM478.952 158.656V159.406H472.741V158.656H475.39V157.484H476.304V158.656H478.952ZM475.847 159.945C477.347 159.957 478.343 160.684 478.355 161.832C478.343 162.969 477.347 163.707 475.847 163.707C474.347 163.707 473.327 162.969 473.339 161.832C473.327 160.684 474.347 159.957 475.847 159.945ZM475.847 160.66C474.862 160.672 474.206 161.129 474.218 161.832C474.206 162.523 474.862 162.969 475.847 162.969C476.82 162.969 477.476 162.523 477.487 161.832C477.476 161.129 476.82 160.672 475.847 160.66ZM480.862 157.531V160.426H482.433V161.199H480.862V164.047H479.948V157.531H480.862ZM480.862 164.621V167.949H479.948V165.371H474.042V164.621H480.862ZM484.97 163.789V165.008H490.173V163.789H491.099V167.809H484.056V163.789H484.97ZM484.97 167.07H490.173V165.734H484.97V167.07ZM492.341 162.289V163.051H482.849V162.289H492.341ZM488.076 158.141C488.076 159.43 489.974 160.578 491.802 160.812L491.462 161.551C489.845 161.311 488.263 160.484 487.607 159.312C486.939 160.49 485.345 161.311 483.74 161.551L483.388 160.812C485.24 160.566 487.126 159.465 487.126 158.141V157.648H488.076V158.141ZM497.726 157.719C500.047 157.719 501.406 158.352 501.406 159.512C501.406 160.695 500.047 161.328 497.726 161.34C495.406 161.328 494.035 160.695 494.035 159.512C494.035 158.352 495.406 157.719 497.726 157.719ZM497.726 158.41C495.992 158.41 494.984 158.832 494.996 159.512C494.984 160.238 495.992 160.637 497.726 160.637C499.449 160.637 500.468 160.238 500.468 159.512C500.468 158.832 499.449 158.41 497.726 158.41ZM502.472 162.043V162.793H492.98V162.043H502.472ZM501.254 163.695V166.027H495.066V167.105H501.57V167.832H494.152V165.348H500.351V164.398H494.129V163.695H501.254ZM509.317 158.047C510.875 158.035 511.988 158.891 511.988 160.168C511.988 161.434 510.875 162.312 509.317 162.301C507.758 162.312 506.645 161.434 506.645 160.168C506.645 158.891 507.758 158.035 509.317 158.047ZM509.317 158.797C508.274 158.785 507.535 159.359 507.547 160.168C507.535 160.988 508.274 161.551 509.317 161.539C510.371 161.551 511.11 160.988 511.11 160.168C511.11 159.359 510.371 158.785 509.317 158.797ZM514.473 157.543V167.961H513.57V157.543H514.473ZM505.86 163.191C507.817 163.191 510.488 163.156 512.809 162.816L512.867 163.508C511.871 163.689 510.834 163.801 509.832 163.859V167.633H508.918V163.918C507.858 163.965 506.856 163.971 505.988 163.977L505.86 163.191ZM524.159 157.543V160.977H525.729V161.75H524.159V165.348H523.245V157.543H524.159ZM522.248 158.82V159.57H516.037V158.82H518.686V157.543H519.6V158.82H522.248ZM519.143 160.145C520.631 160.145 521.639 160.906 521.651 162.09C521.639 163.262 520.631 164.012 519.143 164.012C517.643 164.012 516.623 163.262 516.635 162.09C516.623 160.906 517.643 160.145 519.143 160.145ZM519.143 160.871C518.159 160.871 517.502 161.352 517.514 162.09C517.502 162.828 518.159 163.297 519.143 163.285C520.116 163.297 520.772 162.828 520.784 162.09C520.772 161.352 520.116 160.871 519.143 160.871ZM524.639 166.953V167.727H517.643V164.727H518.545V166.953H524.639ZM537.284 158.586V159.746C537.284 161.082 537.284 162.43 536.909 164.363L536.007 164.258C536.382 162.418 536.382 161.047 536.382 159.746V159.348H529.913V158.586H537.284ZM538.409 165.711V166.473H528.917V165.711H531.272V162.277H532.186V165.711H533.874V162.277H534.776V165.711H538.409ZM548.54 162.559V163.309H546.009V164.633H547.368V167.949H546.442V165.371H540.103V164.633H541.567V163.309H539.048V162.559H548.54ZM543.794 157.789C546.056 157.777 547.474 158.527 547.474 159.77C547.474 161.023 546.056 161.773 543.794 161.762C541.532 161.773 540.103 161.023 540.103 159.77C540.103 158.527 541.532 157.777 543.794 157.789ZM543.794 158.527C542.107 158.516 541.04 158.996 541.052 159.77C541.04 160.566 542.107 161.047 543.794 161.047C545.458 161.047 546.536 160.566 546.536 159.77C546.536 158.996 545.458 158.516 543.794 158.527ZM542.493 164.633H545.107V163.309H542.493V164.633ZM560.541 157.531V162.934H559.638V157.531H560.541ZM560.552 163.461V165.957H554.705V167.082H560.927V167.832H553.802V165.242H559.638V164.199H553.779V163.461H560.552ZM555.642 158.633C555.63 160.109 556.755 161.41 558.302 161.914L557.845 162.629C556.627 162.213 555.654 161.34 555.185 160.215C554.716 161.428 553.738 162.383 552.502 162.828L552.021 162.102C553.591 161.551 554.705 160.168 554.705 158.633V157.836H555.642V158.633ZM570.719 157.543V165.184H569.793V161.188H567.648V160.426H569.793V157.543H570.719ZM571.012 166.953V167.727H564.027V164.492H564.953V166.953H571.012ZM565.703 159.688C565.703 161.035 566.746 162.348 568.269 162.863L567.789 163.602C566.611 163.18 565.703 162.301 565.258 161.223C564.806 162.424 563.846 163.385 562.609 163.848L562.129 163.098C563.664 162.559 564.777 161.188 564.777 159.688V159.148H562.422V158.387H568.035V159.148H565.703V159.688ZM437.484 173.531V177.773H439.172V178.547H437.484V183.949H436.57V173.531H437.484ZM434.789 174.656C434.789 177.609 433.406 180.293 430.008 181.969L429.492 181.242C432.188 179.9 433.652 177.896 433.863 175.43H429.973V174.656H434.789ZM447.967 176.449V177.211H440.854V173.742H441.768V176.449H447.967ZM449.057 178.43V179.191H439.553V178.43H449.057ZM444.299 180.129C446.537 180.129 447.873 180.809 447.885 182.016C447.873 183.223 446.537 183.902 444.299 183.902C442.049 183.902 440.701 183.223 440.701 182.016C440.701 180.809 442.049 180.129 444.299 180.129ZM444.299 180.855C442.623 180.867 441.627 181.277 441.639 182.016C441.627 182.742 442.623 183.188 444.299 183.188C445.951 183.188 446.959 182.742 446.959 182.016C446.959 181.277 445.951 180.867 444.299 180.855ZM457.829 173.543V176.977H459.399V177.75H457.829V181.348H456.915V173.543H457.829ZM455.918 174.82V175.57H449.708V174.82H452.356V173.543H453.27V174.82H455.918ZM452.813 176.145C454.301 176.145 455.309 176.906 455.321 178.09C455.309 179.262 454.301 180.012 452.813 180.012C451.313 180.012 450.293 179.262 450.305 178.09C450.293 176.906 451.313 176.145 452.813 176.145ZM452.813 176.871C451.829 176.871 451.172 177.352 451.184 178.09C451.172 178.828 451.829 179.297 452.813 179.285C453.786 179.297 454.442 178.828 454.454 178.09C454.442 177.352 453.786 176.871 452.813 176.871ZM458.309 182.953V183.727H451.313V180.727H452.215V182.953H458.309ZM468.188 174.117V174.867H464.122V176.145H467.895V176.895H464.122V178.242C466.343 178.23 467.573 178.178 469.044 177.926L469.138 178.688C467.614 178.934 466.337 178.992 464.04 178.992H463.196V174.117H468.188ZM471.188 173.531V179.332H470.274V173.531H471.188ZM465.353 179.848V181.031H470.274V179.848H471.188V183.809H464.438V179.848H465.353ZM465.353 183.059H470.274V181.77H465.353V183.059ZM478.495 174.691V175.23C478.484 176.051 478.484 177.434 478.191 179.367L477.265 179.285C477.546 177.539 477.57 176.273 477.57 175.441H473.198V174.691H478.495ZM475.765 177.668V180.832C476.919 180.791 478.103 180.715 479.187 180.586L479.234 181.277C477.042 181.617 474.593 181.664 472.73 181.652L472.612 180.891C473.298 180.885 474.06 180.879 474.862 180.855V177.668H475.765ZM480.757 173.531V177.891H482.445V178.688H480.757V183.949H479.843V173.531H480.757ZM494.257 173.543V181.184H493.332V177.188H491.187V176.426H493.332V173.543H494.257ZM494.55 182.953V183.727H487.566V180.492H488.492V182.953H494.55ZM489.242 175.688C489.242 177.035 490.285 178.348 491.808 178.863L491.328 179.602C490.15 179.18 489.242 178.301 488.797 177.223C488.345 178.424 487.384 179.385 486.148 179.848L485.668 179.098C487.203 178.559 488.316 177.188 488.316 175.688V175.148H485.961V174.387H491.574V175.148H489.242V175.688ZM505.467 175.207V175.969H503.896V177.387H505.467V178.16H503.896V179.871H502.982V173.543H503.896V175.207H505.467ZM500.92 174.164V177.035H497.123V178.547C498.975 178.547 500.316 178.482 501.939 178.207L502.033 178.969C500.357 179.25 498.963 179.309 497.029 179.309H496.221V176.309H500.018V174.914H496.197V174.164H500.92ZM503.896 180.422V183.949H502.982V181.172H497.076V180.422H503.896ZM517.561 173.531V183.949H516.682V173.531H517.561ZM515.452 173.789V183.41H514.584V178.043H512.827V177.293H514.584V173.789H515.452ZM511.713 176.508C511.713 178.312 512.522 180.105 513.963 180.938L513.401 181.617C512.375 181.002 511.649 179.877 511.291 178.547C510.911 179.982 510.155 181.207 509.112 181.863L508.526 181.172C509.979 180.305 510.823 178.406 510.823 176.508V175.523H508.819V174.762H513.623V175.523H511.713V176.508ZM523.497 180.117C525.735 180.117 527.153 180.82 527.153 182.027C527.153 183.223 525.735 183.926 523.497 183.926C521.27 183.926 519.852 183.223 519.852 182.027C519.852 180.82 521.27 180.117 523.497 180.117ZM523.497 180.82C521.833 180.832 520.755 181.289 520.766 182.027C520.755 182.754 521.833 183.199 523.497 183.199C525.161 183.199 526.227 182.754 526.239 182.027C526.227 181.289 525.161 180.832 523.497 180.82ZM527.071 174.07V174.949C527.071 175.793 527.071 176.637 526.778 177.715L525.876 177.609C526.157 176.531 526.157 175.77 526.157 174.949V174.82H519.923V174.07H527.071ZM528.278 178.395V179.145H518.798V178.395H522.723V176.379H523.626V178.395H528.278Z" fill="#6C757D"/>
<path d="M439.309 206.471V210.066H430.736V206.471H439.309ZM432.24 207.619V208.918H437.832V207.619H432.24ZM440.061 198.801V199.949H429.971V198.801H434.277V197.721H435.795V198.801H440.061ZM435.029 200.332C437.668 200.332 439.145 200.92 439.145 202.082C439.145 203.128 437.955 203.716 435.795 203.818V204.543H440.676V205.746H429.41V204.543H434.277V203.818C432.131 203.723 430.928 203.128 430.928 202.082C430.928 200.92 432.418 200.332 435.029 200.332ZM435.029 201.357C433.389 201.371 432.555 201.576 432.555 202.082C432.555 202.574 433.389 202.807 435.029 202.807C436.684 202.807 437.518 202.574 437.518 202.082C437.518 201.576 436.684 201.371 435.029 201.357ZM452.242 197.857V210.217H450.793V197.857H452.242ZM449.781 198.117V209.602H448.332V203.777H446.965V202.424H448.332V198.117H449.781ZM447.279 199.32V200.551H446.404V205.883C446.794 205.849 447.163 205.808 447.512 205.76L447.607 206.867C445.666 207.264 443.123 207.305 441.551 207.305L441.373 206.047L442.494 206.033V200.551H441.619V199.32H447.279ZM443.861 206.006L445.01 205.965V200.551H443.861V206.006ZM463.891 197.857V210.23H462.359V197.857H463.891ZM457.232 198.76C459.092 198.76 460.445 200.455 460.459 203.121C460.445 205.814 459.092 207.496 457.232 207.496C455.359 207.496 454.006 205.814 454.006 203.121C454.006 200.455 455.359 198.76 457.232 198.76ZM457.232 200.127C456.18 200.127 455.469 201.234 455.469 203.121C455.469 205.021 456.18 206.129 457.232 206.129C458.271 206.129 458.982 205.021 458.982 203.121C458.982 201.234 458.271 200.127 457.232 200.127ZM470.371 201.371C470.371 203.395 471.561 205.527 473.557 206.361L472.723 207.564C471.26 206.936 470.193 205.637 469.633 204.064C469.059 205.76 467.979 207.182 466.529 207.865L465.654 206.676C467.609 205.773 468.826 203.477 468.826 201.371V200.332H466.105V199.074H473.078V200.332H470.371V201.371ZM475.99 197.857V210.217H474.459V197.857H475.99ZM490.811 197.857V202.561H492.711V203.846H490.811V210.217H489.293V197.857H490.811ZM483.072 198.869V201.959H485.984V198.869H487.502V207.318H481.568V198.869H483.072ZM483.072 206.074H485.984V203.148H483.072V206.074ZM504.523 207.523V208.781H493.23V207.523H498.098V205.514H494.57V201.467H501.68V199.936H494.543V198.705H503.184V202.67H496.088V204.27H503.471V205.514H499.602V207.523H504.523ZM515.01 197.857V202.684H516.842V203.955H515.01V210.189H513.492V197.857H515.01ZM511.742 199.143C511.742 202.779 510.238 205.965 506.123 207.988L505.262 206.812C508.27 205.315 509.896 203.21 510.211 200.4H505.932V199.143H511.742ZM527.752 197.857V210.217H526.221V197.857H527.752ZM524.061 199.17C524.061 202.848 522.639 205.979 518.305 208.029L517.512 206.812C520.745 205.274 522.249 203.183 522.516 200.373H518.141V199.17H524.061Z" fill="#0A4E99"/>
<path d="M538 208L542 204L538 200" stroke="#0A4E99" stroke-width="1.5" stroke-linecap="round" stroke-linejoin="round"/>
<defs>
<clipPath id="clip0_26_865">
<rect width="173" height="48" fill="white" transform="translate(48 36)"/>
</clipPath>
</defs>
</svg>
