<svg id="레이어_1" data-name="레이어 1" xmlns="http://www.w3.org/2000/svg" viewBox="0 0 284.74 173.33"><defs><style>.cls-1{fill:#1d2b4e;}.cls-2{fill:#0a4e99;}.cls-3{fill:#231815;}.cls-4{fill:none;stroke:#154797;stroke-miterlimit:10;stroke-width:3.5px;}.cls-5{fill:#928f92;}.cls-6{fill:#204a88;}.cls-7{fill:#008ec5;}.cls-8{fill:#224899;}</style></defs><path class="cls-1" d="M28.86,34.31h2.81l4.61,10.06,4.63-10.06h2.81L41.11,40l2,4.39,4.63-10.06h2.79L44.22,48.07H42L39.7,43l-2.3,5H35.18c-.85-1.85-1.59-3.46-2.22-4.81s-1.15-2.53-1.6-3.5-.81-1.76-1.09-2.39l-.68-1.5c-.18-.37-.31-.65-.39-.83L29,34.65l-.08-.17A.68.68,0,0,1,28.86,34.31Z"/><path class="cls-2" d="M54,34.29V36.4H51.46V34.29ZM51.46,48.07V37.81H54V48.07Z"/><path class="cls-2" d="M58.54,37.81v1.13a2.89,2.89,0,0,1,1.12-.85A3.36,3.36,0,0,1,61,37.81a5.32,5.32,0,0,1,1.92.35,5,5,0,0,1,1.58,1,4.72,4.72,0,0,1,1.06,1.53,4.78,4.78,0,0,1,.39,2v5.44H63.44V42.63a2.12,2.12,0,0,0-.19-.93,2.1,2.1,0,0,0-.52-.69,2.14,2.14,0,0,0-.78-.44,3.06,3.06,0,0,0-1-.15,2.59,2.59,0,0,0-1.13.22,2.14,2.14,0,0,0-.75.57,2.26,2.26,0,0,0-.43.81,3.1,3.1,0,0,0-.14.92v5.13H56V37.81Z"/><path class="cls-1" d="M73.94,45.46a4,4,0,0,0,1.76-.4,3.93,3.93,0,0,0,1.43-1.14l1.94,1.67a6.54,6.54,0,0,1-2.29,1.83,6.36,6.36,0,0,1-2.84.65,6.5,6.5,0,0,1-2.6-.53,6.74,6.74,0,0,1-2.13-1.48,7.18,7.18,0,0,1-1.44-2.19,7.07,7.07,0,0,1,0-5.37,7.26,7.26,0,0,1,1.44-2.18,6.71,6.71,0,0,1,2.13-1.47,6.34,6.34,0,0,1,2.6-.54,6.56,6.56,0,0,1,5.13,2.48l-1.94,1.67a3.93,3.93,0,0,0-1.43-1.14,4.1,4.1,0,0,0-3.38-.07,4.24,4.24,0,0,0-1.32.92,4.43,4.43,0,0,0-.9,1.35,4.38,4.38,0,0,0-.32,1.66,4.43,4.43,0,0,0,.32,1.67,4.36,4.36,0,0,0,.9,1.36,4.24,4.24,0,0,0,1.32.92A4,4,0,0,0,73.94,45.46Z"/><path class="cls-2" d="M82.89,34.31v4.63A3.12,3.12,0,0,1,84,38.09a3.29,3.29,0,0,1,1.37-.28,5.41,5.41,0,0,1,1.93.35,5,5,0,0,1,1.57,1,4.57,4.57,0,0,1,1.06,1.53,4.78,4.78,0,0,1,.39,2v5.44H87.79V42.63a2.12,2.12,0,0,0-.19-.93,2,2,0,0,0-.52-.69,2.14,2.14,0,0,0-.78-.44,3,3,0,0,0-1-.15,2.51,2.51,0,0,0-1.12.22,2.09,2.09,0,0,0-.76.57A2.26,2.26,0,0,0,83,42a3.1,3.1,0,0,0-.14.92v5.13H80.35V34.31Z"/><path class="cls-2" d="M96.64,37.81a4.79,4.79,0,0,1,2.2.53,4.93,4.93,0,0,1,1.74,1.47,5.14,5.14,0,0,1,.88,4.43H94.53a2.41,2.41,0,0,0,.82.86,2.21,2.21,0,0,0,1.11.36,3.17,3.17,0,0,0,1.14-.2,2.37,2.37,0,0,0,.93-.71l1.94,1.67a4.94,4.94,0,0,1-3.83,1.85,5,5,0,0,1-1.15-.13,4.33,4.33,0,0,1-1.09-.4,4.85,4.85,0,0,1-1.36-1,5.18,5.18,0,0,1-.93-1.4,5.07,5.07,0,0,1-.45-1.63,5.32,5.32,0,0,1,.11-1.73,4.92,4.92,0,0,1,.66-1.6,5.28,5.28,0,0,1,1.1-1.25A4.63,4.63,0,0,1,95,38.1,4.93,4.93,0,0,1,96.64,37.81Zm2.1,3.83a2.48,2.48,0,0,0-.9-.89,2.37,2.37,0,0,0-2.41,0,2.48,2.48,0,0,0-.9.89Z"/><path class="cls-2" d="M107.59,45.46a2.3,2.3,0,0,0,1-.24,2.5,2.5,0,0,0,.85-.67l1.94,1.67a4.86,4.86,0,0,1-3.83,1.85,4.71,4.71,0,0,1-1.94-.4A5.21,5.21,0,0,1,103,41a5.21,5.21,0,0,1,1.08-1.63,5,5,0,0,1,1.58-1.1,4.72,4.72,0,0,1,1.94-.41,4.86,4.86,0,0,1,3.83,1.85l-1.94,1.67a2.63,2.63,0,0,0-.85-.67,2.3,2.3,0,0,0-1-.24,2.39,2.39,0,0,0-1,.2,2.5,2.5,0,0,0-.78.53,2.45,2.45,0,0,0-.52.81,2.52,2.52,0,0,0-.19,1,2.48,2.48,0,0,0,.19,1,2.45,2.45,0,0,0,.52.81,2.37,2.37,0,0,0,1.74.73Z"/><path class="cls-2" d="M118.07,41.5l4.52,6.57h-3.21c-.55-.81-1-1.53-1.48-2.16l-1.15-1.64L115.92,43c-.24-.34-.44-.62-.61-.84v5.87h-2.54V34.31h2.54v6.3l.37-.33.62-.51q.38-.32,1-.78l1.5-1.18h4Z"/><path class="cls-3" d="M74.16,73.2H59.65a.52.52,0,1,1,0-1H74.16a.52.52,0,1,1,0,1Z"/><path class="cls-3" d="M53,73.2H47a.52.52,0,1,1,0-1H53a.52.52,0,0,1,0,1Z"/><path class="cls-3" d="M40.94,73.2h-2.6a.52.52,0,1,1,0-1h2.6a.52.52,0,0,1,0,1Z"/><path class="cls-3" d="M32.31,73.2H29.37a.52.52,0,0,1,0-1h2.94a.52.52,0,1,1,0,1Z"/><path class="cls-3" d="M71.78,100.8h-40a2.9,2.9,0,0,1-2.89-2.9V71.49a2.9,2.9,0,0,1,2.89-2.89h.56v1h-.56a1.86,1.86,0,0,0-1.86,1.86V97.9a1.87,1.87,0,0,0,1.86,1.87h40a1.87,1.87,0,0,0,1.87-1.87V71.49a1.87,1.87,0,0,0-1.87-1.86H59.18v-1h12.6a2.9,2.9,0,0,1,2.9,2.89V97.9A2.9,2.9,0,0,1,71.78,100.8Z"/><rect class="cls-3" x="46.96" y="68.6" width="6.19" height="1.03"/><rect class="cls-3" x="38.34" y="68.6" width="2.6" height="1.03"/><path class="cls-3" d="M36.59,96.24H34.06A2.26,2.26,0,0,1,31.8,94V65.67a2.26,2.26,0,0,1,2.26-2.26h2.53a2.26,2.26,0,0,1,2.26,2.26V94A2.26,2.26,0,0,1,36.59,96.24Zm-2.53-31.8a1.23,1.23,0,0,0-1.23,1.23V94a1.23,1.23,0,0,0,1.23,1.23h2.53A1.23,1.23,0,0,0,37.82,94V65.67a1.23,1.23,0,0,0-1.23-1.23Z"/><path class="cls-3" d="M45.77,96.24H42.13v-1h3.64a.67.67,0,0,0,.67-.67V66.12a.67.67,0,0,0-.67-.68H42.13a.67.67,0,0,0-.68.68v11h-1v-11a1.72,1.72,0,0,1,1.71-1.71h3.64a1.71,1.71,0,0,1,1.7,1.71V94.54A1.7,1.7,0,0,1,45.77,96.24Z"/><path class="cls-3" d="M41.27,96.24H38.64v-1h2.63a.93.93,0,0,0,.51-.13V77.81a.83.83,0,0,0-.51-.14H38.34v-1h2.93c.88,0,1.53.48,1.53,1.11V95.12C42.8,95.76,42.15,96.24,41.27,96.24Z"/><path class="cls-3" d="M49.8,96.24H47.17v-1H49.8a.59.59,0,0,0,.51-.19v-20a.61.61,0,0,0-.5-.18H46.87v-1H49.8a1.38,1.38,0,0,1,1.53,1.21V95A1.38,1.38,0,0,1,49.8,96.24Z"/><circle class="cls-3" cx="64.74" cy="75.1" r="0.73"/><path class="cls-3" d="M69.34,77.67H64.56a.51.51,0,1,1,0-1h4.78a.51.51,0,1,1,0,1Z"/><path class="cls-3" d="M67.49,79.55H64.56a.52.52,0,1,1,0-1h2.93a.52.52,0,1,1,0,1Z"/><circle class="cls-3" cx="64.74" cy="82.29" r="0.73"/><path class="cls-3" d="M69.34,84.86H64.56a.52.52,0,1,1,0-1h4.78a.52.52,0,1,1,0,1Z"/><path class="cls-3" d="M67.49,86.74H64.56a.52.52,0,1,1,0-1h2.93a.52.52,0,1,1,0,1Z"/><circle class="cls-3" cx="64.74" cy="89.41" r="0.73"/><path class="cls-3" d="M69.34,92H64.56a.51.51,0,1,1,0-1h4.78a.51.51,0,1,1,0,1Z"/><path class="cls-3" d="M67.49,93.86H64.56a.52.52,0,1,1,0-1h2.93a.52.52,0,1,1,0,1Z"/><path class="cls-3" d="M57.43,96.24H54.9A2.26,2.26,0,0,1,52.64,94V65.67a2.26,2.26,0,0,1,2.26-2.26h2.53a2.26,2.26,0,0,1,2.26,2.26V94A2.26,2.26,0,0,1,57.43,96.24ZM54.9,64.44a1.23,1.23,0,0,0-1.23,1.23V94a1.23,1.23,0,0,0,1.23,1.23h2.53A1.23,1.23,0,0,0,58.66,94V65.67a1.23,1.23,0,0,0-1.23-1.23Z"/><path class="cls-3" d="M73.84,96.45H29.69a.72.72,0,0,1,0-1.44H73.84a.72.72,0,0,1,0,1.44Z"/><rect class="cls-3" x="48.62" y="100.78" width="1.03" height="5.1"/><rect class="cls-3" x="55.22" y="100.29" width="1.03" height="5.6"/><path class="cls-3" d="M61.59,108.15H43.28a1.14,1.14,0,0,1,0-2.28H61.59a1.14,1.14,0,0,1,0,2.28ZM43.28,106.9a.11.11,0,1,0,0,.22H61.59a.11.11,0,1,0,0-.22Z"/><path class="cls-3" d="M249.39,155.41l-.14,0-.14,0H215.34a.45.45,0,0,1-.44-.45v-2.4a.45.45,0,0,1,.44-.45h34a.45.45,0,0,1,.45.45V155A.45.45,0,0,1,249.39,155.41Zm-33.6-.89h33.15V153H215.79Z"/><path class="cls-3" d="M240.94,155.41a.45.45,0,0,1-.45-.45v-2.38L239,136.48h-24.8l1.63,16V155a.45.45,0,1,1-.89,0v-2.38l-1.68-16.5a.47.47,0,0,1,.11-.34.44.44,0,0,1,.33-.15h25.71a.44.44,0,0,1,.44.4l1.57,16.52V155A.45.45,0,0,1,240.94,155.41Z"/><path class="cls-3" d="M226.48,147.07a2.71,2.71,0,0,1-.79-.12,3.37,3.37,0,0,1-2.11-2.61.47.47,0,0,1,.1-.36.46.46,0,0,1,.34-.16h2.08V142a.43.43,0,0,1,.37-.44,2.34,2.34,0,0,1,2,.45,3.29,3.29,0,0,1,.94,2.29,2.65,2.65,0,0,1-.84,1.85A2.92,2.92,0,0,1,226.48,147.07Zm-1.86-2.36a2.17,2.17,0,0,0,1.33,1.38,1.93,1.93,0,0,0,2-.54,1.73,1.73,0,0,0,.58-1.22,2.4,2.4,0,0,0-.63-1.61,1.27,1.27,0,0,0-.86-.28v1.83a.45.45,0,0,1-.45.44Z"/><path class="cls-3" d="M225,134.86a.45.45,0,0,1-.45-.45V130.6a.45.45,0,0,1,.9,0v3.81A.45.45,0,0,1,225,134.86Z"/><path class="cls-3" d="M218.14,134.86a.45.45,0,0,1-.44-.45,21,21,0,0,1,.77-3.29,6.52,6.52,0,0,1,1.82-3.08,5.38,5.38,0,0,1,3.74-1.58c3,.06,10.33,0,10.41,0h0a.46.46,0,0,1,.45.44.45.45,0,0,1-.45.45c-.07,0-7.43.06-10.43,0a4.44,4.44,0,0,0-3.11,1.35,5.53,5.53,0,0,0-1.56,2.65c-.69,2.61-.75,3-.75,3.07A.44.44,0,0,1,218.14,134.86Z"/><path class="cls-3" d="M237.48,131.9h-.15A3.2,3.2,0,0,1,234,129v-3.18a.45.45,0,0,1,.9,0V129a2.28,2.28,0,0,0,2.46,2h.06a1.72,1.72,0,0,0,1.26-.47c.69-.64,1-1.89,1-3.61a.45.45,0,0,1,.44-.46h0a.45.45,0,0,1,.45.44c.05,2-.39,3.48-1.31,4.3A2.64,2.64,0,0,1,237.48,131.9Z"/><path class="cls-3" d="M253.31,155.41h-2.52a.45.45,0,1,1,0-.89h2.49c5.34-.68,4.87-5.9,4.85-6.12s-1.74-15.63-2.18-18.17a3.17,3.17,0,0,0-1.34-2,4.55,4.55,0,0,0-2.68-.85H240.11a.45.45,0,0,1-.45-.44v-6.55a.45.45,0,0,1,.41-.45,1.44,1.44,0,0,0,1.19-.57,2.23,2.23,0,0,0,0-1.73.32.32,0,0,1,0-.19c.13-2.18-.29-3.81-1.25-4.87a4.06,4.06,0,0,0-2.8-1.27c-1.12,0-3.83,1.09-4.78,1.53a.43.43,0,0,1-.19,0h-2.06a13.23,13.23,0,0,0,.06,2.15,2.53,2.53,0,0,0,1.83,2.18.46.46,0,0,1,.34.45s-.11,3.74,0,5.33a2.25,2.25,0,0,0,1.48,1.79l.1,0c1.37.85,3.37-.38,3.39-.39a.44.44,0,0,1,.61.14.45.45,0,0,1-.14.62c-.1.06-2.46,1.51-4.29.42a3.09,3.09,0,0,1-2.05-2.56c-.09-1.36,0-4.13,0-5.09a3.41,3.41,0,0,1-2.15-2.85,8,8,0,0,1,0-2.82.44.44,0,0,1,.42-.3h2.35c.65-.3,3.68-1.63,5.1-1.57a4.89,4.89,0,0,1,3.43,1.56,7.25,7.25,0,0,1,1.48,5.43,3,3,0,0,1-.08,2.43,2.1,2.1,0,0,1-1.47.93v5.72h11.37a5.36,5.36,0,0,1,3.21,1,4,4,0,0,1,1.69,2.6c.45,2.56,2.12,17.59,2.19,18.23,0,.06.59,6.32-5.65,7.1Z"/><path class="cls-3" d="M233.33,118.33a4.32,4.32,0,0,1-1.59-.31.45.45,0,0,1,.36-.82h0a2.84,2.84,0,0,0,3-.51.3.3,0,0,1,.08-.08l3.31-2a.44.44,0,0,1,.47,0,.46.46,0,0,1,.21.42,4,4,0,0,0,.17,1.74,2.18,2.18,0,0,1,2.8.88.44.44,0,0,1-.14.61.43.43,0,0,1-.61-.14,1.38,1.38,0,0,0-1.89-.44.43.43,0,0,1-.35,0c-.68-.21-.86-1.15-.89-1.91l-2.56,1.56A3.3,3.3,0,0,1,233.33,118.33Z"/><path class="cls-3" d="M250.46,147.08H240.21a.45.45,0,1,1,0-.89H250l-1-13.26a.45.45,0,0,1,.41-.48.46.46,0,0,1,.48.41l1.06,13.74a.45.45,0,0,1-.44.48Z"/><path class="cls-3" d="M249.92,137.68a.44.44,0,0,1-.44-.38.45.45,0,0,1,.38-.51l7.55-1.06a.44.44,0,0,1,.51.38.45.45,0,0,1-.38.5L250,137.68Z"/><path class="cls-3" d="M234.85,121.48h-1.12a.27.27,0,0,1-.27-.27v-1.79a.27.27,0,1,1,.54,0V121h.85a.27.27,0,1,1,0,.53Z"/><path class="cls-3" d="M234.94,123.42a3.05,3.05,0,0,1-.72-.08A.27.27,0,0,1,234,123a.28.28,0,0,1,.33-.19s1.19.29,1.58-.36a.26.26,0,0,1,.37-.09.25.25,0,0,1,.09.36A1.61,1.61,0,0,1,234.94,123.42Z"/><line class="cls-4" x1="28.86" y1="22.02" x2="69.9" y2="22.02"/><path class="cls-5" d="M237,60.77c-10.93-.27-19.76-1.73-19.73-3.27,0-1,3.53-1.74,8.83-2.12v-.14c-6.72.36-11.34,1.3-11.36,2.52,0,1.73,9.28,3.36,20.83,3.64,11.08.26,20.17-.81,20.93-2.43C254.71,60.22,246.65,61,237,60.77Z"/><path class="cls-6" d="M241.12,45.69l-3.38,6.17a.41.41,0,0,1-.75,0L228,30a.43.43,0,0,1,.39-.61h5.92a.43.43,0,0,1,.39.27l6.46,15.61A.46.46,0,0,1,241.12,45.69Z"/><path class="cls-6" d="M251.75,45.69l-3.37,6.17a.42.42,0,0,1-.76,0l-9-21.77a.43.43,0,0,1,.38-.61h5.93a.43.43,0,0,1,.39.27l6.45,15.61A.4.4,0,0,1,251.75,45.69Z"/><path class="cls-7" d="M259.25,29.43h-5.9a.42.42,0,0,0-.36.22l-2.34,4.28a.46.46,0,0,0,0,.38l2.74,6.6a.42.42,0,0,0,.76,0l5.5-10.88A.44.44,0,0,0,259.25,29.43Z"/><path class="cls-7" d="M260.69,43.61h0a.24.24,0,0,0-.06.32c2.23,3.48,2.94,6.93,1.67,9.64-2.88,6.16-15,6.57-27.12.91s-19.57-15.25-16.69-21.41c1.31-2.8,4.57-4.48,8.87-4.94a.21.21,0,0,0,.19-.21.21.21,0,0,0-.22-.21c-5.87,0-10.39,1.88-12.08,5.49-3.24,6.91,5,17.91,18.54,24.25s27.26,5.61,30.49-1.3c1.65-3.53.27-8.06-3.27-12.49A.24.24,0,0,0,260.69,43.61Z"/><path class="cls-6" d="M226.65,31.86l-.85-2.35a.14.14,0,0,0-.16-.08c-2.83.8-4.91,2.27-5.82,4.37-1.28,2.94,0,6.56,3,10a.1.1,0,0,0,.15-.12c-1.86-2.7-2.5-5.42-1.5-7.7.82-1.89,2.64-3.23,5.11-4A.12.12,0,0,0,226.65,31.86Z"/><path class="cls-6" d="M259.14,43a23.57,23.57,0,0,0-2.48-2.94.11.11,0,0,0-.16,0l-1.2,2.31a.09.09,0,0,0,0,.11,16.62,16.62,0,0,1,1.82,2.36c1.71,2.64,2.32,5.27,1.46,7.48s-3.26,3.81-6.48,4.41a.1.1,0,0,0,0,.19c4.6-.33,8-2,9.18-5C262.33,49.35,261.44,46.19,259.14,43Z"/><path class="cls-8" d="M128,33.9v2.37h2.34v1.21H128V40h-1.29V37.48H124.4V36.27h2.34V33.9Z"/></svg>