<svg width="680" height="216" viewBox="0 0 680 216" fill="none" xmlns="http://www.w3.org/2000/svg">
<g clip-path="url(#clip0_35_10)">
<rect x="13" y="-1" width="315" height="218" rx="12" fill="white"/>
<path d="M70 35.7031V37.4023C69.9805 39.5898 69.9805 42.0508 69.2969 45.7422L67.1094 45.5078C67.793 42.0703 67.793 39.5605 67.8125 37.4414H57.2656V35.7031H70ZM71.6797 47.6758V49.4531H55.5859V47.6758H61.5234V41.543H63.6719V47.6758H71.6797ZM87.9688 34.1016V44.4531H85.8984V40.0586H84.043V44.375H81.9922V34.4336H84.043V38.2812H85.8984V34.1016H87.9688ZM87.9688 45.1758V51.7383H85.8008V46.9336H75.8008V45.1758H87.9688ZM80.5664 35.332C80.5859 39.707 78.3594 42.7539 73.8086 44.6094L72.7734 42.9883C76.2109 41.6797 78.0078 39.6777 78.3594 37.0898H73.5742V35.332H80.5664ZM105.254 34.082V47.3047H103.184V34.082H105.254ZM101.719 34.3945V46.7773H99.6484V40.0586H97.2852V38.2812H99.6484V34.3945H101.719ZM105.742 49.6289V51.3867H93.4375V45.7227H95.6055V49.6289H105.742ZM95.6055 37.6953C95.6055 39.7461 96.6211 41.8164 98.8672 42.8125L97.6562 44.4922C96.1719 43.8086 95.1562 42.6172 94.5703 41.1719C93.9453 42.793 92.8418 44.1602 91.2305 44.9219L90.0391 43.2812C92.3828 42.1484 93.4961 39.7852 93.4961 37.6953V35.293H95.6055V37.6953ZM122.246 34.082V51.7578H120.098V42.2266H116.777V40.4688H120.098V34.082H122.246ZM116.504 35.6055V37.3828H110.43V40.5469H115.801V42.2656H110.43V45.8984C113.115 45.8887 115.127 45.8008 117.402 45.4297L117.617 47.1875C115.039 47.5781 112.793 47.6758 109.629 47.6953H108.242V35.6055H116.504Z" fill="#3D464D"/>
<path d="M65.5625 88.3125C59.9062 88.3125 56.4688 84.0938 56.4688 76.6875C56.4688 69.2812 59.9062 65.0625 65.5625 65.0625C71.2188 65.0625 74.6562 69.3125 74.6562 76.6875C74.6562 84.125 71.2188 88.3125 65.5625 88.3125ZM65.5625 84.4375C68.1875 84.4375 69.875 81.9062 69.8438 76.6875C69.8438 71.5312 68.1875 68.9062 65.5625 68.9062C62.9375 68.9062 61.2812 71.5312 61.2812 76.6875C61.25 81.9062 62.9375 84.4375 65.5625 84.4375ZM77.9062 88L77.875 84.5938L86 77.125C88.125 75.0938 89.25 73.8438 89.25 72.0625C89.25 70.0625 87.7188 68.8125 85.6562 68.8125C83.5312 68.8125 82.1562 70.1562 82.1562 72.3125H77.6875C77.6562 67.875 80.9375 65.0625 85.7188 65.0625C90.5625 65.0625 93.7812 67.8125 93.7812 71.75C93.7812 74.3125 92.5312 76.4375 87.875 80.6562L84.4375 84V84.125H94.0938V88H77.9062ZM108 74.8438V78.5312H97.6875V74.8438H108ZM120.562 88.3125C115.875 88.2812 111.438 85.5 111.438 77.2188C111.438 69.5938 115.094 65.0625 120.75 65.0625C125.312 65.0625 128.406 67.9375 128.875 71.6562H124.25C123.875 70.0625 122.562 69.0938 120.75 69.0938C117.688 69.0938 116.062 71.875 116.031 76.3125H116.25C117.281 74.3125 119.531 73.125 122.031 73.125C126.094 73.125 129.125 76.1875 129.125 80.4375C129.125 85.0312 125.656 88.3438 120.562 88.3125ZM120.531 84.5938C122.844 84.5938 124.562 82.8438 124.562 80.5625C124.562 78.3125 122.906 76.5312 120.594 76.5312C118.281 76.5312 116.531 78.3438 116.5 80.5625C116.531 82.7812 118.219 84.5938 120.531 84.5938ZM140.625 65.0625C145.312 65.0938 149.75 67.875 149.75 76.0938C149.781 83.7812 146.125 88.3125 140.438 88.3125C135.875 88.3125 132.781 85.4688 132.312 81.625H136.938C137.312 83.2812 138.625 84.2812 140.438 84.2812C143.531 84.2812 145.156 81.5312 145.156 77H144.969C143.906 79 141.688 80.1875 139.156 80.1875C135.094 80.1875 132.094 77.125 132.062 72.9062C132.062 68.3438 135.5 65.0312 140.625 65.0625ZM140.656 68.75C138.344 68.75 136.625 70.5312 136.656 72.7812C136.656 75 138.312 76.75 140.625 76.75C142.906 76.75 144.688 74.9375 144.688 72.75C144.656 70.5938 142.969 68.75 140.656 68.75ZM161.25 88.3125C156.531 88.3125 153.094 85.5312 153 81.625H157.562C157.656 83.4062 159.281 84.5938 161.25 84.5938C163.594 84.5938 165.25 82.9375 165.25 80.5938C165.25 78.1875 163.562 76.5312 161.188 76.5C159.5 76.5 158.312 77.125 157.625 78.4062H153.375L154.594 65.375H168.531V69.2188H158.469L157.844 74.9375H158.031C158.875 73.8125 160.562 73.0312 162.562 73.0312C166.719 73.0312 169.812 76.125 169.812 80.4688C169.812 85.0312 166.344 88.3125 161.25 88.3125ZM181.375 88.3125C176.406 88.3125 172.844 85.5625 172.75 81.625H177.5C177.594 83.3125 179.219 84.4375 181.406 84.4375C183.656 84.4375 185.281 83.1562 185.25 81.3438C185.281 79.5 183.625 78.1875 180.969 78.1875H178.875V74.7188H180.969C183.188 74.7188 184.75 73.5 184.75 71.7188C184.75 70 183.438 68.8125 181.438 68.8125C179.438 68.8125 177.781 69.9375 177.719 71.6562H173.219C173.281 67.75 176.812 65.0625 181.438 65.0625C186.156 65.0625 189.312 67.8438 189.281 71.4375C189.312 73.9688 187.531 75.7812 185 76.2188V76.4062C188.312 76.8125 190.156 78.8438 190.125 81.6562C190.156 85.5312 186.469 88.3125 181.375 88.3125ZM204 74.8438V78.5312H193.688V74.8438H204ZM207.156 88L207.125 84.5938L215.25 77.125C217.375 75.0938 218.5 73.8438 218.5 72.0625C218.5 70.0625 216.969 68.8125 214.906 68.8125C212.781 68.8125 211.406 70.1562 211.406 72.3125H206.938C206.906 67.875 210.188 65.0625 214.969 65.0625C219.812 65.0625 223.031 67.8125 223.031 71.75C223.031 74.3125 221.781 76.4375 217.125 80.6562L213.688 84V84.125H223.344V88H207.156ZM225.812 84V80.2812L235.375 65.375H241.281V80.2188H244.156V84H241.281V88H236.812V84H225.812ZM230.562 80.2188H236.875V70.5312H236.656L230.562 80.0312V80.2188ZM255.531 88.3125C250.812 88.3125 247.375 85.5312 247.281 81.625H251.844C251.938 83.4062 253.562 84.5938 255.531 84.5938C257.875 84.5938 259.531 82.9375 259.531 80.5938C259.531 78.1875 257.844 76.5312 255.469 76.5C253.781 76.5 252.594 77.125 251.906 78.4062H247.656L248.875 65.375H262.812V69.2188H252.75L252.125 74.9375H252.312C253.156 73.8125 254.844 73.0312 256.844 73.0312C261 73.0312 264.094 76.125 264.094 80.4688C264.094 85.0312 260.625 88.3125 255.531 88.3125ZM267.281 88L267.25 84.5938L275.375 77.125C277.5 75.0938 278.625 73.8438 278.625 72.0625C278.625 70.0625 277.094 68.8125 275.031 68.8125C272.906 68.8125 271.531 70.1562 271.531 72.3125H267.062C267.031 67.875 270.312 65.0625 275.094 65.0625C279.938 65.0625 283.156 67.8125 283.156 71.75C283.156 74.3125 281.906 76.4375 277.25 80.6562L273.812 84V84.125H283.469V88H267.281Z" fill="#0A4E99"/>
<path d="M65.7734 118.871V126.076H64.2422V125.57H61.9316V124.641H64.2422V118.871H65.7734ZM55.3965 123.328C57.7891 123.328 60.7695 123.301 63.4219 123.041L63.5039 123.998C62.376 124.155 61.2139 124.251 60.0723 124.299V126.09H58.5684V124.367C57.5088 124.395 56.4902 124.401 55.5605 124.395L55.3965 123.328ZM65.7734 126.459V129.234H58.7461V130.027H66.1016V131.107H57.2559V128.236H64.2695V127.498H57.2012V126.459H65.7734ZM59.3887 119.062C61.2207 119.062 62.4785 119.801 62.4785 120.922C62.4785 122.07 61.2207 122.768 59.3887 122.768C57.5156 122.768 56.2715 122.07 56.2715 120.922C56.2715 119.801 57.5156 119.062 59.3887 119.062ZM59.3887 120.074C58.3496 120.074 57.707 120.402 57.7207 120.922C57.707 121.441 58.3496 121.756 59.3887 121.756C60.4004 121.756 61.0566 121.441 61.0566 120.922C61.0566 120.402 60.4004 120.074 59.3887 120.074ZM72.4316 124.34V125.775H67.9746V124.34H72.4316ZM83.6289 119.459V120.416C83.6289 121.373 83.6289 122.467 83.3281 123.93H85.0098V125.16H73.7168V123.93H81.7969C82.084 122.597 82.1113 121.578 82.1113 120.676H75.1113V119.459H83.6289ZM83.6152 126.596V131.066H75.0703V126.596H83.6152ZM76.5605 127.785V129.836H82.1113V127.785H76.5605Z" fill="#333333"/>
<path d="M93.0898 130.137C90.8887 130.137 89.6309 128.291 89.6309 125.051C89.6309 121.838 90.916 119.965 93.0898 119.965C95.2637 119.965 96.5488 121.838 96.5488 125.051C96.5488 128.291 95.2773 130.137 93.0898 130.137ZM93.0898 129.043C94.5117 129.043 95.3457 127.607 95.3457 125.051C95.3457 122.494 94.5117 121.031 93.0898 121.031C91.668 121.031 90.8203 122.494 90.8203 125.051C90.8203 127.607 91.6543 129.043 93.0898 129.043ZM101.484 119.965C103.193 119.979 105.08 121.004 105.08 124.654C105.08 128.168 103.645 130.137 101.32 130.137C99.584 130.137 98.3535 129.07 98.1074 127.498H99.3242C99.543 128.387 100.213 129.043 101.32 129.043C102.934 129.043 103.918 127.648 103.932 125.242H103.795C103.221 126.062 102.318 126.555 101.266 126.555C99.4883 126.555 98.0254 125.201 98.0254 123.287C98.0254 121.441 99.3789 119.951 101.484 119.965ZM101.484 121.045C100.186 121.045 99.2148 122.057 99.2285 123.273C99.2285 124.504 100.145 125.475 101.443 125.475C102.729 125.475 103.74 124.408 103.74 123.246C103.74 122.111 102.797 121.045 101.484 121.045ZM107.623 128.688C107.145 128.688 106.734 128.291 106.748 127.799C106.734 127.32 107.145 126.924 107.623 126.924C108.102 126.924 108.498 127.32 108.498 127.799C108.498 128.291 108.102 128.688 107.623 128.688ZM107.623 123.191C107.145 123.191 106.734 122.795 106.748 122.303C106.734 121.824 107.145 121.428 107.623 121.428C108.102 121.428 108.498 121.824 108.498 122.303C108.498 122.795 108.102 123.191 107.623 123.191ZM113.57 130.137C111.369 130.137 110.111 128.291 110.111 125.051C110.111 121.838 111.396 119.965 113.57 119.965C115.744 119.965 117.029 121.838 117.029 125.051C117.029 128.291 115.758 130.137 113.57 130.137ZM113.57 129.043C114.992 129.043 115.826 127.607 115.826 125.051C115.826 122.494 114.992 121.031 113.57 121.031C112.148 121.031 111.301 122.494 111.301 125.051C111.301 127.607 112.135 129.043 113.57 129.043ZM121.91 130.137C119.709 130.137 118.451 128.291 118.451 125.051C118.451 121.838 119.736 119.965 121.91 119.965C124.084 119.965 125.369 121.838 125.369 125.051C125.369 128.291 124.098 130.137 121.91 130.137ZM121.91 129.043C123.332 129.043 124.166 127.607 124.166 125.051C124.166 122.494 123.332 121.031 121.91 121.031C120.488 121.031 119.641 122.494 119.641 125.051C119.641 127.607 120.475 129.043 121.91 129.043ZM130.92 124.9C131.357 124.395 131.904 124.121 132.506 124.121C133.545 124.121 134.488 124.914 135.486 124.914C136.102 124.914 136.635 124.613 137.045 124.053V125.188C136.594 125.707 136.061 125.967 135.459 125.967C134.42 125.967 133.477 125.174 132.465 125.174C131.863 125.174 131.33 125.475 130.92 126.035V124.9ZM146.314 120.102V130H145.07V121.387H145.016L142.609 122.986V121.742L145.07 120.102H146.314ZM152.262 130.137C150.184 130.137 148.734 128.988 148.748 127.375C148.734 126.09 149.623 125.037 150.758 124.859V124.805C149.773 124.572 149.131 123.67 149.131 122.59C149.131 121.072 150.457 119.965 152.262 119.965C154.066 119.965 155.393 121.072 155.406 122.59C155.393 123.67 154.736 124.572 153.766 124.805V124.859C154.887 125.037 155.775 126.09 155.789 127.375C155.775 128.988 154.326 130.137 152.262 130.137ZM152.262 129.057C153.684 129.057 154.559 128.346 154.559 127.307C154.559 126.213 153.588 125.406 152.262 125.406C150.936 125.406 149.951 126.213 149.979 127.307C149.951 128.346 150.84 129.057 152.262 129.057ZM152.262 124.367C153.383 124.367 154.203 123.684 154.203 122.686C154.203 121.701 153.424 121.031 152.262 121.031C151.086 121.031 150.32 121.701 150.32 122.686C150.32 123.684 151.127 124.367 152.262 124.367ZM158.291 128.688C157.812 128.688 157.402 128.291 157.416 127.799C157.402 127.32 157.812 126.924 158.291 126.924C158.77 126.924 159.166 127.32 159.166 127.799C159.166 128.291 158.77 128.688 158.291 128.688ZM158.291 123.191C157.812 123.191 157.402 122.795 157.416 122.303C157.402 121.824 157.812 121.428 158.291 121.428C158.77 121.428 159.166 121.824 159.166 122.303C159.166 122.795 158.77 123.191 158.291 123.191ZM164.238 130.137C162.037 130.137 160.779 128.291 160.779 125.051C160.779 121.838 162.064 119.965 164.238 119.965C166.412 119.965 167.697 121.838 167.697 125.051C167.697 128.291 166.426 130.137 164.238 130.137ZM164.238 129.043C165.66 129.043 166.494 127.607 166.494 125.051C166.494 122.494 165.66 121.031 164.238 121.031C162.816 121.031 161.969 122.494 161.969 125.051C161.969 127.607 162.803 129.043 164.238 129.043ZM172.578 130.137C170.377 130.137 169.119 128.291 169.119 125.051C169.119 121.838 170.404 119.965 172.578 119.965C174.752 119.965 176.037 121.838 176.037 125.051C176.037 128.291 174.766 130.137 172.578 130.137ZM172.578 129.043C174 129.043 174.834 127.607 174.834 125.051C174.834 122.494 174 121.031 172.578 121.031C171.156 121.031 170.309 122.494 170.309 125.051C170.309 127.607 171.143 129.043 172.578 129.043Z" fill="#666666"/>
<path d="M65.7598 144.857V152.035H64.2422V149.041H62.1094V147.797H64.2422V144.857H65.7598ZM65.7598 152.568V157.066H57.543V152.568H65.7598ZM59.0605 153.771V155.836H64.2695V153.771H59.0605ZM59.9492 146.895C59.9492 148.385 60.9473 149.902 62.8613 150.559L62.0957 151.762C60.7148 151.29 59.7373 150.354 59.1973 149.191C58.6504 150.477 57.6182 151.509 56.1621 151.994L55.3828 150.805C57.3516 150.148 58.4043 148.521 58.4043 146.881V146.785H55.834V145.555H62.5059V146.785H59.9492V146.895ZM77.8047 144.871V151.857H76.2734V144.871H77.8047ZM77.8047 152.473V157.066H69.6016V152.473H77.8047ZM71.1055 153.676V155.836H76.3145V153.676H71.1055ZM72.1172 146.539C72.1172 148.111 73.1699 149.588 75.0977 150.203L74.3594 151.365C72.9307 150.921 71.9053 150.012 71.3516 148.822C70.7842 150.101 69.7451 151.119 68.2617 151.611L67.5098 150.408C69.5195 149.766 70.5449 148.166 70.5449 146.539V145.336H72.1172V146.539ZM84.2852 147.824C84.2715 150.094 85.4609 152.363 87.4707 153.225L86.5684 154.441C85.1465 153.785 84.1006 152.473 83.5332 150.859C82.9658 152.603 81.9062 154.024 80.4023 154.729L79.4727 153.457C81.5371 152.568 82.7402 150.203 82.7402 147.824V145.855H84.2852V147.824ZM89.8906 144.857V157.23H88.3594V144.857H89.8906ZM101.457 144.857V148.412H103.18V149.684H101.457V153.771H99.9121V144.857H101.457ZM98.0938 145.801C98.0938 149.082 95.9609 151.42 92.2969 152.486L91.668 151.283C94.4912 150.47 96.1729 148.932 96.4395 147.045H92.1875V145.801H98.0938ZM101.922 155.74V156.971H93.5137V152.855H95.0586V155.74H101.922Z" fill="#333333"/>
<path d="M111.342 146.102V156H110.098V147.387H110.043L107.637 148.986V147.742L110.098 146.102H111.342ZM113.98 156L113.967 155.098L117.344 151.543C118.52 150.299 119.08 149.629 119.08 148.713C119.08 147.701 118.219 147.031 117.111 147.031C115.936 147.031 115.184 147.783 115.184 148.891H114.021C114.008 147.141 115.361 145.965 117.152 145.965C118.943 145.965 120.229 147.168 120.229 148.713C120.229 149.82 119.709 150.682 117.959 152.486L115.689 154.824V154.906H120.406V156H113.98ZM123.045 154.688C122.566 154.688 122.156 154.291 122.17 153.799C122.156 153.32 122.566 152.924 123.045 152.924C123.523 152.924 123.92 153.32 123.92 153.799C123.92 154.291 123.523 154.688 123.045 154.688ZM123.045 149.191C122.566 149.191 122.156 148.795 122.17 148.303C122.156 147.824 122.566 147.428 123.045 147.428C123.523 147.428 123.92 147.824 123.92 148.303C123.92 148.795 123.523 149.191 123.045 149.191ZM128.992 156.137C126.791 156.137 125.533 154.291 125.533 151.051C125.533 147.838 126.818 145.965 128.992 145.965C131.166 145.965 132.451 147.838 132.451 151.051C132.451 154.291 131.18 156.137 128.992 156.137ZM128.992 155.043C130.414 155.043 131.248 153.607 131.248 151.051C131.248 148.494 130.414 147.031 128.992 147.031C127.57 147.031 126.723 148.494 126.723 151.051C126.723 153.607 127.557 155.043 128.992 155.043ZM137.332 156.137C135.131 156.137 133.873 154.291 133.873 151.051C133.873 147.838 135.158 145.965 137.332 145.965C139.506 145.965 140.791 147.838 140.791 151.051C140.791 154.291 139.52 156.137 137.332 156.137ZM137.332 155.043C138.754 155.043 139.588 153.607 139.588 151.051C139.588 148.494 138.754 147.031 137.332 147.031C135.91 147.031 135.062 148.494 135.062 151.051C135.062 153.607 135.896 155.043 137.332 155.043ZM146.342 150.9C146.779 150.395 147.326 150.121 147.928 150.121C148.967 150.121 149.91 150.914 150.908 150.914C151.523 150.914 152.057 150.613 152.467 150.053V151.188C152.016 151.707 151.482 151.967 150.881 151.967C149.842 151.967 148.898 151.174 147.887 151.174C147.285 151.174 146.752 151.475 146.342 152.035V150.9ZM161.736 146.102V156H160.492V147.387H160.438L158.031 148.986V147.742L160.492 146.102H161.736ZM167.793 156.137C165.824 156.137 164.416 155.084 164.348 153.512H165.592C165.66 154.455 166.604 155.043 167.779 155.043C169.078 155.043 170.035 154.332 170.035 153.307C170.035 152.227 169.174 151.461 167.629 151.461H166.822V150.381H167.629C168.832 150.381 169.666 149.711 169.666 148.686C169.666 147.701 168.941 147.031 167.82 147.031C166.768 147.031 165.797 147.619 165.742 148.59H164.553C164.621 147.018 166.07 145.965 167.834 145.965C169.721 145.965 170.869 147.195 170.855 148.617C170.869 149.738 170.213 150.572 169.174 150.859V150.928C170.459 151.133 171.252 152.049 171.238 153.307C171.252 154.934 169.762 156.137 167.793 156.137ZM173.863 154.688C173.385 154.688 172.975 154.291 172.988 153.799C172.975 153.32 173.385 152.924 173.863 152.924C174.342 152.924 174.738 153.32 174.738 153.799C174.738 154.291 174.342 154.688 173.863 154.688ZM173.863 149.191C173.385 149.191 172.975 148.795 172.988 148.303C172.975 147.824 173.385 147.428 173.863 147.428C174.342 147.428 174.738 147.824 174.738 148.303C174.738 148.795 174.342 149.191 173.863 149.191ZM179.811 156.137C177.609 156.137 176.352 154.291 176.352 151.051C176.352 147.838 177.637 145.965 179.811 145.965C181.984 145.965 183.27 147.838 183.27 151.051C183.27 154.291 181.998 156.137 179.811 156.137ZM179.811 155.043C181.232 155.043 182.066 153.607 182.066 151.051C182.066 148.494 181.232 147.031 179.811 147.031C178.389 147.031 177.541 148.494 177.541 151.051C177.541 153.607 178.375 155.043 179.811 155.043ZM188.15 156.137C185.949 156.137 184.691 154.291 184.691 151.051C184.691 147.838 185.977 145.965 188.15 145.965C190.324 145.965 191.609 147.838 191.609 151.051C191.609 154.291 190.338 156.137 188.15 156.137ZM188.15 155.043C189.572 155.043 190.406 153.607 190.406 151.051C190.406 148.494 189.572 147.031 188.15 147.031C186.729 147.031 185.881 148.494 185.881 151.051C185.881 153.607 186.715 155.043 188.15 155.043Z" fill="#666666"/>
<path d="M66.6758 177.748V178.979H61.7676V183.203H60.2637V178.979H55.4102V177.748H66.6758ZM65.6367 171.555V172.758H61.9316C62.0205 174.111 63.6475 175.41 66.0879 175.725L65.541 176.914C63.4355 176.62 61.7949 175.656 61.043 174.316C60.291 175.656 58.6504 176.62 56.5723 176.914L55.998 175.725C58.4248 175.41 60.0518 174.111 60.168 172.758H56.4492V171.555H65.6367ZM77.2578 170.857V173.346H78.9805V174.604H77.2578V177.064H75.7402V170.857H77.2578ZM73.7852 171.486V176.545H67.9336V171.486H73.7852ZM69.4238 172.689V175.342H72.2949V172.689H69.4238ZM77.2578 177.598V180.838H70.6953V181.863H77.6406V183.066H69.1914V179.73H75.7402V178.773H69.1777V177.598H77.2578ZM84.0664 171.637L80.8809 183.49H79.3496L82.5488 171.637H84.0664ZM90.1914 178.582C92.8711 178.596 94.5664 179.443 94.5801 180.906C94.5664 182.342 92.8711 183.203 90.1914 183.203C87.5254 183.203 85.8164 182.342 85.8164 180.906C85.8164 179.443 87.5254 178.596 90.1914 178.582ZM90.1914 179.73C88.4141 179.73 87.334 180.154 87.3477 180.906C87.334 181.631 88.4141 182.027 90.1914 182.027C91.9824 182.027 93.0625 181.631 93.0762 180.906C93.0625 180.154 91.9824 179.73 90.1914 179.73ZM94.498 171.445V172.471C94.498 173.441 94.498 174.48 94.1562 175.752L92.6523 175.615C92.96 174.412 92.9805 173.544 92.9805 172.648H85.9395V171.445H94.498ZM95.8652 176.463V177.693H84.6543V176.463H89.002V174.221H90.5059V176.463H95.8652ZM107.377 172.143V173.346H97.2871V172.143H101.594V170.83H103.098V172.143H107.377ZM108.02 178.76V179.99H105.285V183.23H103.754V179.99H100.979V183.23H99.4609V179.99H96.7266V178.76H108.02ZM102.346 173.906C104.957 173.906 106.529 174.645 106.529 175.998C106.529 177.338 104.957 178.09 102.346 178.09C99.7344 178.09 98.1621 177.338 98.1621 175.998C98.1621 174.645 99.7344 173.906 102.346 173.906ZM102.346 175.055C100.637 175.055 99.7344 175.369 99.748 175.998C99.7344 176.613 100.637 176.941 102.346 176.928C104.055 176.941 104.957 176.613 104.957 175.998C104.957 175.369 104.055 175.055 102.346 175.055ZM112.326 171.254C114.199 171.254 115.594 172.416 115.607 174.043C115.594 175.684 114.199 176.832 112.326 176.832C110.439 176.832 109.045 175.684 109.045 174.043C109.045 172.416 110.439 171.254 112.326 171.254ZM112.326 172.512C111.287 172.512 110.521 173.1 110.521 174.043C110.521 175 111.287 175.602 112.326 175.602C113.365 175.602 114.131 175 114.131 174.043C114.131 173.1 113.365 172.512 112.326 172.512ZM119.121 170.857V177.105H117.59V170.857H119.121ZM119.121 177.639V180.865H112.436V181.863H119.49V183.066H110.945V179.744H117.604V178.828H110.918V177.639H119.121ZM134.898 172.143V173.346H124.809V172.143H129.115V170.83H130.619V172.143H134.898ZM135.541 178.76V179.99H132.807V183.23H131.275V179.99H128.5V183.23H126.982V179.99H124.248V178.76H135.541ZM129.867 173.906C132.479 173.906 134.051 174.645 134.051 175.998C134.051 177.338 132.479 178.09 129.867 178.09C127.256 178.09 125.684 177.338 125.684 175.998C125.684 174.645 127.256 173.906 129.867 173.906ZM129.867 175.055C128.158 175.055 127.256 175.369 127.27 175.998C127.256 176.613 128.158 176.941 129.867 176.928C131.576 176.941 132.479 176.613 132.479 175.998C132.479 175.369 131.576 175.055 129.867 175.055ZM147.627 177.857V179.088H142.705V183.203H141.201V179.088H136.334V177.857H147.627ZM146.246 171.486V176.408H137.715V171.486H146.246ZM139.205 172.703V175.219H144.729V172.703H139.205Z" fill="#333333"/>
<path d="M162 105H183.526L218.84 182.858L254.307 105H275.833L255.839 149.037L271.16 183.012L306.628 105.155H328L279.663 211.493H262.657L245.038 172.255L227.419 210.951H210.413C203.902 196.634 198.234 184.173 193.407 173.725C188.581 163.277 184.598 154.145 181.151 146.638C177.704 139.13 174.946 133.016 172.801 128.141L167.592 116.532C166.213 113.668 165.217 111.501 164.605 110.108L163.072 107.631L162.46 106.316C162.23 105.929 162.077 105.464 162 105Z" fill="#1D2B4E" fill-opacity="0.03"/>
<rect x="348" y="2" width="315" height="96" rx="12" fill="white"/>
<path d="M406 69.8998V67.8999H419.7C420.089 67.8999 420.408 67.775 420.659 67.5251C420.909 67.2752 421.033 66.9558 421.033 66.5669V64.8666H414.567V51.9332H421.033V47.8669C421.033 43.7149 419.565 40.1713 416.628 37.2362C413.69 34.3011 410.144 32.8335 405.989 32.8335C401.834 32.8335 398.291 34.3011 395.362 37.2362C392.432 40.1713 390.967 43.7149 390.967 47.8669V51.9332H397.434V64.8666H392.304C391.365 64.8666 390.574 64.5452 389.931 63.9024C389.288 63.2596 388.967 62.4728 388.967 61.5418V47.8815C388.967 45.5174 389.413 43.3018 390.306 41.2348C391.199 39.1678 392.418 37.3629 393.964 35.8203C395.509 34.2779 397.315 33.0612 399.38 32.17C401.446 31.2787 403.655 30.8331 406.008 30.8331C408.348 30.8331 410.553 31.2789 412.623 32.1705C414.693 33.0621 416.5 34.2794 418.044 35.8224C419.588 37.3658 420.806 39.1705 421.697 41.2364C422.588 43.3023 423.033 45.5099 423.033 47.8593V66.5718C423.033 67.5049 422.712 68.2928 422.069 68.9356C421.426 69.5784 420.64 69.8998 419.71 69.8998H406ZM392.3 62.8668H395.433V53.9336H390.967V61.5332C390.967 61.9221 391.092 62.2417 391.341 62.4919C391.592 62.7418 391.911 62.8668 392.3 62.8668ZM416.567 62.8668H421.033V53.9336H416.567V62.8668ZM392.3 53.9336H390.967H395.433H392.3Z" fill="#6C757D"/>
<path d="M464.914 42.8594V57H462.355V45.3398H462.277L458.977 47.4492V45.125L462.473 42.8594H464.914ZM469.914 55.2422C469.074 55.2422 468.391 54.5586 468.391 53.7188C468.391 52.8984 469.074 52.2148 469.914 52.2148C470.715 52.2148 471.418 52.8984 471.418 53.7188C471.418 54.5586 470.715 55.2422 469.914 55.2422ZM469.914 47.6641C469.074 47.6641 468.391 46.9805 468.391 46.1406C468.391 45.3203 469.074 44.6367 469.914 44.6367C470.715 44.6367 471.418 45.3203 471.418 46.1406C471.418 46.9805 470.715 47.6641 469.914 47.6641ZM479.543 42.8594V57H476.984V45.3398H476.906L473.605 47.4492V45.125L477.102 42.8594H479.543ZM503.254 49.9102V51.6484H496.438V54.8906H494.289V51.6484H487.121V49.9102H503.254ZM501.184 41.8828V48.2695H489.172V41.8828H501.184ZM491.281 43.582V46.5703H499.035V43.582H491.281ZM501.477 56.6289V58.3867H489.074V53.2695H491.242V56.6289H501.477ZM510.148 42.3125C512.941 42.293 514.992 44.0703 515.012 46.5703C514.992 49.0898 512.941 50.8477 510.148 50.8477C507.375 50.8477 505.305 49.0898 505.305 46.5703C505.305 44.0703 507.375 42.293 510.148 42.3125ZM510.148 44.1875C508.605 44.1875 507.453 45.1055 507.453 46.5703C507.453 48.0547 508.605 48.9531 510.148 48.9531C511.711 48.9531 512.883 48.0547 512.883 46.5703C512.883 45.1055 511.711 44.1875 510.148 44.1875ZM519.133 41.082V58.7578H516.965V41.082H519.133ZM504.504 53.2891C507.688 53.2891 512.102 53.25 515.91 52.7031L516.086 54.2852C512.121 55.0469 507.883 55.0664 504.777 55.0664L504.504 53.2891ZM535.539 41.082V48.1133H538.254V49.9102H535.539V58.7383H533.391V41.082H535.539ZM532.023 43.7969V45.5352H521.613V43.7969H525.793V41.3359H527.961V43.7969H532.023ZM526.887 46.6875C529.426 46.6875 531.32 48.4062 531.32 50.8477C531.32 53.2891 529.426 54.9883 526.887 54.9883C524.309 54.9883 522.414 53.2891 522.434 50.8477C522.414 48.4062 524.309 46.6875 526.887 46.6875ZM526.887 48.4648C525.5 48.4648 524.504 49.4023 524.504 50.8477C524.504 52.293 525.5 53.2109 526.887 53.1914C528.234 53.2109 529.23 52.293 529.25 50.8477C529.23 49.4023 528.234 48.4648 526.887 48.4648ZM553.742 41.082V58.7383H551.555V41.082H553.742ZM548.469 42.957C548.469 48.2109 546.438 52.6836 540.246 55.6133L539.113 53.875C543.732 51.6777 545.881 48.6895 546.262 44.6758H540.012V42.957H548.469Z" fill="#3D464D"/>
<path d="M623 58L631 50L623 42" stroke="#3D464D" stroke-width="2" stroke-linecap="round" stroke-linejoin="round"/>
<rect x="348" y="118" width="315" height="96" rx="12" fill="white"/>
<path d="M390.967 181.033V150.967V175.309V170.979V181.033ZM392.3 183.033C391.363 183.033 390.574 182.712 389.931 182.069C389.288 181.426 388.967 180.64 388.967 179.71V152.29C388.967 151.36 389.288 150.574 389.931 149.931C390.574 149.288 391.36 148.967 392.29 148.967H419.71C420.64 148.967 421.426 149.288 422.069 149.931C422.712 150.574 423.033 151.363 423.033 152.3V169.65H421.033V152.3C421.033 151.967 420.895 151.661 420.617 151.383C420.339 151.105 420.033 150.967 419.7 150.967H392.3C391.967 150.967 391.661 151.105 391.383 151.383C391.105 151.661 390.967 151.967 390.967 152.3V179.7C390.967 180.033 391.105 180.339 391.383 180.617C391.661 180.895 391.967 181.033 392.3 181.033H405.983V183.033H392.3ZM417.277 185.167L411.535 179.44L412.948 178.033L417.277 182.363L425.942 173.704L427.375 175.117L417.277 185.167ZM397.683 167.573C398.132 167.573 398.51 167.423 398.816 167.123C399.123 166.823 399.277 166.448 399.277 166C399.277 165.551 399.123 165.174 398.816 164.867C398.51 164.56 398.132 164.406 397.683 164.406C397.235 164.406 396.861 164.56 396.56 164.867C396.26 165.174 396.11 165.551 396.11 166C396.11 166.448 396.26 166.823 396.56 167.123C396.861 167.423 397.235 167.573 397.683 167.573ZM397.683 159.506C398.132 159.506 398.51 159.356 398.816 159.056C399.123 158.756 399.277 158.382 399.277 157.933C399.277 157.485 399.123 157.107 398.816 156.8C398.51 156.493 398.132 156.339 397.683 156.339C397.235 156.339 396.861 156.493 396.56 156.8C396.26 157.107 396.11 157.485 396.11 157.933C396.11 158.382 396.26 158.756 396.56 159.056C396.861 159.356 397.235 159.506 397.683 159.506ZM404.284 166.983H415.75V164.983H404.284V166.983ZM404.284 158.95H415.75V156.95H404.284V158.95Z" fill="#6C757D"/>
<path d="M464.914 162.102C464.914 164.836 466.535 167.941 469.328 169.23L468.117 170.949C466.125 170.012 464.65 168.117 463.859 165.91C463.059 168.332 461.516 170.402 459.484 171.379L458.215 169.68C461.027 168.352 462.727 165.031 462.746 162.102V160.617H458.898V158.82H468.605V160.617H464.914V162.102ZM472.414 157.082V163.957H475.129V165.773H472.414V174.738H470.246V157.082H472.414ZM491.965 166.926V168.684H484.953V174.719H482.805V168.684H475.871V166.926H491.965ZM490.48 158.078V159.797H485.188C485.314 161.73 487.639 163.586 491.125 164.035L490.344 165.734C487.336 165.314 484.992 163.938 483.918 162.023C482.844 163.938 480.5 165.314 477.531 165.734L476.711 164.035C480.178 163.586 482.502 161.73 482.668 159.797H477.355V158.078H490.48ZM506.984 157.082V164.113H509.699V165.91H506.984V174.738H504.836V157.082H506.984ZM503.469 159.797V161.535H493.059V159.797H497.238V157.336H499.406V159.797H503.469ZM498.332 162.688C500.871 162.688 502.766 164.406 502.766 166.848C502.766 169.289 500.871 170.988 498.332 170.988C495.754 170.988 493.859 169.289 493.879 166.848C493.859 164.406 495.754 162.688 498.332 162.688ZM498.332 164.465C496.945 164.465 495.949 165.402 495.949 166.848C495.949 168.293 496.945 169.211 498.332 169.191C499.68 169.211 500.676 168.293 500.695 166.848C500.676 165.402 499.68 164.465 498.332 164.465ZM524.738 162.082V163.801H512.512V157.727H514.66V162.082H524.738ZM526.555 165.852V167.57H510.422V165.852H526.555ZM524.855 172.57V174.328H512.355V169.133H514.523V172.57H524.855ZM547.141 157.082V166.184H544.992V157.082H547.141ZM547.18 166.926V171.477H537.629V172.902H547.707V174.582H535.5V169.895H545.012V168.586H535.461V166.926H547.18ZM542.883 157.961V159.719H539.191C539.279 161.672 540.773 163.518 543.508 164.27L542.453 165.949C540.393 165.354 538.918 164.094 538.117 162.492C537.326 164.26 535.783 165.666 533.605 166.32L532.609 164.602C535.344 163.791 536.867 161.809 536.984 159.719H533.176V157.961H542.883ZM565.871 165.91V167.648H559.055V170.891H556.906V167.648H549.738V165.91H565.871ZM563.801 157.883V164.27H551.789V157.883H563.801ZM553.898 159.582V162.57H561.652V159.582H553.898ZM564.094 172.629V174.387H551.691V169.27H553.859V172.629H564.094Z" fill="#3D464D"/>
<path d="M623 174L631 166L623 158" stroke="#3D464D" stroke-width="2" stroke-linecap="round" stroke-linejoin="round"/>
</g>
<defs>
<clipPath id="clip0_35_10">
<rect width="680" height="216" fill="white"/>
</clipPath>
</defs>
</svg>
