<svg id="레이어_1" data-name="레이어 1" xmlns="http://www.w3.org/2000/svg" viewBox="0 0 284.74 173.33"><defs><style>.cls-1{fill:#231815;}.cls-2{fill:none;stroke:#154797;stroke-miterlimit:10;stroke-width:3.5px;}.cls-3{fill:#224899;}.cls-4{fill:#928f92;}.cls-5{fill:#204a88;}.cls-6{fill:#008ec5;}</style></defs><path class="cls-1" d="M72.67,71.2H58.15a.52.52,0,0,1,0-1H72.67a.52.52,0,0,1,0,1Z"/><path class="cls-1" d="M51.54,71.2H45.46a.52.52,0,0,1,0-1h6.08a.52.52,0,0,1,0,1Z"/><path class="cls-1" d="M39.44,71.2h-2.6a.52.52,0,0,1,0-1h2.6a.52.52,0,0,1,0,1Z"/><path class="cls-1" d="M30.82,71.2H27.87a.52.52,0,0,1,0-1h2.95a.52.52,0,0,1,0,1Z"/><path class="cls-1" d="M70.29,98.8h-40a2.9,2.9,0,0,1-2.9-2.9V69.49a2.9,2.9,0,0,1,2.9-2.89h.56v1h-.56a1.87,1.87,0,0,0-1.87,1.86V95.9a1.87,1.87,0,0,0,1.87,1.87h40a1.87,1.87,0,0,0,1.86-1.87V69.49a1.86,1.86,0,0,0-1.86-1.86H57.68v-1H70.29a2.9,2.9,0,0,1,2.89,2.89V95.9A2.9,2.9,0,0,1,70.29,98.8Z"/><rect class="cls-1" x="45.46" y="66.6" width="6.19" height="1.03"/><rect class="cls-1" x="36.84" y="66.6" width="2.6" height="1.03"/><path class="cls-1" d="M35.09,94.24H32.56A2.26,2.26,0,0,1,30.3,92V63.67a2.27,2.27,0,0,1,2.26-2.26h2.53a2.26,2.26,0,0,1,2.26,2.26V92A2.26,2.26,0,0,1,35.09,94.24Zm-2.53-31.8a1.23,1.23,0,0,0-1.23,1.23V92a1.23,1.23,0,0,0,1.23,1.23h2.53A1.24,1.24,0,0,0,36.33,92V63.67a1.24,1.24,0,0,0-1.24-1.23Z"/><path class="cls-1" d="M44.27,94.24H40.63v-1h3.64a.68.68,0,0,0,.68-.67V64.12a.68.68,0,0,0-.68-.68H40.63a.68.68,0,0,0-.68.68v11h-1v-11a1.72,1.72,0,0,1,1.71-1.71h3.64A1.72,1.72,0,0,1,46,64.12V92.54A1.71,1.71,0,0,1,44.27,94.24Z"/><path class="cls-1" d="M39.78,94.24H37.15v-1h2.63a.92.92,0,0,0,.5-.13V75.81a.82.82,0,0,0-.5-.14H36.84v-1h2.94c.87,0,1.53.48,1.53,1.11V93.12C41.31,93.76,40.65,94.24,39.78,94.24Z"/><path class="cls-1" d="M48.3,94.24H45.68v-1H48.3a.59.59,0,0,0,.51-.19v-20a.66.66,0,0,0-.51-.18H45.37v-1H48.3a1.39,1.39,0,0,1,1.54,1.21V93A1.39,1.39,0,0,1,48.3,94.24Z"/><circle class="cls-1" cx="63.24" cy="73.1" r="0.73"/><path class="cls-1" d="M67.84,75.67H63.06a.51.51,0,1,1,0-1h4.78a.51.51,0,1,1,0,1Z"/><path class="cls-1" d="M66,77.55H63.06a.52.52,0,0,1,0-1H66a.52.52,0,0,1,0,1Z"/><circle class="cls-1" cx="63.24" cy="80.29" r="0.73"/><path class="cls-1" d="M67.84,82.86H63.06a.52.52,0,0,1,0-1h4.78a.52.52,0,1,1,0,1Z"/><path class="cls-1" d="M66,84.74H63.06a.52.52,0,0,1,0-1H66a.52.52,0,0,1,0,1Z"/><circle class="cls-1" cx="63.24" cy="87.41" r="0.73"/><path class="cls-1" d="M67.84,90H63.06a.51.51,0,0,1,0-1h4.78a.51.51,0,1,1,0,1Z"/><path class="cls-1" d="M66,91.86H63.06a.52.52,0,0,1,0-1H66a.52.52,0,0,1,0,1Z"/><path class="cls-1" d="M55.93,94.24H53.4A2.26,2.26,0,0,1,51.14,92V63.67a2.27,2.27,0,0,1,2.26-2.26h2.53a2.26,2.26,0,0,1,2.26,2.26V92A2.26,2.26,0,0,1,55.93,94.24ZM53.4,62.44a1.23,1.23,0,0,0-1.23,1.23V92a1.23,1.23,0,0,0,1.23,1.23h2.53A1.24,1.24,0,0,0,57.17,92V63.67a1.24,1.24,0,0,0-1.24-1.23Z"/><path class="cls-1" d="M72.35,94.45H28.19a.72.72,0,0,1,0-1.44H72.35a.72.72,0,0,1,0,1.44Z"/><rect class="cls-1" x="47.12" y="98.78" width="1.03" height="5.1"/><rect class="cls-1" x="53.72" y="98.29" width="1.03" height="5.6"/><path class="cls-1" d="M60.09,106.15H41.78a1.14,1.14,0,0,1,0-2.28H60.09a1.14,1.14,0,0,1,0,2.28ZM41.78,104.9a.11.11,0,1,0,0,.22H60.09a.11.11,0,1,0,0-.22Z"/><path class="cls-1" d="M249.39,155.41l-.14,0-.14,0H215.34a.45.45,0,0,1-.44-.45v-2.4a.45.45,0,0,1,.44-.45h34a.45.45,0,0,1,.45.45V155A.45.45,0,0,1,249.39,155.41Zm-33.6-.89h33.15V153H215.79Z"/><path class="cls-1" d="M240.94,155.41a.45.45,0,0,1-.45-.45v-2.38L239,136.48h-24.8l1.63,16V155a.45.45,0,1,1-.89,0v-2.38l-1.68-16.5a.47.47,0,0,1,.11-.34.44.44,0,0,1,.33-.15h25.71a.44.44,0,0,1,.44.4l1.57,16.52V155A.45.45,0,0,1,240.94,155.41Z"/><path class="cls-1" d="M226.48,147.07a2.71,2.71,0,0,1-.79-.12,3.37,3.37,0,0,1-2.11-2.61.47.47,0,0,1,.1-.36.46.46,0,0,1,.34-.16h2.08V142a.43.43,0,0,1,.37-.44,2.34,2.34,0,0,1,2,.45,3.29,3.29,0,0,1,.94,2.29,2.65,2.65,0,0,1-.84,1.85A2.92,2.92,0,0,1,226.48,147.07Zm-1.86-2.36a2.17,2.17,0,0,0,1.33,1.38,1.93,1.93,0,0,0,2-.54,1.73,1.73,0,0,0,.58-1.22,2.4,2.4,0,0,0-.63-1.61,1.27,1.27,0,0,0-.86-.28v1.83a.45.45,0,0,1-.45.44Z"/><path class="cls-1" d="M225,134.86a.45.45,0,0,1-.45-.45V130.6a.45.45,0,0,1,.9,0v3.81A.45.45,0,0,1,225,134.86Z"/><path class="cls-1" d="M218.14,134.86a.45.45,0,0,1-.44-.45,21,21,0,0,1,.77-3.29,6.52,6.52,0,0,1,1.82-3.08,5.38,5.38,0,0,1,3.74-1.58c3,.06,10.33,0,10.41,0h0a.46.46,0,0,1,.45.44.45.45,0,0,1-.45.45c-.07,0-7.43.06-10.43,0a4.44,4.44,0,0,0-3.11,1.35,5.53,5.53,0,0,0-1.56,2.65c-.69,2.61-.75,3-.75,3.07A.44.44,0,0,1,218.14,134.86Z"/><path class="cls-1" d="M237.48,131.9h-.15A3.2,3.2,0,0,1,234,129v-3.18a.45.45,0,0,1,.9,0V129a2.28,2.28,0,0,0,2.46,2h.06a1.72,1.72,0,0,0,1.26-.47c.69-.64,1-1.89,1-3.61a.45.45,0,0,1,.44-.46h0a.45.45,0,0,1,.45.44c.05,2-.39,3.48-1.31,4.3A2.64,2.64,0,0,1,237.48,131.9Z"/><path class="cls-1" d="M253.31,155.41h-2.52a.45.45,0,1,1,0-.89h2.49c5.34-.68,4.87-5.9,4.85-6.12s-1.74-15.63-2.18-18.17a3.17,3.17,0,0,0-1.34-2,4.55,4.55,0,0,0-2.68-.85H240.11a.45.45,0,0,1-.45-.44v-6.55a.45.45,0,0,1,.41-.45,1.44,1.44,0,0,0,1.19-.57,2.23,2.23,0,0,0,0-1.73.32.32,0,0,1,0-.19c.13-2.18-.29-3.81-1.25-4.87a4.06,4.06,0,0,0-2.8-1.27c-1.12,0-3.83,1.09-4.78,1.53a.43.43,0,0,1-.19,0h-2.06a13.23,13.23,0,0,0,.06,2.15,2.53,2.53,0,0,0,1.83,2.18.46.46,0,0,1,.34.45s-.11,3.74,0,5.33a2.25,2.25,0,0,0,1.48,1.79l.1,0c1.37.85,3.37-.38,3.39-.39a.44.44,0,0,1,.61.14.45.45,0,0,1-.14.62c-.1.06-2.46,1.51-4.29.42a3.09,3.09,0,0,1-2.05-2.56c-.09-1.36,0-4.13,0-5.09a3.41,3.41,0,0,1-2.15-2.85,8,8,0,0,1,0-2.82.44.44,0,0,1,.42-.3h2.35c.65-.3,3.68-1.63,5.1-1.57a4.89,4.89,0,0,1,3.43,1.56,7.25,7.25,0,0,1,1.48,5.43,3,3,0,0,1-.08,2.43,2.1,2.1,0,0,1-1.47.93v5.72h11.37a5.36,5.36,0,0,1,3.21,1,4,4,0,0,1,1.69,2.6c.45,2.56,2.12,17.59,2.19,18.23,0,.06.59,6.32-5.65,7.1Z"/><path class="cls-1" d="M233.33,118.33a4.32,4.32,0,0,1-1.59-.31.45.45,0,0,1,.36-.82h0a2.84,2.84,0,0,0,3-.51.3.3,0,0,1,.08-.08l3.31-2a.44.44,0,0,1,.47,0,.46.46,0,0,1,.21.42,4,4,0,0,0,.17,1.74,2.18,2.18,0,0,1,2.8.88.44.44,0,0,1-.14.61.43.43,0,0,1-.61-.14,1.38,1.38,0,0,0-1.89-.44.43.43,0,0,1-.35,0c-.68-.21-.86-1.15-.89-1.91l-2.56,1.56A3.3,3.3,0,0,1,233.33,118.33Z"/><path class="cls-1" d="M250.46,147.08H240.21a.45.45,0,1,1,0-.89H250l-1-13.26a.45.45,0,0,1,.41-.48.46.46,0,0,1,.48.41l1.06,13.74a.45.45,0,0,1-.44.48Z"/><path class="cls-1" d="M249.92,137.68a.44.44,0,0,1-.44-.38.45.45,0,0,1,.38-.51l7.55-1.06a.44.44,0,0,1,.51.38.45.45,0,0,1-.38.5L250,137.68Z"/><path class="cls-1" d="M234.85,121.48h-1.12a.27.27,0,0,1-.27-.27v-1.79a.27.27,0,1,1,.54,0V121h.85a.27.27,0,1,1,0,.53Z"/><path class="cls-1" d="M234.94,123.42a3.05,3.05,0,0,1-.72-.08A.27.27,0,0,1,234,123a.28.28,0,0,1,.33-.19s1.19.29,1.58-.36a.26.26,0,0,1,.37-.09.25.25,0,0,1,.09.36A1.61,1.61,0,0,1,234.94,123.42Z"/><line class="cls-2" x1="28.86" y1="22.02" x2="69.9" y2="22.02"/><path class="cls-3" d="M27.77,35.39h2l2,8.11L34,35.39h1.86l2.2,8.1,2.07-8.1H42L39,46.32H37.13l-2.21-8.41-2.3,8.41H30.74Z"/><path class="cls-3" d="M43.53,34.68h2v2.06h-2Zm0,3.29h1.91v8.35H43.57Z"/><path class="cls-3" d="M52.1,37.79a3.6,3.6,0,0,1,1.09.16,2.7,2.7,0,0,1,.93.54,2.67,2.67,0,0,1,.65,1A3.82,3.82,0,0,1,55,40.88v5.44H53.1v-5c0-1.22-.53-1.84-1.59-1.84a2.87,2.87,0,0,0-.53.07,1.53,1.53,0,0,0-.59.28,1.56,1.56,0,0,0-.48.58,2.16,2.16,0,0,0-.2,1v4.94H47.8V38h1.8v1h0A2.35,2.35,0,0,1,50.72,38,3.72,3.72,0,0,1,52.1,37.79Z"/><path class="cls-3" d="M60.54,37.79a6.41,6.41,0,0,1,1.05.08,5.39,5.39,0,0,1,.82.22,3.58,3.58,0,0,1,.65.32c.19.12.37.24.53.36l-.92,1.4a3,3,0,0,0-1-.56,3.84,3.84,0,0,0-1.1-.16,2,2,0,0,0-.69.12,1.57,1.57,0,0,0-.59.36,1.85,1.85,0,0,0-.41.65,2.84,2.84,0,0,0-.15,1v1a2.77,2.77,0,0,0,.17,1.06,2,2,0,0,0,.45.67,1.53,1.53,0,0,0,.6.35,2.21,2.21,0,0,0,.66.1,3.45,3.45,0,0,0,2.27-.71l.91,1.39a4,4,0,0,1-1.25.7,5.63,5.63,0,0,1-1.95.3,3.72,3.72,0,0,1-2.82-1,3.9,3.9,0,0,1-1-2.81v-1a3.46,3.46,0,0,1,3.77-3.77Z"/><path class="cls-3" d="M69.5,37.79a3.58,3.58,0,0,1,1.08.16,2.7,2.7,0,0,1,.93.54,2.57,2.57,0,0,1,.66,1,3.82,3.82,0,0,1,.24,1.43v5.44H70.5v-5c0-1.22-.53-1.84-1.59-1.84a3.07,3.07,0,0,0-.54.07,1.6,1.6,0,0,0-.59.28,1.56,1.56,0,0,0-.48.58,2.17,2.17,0,0,0-.19,1v4.94H65.2V34.86H67v4.06h0A2.28,2.28,0,0,1,68.11,38,3.77,3.77,0,0,1,69.5,37.79Z"/><path class="cls-3" d="M81.41,45.55A5.16,5.16,0,0,1,80,46.2a7.25,7.25,0,0,1-2,.24,5.05,5.05,0,0,1-1.41-.19,3.18,3.18,0,0,1-1.22-.64,3.1,3.1,0,0,1-.87-1.19,4.68,4.68,0,0,1-.32-1.87v-.87a4.65,4.65,0,0,1,.29-1.75,3.39,3.39,0,0,1,.81-1.21,3.26,3.26,0,0,1,1.21-.7A4.48,4.48,0,0,1,78,37.79a4.3,4.3,0,0,1,1.46.23,3.12,3.12,0,0,1,1.16.68,3.25,3.25,0,0,1,.76,1.16,4.34,4.34,0,0,1,.27,1.59v1.38H76a2,2,0,0,0,.53,1.51,2.13,2.13,0,0,0,1.53.51,4.82,4.82,0,0,0,1.32-.16,5.58,5.58,0,0,0,1.21-.52Zm-1.62-4.16V41a2,2,0,0,0-.1-.64,1.48,1.48,0,0,0-.33-.53,1.64,1.64,0,0,0-.57-.36,2.36,2.36,0,0,0-.85-.14,1.9,1.9,0,0,0-1.43.5A1.71,1.71,0,0,0,76,41.08v.31Z"/><path class="cls-3" d="M86.76,37.79a6.38,6.38,0,0,1,1,.08,5.09,5.09,0,0,1,.82.22,3.58,3.58,0,0,1,.65.32,6.08,6.08,0,0,1,.53.36l-.92,1.4a3,3,0,0,0-1-.56,3.9,3.9,0,0,0-1.1-.16,2.06,2.06,0,0,0-.7.12,1.57,1.57,0,0,0-.59.36,1.85,1.85,0,0,0-.41.65,2.84,2.84,0,0,0-.15,1v1a3,3,0,0,0,.17,1.06,2,2,0,0,0,.45.67,1.57,1.57,0,0,0,.61.35,2.14,2.14,0,0,0,.65.1,4.08,4.08,0,0,0,1.31-.19,3.71,3.71,0,0,0,1-.52L90,45.44a3.93,3.93,0,0,1-1.24.7,5.73,5.73,0,0,1-2,.3,3.68,3.68,0,0,1-2.81-1,3.9,3.9,0,0,1-1-2.81v-1a3.73,3.73,0,0,1,1-2.78A3.8,3.8,0,0,1,86.76,37.79Z"/><path class="cls-3" d="M95.61,41.42,99,46.32H96.55l-2.28-3.55-1,1.06v2.49H91.41V34.86h1.91V41.5L96.44,38h2.41Z"/><path class="cls-3" d="M102.68,35.18v2h2v1h-2v2.19h-1.12V38.27h-2v-1h2v-2Z"/><path class="cls-4" d="M237,60.77c-10.93-.27-19.76-1.73-19.73-3.27,0-1,3.53-1.74,8.83-2.12v-.14c-6.72.36-11.34,1.3-11.36,2.52,0,1.73,9.28,3.36,20.83,3.64,11.08.26,20.17-.81,20.93-2.43C254.71,60.22,246.65,61,237,60.77Z"/><path class="cls-5" d="M241.12,45.69l-3.38,6.17a.41.41,0,0,1-.75,0L228,30a.43.43,0,0,1,.39-.61h5.92a.43.43,0,0,1,.39.27l6.46,15.61A.46.46,0,0,1,241.12,45.69Z"/><path class="cls-5" d="M251.75,45.69l-3.37,6.17a.42.42,0,0,1-.76,0l-9-21.77a.43.43,0,0,1,.38-.61h5.93a.43.43,0,0,1,.39.27l6.45,15.61A.4.4,0,0,1,251.75,45.69Z"/><path class="cls-6" d="M259.25,29.43h-5.9a.42.42,0,0,0-.36.22l-2.34,4.28a.46.46,0,0,0,0,.38l2.74,6.6a.42.42,0,0,0,.76,0l5.5-10.88A.44.44,0,0,0,259.25,29.43Z"/><path class="cls-6" d="M260.69,43.61h0a.24.24,0,0,0-.06.32c2.23,3.48,2.94,6.93,1.67,9.64-2.88,6.16-15,6.57-27.12.91s-19.57-15.25-16.69-21.41c1.31-2.8,4.57-4.48,8.87-4.94a.21.21,0,0,0,.19-.21.21.21,0,0,0-.22-.21c-5.87,0-10.39,1.88-12.08,5.49-3.24,6.91,5,17.91,18.54,24.25s27.26,5.61,30.49-1.3c1.65-3.53.27-8.06-3.27-12.49A.24.24,0,0,0,260.69,43.61Z"/><path class="cls-5" d="M226.65,31.86l-.85-2.35a.14.14,0,0,0-.16-.08c-2.83.8-4.91,2.27-5.82,4.37-1.28,2.94,0,6.56,3,10a.1.1,0,0,0,.15-.12c-1.86-2.7-2.5-5.42-1.5-7.7.82-1.89,2.64-3.23,5.11-4A.12.12,0,0,0,226.65,31.86Z"/><path class="cls-5" d="M259.14,43a23.57,23.57,0,0,0-2.48-2.94.11.11,0,0,0-.16,0l-1.2,2.31a.09.09,0,0,0,0,.11,16.62,16.62,0,0,1,1.82,2.36c1.71,2.64,2.32,5.27,1.46,7.48s-3.26,3.81-6.48,4.41a.1.1,0,0,0,0,.19c4.6-.33,8-2,9.18-5C262.33,49.35,261.44,46.19,259.14,43Z"/></svg>