<svg width="27" height="30" viewBox="0 0 27 30" fill="none" xmlns="http://www.w3.org/2000/svg">
<path d="M1.7756 18.0719V21.1567C1.7756 22.8605 3.12223 24.2416 4.78337 24.2416C6.44451 24.2416 7.79113 22.8605 7.79113 21.1567V18.0719C7.79113 16.3681 6.44451 14.987 4.78337 14.987C3.12223 14.987 1.7756 16.3681 1.7756 18.0719ZM1.7756 18.0719V13.4445C1.7756 10.1719 3.04316 7.03327 5.29942 4.71915C7.55568 2.40504 10.6158 1.10498 13.8067 1.10498C16.9975 1.10498 20.0576 2.40504 22.3139 4.71915C24.5702 7.03327 25.8377 10.1719 25.8377 13.4445V18.0719M25.8377 18.0719C25.8377 16.3681 24.4911 14.987 22.83 14.987C21.1688 14.987 19.8222 16.3681 19.8222 18.0719V21.1567C19.8222 22.8605 21.1688 24.2416 22.83 24.2416M25.8377 18.0719V21.1567C25.8377 22.8605 24.4911 24.2416 22.83 24.2416M22.83 24.2416C22.83 25.4689 21.8793 26.6459 20.1871 27.5137C18.4949 28.3814 16.1998 28.869 13.8067 28.869" stroke="#7B90C8" stroke-width="1.85093" stroke-linecap="round" stroke-linejoin="round"/>
</svg>
