<?xml version="1.0" encoding="UTF-8"?>
<svg id="_레이어_1" xmlns="http://www.w3.org/2000/svg" version="1.1" xmlns:xlink="http://www.w3.org/1999/xlink" viewBox="0 0 2011.45 575.55">
  <!-- Generator: Adobe Illustrator 29.8.1, SVG Export Plug-In . SVG Version: 2.1.1 Build 2)  -->
  <defs>
    <style>
      .st0, .st1, .st2, .st3, .st4, .st5, .st6 {
        isolation: isolate;
      }

      .st0, .st1, .st3 {
        fill: #2645b5;
      }

      .st0, .st2, .st3, .st5, .st6 {
        font-family: NanumSquareRoundOTFEB-KSCpc-EUC-H, NanumSquareRoundOTF;
      }

      .st0, .st3 {
        font-size: 26.13px;
      }

      .st7 {
        fill: url(#_무제_그라디언트_24);
      }

      .st8 {
        fill: #40d5e6;
      }

      .st9 {
        fill: #b5deff;
      }

      .st10 {
        fill: #4487c2;
      }

      .st11 {
        fill: #1a598c;
      }

      .st12 {
        fill: #0e1e2b;
      }

      .st13 {
        fill: url(#_무제_그라디언트_12);
      }

      .st1 {
        font-family: NanumSquareRoundEB, NanumSquareRound;
        font-size: 57.1px;
      }

      .st14 {
        fill: url(#_무제_그라디언트_31);
      }

      .st15 {
        fill: url(#_무제_그라디언트_26);
      }

      .st16 {
        fill: url(#_무제_그라디언트_28);
      }

      .st17 {
        fill: url(#_무제_그라디언트_15);
      }

      .st18 {
        fill: url(#_무제_그라디언트_23);
      }

      .st19 {
        fill: #236299;
      }

      .st20 {
        fill: #edebe7;
      }

      .st21 {
        fill: #d2de4e;
      }

      .st22 {
        fill: url(#_무제_그라디언트_25);
      }

      .st23 {
        fill: url(#_무제_그라디언트_13);
      }

      .st24 {
        fill: #dbdff0;
      }

      .st25 {
        fill: #81807e;
      }

      .st2 {
        font-size: 29.26px;
      }

      .st2, .st26, .st5, .st6 {
        fill: #0382ff;
      }

      .st27 {
        fill: #fff;
      }

      .st28 {
        fill: url(#_무제_그라디언트_32);
      }

      .st29 {
        fill: #9ea1ad;
      }

      .st30 {
        fill: url(#_무제_그라디언트_10);
      }

      .st31 {
        fill: #4aafff;
      }

      .st32 {
        fill: url(#_무제_그라디언트_21);
      }

      .st3 {
        letter-spacing: -.01em;
      }

      .st33 {
        fill: #e2f3fe;
      }

      .st34, .st35 {
        fill: none;
      }

      .st36 {
        fill: url(#_무제_그라디언트_14);
      }

      .st37 {
        opacity: .72;
      }

      .st38 {
        fill: #6ea2e8;
      }

      .st39 {
        fill: #db9c7c;
      }

      .st40 {
        fill: url(#_무제_그라디언트_17);
      }

      .st41 {
        fill: #9e9e9c;
      }

      .st42 {
        fill: #e3a080;
      }

      .st43 {
        fill: url(#_무제_그라디언트_18);
      }

      .st44 {
        fill: url(#_무제_그라디언트_29);
      }

      .st45 {
        fill: url(#_무제_그라디언트_27);
      }

      .st46 {
        fill: #2273b5;
      }

      .st47 {
        fill: #4da8f2;
      }

      .st48 {
        fill: url(#_무제_그라디언트_19);
      }

      .st49 {
        fill: #e8734d;
      }

      .st50 {
        fill: #2f4563;
      }

      .st51 {
        fill: url(#_무제_그라디언트_11);
      }

      .st52 {
        fill: #eddad3;
      }

      .st53 {
        fill: #dfe1e8;
      }

      .st54 {
        fill: #4e9bde;
      }

      .st55 {
        fill: #3a3f47;
      }

      .st56 {
        fill: url(#_무제_그라디언트_30);
      }

      .st57 {
        fill: #bdafaa;
      }

      .st58 {
        fill: url(#_무제_그라디언트_22);
      }

      .st59 {
        fill: #de4e74;
      }

      .st60 {
        fill: #696969;
      }

      .st61 {
        fill: #2a76b8;
      }

      .st5 {
        letter-spacing: -.02em;
      }

      .st5, .st6 {
        font-size: 85px;
      }

      .st62 {
        fill: #efaa88;
      }

      .st63 {
        fill: #a77860;
      }

      .st6 {
        letter-spacing: -.02em;
      }

      .st64 {
        fill: #fccca2;
      }

      .st65 {
        fill: url(#_무제_그라디언트_20);
      }

      .st66 {
        clip-path: url(#clippath);
      }

      .st35 {
        stroke: #7f7f7f;
        stroke-miterlimit: 10;
        stroke-width: 3px;
      }

      .st67 {
        fill: #353a3d;
      }

      .st68 {
        fill: url(#_무제_그라디언트_16);
      }

      .st69 {
        opacity: .08;
      }

      .st70 {
        fill: #706865;
      }

      .st71 {
        fill: #eea886;
      }

      .st72 {
        fill: #c4b6af;
      }

      .st73 {
        fill: #e2d2ca;
      }

      .st74 {
        fill: #3788cc;
      }

      .st75 {
        fill: #c5ccd1;
      }

      .st76 {
        fill: #3b3b40;
      }
    </style>
    <clipPath id="clippath">
      <rect class="st34" x="0" y=".38" width="2011.45" height="574.79"/>
    </clipPath>
    <radialGradient id="_무제_그라디언트_10" data-name="무제 그라디언트 10" cx="1831.19" cy="313.04" fx="1831.19" fy="313.04" r="28.61" gradientTransform="translate(114.32 430.08) rotate(-2.26) scale(1 -1)" gradientUnits="userSpaceOnUse">
      <stop offset="0" stop-color="#e4f2ff"/>
      <stop offset=".3" stop-color="#87c4ff" stop-opacity=".65"/>
      <stop offset=".55" stop-color="#40a0ff" stop-opacity=".38"/>
      <stop offset=".73" stop-color="#148aff" stop-opacity=".21"/>
      <stop offset=".82" stop-color="#0382ff" stop-opacity=".15"/>
      <stop offset=".84" stop-color="#0985ff" stop-opacity=".17"/>
      <stop offset=".86" stop-color="#1d8fff" stop-opacity=".24"/>
      <stop offset=".89" stop-color="#3d9eff" stop-opacity=".35"/>
      <stop offset=".92" stop-color="#69b4ff" stop-opacity=".49"/>
      <stop offset=".95" stop-color="#a1d0ff" stop-opacity=".69"/>
      <stop offset=".99" stop-color="#e5f2ff" stop-opacity=".92"/>
      <stop offset="1" stop-color="#fff"/>
    </radialGradient>
    <radialGradient id="_무제_그라디언트_11" data-name="무제 그라디언트 11" cx="-105.82" cy="2440.17" fx="-105.82" fy="2440.17" r="72.27" gradientTransform="translate(3667.97 -1820.18) rotate(-135.07) scale(1 -1) skewX(.14)" gradientUnits="userSpaceOnUse">
      <stop offset="0" stop-color="#0382ff"/>
      <stop offset=".16" stop-color="#0382ff" stop-opacity=".85"/>
      <stop offset=".57" stop-color="#0382ff" stop-opacity=".48"/>
      <stop offset=".86" stop-color="#0382ff" stop-opacity=".24"/>
      <stop offset="1" stop-color="#0382ff" stop-opacity=".15"/>
    </radialGradient>
    <radialGradient id="_무제_그라디언트_12" data-name="무제 그라디언트 12" cx="875.59" cy="464.09" fx="875.59" fy="464.09" r="22.7" gradientTransform="translate(-.12 575.89) scale(1 -1)" gradientUnits="userSpaceOnUse">
      <stop offset="0" stop-color="#e4f2ff"/>
      <stop offset=".3" stop-color="#87c4ff" stop-opacity=".65"/>
      <stop offset=".55" stop-color="#40a0ff" stop-opacity=".38"/>
      <stop offset=".73" stop-color="#148aff" stop-opacity=".21"/>
      <stop offset=".82" stop-color="#0382ff" stop-opacity=".15"/>
      <stop offset=".84" stop-color="#0985ff" stop-opacity=".17"/>
      <stop offset=".86" stop-color="#1d8fff" stop-opacity=".24"/>
      <stop offset=".89" stop-color="#3d9eff" stop-opacity=".35"/>
      <stop offset=".92" stop-color="#69b4ff" stop-opacity=".49"/>
      <stop offset=".95" stop-color="#a1d0ff" stop-opacity=".69"/>
      <stop offset=".99" stop-color="#e5f2ff" stop-opacity=".92"/>
      <stop offset="1" stop-color="#fff"/>
    </radialGradient>
    <radialGradient id="_무제_그라디언트_13" data-name="무제 그라디언트 13" cx="926.77" cy="446.74" fx="926.77" fy="446.74" r="11.35" gradientTransform="translate(-.12 575.89) scale(1 -1)" gradientUnits="userSpaceOnUse">
      <stop offset="0" stop-color="#e4f2ff"/>
      <stop offset=".3" stop-color="#87c4ff" stop-opacity=".65"/>
      <stop offset=".55" stop-color="#40a0ff" stop-opacity=".38"/>
      <stop offset=".73" stop-color="#148aff" stop-opacity=".21"/>
      <stop offset=".82" stop-color="#0382ff" stop-opacity=".15"/>
      <stop offset=".84" stop-color="#0985ff" stop-opacity=".17"/>
      <stop offset=".86" stop-color="#1d8fff" stop-opacity=".24"/>
      <stop offset=".89" stop-color="#3d9eff" stop-opacity=".35"/>
      <stop offset=".92" stop-color="#69b4ff" stop-opacity=".49"/>
      <stop offset=".95" stop-color="#a1d0ff" stop-opacity=".69"/>
      <stop offset=".99" stop-color="#e5f2ff" stop-opacity=".92"/>
      <stop offset="1" stop-color="#fff"/>
    </radialGradient>
    <radialGradient id="_무제_그라디언트_14" data-name="무제 그라디언트 14" cx="99.03" cy="383.76" fx="99.03" fy="383.76" r="18.19" gradientTransform="translate(-.12 575.89) scale(1 -1)" gradientUnits="userSpaceOnUse">
      <stop offset="0" stop-color="#e4f2ff"/>
      <stop offset=".3" stop-color="#87c4ff" stop-opacity=".65"/>
      <stop offset=".55" stop-color="#40a0ff" stop-opacity=".38"/>
      <stop offset=".73" stop-color="#148aff" stop-opacity=".21"/>
      <stop offset=".82" stop-color="#0382ff" stop-opacity=".15"/>
      <stop offset=".84" stop-color="#0985ff" stop-opacity=".17"/>
      <stop offset=".86" stop-color="#1d8fff" stop-opacity=".24"/>
      <stop offset=".89" stop-color="#3d9eff" stop-opacity=".35"/>
      <stop offset=".92" stop-color="#69b4ff" stop-opacity=".49"/>
      <stop offset=".95" stop-color="#a1d0ff" stop-opacity=".69"/>
      <stop offset=".99" stop-color="#e5f2ff" stop-opacity=".92"/>
      <stop offset="1" stop-color="#fff"/>
    </radialGradient>
    <linearGradient id="_무제_그라디언트_15" data-name="무제 그라디언트 15" x1="624.4" y1="508.46" x2="646.3" y2="508.46" gradientTransform="translate(0 575.89) scale(1 -1)" gradientUnits="userSpaceOnUse">
      <stop offset="0" stop-color="#40d5e6"/>
      <stop offset="1" stop-color="#57f"/>
    </linearGradient>
    <linearGradient id="_무제_그라디언트_16" data-name="무제 그라디언트 16" x1="640.48" y1="496.27" x2="660.27" y2="496.27" gradientTransform="translate(0 575.89) scale(1 -1)" gradientUnits="userSpaceOnUse">
      <stop offset="0" stop-color="#40d5e6"/>
      <stop offset="1" stop-color="#57f"/>
    </linearGradient>
    <linearGradient id="_무제_그라디언트_17" data-name="무제 그라디언트 17" x1="642.17" y1="493.39" x2="657.03" y2="493.39" gradientTransform="translate(0 575.89) scale(1 -1)" gradientUnits="userSpaceOnUse">
      <stop offset="0" stop-color="#40d5e6"/>
      <stop offset="1" stop-color="#57f"/>
    </linearGradient>
    <linearGradient id="_무제_그라디언트_18" data-name="무제 그라디언트 18" x1="636.8" y1="505.32" x2="654.1" y2="505.32" gradientTransform="translate(0 575.89) scale(1 -1)" gradientUnits="userSpaceOnUse">
      <stop offset="0" stop-color="#40d5e6"/>
      <stop offset="1" stop-color="#57f"/>
    </linearGradient>
    <linearGradient id="_무제_그라디언트_19" data-name="무제 그라디언트 19" x1="632.82" y1="480.55" x2="648.79" y2="480.55" gradientTransform="translate(0 575.89) scale(1 -1)" gradientUnits="userSpaceOnUse">
      <stop offset="0" stop-color="#ff9340"/>
      <stop offset="1" stop-color="#ffce45"/>
    </linearGradient>
    <linearGradient id="_무제_그라디언트_20" data-name="무제 그라디언트 20" x1="632.82" y1="480.55" x2="648.79" y2="480.55" gradientTransform="translate(0 575.89) scale(1 -1)" gradientUnits="userSpaceOnUse">
      <stop offset="0" stop-color="#c97332"/>
      <stop offset="1" stop-color="#ffce45"/>
    </linearGradient>
    <linearGradient id="_무제_그라디언트_21" data-name="무제 그라디언트 21" x1="1768.93" y1="464.58" x2="1874.63" y2="257.88" gradientTransform="translate(0 575.89) scale(1 -1)" gradientUnits="userSpaceOnUse">
      <stop offset="0" stop-color="#40d5e6"/>
      <stop offset="1" stop-color="#57f"/>
    </linearGradient>
    <linearGradient id="_무제_그라디언트_22" data-name="무제 그라디언트 22" x1="1706.08" y1="432.51" x2="1811.89" y2="225.58" gradientTransform="translate(0 575.89) scale(1 -1)" gradientUnits="userSpaceOnUse">
      <stop offset="0" stop-color="#40d5e6"/>
      <stop offset="1" stop-color="#57f"/>
    </linearGradient>
    <linearGradient id="_무제_그라디언트_23" data-name="무제 그라디언트 23" x1="1801.32" y1="491.19" x2="1786.29" y2="426.4" gradientTransform="translate(0 575.89) scale(1 -1)" gradientUnits="userSpaceOnUse">
      <stop offset="0" stop-color="#40d5e6"/>
      <stop offset="1" stop-color="#57f"/>
    </linearGradient>
    <linearGradient id="_무제_그라디언트_24" data-name="무제 그라디언트 24" x1="1825.34" y1="485.62" x2="1810.33" y2="420.83" gradientTransform="translate(0 575.89) scale(1 -1)" gradientUnits="userSpaceOnUse">
      <stop offset="0" stop-color="#40d5e6"/>
      <stop offset="1" stop-color="#57f"/>
    </linearGradient>
    <linearGradient id="_무제_그라디언트_25" data-name="무제 그라디언트 25" x1="1780.13" y1="355.3" x2="1851.06" y2="355.3" gradientTransform="translate(0 575.89) scale(1 -1)" gradientUnits="userSpaceOnUse">
      <stop offset="0" stop-color="#d5e4ff"/>
      <stop offset="1" stop-color="#edfffe"/>
    </linearGradient>
    <linearGradient id="_무제_그라디언트_26" data-name="무제 그라디언트 26" x1="1806.64" y1="315.43" x2="1824.57" y2="315.43" gradientTransform="translate(0 575.89) scale(1 -1)" gradientUnits="userSpaceOnUse">
      <stop offset="0" stop-color="#d5e4ff"/>
      <stop offset="1" stop-color="#edfffe"/>
    </linearGradient>
    <linearGradient id="_무제_그라디언트_27" data-name="무제 그라디언트 27" x1="1882.3" y1="482.67" x2="1867.56" y2="446.2" gradientTransform="translate(0 575.89) scale(1 -1)" gradientUnits="userSpaceOnUse">
      <stop offset="0" stop-color="#40d5e6"/>
      <stop offset="1" stop-color="#57f"/>
    </linearGradient>
    <linearGradient id="_무제_그라디언트_28" data-name="무제 그라디언트 28" x1="1883.68" y1="482.1" x2="1868.94" y2="445.66" gradientTransform="translate(0 575.89) scale(1 -1)" gradientUnits="userSpaceOnUse">
      <stop offset="0" stop-color="#40d5e6"/>
      <stop offset="1" stop-color="#57f"/>
    </linearGradient>
    <linearGradient id="_무제_그라디언트_29" data-name="무제 그라디언트 29" x1="1875.79" y1="485.31" x2="1861.05" y2="448.85" gradientTransform="translate(0 575.89) scale(1 -1)" gradientUnits="userSpaceOnUse">
      <stop offset="0" stop-color="#40d5e6"/>
      <stop offset="1" stop-color="#57f"/>
    </linearGradient>
    <linearGradient id="_무제_그라디언트_30" data-name="무제 그라디언트 30" x1="1876.36" y1="485.07" x2="1861.62" y2="448.63" gradientTransform="translate(0 575.89) scale(1 -1)" gradientUnits="userSpaceOnUse">
      <stop offset="0" stop-color="#40d5e6"/>
      <stop offset="1" stop-color="#57f"/>
    </linearGradient>
    <linearGradient id="_무제_그라디언트_31" data-name="무제 그라디언트 31" x1="1891.87" y1="478.77" x2="1877.15" y2="442.38" gradientTransform="translate(0 575.89) scale(1 -1)" gradientUnits="userSpaceOnUse">
      <stop offset="0" stop-color="#40d5e6"/>
      <stop offset="1" stop-color="#57f"/>
    </linearGradient>
    <radialGradient id="_무제_그라디언트_32" data-name="무제 그라디언트 32" cx="63.76" cy="867.76" fx="63.76" fy="867.76" r="152.62" gradientTransform="translate(-167.78 852.01) rotate(12.54) scale(1 -1) skewX(.06)" gradientUnits="userSpaceOnUse">
      <stop offset="0" stop-color="#e4f2ff"/>
      <stop offset=".3" stop-color="#87c4ff" stop-opacity=".65"/>
      <stop offset=".55" stop-color="#40a0ff" stop-opacity=".38"/>
      <stop offset=".73" stop-color="#148aff" stop-opacity=".21"/>
      <stop offset=".82" stop-color="#0382ff" stop-opacity=".15"/>
      <stop offset=".84" stop-color="#0985ff" stop-opacity=".17"/>
      <stop offset=".86" stop-color="#1d8fff" stop-opacity=".24"/>
      <stop offset=".89" stop-color="#3d9eff" stop-opacity=".35"/>
      <stop offset=".92" stop-color="#69b4ff" stop-opacity=".49"/>
      <stop offset=".95" stop-color="#a1d0ff" stop-opacity=".69"/>
      <stop offset=".99" stop-color="#e5f2ff" stop-opacity=".92"/>
      <stop offset="1" stop-color="#fff"/>
    </radialGradient>
  </defs>
  <g class="st66">
    <g>
      <g class="st69">
        <rect class="st26" x="0" y=".38" width="2011.45" height="574.79"/>
      </g>
      <g>
        <g class="st4">
          <text class="st6" transform="translate(125.24 286.78)"><tspan x="0" y="0">2차 오프라인 컨설팅 특강</tspan></text>
        </g>
        <g class="st4">
          <text class="st5" transform="translate(122.51 188.23)"><tspan x="0" y="0">요양병원 적정성평가</tspan></text>
        </g>
      </g>
      <g class="st4">
        <text class="st1" transform="translate(135.41 92.38)"><tspan x="0" y="0">2025년 2주기 7차</tspan></text>
      </g>
      <path class="st35" d="M1117.17,129.56h-77.04c-12.37,0-22.4-10-22.4-22.34h0c0-12.34,10.03-22.34,22.4-22.34h77.04c12.37,0,22.4,10,22.4,22.34h0c0,12.34-10.03,22.34-22.4,22.34Z"/>
      <g class="st4">
        <text class="st2" transform="translate(1052.64 115.87)"><tspan x="0" y="0">장소</tspan></text>
      </g>
      <g class="st4">
        <text class="st0" transform="translate(1151.58 107.22)"><tspan x="0" y="0">서울 : 서초구 효령대로 70길 36-9 위너빌딩 지하 1층</tspan></text>
      </g>
      <g class="st4">
        <text class="st3" transform="translate(1152.1 152.73)"><tspan x="0" y="0">z</tspan></text>
        <text class="st0" transform="translate(1164.85 152.73)"><tspan x="0" y="0">oom : 당일 기관 담당자에게 문자메세지 링크발송</tspan></text>
      </g>
      <path class="st35" d="M1117.17,227.97h-77.04c-12.37,0-22.4-10-22.4-22.34h0c0-12.34,10.03-22.34,22.4-22.34h77.04c12.37,0,22.4,10,22.4,22.34h0c0,12.34-10.03,22.34-22.4,22.34Z"/>
      <g class="st4">
        <text class="st2" transform="translate(1052.64 214.29)"><tspan x="0" y="0">시간</tspan></text>
      </g>
      <path class="st35" d="M1117.17,298.77h-77.04c-12.37,0-22.4-10-22.4-22.34h0c0-12.34,10.03-22.34,22.4-22.34h77.04c12.37,0,22.4,10,22.4,22.34h0c0,12.34-10.03,22.34-22.4,22.34Z"/>
      <g class="st4">
        <text class="st2" transform="translate(1052.64 285.08)"><tspan x="0" y="0">내용</tspan></text>
      </g>
      <g class="st4">
        <text class="st0" transform="translate(1151.58 212.24)"><tspan x="0" y="0">14:00~16:30 (2시간 30분)</tspan></text>
      </g>
      <g class="st4">
        <text class="st0" transform="translate(1152.1 277.71)"><tspan x="0" y="0">2025년 2주기 7차 적정성평가 </tspan></text>
        <text class="st0" transform="translate(1152.1 311.66)"><tspan x="0" y="0">신뢰도 점검 및 적정성평가 중간현황 점검</tspan></text>
      </g>
      <ellipse class="st30" cx="1941.98" cy="53.63" rx="16.72" ry="16.68"/>
      <path class="st51" d="M1983.38-14.73c15.5-15.46,40.62-15.46,56.11,0,15.5,15.46,15.5,40.52,0,55.97-15.5,15.46-40.62,15.46-56.11,0-15.5-15.46-15.5-40.52,0-55.97Z"/>
      <ellipse class="st13" cx="870.68" cy="118" rx="13.83" ry="13.79"/>
      <ellipse class="st23" cx="925.53" cy="132.26" rx="6.92" ry="6.9"/>
      <ellipse class="st36" cx="93.61" cy="197.1" rx="11.09" ry="11.06"/>
      <path class="st17" d="M626.32,38.58c1.89-.9,3.76,5.09,3.76,5.09,3.21,4.23,7.69-1.4,7.25,4.92-.76,11.07,12.77,3.48,6.52,15.03-6.24,11.55,5.52,6.53,1.63,15.84-3.88,9.31,1.15,20.42-4.69,15.85,0,0-5.14-11.24-10.44-14.73-5.3-3.48,3.18-7.61,1.52-12.33-2.41-6.87-8.21-6.59-4.02-13.97,4.18-7.38-7.95-12.67-1.54-15.73v.02Z"/>
      <path class="st27" d="M642.66,91.1c-2.53-1.78-5.5-14.15-5.66-21.52-.09-3.77-1.21-5.35-2.19-6.73-.94-1.33-1.76-2.48-1.29-5.1.91-5.03-1.47-7.2-1.5-7.22l.27-.31c.1.09,2.59,2.33,1.64,7.61-.44,2.46.29,3.48,1.21,4.79.97,1.37,2.18,3.06,2.27,6.97.19,7.91,3.22,19.6,5.49,21.18l-.24.34h.01Z"/>
      <path class="st68" d="M643.61,92.02c-.32,0-.68-.04-1.07-.11-.97-.2-1.62-.71-1.9-1.53-.68-1.94.9-5.11,2.18-6.64.02-.02,2.17-2.64,1.94-6.27-.04-.61-.1-1.17-.16-1.67-.16-1.43-.28-2.48.34-3.17.54-.61,1.6-.88,3.52-.89,3.37-.02,4.7-1.41,5.77-2.53.45-.47.89-.92,1.4-1.21h0c1.68-.91,3.46-1.05,4.23-.32.37.34.68,1.02.07,2.29-.55,1.16-1.27,1.89-1.85,2.48-.77.79-1.3,1.32-1.02,2.35.06.24.14.49.21.74.52,1.78,1.11,3.78-1.93,5.14-.65.29-1.23.52-1.76.72-2.12.83-3.41,1.33-4.85,4.38-.28.59-.52,1.15-.76,1.69-1.14,2.58-2.01,4.53-4.36,4.53l-.02.02ZM655.83,68.38c-.46.25-.86.66-1.31,1.13-1.13,1.17-2.53,2.63-6.07,2.65-1.77,0-2.76.24-3.21.74-.49.55-.39,1.52-.24,2.84.05.5.13,1.07.16,1.69.24,3.8-1.94,6.46-2.04,6.56-1.27,1.5-2.71,4.51-2.11,6.23.23.67.77,1.09,1.59,1.25,2.86.57,3.66-1.21,4.96-4.17.24-.54.49-1.11.77-1.69,1.52-3.2,2.94-3.75,5.07-4.59.51-.2,1.1-.43,1.73-.71,2.71-1.21,2.22-2.88,1.7-4.64-.07-.25-.15-.5-.21-.75-.32-1.26.31-1.92,1.13-2.75.59-.6,1.24-1.27,1.78-2.36.27-.57.5-1.35.02-1.81-.64-.6-2.24-.43-3.74.39h0v-.02Z"/>
      <path class="st40" d="M642.58,94.43l-.42-.02c.02-.39.54-9.63,4.26-12.33,4.08-2.97,5.36-6.16,5.98-8.29.72-2.52,4.39-3.2,4.55-3.22l.07.41s-3.57.66-4.22,2.93c-.63,2.19-1.95,5.48-6.13,8.51-3.55,2.58-4.09,11.91-4.1,12.01h.01Z"/>
      <path class="st43" d="M651.08,47.9c-2.64-.9-2.09,4.18-3.21,7.93-1.12,3.76-12.42,1.64-7.67,11.05s-6,3.15-2.79,11.36.28,16.99,3.76,14.76c3.49-2.24,1.95-12.57,5.59-13.81,3.63-1.23,4.22-2.66.63-6-3.6-3.34,9.41-6.66,6.2-13.4s.54-10.85-2.51-11.89h0Z"/>
      <path class="st27" d="M642.79,92.6c-.33-1.41-3.17-13.77-.52-15.27,2.33-1.32,2.28-6.45,1.91-11.29-.32-4.28,5.19-6.29,5.43-6.37l.14.4c-.05.02-5.46,1.98-5.15,5.95.38,4.97.42,10.24-2.12,11.68-2.01,1.14-.16,11.08.72,14.81,0,0-.41.09-.41.09Z"/>
      <polygon class="st48" points="648.79 88.2 645.02 102.47 636.6 102.47 632.82 88.2 648.79 88.2"/>
      <path class="st65" d="M648.79,88.2s-8.3,1.56-8.3,14.28h-3.9l-3.77-14.28h15.97,0Z"/>
      <rect class="st70" x="693.41" y="42.7" width="1.3" height="58.76"/>
      <rect class="st70" x="663.96" y="42.7" width="1.3" height="58.76"/>
      <path class="st57" d="M673.91,18.15h10.83c8.78,0,15.91,7.13,15.91,15.91v41.8c0,8.78-7.13,15.91-15.91,15.91h-10.83c-8.78,0-15.91-7.13-15.91-15.91v-41.8c0-8.78,7.13-15.91,15.91-15.91Z"/>
      <path class="st27" d="M674.21,19.34h10.23c8.3,0,15.04,6.74,15.04,15.04v39.48c0,8.3-6.74,15.04-15.04,15.04h-10.23c-8.3,0-15.04-6.74-15.04-15.04v-39.48c0-8.3,6.74-15.04,15.04-15.04Z"/>
      <path class="st9" d="M676.09,43.92c-4.93-.99-8.72-5.35-8.72-10.65,0-5.99,4.88-10.87,10.89-10.87v.49c-5.74,0-10.4,4.65-10.4,10.38,0,5.06,3.62,9.22,8.32,10.17,3.67.75,7.55-.53,10.04-3.49,1.57-1.86,2.44-4.23,2.44-6.68,0-.51-.04-1.02-.11-1.53l.48-.07c.07.52.11,1.06.11,1.59,0,2.55-.91,5.04-2.55,6.99-2.61,3.09-6.66,4.44-10.51,3.66h.01Z"/>
      <path class="st71" d="M657.94,34.4s.8-1.41-.47-5.18c-1.23-3.66-5.53-3.32-6.89-.98-1.36,2.34-.9,3.79,1.11,6.44s5.42.94,6.26-.27h-.01Z"/>
      <path class="st25" d="M647.99,99.38s-.21,1.55-.24,1.79c-.03.23-2.36-.14-2.36-.14l-.19-1.85s2.5-.02,2.79.2Z"/>
      <path class="st67" d="M647.77,100.97s.74.93,1.45,1.34,1.84.56,2.26.99c.3.3,1.11,1.62-1.86,1.59-2.97-.03-4.4.19-4.72-.31-.31-.5.46-3.71.46-3.71,0,0,.73.21,2.4.1h.01Z"/>
      <path class="st25" d="M664.14,99.38s-.21,1.55-.24,1.79c-.03.23-2.36-.14-2.36-.14l-.19-1.85s2.5-.02,2.79.2Z"/>
      <path class="st67" d="M663.92,100.97s.74.93,1.45,1.34,3.34.74,3.77,1.16c.3.3.82,1.53-3.37,1.41-2.97-.08-4.4.19-4.72-.31-.31-.5.46-3.71.46-3.71,0,0,.92.17,2.4.1h0Z"/>
      <path class="st76" d="M648.77,60.76s-1.19,3.71-1.03,6.91-.62,6.69-.94,10.03c-.36,3.72-1.8,12.53-1.85,14.53-.05,1.99-.55,8.17-.55,8.17l3.68.25s2.44-15.4,3.06-16.97,3.75-12.77,3.86-14.04c.1-1.25-6.22-8.86-6.22-8.86v-.02Z"/>
      <path class="st76" d="M660.78,60.38s1.76,9.8,1.96,11.76.36,9.47.46,10.69c.1,1.22.7,16,1.26,17.81h-3.95s-2.59-10.74-2.59-15.82-2.19-11.05-3.62-14.4c-1.42-3.35-4.66-3.43-5.54-9.66,0,0,10.83-2.36,12.01-.39h0Z"/>
      <path class="st71" d="M656.76,35.4s-.37,1.06,0,1.81-4.65.3-4.65.3c0,0,.23-1.56-.43-2.84-.66-1.29,5.09.73,5.09.73h-.01Z"/>
      <path class="st52" d="M648.54,61.57s1.81,1.85,12.4-.29l-.16-.91-12.05.45-.2.74h0Z"/>
      <path class="st24" d="M673.51,29.38c-.32,1.23-1.27,3.97-1.57,4.84-.36,1.07-1.17,3.15-1.47,3.42-.24.22-2.1,1.63-4.24,2.64-.53.25-1.08.48-1.62.66-2.75.91-4.82,2.24-4.82,2.24h-12.75c.33-2.7,1.25-4.63,1.6-5.28.97-.06,2.45-.24,3.18-.27.92-.03,1.89-.44,1.89-.44l.32.02.98.07,2.52.18s1.85.19,2.38.29,4.1-.64,4.83-.71c.08,0,.21-.04.36-.1,1.08-.45,3.5-2.13,3.6-2.35.1-.25,1.32-4.92,1.56-5.73.05-.18,3.29.42,3.26.54v-.02Z"/>
      <path class="st24" d="M646.92,45.35h0c.4,1.58,1.02,5.01,1.17,6.6.19,1.96-3.25,29.92-3.25,29.92,1.62,1.25,19.38,1.61,19.3,1.08-.07-.52-3.94-30.58-3.64-31.59.3-1.02.91-4,1.06-5.89.16-1.88,1.81-2.99,1.81-2.99l2.85-2.19c.28-1.4-1.13-3.35-1.13-3.35,0,0-4.34.48-4.92.4-.49-.06-3.47-.4-3.47-.4-.72.22-1.27.31-1.69.36-.48.04-.78,0-.98-.07-.24-.07-.31-.17-.31-.17,0,0-3.25.14-4.95.62,0,0-2.28,3.2-1.85,7.69h.01Z"/>
      <path class="st64" d="M651.69,34.67s.67.06,2.08-.43,1.52-2.95,1.82-2.65c.63.6,1.21.19,1.45-.17,0,0-.69-.91-.37-1.34.32-.44.84-.75.84-.75,0,0-.99-4.78-5.52-2.6-5.3,2.55-.3,7.95-.3,7.95h0Z"/>
      <path class="st24" d="M656.76,37.21l-.16-.69s-2.88-.06-4.46.17l-.17.83s2.02.91,4.79-.3Z"/>
      <path class="st71" d="M656.05,30.98c-.26-.44-1.23-.73-1.35.5-.08.95,1.73,2,1.75,1.11.02-.89-.23-1.32-.41-1.61h.01Z"/>
      <path class="st24" d="M648.77,37.66s-1.38,0-4.38,9.46c-1.03,3.25,4.72,5.75,4.72,5.75,0,0-.34-15.21-.34-15.21Z"/>
      <polygon class="st47" points="668.4 30.67 667.94 30.34 672.25 24.2 672.7 24.51 668.4 30.67"/>
      <path class="st62" d="M674.04,26.03s.07.36.03.52c0,0-.1.3-.16.52-.02.07-.03.14-.04.17-.02.17-.02.54-.18.94-.17.4-.89,1.72-.89,1.72l-1.24-.42-1.14-.04s-.4-2.56-.29-2.94c.01-.04.02-.07.04-.1.13-.31.36-.5.44-.66.03-.06.39-.62.57-.64.27-.03.47.05.6.19,0,0,.53-.04.83.16,0,0,.49-.05.78.3,0,0,.5,0,.64.27h.01Z"/>
      <polygon class="st53" points="672.7 24.51 672.84 23.86 672.25 24.2 672.7 24.51"/>
      <polygon class="st32" points="1849.07 98.59 1854.96 89.45 1838.62 78.95 1832.72 88.08 1829.43 85.96 1825.32 92.33 1821.91 90.13 1737.84 220.37 1741.25 222.56 1734.2 233.48 1757.14 248.22 1764.19 237.3 1767.6 239.49 1851.68 109.26 1848.26 107.06 1852.37 100.7 1849.07 98.59"/>
      <path class="st58" d="M1808.81,290.26l-.52.08c11.17-10.29,18.04-21.94,20.51-34.84,6.92-36.14-25.05-68.66-26.36-69.99l-8.44,13.08c.26.26,25.25,25.7,19.82,54.05-3.39,17.7-18.58,32.89-45.16,45.16l-9.44-4.93,1.82-3.46-35.91-18.76-1.91,3.65,18.59,9.71-8.75,16.65,35.49,18.54-5.5,16.65h-27.64v21.34h115.33v-21.34h-41.94v-45.61.02Z"/>
      <path class="st8" d="M1887.5,151.88c-8.29-1.27-16.16,3.03-19.74,10.13-.87,1.71-1.48,3.6-1.8,5.6-.94,6.07,1.14,11.91,5.12,16,2.76,2.83,6.43,4.83,10.65,5.49.42.06.84.11,1.25.16,1.89.17,3.74.04,5.53-.33,7.46-1.57,13.52-7.59,14.76-15.55,1.59-10.27-5.47-19.89-15.77-21.49h0ZM1898.6,172.64c-.93,5.97-5.48,10.48-11.07,11.65-1.34.28-2.73.38-4.14.25-.31-.03-.63-.06-.94-.11-3.16-.49-5.92-1.99-7.98-4.11-2.99-3.07-4.55-7.45-3.84-12,.23-1.5.7-2.92,1.35-4.2,2.69-5.32,8.58-8.55,14.8-7.59,7.72,1.19,13.01,8.4,11.82,16.1h0Z"/>
      <path class="st11" d="M1874.47,180.32l-3.39,3.28c-3.98-4.09-6.06-9.93-5.12-16,.31-2.01.93-3.89,1.8-5.6l4.22,2.12c-.65,1.29-1.11,2.7-1.35,4.2-.71,4.55.85,8.92,3.84,12Z"/>
      <path class="st46" d="M1883.4,184.54l-.41,4.69c-.42-.03-.84-.08-1.25-.16-4.21-.65-7.89-2.64-10.65-5.49l3.39-3.28c2.07,2.12,4.82,3.63,7.98,4.11.31.05.63.08.94.11h0Z"/>
      <path class="st74" d="M1888.52,188.91c-1.78.38-3.64.49-5.53.33l.41-4.69c1.42.13,2.81.03,4.14-.25l.97,4.61h.01Z"/>
      <rect class="st74" x="1869.17" y="198.25" width="23.14" height="2.91"/>
      <rect class="st74" x="1869.17" y="204.43" width="26.8" height="2.91"/>
      <polygon class="st18" points="1781.3 140.25 1780.73 139.89 1803.94 104.1 1804.52 104.47 1781.3 140.25"/>
      <polygon class="st7" points="1823.39 86.44 1822.82 86.08 1828.17 77.87 1831.24 79.89 1830.86 80.44 1828.35 78.8 1823.39 86.44"/>
      <path class="st71" d="M1895.54,291.58s.05-.46-.02-.67c0,0-.17-.38-.27-.65-.03-.08-.06-.17-.07-.22-.05-.21-.09-.7-.36-1.17-.26-.48-1.93-2.26-1.93-2.26l-1.21.63-1.22.43s-.14,3.34.06,3.81c.02.04.04.09.06.14.2.39.51.59.65.77.05.07.57.73.83.73.34,0,.6-.13.73-.32,0,0,.69-.01,1.03-.31,0,0,.64,0,.96-.49,0,0,.65-.06.77-.43h-.01Z"/>
      <path class="st55" d="M1864.64,235.8s-1.62-10.47,7.08-10.28c8.69.19,8.21,8.25,7.17,11.74-.77,2.57-2.23,3.53,1.53,10.68,3.76,7.15-3.25,7.15-3.25,7.15l-5.44-7.46-7.08-11.83h0Z"/>
      <path class="st24" d="M1860.52,273.38c-.04.05-.1.14-.19.23h0c-.21.25-.52.64-.93,1.12-2.32,2.77-7.42,8.67-9.36,9.73-1.38.75-1.59-1.62-.22-3.07,1.24-1.33,6.07-9.91,7.93-11.76.91-.9,2.12-9.37,2.12-9.37,0,0,1.13,7.06,1,7.88s.43,4.25-.37,5.25h.01Z"/>
      <path class="st71" d="M1849.83,281.38s-.8,1.06-1.21,1.18c-.42.14-.9.86-1.24,1.05s-1.48.37-1.77.69c-.11.13-.48,1.2-.74,1.44s-.85.66-.63.88c.22.22.86-.02.86-.02,0,0-.22.23-.08.48.26.48.61.47.61.47,0,0-.06.39.09.55.36.39.69.37.69.37,0,0,.06.28.36.49.38.26.78.06.78.06,0,0,.4.43.7.31.3-.11.46-.36.67-.51.21-.16,1.58-2.05,1.98-3.74.39-1.69,1.37-2.85,1.37-2.85l-2.41-.86h-.01Z"/>
      <path class="st39" d="M1845.16,286.4s1.2-1.6,1.89-1.63.28.57.28.57c0,0,.39-.6.91-.34.52.26.01.94.01.94,0,0,.42-.38.84.06.42.44-.14.91-.14.91,0,0,.89-.21.78.53-.19,1.24-1.43,1.94-1.43,1.94,0,0-.4.2-.76-.25,0,0-.85.36-1.19-.57,0,0-1.02-.14-.8-.93,0,0-1.1-.3-.38-1.22h-.01Z"/>
      <path class="st50" d="M1853.97,353.87s-3.42,5.78-4.86,6.72c-1.95,1.29-.73,2.57.2,2.58.93,0,5.67.34,6.72-.85,1.05-1.18,1.57-4.73,2.54-5.66s1.86-4.36-.47-5.52c-2.56-1.27-4.13,2.73-4.13,2.73h0Z"/>
      <polygon class="st50" points="1859.41 354.96 1858.5 361.9 1858.03 361.92 1858.18 356.94 1859.41 354.96"/>
      <path class="st50" d="M1883.25,348.23s-.82,6.66-1.77,8.09c-1.29,1.95.37,2.65,1.21,2.28.86-.37,5.34-1.95,5.82-3.45.48-1.5-.46-4.96.06-6.2s-.03-4.73-2.64-4.87c-2.86-.15-2.7,4.15-2.7,4.15h.01Z"/>
      <path class="st71" d="M1883.21,344.95s-.5,8.13-.72,9.31,1.57.41,2.48-.5c.91-.92,1.85-6.57,1.8-7.56-.06-.98-.83-2.11-.83-2.11l-2.73.86Z"/>
      <polygon class="st50" points="1888.67 347.07 1890.63 353.79 1890.2 354 1888.34 349.37 1888.67 347.07"/>
      <path class="st71" d="M1869,297.71c-.17.82-1.25,4.25-2.48,8.06h0c-1.11,3.48-2.33,7.26-3.06,9.69-.27.9-.48,1.61-.59,2.05-.7,2.86.08,7.36.34,11.11.25,3.75-5.2,24.79-5.2,24.79-.96.45-2.76-2.56-2.76-2.56.7-1.34.61-25.06.22-26.52s-.64-5.54-.25-7.13c.08-.32.11-.76.13-1.27.03-2.01-.39-5.33-.64-8.97-.32-4.58,1.46-15.97,1.72-16.99.02-.09.06-.23.1-.39.47-1.6,1.99-6.13,1.99-6.13,3.07-.91,5.38-1.08,7.11-.72,2.28.46,3.54,1.83,4.17,3.56,1.5,4.14-.57,10.38-.79,11.44h-.01Z"/>
      <path class="st71" d="M1886.27,344.66l-3.1,1.09c-.52-2.54-13.15-20.36-13.92-22.32-.77-1.98-1.59-5.79-1.59-7.19,0-.25-.02-.67-.05-1.22-.14-2.12-.52-6.12-1.09-9.24-.1-.59-.21-1.13-.32-1.63-.62-2.69-.72-11.86-.73-17.26,0-2.4.01-4.05.01-4.05,0,0,.05-.04.16-.11,1.16-.88,8.62-6.23,11.22-1.22.69,1.33,1.14,2.74,1.41,4.22.84,4.54.02,9.65-.66,14.3-.57,3.98-1.68,9.61-2,13.78-.18,2.3-.11,4.16.41,5.06,1.46,2.55,2.91,4.7,5.87,13.68.96,2.93,4.39,12.13,4.39,12.13h-.01Z"/>
      <path class="st50" d="M1877.6,299.99c-.57,3.98-1.68,9.61-2,13.78,0,0-3.26.65-8.01,1.23-1.29.16-2.68.31-4.15.45-2.54.23-5.31.41-8.11.45.03-2.01-.39-5.33-.64-8.97-.32-4.58,1.46-15.97,1.72-16.99.02-.09.06-.23.1-.39,2.3-1.26,5.59-2.11,8.92-2.69,1.46-.25,2.94-.45,4.34-.61,4.37-.49,8.02-.56,8.47-.57.84,4.54.02,9.65-.66,14.3Z"/>
      <path class="st71" d="M1883.16,345.75s1.46,1.88,3.1-1.09c0,0-1.83-1.95-3.1,1.09Z"/>
      <path class="st71" d="M1855.25,350.85s-3.71,7.25-4.39,8.25c-.67,1,1.26.99,2.48.52,1.2-.47,4.33-5.29,4.67-6.21.33-.92.51-2.01.51-2.01l-3.27-.56h0Z"/>
      <path class="st71" d="M1855.25,350.85s-1.98,3.7,3.27.56c0,0-.99-1.66-3.27-.56Z"/>
      <path class="st71" d="M1869.76,227.21s-5.88.93-6.12,9.27c-.23,8.35,1.59,10.13,6.74,8.38,5.15-1.73,6.78-10.47,6.9-11.82s.43-6.85-7.51-5.83h0Z"/>
      <path class="st54" d="M1880.09,256.25c.02,2.87-3.29,9.74-3.8,11.86s-1.32,2.8-.64,5.52,3.43,12.33,2.71,12.71c-10.77,5.58-20.31,5.23-21.83,3.23,0,0,3.48-12.97,3.74-14.45.25-1.48-.31-7.05-.44-8.62s-1.72-4.95-1.66-6.52c.05-1.6.85-2.99,1.94-4.7.34-.53.7-1.08,1.06-1.6,1.17-1.71,2.34-3.27,2.92-3.8.43-.4.83-.7,1.17-.93h0c.72-.48,1.2-.64,1.2-.64l5.06-.8s3.16,1.14,4.96,1.56c0,0,3.54.51,3.59,7.19h.02Z"/>
      <path class="st38" d="M1865.27,248.93l-2.94,4.61-2.71,4.25s.19-.67.49-2.53c.06-.36.13-.75.19-1.2.02-.14.05-.26.08-.4h0c1.16-2.66,4.74-4.67,4.87-4.74h.01Z"/>
      <path class="st71" d="M1873.69,241.11c-.51.96-1.05,6.93-1.05,6.93,0,0-7.2,2.72-6.47,1.18.33-.7.43-1.6.44-2.38,0-.62-.04-1.15-.08-1.45-.02-.16-.03-.25-.03-.25,0,0,7.7-5,7.19-4.03h0Z"/>
      <path class="st55" d="M1867.36,233.2s2.11,2.57,4.86,4.5c2.75,1.93,2.27,5.82,2.27,5.82,0,0,7.18-15.07.36-16.12s-11-1.12-11.2,9.08c0,0,3.1-3.37,3.72-3.28h0Z"/>
      <path class="st63" d="M1871.45,244.35c-1.11,1.63-4.84,2.49-4.84,2.49h0c0-.62-.04-1.15-.08-1.45,2.32.51,4.92-1.03,4.92-1.03Z"/>
      <path class="st24" d="M1860.41,253.64h0s-.16.32-.28,1.62l1.06-1.6s1.89-2.71,2.54-3.42c.65-.7,1.54-1.32,1.54-1.32,0,0-3.73,1.79-4.86,4.71h.01Z"/>
      <path class="st38" d="M1875.04,259.17s5.42-2.29,6.71-2.64c0,0-2.24-8.08-6.81-7.58-4.95.54.1,10.22.1,10.22Z"/>
      <path class="st71" d="M1866.47,248.29s-3.4,5.2-2.25,5.66,7.37-.61,10.01-5.55c0,0-3.95-2.02-7.76-.1h0Z"/>
      <path class="st24" d="M1849.05,282.27s2.31,1.14,2.84,2.12c0,0,4.08-5.82,4.44-6.08l-6.18,2.69-1.11,1.27h0Z"/>
      <path class="st24" d="M1890.34,287.87s2.4-.6,3.23-.66l-3.65-8.67-1.35,4.89s1.76,4.21,1.77,4.44h0Z"/>
      <path class="st50" d="M1859.84,266.57c0-.07-.01-.11-.01-.11v.11h.01Z"/>
      <path class="st29" d="M1860.33,273.61h0c-.21.25-1.47,1.76-1.87,2.24,0,0,1.42-8.28,1.38-9.27.09.79.64,5.33.49,7.04h0Z"/>
      <path class="st24" d="M1872.65,247.83s-3.85,5.13-4.08,14.51c-.23,9.36,3.17,49.2,2.7,55.1,0,0,8.3-3.14,10.46-4.87,2.16-1.73-3.76-30.12-4.49-32.71-.73-2.59-2.25-10.82,4.49-23.32,0,0-1.45-6.25-4.26-7.34-2.8-1.09-4.83-1.36-4.83-1.36h.01Z"/>
      <path class="st24" d="M1892.3,285.9c-1.1-3.66-3.49-10.63-3.95-12.08-1.2-3.8-1.84-4.69-3.55-9.8-.67-2-2.04-5.19-3.05-7.49h0c-.77-2.96-2.32-5.25-3.4-6.47-1.07-1.22-4.12-1.66-4.12-1.66,0,0,.42.56,1.05,1.38-.21.02-.41,0-.64.06-4.05,1.02.59,7.72.91,8.61.32.89,6.11,10.8,6.53,11.7,1.44,3.12,2.3,3.85,3.4,6.78,1.48,3.97,3.9,7.89,5.1,10.08.5.92,2.13.29,1.71-1.11h.01Z"/>
      <path class="st24" d="M1866.47,248.29s-3.56,3.85-4.02,11.59c-.47,7.74-.86,16.92-2.09,24.88-1.23,7.95-3.19,33.8-3.19,33.8,0,0-2.71-2.05-3.27-3.35s1.42-25.32,3.74-32c2.31-6.68,2.89-7.63,2.21-13.46-.68-5.83-2.05-8.25-1.68-10.44.37-2.19,3.87-9.48,8.31-11h0Z"/>
      <g class="st37">
        <path class="st22" d="M1799.69,179.5h31.82c10.8,0,19.55,8.77,19.55,19.55v43.08c0,10.8-8.77,19.55-19.55,19.55h-31.82c-10.8,0-19.55-8.77-19.55-19.55v-43.08c0-10.8,8.77-19.55,19.55-19.55Z"/>
      </g>
      <g>
        <path class="st31" d="M1823.2,213.59c-2.72-7.57-9.97-12.22-17.61-11.99-1.85.05-3.72.4-5.56,1.06-5.57,1.99-9.56,6.41-11.2,11.64-1.14,3.63-1.14,7.63.24,11.49.14.39.28.76.45,1.13.72,1.67,1.68,3.18,2.81,4.5,4.74,5.56,12.61,7.91,19.92,5.31,9.43-3.37,14.34-13.71,10.96-23.12v-.02ZM1810.71,232.44c-5.48,1.95-11.38.19-14.93-3.98-.85-.99-1.57-2.12-2.11-3.38-.13-.27-.23-.55-.33-.85-1.03-2.88-1.02-5.89-.18-8.61,1.23-3.92,4.22-7.23,8.4-8.73,1.38-.49,2.78-.75,4.17-.79,5.73-.18,11.17,3.31,13.21,8.99,2.53,7.05-1.15,14.81-8.22,17.34h0Z"/>
        <path class="st11" d="M1793.16,215.63l-4.33-1.35c1.64-5.23,5.63-9.66,11.2-11.64,1.84-.66,3.71-.99,5.56-1.06l.14,4.53c-1.39.04-2.79.3-4.17.79-4.17,1.48-7.17,4.81-8.4,8.73h0Z"/>
        <path class="st46" d="M1793.67,225.09l-4.16,1.81c-.16-.37-.31-.74-.45-1.13-1.38-3.85-1.37-7.86-.24-11.49l4.33,1.35c-.86,2.72-.86,5.72.18,8.61.1.28.22.56.33.85h.01Z"/>
        <path class="st74" d="M1792.32,231.39c-1.13-1.33-2.08-2.83-2.81-4.5l4.16-1.81c.54,1.25,1.25,2.38,2.11,3.38l-3.46,2.94Z"/>
      </g>
      <g>
        <path class="st31" d="M1838.92,224.63c-3.01-1.42-6.5-.67-8.66,1.63-.52.55-.97,1.2-1.32,1.93-1.05,2.21-.92,4.66.14,6.67.73,1.39,1.9,2.57,3.44,3.29.16.07.3.14.46.2.7.27,1.42.44,2.14.5,3.02.24,6.01-1.37,7.38-4.26,1.77-3.73.17-8.19-3.57-9.96ZM1840.8,233.8c-1.02,2.17-3.27,3.38-5.54,3.2-.54-.04-1.08-.17-1.61-.38-.11-.04-.23-.09-.34-.15-1.15-.54-2.03-1.42-2.57-2.47-.79-1.5-.89-3.34-.1-5.01.26-.54.6-1.03.99-1.45,1.63-1.72,4.24-2.29,6.5-1.22,2.81,1.33,4,4.67,2.68,7.47Z"/>
        <path class="st11" d="M1830.74,234l-1.66.87c-1.06-2.01-1.18-4.46-.14-6.67.34-.73.79-1.38,1.32-1.93l1.37,1.29c-.4.42-.73.9-.99,1.45-.78,1.65-.69,3.5.1,5.01h0Z"/>
        <path class="st46" d="M1833.65,236.62l-.69,1.75c-.16-.06-.31-.13-.46-.2-1.54-.72-2.71-1.9-3.44-3.29l1.66-.87c.54,1.05,1.42,1.92,2.57,2.47.11.05.23.1.34.15h.01Z"/>
      </g>
      <g>
        <path class="st31" d="M1842.49,211.82c1.42-3.01.67-6.48-1.63-8.64-.55-.52-1.2-.97-1.93-1.32-2.22-1.05-4.67-.92-6.69.14-1.39.73-2.57,1.9-3.29,3.43-.07.16-.14.3-.2.46-.27.7-.44,1.42-.5,2.13-.24,3.01,1.37,6,4.27,7.37,3.74,1.77,8.21.17,9.99-3.56h-.02ZM1833.31,213.69c-2.17-1.02-3.39-3.26-3.2-5.52.04-.54.17-1.08.38-1.6.04-.11.09-.23.15-.34.54-1.15,1.42-2.03,2.48-2.57,1.5-.78,3.35-.89,5.02-.1.54.26,1.03.6,1.45.98,1.72,1.62,2.3,4.23,1.22,6.48-1.33,2.8-4.68,3.99-7.48,2.68h-.01Z"/>
        <path class="st31" d="M1833.1,203.65l-.87-1.66c2.02-1.06,4.47-1.18,6.69-.14.73.34,1.38.79,1.93,1.32l-1.29,1.36c-.42-.4-.91-.73-1.45-.98-1.66-.78-3.5-.69-5.02.1Z"/>
        <path class="st46" d="M1830.49,206.56l-1.75-.69c.06-.16.13-.3.2-.46.72-1.53,1.9-2.7,3.29-3.43l.87,1.66c-1.05.54-1.93,1.42-2.48,2.57-.05.11-.1.23-.15.34h.01Z"/>
        <path class="st74" d="M1828.24,208.02c.06-.72.22-1.44.5-2.13l1.75.69c-.21.52-.33,1.07-.38,1.6l-1.87-.15h0Z"/>
      </g>
      <polygon class="st33" points="1833.41 243.79 1819.41 243.79 1819.41 243.51 1833.13 243.51 1833.13 238.23 1833.41 238.23 1833.41 243.79"/>
      <polygon class="st33" points="1807.03 243.79 1788.83 243.79 1788.83 243.51 1806.76 243.51 1806.76 234.87 1807.03 234.87 1807.03 243.79"/>
      <rect class="st31" x="1788.83" y="240.62" width="12.53" height="1.66"/>
      <rect class="st31" x="1819.41" y="240.62" width="7.37" height="1.66"/>
      <rect class="st31" x="1785.99" y="186.55" width="6" height="1.27"/>
      <rect class="st31" x="1810.99" y="191.37" width="9.3" height="1.27"/>
      <rect class="st31" x="1798.96" y="191.37" width="5.69" height="1.27"/>
      <rect class="st31" x="1785.99" y="191.37" width="11.26" height="1.27"/>
      <rect class="st31" x="1793.81" y="186.55" width="8.88" height="1.27"/>
      <rect class="st31" x="1806.42" y="191.37" width="2.45" height="1.27"/>
      <rect class="st31" x="1813.66" y="186.62" width="6.64" height="1.27"/>
      <rect class="st31" x="1822.67" y="191.37" width="5.66" height="1.27"/>
      <rect class="st31" x="1804.88" y="186.62" width="7.03" height="1.27"/>
      <g>
        <path class="st15" d="M1811.58,251.52h8.05c2.73,0,4.94,2.22,4.94,4.94v7.99c0,2.73-2.22,4.94-4.94,4.94h-8.05c-2.73,0-4.94-2.22-4.94-4.94v-7.99c0-2.73,2.22-4.94,4.94-4.94Z"/>
        <rect class="st75" x="1814.76" y="256.9" width="1.69" height="7.12"/>
        <rect class="st75" x="1812.04" y="259.62" width="7.13" height="1.69"/>
      </g>
      <path class="st42" d="M1814.9,292.02s1.46.29,2.17.31c.7.02,3.95-1.44,4.99-1.31s7.82,3.01,8.12,3.22c.3.21-.15.67-.15.67l-15.55.19.42-3.08h0Z"/>
      <polygon class="st54" points="1821.98 291.86 1821.25 292.28 1816.79 284.58 1817.52 284.16 1821.98 291.86"/>
      <polygon class="st60" points="1768.05 323.64 1760.3 361.03 1758.59 361.03 1765.17 323.56 1768.05 323.64"/>
      <polygon class="st60" points="1776.51 323.64 1768.75 361.03 1767.05 361.03 1773.62 323.56 1776.51 323.64"/>
      <polygon class="st60" points="1790.19 323.64 1797.94 361.03 1799.66 361.03 1793.08 323.56 1790.19 323.64"/>
      <path class="st42" d="M1787.68,268.38s2.27,3.21,3.67,5.63c1.59,2.75,3.16,5.47,3.5,6.08.7,1.24,3.04,2.54,4.14,3.01,1.01.44,18.09,8.84,18.3,8.82.22-.02-1.82,3.37-1.82,3.37,0,0-23.49-6.72-24.55-7.68s-4.19-5.34-5.48-7.15c-1.22-1.71-3.09-4.54-4.09-5.76-1.11-1.36-3.44-6.01-.48-8.33,3.78-2.96,5.87.64,6.79,2.01h.01Z"/>
      <path class="st67" d="M1830.14,351.38s3.68,1.16,5.31,1.53c1.63.37,7.36-.74,8.05-.34.69.4.88,2.14-.03,2.54-.9.39-7.67,2.61-10.1,2.61s-6.53,1.9-7.57,1.8-1.61-5.38-1.52-6.62c.1-1.24,5.85-1.52,5.85-1.52h0Z"/>
      <path class="st25" d="M1828.99,349.44l1.16,1.93s-4.38,1.87-5.85,1.52l-.28-2.24,4.97-1.21Z"/>
      <path class="st67" d="M1814.73,352.38s3.31,1.96,4.82,2.7c1.5.73,7.34.95,7.91,1.49.57.54.37,2.29-.61,2.47-.97.18-8.07.8-10.43.25s-6.79.37-7.78.03-.33-5.6.04-6.79c.38-1.18,6.04-.15,6.04-.15h0Z"/>
      <path class="st25" d="M1814.81,350.51l-.08,1.87s-4.69.83-6.04.15l.21-2.05,5.92.04h0Z"/>
      <path class="st10" d="M1791.58,302.55s13.97,3.18,17.25,4.14c3.57,1.05,9.34,2.93,10.05,3.52.78.66,1.64.6.52,5.44-1.12,4.85-1.91,19.02-2.14,20.53-.34,2.24-1.26,15.2-1.26,15.2h-8.34s-.55-25,0-27.82c.51-2.61-.55-3.89-1.62-4.65-1.08-.76-4.48.02-23.73-3.29-1.92-.33-7.21-.91-8.39-3.12-2.13-3.99-2.35-9.61,1.85-13.05,4.19-3.44,15.81,3.1,15.81,3.1h0Z"/>
      <path class="st73" d="M1797.52,323.94h-33.41s-2.33-.05-3.89-6.93c-1.76-7.73-5.3-33.57-5.3-33.57,0,0,.94-2.4,15.62-2.1l26.29,34.04s.9,5.36.66,8.56h.02Z"/>
      <path class="st71" d="M1812.45,292.02s1.46.29,2.17.31c.7.02,3.95-1.44,4.99-1.31s7.82,3.01,8.12,3.22c.3.21-.15.67-.15.67l-15.55.19.42-3.08h0Z"/>
      <path class="st54" d="M1775.24,314.22c1.41,2.15,4.88,2.17,6.89,2.34,20.02,1.59,25.65.32,26.82,1s4.07.72,5.19,8.16c.26,1.7,1.59,5.92,3.14,10.46.43,1.26.88,2.55,1.32,3.81,2.1,6.01,4.14,11.54,4.14,11.54l8.95-2.28s-3.27-9.73-3.82-11.26c-.89-2.42-4.79-18.03-6.49-23.58-1.5-4.89-2.77-5.59-3.59-6.06-1.55-.88-7.33-1.89-10.68-2.96s-16.55-3.37-16.55-3.37c0,0-15.8-5.02-18.45-.11-.7,1.3.61,8.41,3.17,12.3h-.01Z"/>
      <rect class="st72" x="1818.85" y="295.47" width="3.11" height="65.57"/>
      <rect class="st72" x="1817.05" y="359.92" width="6.73" height="1.12"/>
      <rect class="st72" x="1889.67" y="295.47" width="3.11" height="65.57"/>
      <rect class="st72" x="1887.86" y="359.92" width="6.73" height="1.12"/>
      <rect class="st73" x="1810.29" y="294.37" width="86.21" height="2.19"/>
      <path class="st61" d="M1791.93,302.28l-20.37,4.14s.06-5.99.16-12.78c.09-6.8,2.07-12.37,2.56-16.26,1.66-13.26,13.3-16.19,13.3-16.19l3.94,3.04s2.14,6.26,2.15,9.83c0,1.86-.9,5.66-1.8,9.17-.33,1.31-.67,2.57-.96,3.68-.42,1.61-.74,2.88-.8,3.45-.63,5.35,1.82,11.92,1.82,11.92h0Z"/>
      <path class="st71" d="M1794.58,261.74s-.16.33-.38.86c-.09.22-.2.47-.31.74-.08.21-.18.43-.27.66-.59,1.43-1.23,3.17-1.33,4.03-.18,1.61-4.7-6.85-4.7-6.85,0,0,2.12-4.79,3.62-10.46,1.49-5.66,3.38,11.03,3.38,11.03h0Z"/>
      <path class="st63" d="M1794.58,261.74s-.16.33-.38.86c-.09.22-.2.47-.31.74-3.03-2.25-3.44-4.43-3.12-4.67,1.54,1.95,3.81,3.08,3.81,3.08h0Z"/>
      <path class="st71" d="M1788.79,265.27s5.86,11.74,10.31,16.25c1.4,1.42,14.53,10.12,15.06,10.68.52.56-2.04,2.15-2.04,2.15,0,0-16.01-6.93-17.06-7.62s-13.35-15.53-13.94-17.65-.13-4.19,2.04-5.12c3.04-1.31,5.62,1.3,5.62,1.3h0Z"/>
      <path class="st71" d="M1802.92,247.44s.6,4.26.38,5.16c-.22.9-.64,1.53-.77,2.59-.15,1.11.15,3.58-.14,4.17-.33.71-1.81-.1-2.36,1.07s-2.33,3.18-2.92,3.07c-1.5-.28-6.5-4.09-6.54-5.35-.04-1.27-.29-8.36-.6-9.78-.29-1.41,12.1-5.38,12.52-3.16l.43,2.23h0Z"/>
      <path class="st49" d="M1788.01,247.92c.14-3.44,3.78-4.36,3.78-4.36,0,0,3.2-2.16,8.92-.26,5.73,1.91,2.78,9.24,2.78,9.24,0,0-3.87-1.69-5.73-1.72,0,0-.44,1.29-.47,2.14l-2.04-1.12s.27-.59-.75-1c-1.01-.42-3.09,5.7-5.42,6.53,0,0,.13-.45,0-.94h0c-.21-.79-.5-2.1-.67-3.58-.34-2.11-.48-3.18-.42-4.93h.01Z"/>
      <path class="st71" d="M1795.79,251.93s-.22-2.41-2.54-1.52c-1.68.66-1.24,4.74.13,5.1,1.37.36,2.48-1.52,2.41-3.58Z"/>
      <path class="st19" d="M1791.88,283.22c-.33,1.31-.67,2.57-.96,3.68-2.26-2.68-6.25-12.51-6.3-12.66.61,1,6.91,8.55,7.26,8.98h0Z"/>
      <path class="st61" d="M1791.72,270.26s-2.26-9.51-8.74-6.64,1.31,11.28,1.31,11.28l7.43-4.63h0Z"/>
      <g>
        <g>
          <path class="st20" d="M1835.4,281.5v-.44h-2.82v.44h.17v9.74s-.05,1.23,1.24,1.23,1.24-1.23,1.24-1.23v-9.74h.17Z"/>
          <path class="st20" d="M1838.77,281.5v-.44h-2.82v.44h.17v9.74s-.05,1.23,1.24,1.23,1.24-1.23,1.24-1.23v-9.74h.17Z"/>
          <path class="st20" d="M1842.15,281.5v-.44h-2.82v.44h.17v9.74s-.05,1.23,1.24,1.23,1.24-1.23,1.24-1.23v-9.74h.17Z"/>
          <path class="st54" d="M1833.13,284.41v6.76s-.03.86.86.86.86-.86.86-.86v-6.76h-1.72.01Z"/>
          <path class="st59" d="M1836.5,285.56v5.74s-.03.73.86.73.86-.73.86-.73v-5.74h-1.72.01Z"/>
          <path class="st21" d="M1839.88,283.58v7.48s-.03.95.86.95.86-.95.86-.95v-7.48h-1.72.01Z"/>
        </g>
        <rect class="st41" x="1832.59" y="282.16" width="14.12" height=".66"/>
        <rect class="st41" x="1845.21" y="278.21" width=".8" height="15.31"/>
        <rect class="st41" x="1843.82" y="293.53" width="3.58" height=".84"/>
        <g>
          <g>
            <polygon class="st41" points="1852.2 284.6 1850.15 283.28 1851.6 281.03 1853.65 282.36 1852.2 284.6"/>
            <polygon class="st41" points="1859.29 273.62 1857.24 272.31 1858.68 270.06 1860.74 271.38 1859.29 273.62"/>
            <polygon class="st41" points="1859.53 272.62 1858.05 271.68 1859.51 269.43 1860.97 270.37 1859.53 272.62"/>
            <polygon class="st20" points="1853.14 283.81 1850.48 282.1 1858.01 270.44 1860.68 272.15 1853.14 283.81"/>
          </g>
          <path class="st41" d="M1856.6,277c0,.56-.46,1.02-1.02,1.02s-1.02-.46-1.02-1.02.46-1.02,1.02-1.02,1.02.46,1.02,1.02Z"/>
          <path class="st20" d="M1853.47,290.44l-.54-1.25c2.58-1.13,4.04-2.53,4.37-4.19.49-2.54-1.76-4.82-1.78-4.84l.75-1.17c.11.11,2.98,3.03,2.36,6.27-.41,2.12-2.14,3.87-5.16,5.18h0Z"/>
          <polygon class="st20" points="1853.27 290.98 1850.05 289.3 1850.84 287.8 1854.06 289.48 1853.27 290.98"/>
          <polygon class="st41" points="1852.38 288.62 1849.17 286.94 1849.34 286.61 1852.56 288.3 1852.38 288.62"/>
          <rect class="st41" x="1850.26" y="292.46" width="10.34" height="1.91"/>
          <polygon class="st20" points="1856.83 292.46 1852.73 292.46 1853.94 288.83 1856.83 288.37 1856.83 292.46"/>
          <path class="st41" d="M1856.21,290.04c0,.56-.46,1.02-1.03,1.02s-1.03-.46-1.03-1.02.46-1.02,1.03-1.02,1.03.46,1.03,1.02Z"/>
        </g>
      </g>
      <g>
        <path class="st12" d="M1792.73,343.2h-7.39c-.75,0-1.36-.6-1.36-1.35v-4.65c0-.75.61-1.36,1.36-1.36h7.39c.75,0,1.36.6,1.36,1.35v4.65c0,.75-.61,1.36-1.36,1.36ZM1785.33,336.76c-.25,0-.45.2-.45.45v4.65c0,.25.21.45.45.45h7.39c.25,0,.45-.21.45-.46v-4.65c0-.25-.21-.45-.45-.45h-7.39Z"/>
        <rect class="st38" x="1775.21" y="341.06" width="27.72" height="19.81" transform="translate(-.43 2.19) rotate(-.07)"/>
        <path class="st24" d="M1795.04,350.37c.06,3.27-2.55,5.98-5.83,6.05-3.28.06-6-2.54-6.06-5.81s2.55-5.98,5.83-6.05c3.28-.06,6,2.54,6.06,5.81Z"/>
        <rect class="st38" x="1787.93" y="347.06" width="2.27" height="7.1" transform="translate(-2.87 15) rotate(-.48)"/>
        <rect class="st38" x="1785.66" y="349.38" width="7.12" height="2.27" transform="translate(-2.93 15.31) rotate(-.49)"/>
      </g>
      <rect class="st45" x="1867.02" y="110.39" width="16.22" height="1.14"/>
      <rect class="st16" x="1867.02" y="112.54" width="16.22" height="4.77"/>
      <rect class="st44" x="1859.41" y="118.91" width="9.56" height=".71"/>
      <rect class="st56" x="1859.41" y="119.94" width="9.56" height="1.93"/>
      <rect class="st14" x="1885.92" y="104.28" width=".71" height="13.36"/>
      <ellipse class="st28" cx="27.16" cy="65.67" rx="78.13" ry="77.94"/>
    </g>
  </g>
</svg>