<svg width="43" height="43" viewBox="0 0 43 43" fill="none" xmlns="http://www.w3.org/2000/svg">
<mask id="mask0_25_45" style="mask-type:alpha" maskUnits="userSpaceOnUse" x="0" y="0" width="43" height="43">
<path d="M11.9444 0C5.35828 0 0 5.35828 0 11.9444V31.0556C0 37.6417 5.35828 43 11.9444 43H31.0556C37.6417 43 43 37.6417 43 31.0556V11.9444C43 5.35828 37.6417 0 31.0556 0H11.9444ZM11.9444 4.77778H31.0556C35.0068 4.77778 38.2222 7.99322 38.2222 11.9444V31.0556C38.2222 35.0068 35.0068 38.2222 31.0556 38.2222H11.9444C7.99322 38.2222 4.77778 35.0068 4.77778 31.0556V11.9444C4.77778 7.99322 7.99322 4.77778 11.9444 4.77778ZM33.4444 7.16667C32.8109 7.16667 32.2032 7.41835 31.7552 7.86636C31.3072 8.31436 31.0556 8.92198 31.0556 9.55556C31.0556 10.1891 31.3072 10.7968 31.7552 11.2448C32.2032 11.6928 32.8109 11.9444 33.4444 11.9444C34.078 11.9444 34.6856 11.6928 35.1336 11.2448C35.5816 10.7968 35.8333 10.1891 35.8333 9.55556C35.8333 8.92198 35.5816 8.31436 35.1336 7.86636C34.6856 7.41835 34.078 7.16667 33.4444 7.16667ZM21.5 9.55556C14.9138 9.55556 9.55556 14.9138 9.55556 21.5C9.55556 28.0862 14.9138 33.4444 21.5 33.4444C28.0862 33.4444 33.4444 28.0862 33.4444 21.5C33.4444 14.9138 28.0862 9.55556 21.5 9.55556ZM21.5 14.3333C25.4512 14.3333 28.6667 17.5488 28.6667 21.5C28.6667 25.4512 25.4512 28.6667 21.5 28.6667C17.5488 28.6667 14.3333 25.4512 14.3333 21.5C14.3333 17.5488 17.5488 14.3333 21.5 14.3333Z" fill="#EC4899"/>
</mask>
<g mask="url(#mask0_25_45)">
<circle cx="26.7133" cy="20.8657" r="31.7919" transform="rotate(47.1008 26.7133 20.8657)" fill="url(#paint0_radial_25_45)"/>
<circle cx="26.7133" cy="20.8657" r="31.7919" transform="rotate(47.1008 26.7133 20.8657)" fill="url(#paint1_radial_25_45)"/>
</g>
<defs>
<radialGradient id="paint0_radial_25_45" cx="0" cy="0" r="1" gradientUnits="userSpaceOnUse" gradientTransform="translate(48.6497 61.2415) rotate(-115.776) scale(86.7083 128.969)">
<stop offset="0.24392" stop-color="#FF1B90"/>
<stop offset="0.436673" stop-color="#F80261"/>
<stop offset="0.688476" stop-color="#ED00C0"/>
<stop offset="0.776787" stop-color="#C500E9"/>
<stop offset="0.893155" stop-color="#7017FF"/>
</radialGradient>
<radialGradient id="paint1_radial_25_45" cx="0" cy="0" r="1" gradientUnits="userSpaceOnUse" gradientTransform="translate(17.9705 50.464) rotate(-57.4396) scale(37.5698 39.078)">
<stop stop-color="#FFD600"/>
<stop offset="0.484375" stop-color="#FF6930"/>
<stop offset="0.734375" stop-color="#FE3B36"/>
<stop offset="1" stop-color="#FE3B36" stop-opacity="0"/>
</radialGradient>
</defs>
</svg>
