<svg width="30" height="28" viewBox="0 0 30 28" fill="none" xmlns="http://www.w3.org/2000/svg">
<path d="M15.4265 0.798706C7.42961 0.798706 0.980537 5.95791 0.980537 12.2212C0.980537 16.2867 3.66335 19.8466 7.68757 21.8794L6.32553 26.9664C6.29985 27.0427 6.2959 27.1245 6.31412 27.2029C6.33234 27.2812 6.37202 27.353 6.42871 27.4101C6.51137 27.483 6.61773 27.5233 6.72795 27.5235C6.81933 27.5162 6.90603 27.4801 6.97559 27.4204L12.8365 23.4684C13.7017 23.5879 14.5737 23.6498 15.4471 23.6541C23.4336 23.6541 29.893 18.4949 29.893 12.2212C29.893 5.94759 23.413 0.798706 15.4265 0.798706Z" fill="#392020"/>
<path d="M7.67562 10.8397H6.3819C6.22155 10.8443 6.06318 10.8032 5.92529 10.7213C5.86407 10.6829 5.81143 10.6323 5.77069 10.5726C5.72995 10.513 5.70198 10.4455 5.68853 10.3746C5.68442 10.3296 5.68442 10.2843 5.68853 10.2393C5.68451 10.1551 5.70086 10.0712 5.73618 9.99461C5.77151 9.91806 5.82478 9.8512 5.89146 9.79963C6.03888 9.69286 6.21681 9.63647 6.39881 9.63891H10.2969C10.4585 9.63323 10.618 9.67754 10.7535 9.76577C10.8162 9.80243 10.8699 9.85259 10.9109 9.91255C10.9518 9.9725 10.9789 10.0408 10.9903 10.1125C10.9944 10.1547 10.9944 10.1972 10.9903 10.2393C10.9943 10.3248 10.9779 10.4099 10.9427 10.4878C10.9074 10.5657 10.8542 10.6341 10.7873 10.6874C10.6435 10.794 10.4673 10.8479 10.2884 10.8397H9.037V15.2874C9.04208 15.3821 9.02741 15.4769 8.99393 15.5657C8.96046 15.6545 8.90889 15.7354 8.84251 15.8032C8.77886 15.868 8.70235 15.9188 8.61788 15.9523C8.53342 15.9858 8.44287 16.0012 8.35208 15.9976C8.19328 16.0022 8.03784 15.9514 7.91238 15.854C7.79294 15.7588 7.71188 15.6236 7.68408 15.4734C7.67573 15.4117 7.67573 15.3491 7.68408 15.2874L7.67562 10.8397Z" fill="#FEE500"/>
<path d="M11.3638 9.96869C11.401 9.82955 11.4883 9.70905 11.609 9.63044C11.7376 9.55756 11.8841 9.5224 12.0318 9.52898H12.3531C12.5098 9.52336 12.665 9.56143 12.8013 9.63891C12.9457 9.73604 13.0483 9.88393 13.0888 10.0532L14.7799 14.8307C14.8237 14.9554 14.8604 15.0825 14.8898 15.2113C14.8927 15.2648 14.8927 15.3184 14.8898 15.3719C14.8927 15.4543 14.8775 15.5364 14.8454 15.6123C14.8133 15.6883 14.7649 15.7563 14.7038 15.8116C14.6446 15.8723 14.5734 15.9202 14.4949 15.9522C14.4163 15.9842 14.332 15.9997 14.2472 15.9976C14.1168 16.0106 13.9858 15.9793 13.8753 15.9088C13.7649 15.8382 13.6814 15.7325 13.6384 15.6087L13.2832 14.5687H11.0594L10.7042 15.6087C10.6622 15.7349 10.5778 15.8427 10.4652 15.9136C10.3526 15.9845 10.219 16.0142 10.087 15.9976C9.94398 16.0014 9.80393 15.9567 9.68955 15.8708C9.57811 15.7822 9.50293 15.6559 9.47816 15.5157C9.47367 15.4679 9.47367 15.4197 9.47816 15.3719C9.46364 15.288 9.46364 15.2022 9.47816 15.1183C9.47816 15.0253 9.53735 14.9237 9.57117 14.8307L11.3638 9.96869ZM12.2094 11.0764L11.4061 13.6132H13.0042L12.2094 11.0764Z" fill="#FEE500"/>
<path d="M15.0837 10.2395C15.0751 10.0497 15.1419 9.86431 15.2697 9.72372C15.3346 9.65822 15.4126 9.60703 15.4985 9.57353C15.5844 9.54003 15.6764 9.52488 15.7686 9.52915C15.927 9.5273 16.0815 9.57787 16.2083 9.67293C16.3257 9.77212 16.4037 9.91009 16.4281 10.0619C16.4364 10.1208 16.4364 10.1806 16.4281 10.2395V14.6872H18.7534C18.9146 14.6851 19.073 14.729 19.21 14.814C19.2716 14.8519 19.3245 14.9025 19.3653 14.9622C19.4061 15.0219 19.4339 15.0895 19.4468 15.1607C19.4468 15.1607 19.4468 15.2453 19.4468 15.2875C19.4508 15.3718 19.4345 15.4556 19.3991 15.5322C19.3638 15.6087 19.3106 15.6757 19.2439 15.7273C19.0965 15.834 18.9185 15.8903 18.7365 15.8879H15.8785C15.6965 15.8996 15.5155 15.8522 15.3627 15.7527C15.226 15.6504 15.1349 15.4986 15.109 15.3299C15.1028 15.237 15.1028 15.1437 15.109 15.0508L15.0837 10.2395Z" fill="#FEE500"/>
<path d="M19.5985 10.2394C19.5934 10.0502 19.6599 9.86602 19.7845 9.7236C19.9112 9.60844 20.0738 9.54044 20.2448 9.5312C20.4158 9.52196 20.5847 9.57199 20.7231 9.67282C20.8431 9.77113 20.9241 9.90904 20.9514 10.0617C20.9556 10.1209 20.9556 10.1803 20.9514 10.2394V12.311L23.0907 9.84189C23.1731 9.75766 23.2607 9.67867 23.3528 9.60521C23.4397 9.55349 23.5393 9.52705 23.6403 9.52903C23.7881 9.52823 23.9326 9.57249 24.0547 9.65589C24.1122 9.6946 24.1613 9.74456 24.199 9.80267C24.2368 9.86078 24.2625 9.92588 24.2745 9.99414C24.2779 10.0109 24.2779 10.0282 24.2745 10.0449C24.2704 10.0644 24.2704 10.0846 24.2745 10.1041C24.2742 10.193 24.2509 10.2805 24.2069 10.3578C24.162 10.4396 24.1081 10.5161 24.0462 10.586L22.6426 12.125L24.3337 14.7463V14.8308C24.4215 14.952 24.49 15.0861 24.5366 15.2283V15.2705C24.5464 15.3685 24.5323 15.4674 24.4955 15.5587C24.4587 15.65 24.4002 15.731 24.3252 15.7948C24.1842 15.9014 24.0116 15.958 23.8348 15.9555C23.7173 15.9603 23.6007 15.934 23.4966 15.8793C23.384 15.8038 23.2912 15.7023 23.226 15.5834L21.6532 13.0466L20.9007 13.8331V15.2451C20.9057 15.4343 20.8393 15.6185 20.7147 15.7609C20.6478 15.8262 20.5683 15.8772 20.4811 15.9107C20.3938 15.9441 20.3007 15.9594 20.2073 15.9555C20.0513 15.9587 19.8989 15.9079 19.7761 15.8117C19.6566 15.7165 19.5756 15.5814 19.5478 15.4312C19.5394 15.3695 19.5394 15.3068 19.5478 15.2451L19.5985 10.2394Z" fill="#FEE500"/>
</svg>
