<svg width="624" height="312" viewBox="0 0 624 312" fill="none" xmlns="http://www.w3.org/2000/svg">
<path d="M103.104 33.2736V34.5354H97.3092V23.9428H98.6645V33.2736H103.104ZM111.364 28.0708V30.3918C111.364 31.7107 111.032 32.7596 110.367 33.5384C109.713 34.3069 108.768 34.6912 107.532 34.6912C106.296 34.6912 105.346 34.3069 104.681 33.5384C104.027 32.7596 103.7 31.7107 103.7 30.3918V28.0708C103.7 26.7623 104.027 25.7238 104.681 24.9553C105.346 24.1764 106.296 23.787 107.532 23.787C108.768 23.787 109.713 24.1764 110.367 24.9553C111.032 25.7238 111.364 26.7623 111.364 28.0708ZM109.962 28.0708C109.962 27.105 109.754 26.3625 109.339 25.8432C108.934 25.3136 108.332 25.0488 107.532 25.0488C106.743 25.0488 106.14 25.3136 105.725 25.8432C105.31 26.3625 105.102 27.105 105.102 28.0708V30.3918C105.102 31.368 105.31 32.1209 105.725 32.6505C106.14 33.1802 106.743 33.445 107.532 33.445C108.332 33.445 108.934 33.1802 109.339 32.6505C109.754 32.1209 109.962 31.368 109.962 30.3918V28.0708ZM120.157 33.8033C119.856 34.0006 119.425 34.1979 118.864 34.3952C118.314 34.5925 117.649 34.6912 116.87 34.6912C116.029 34.6912 115.318 34.5146 114.736 34.1615C114.165 33.7981 113.729 33.2944 113.427 32.6505C113.137 31.9963 112.991 31.2434 112.991 30.3918V28.0708C112.991 26.7415 113.324 25.6978 113.988 24.9397C114.663 24.1712 115.639 23.787 116.917 23.787C117.384 23.787 117.872 23.8389 118.381 23.9428C118.9 24.0466 119.414 24.218 119.923 24.4568L119.487 25.6251C118.552 25.2409 117.701 25.0488 116.932 25.0488C116.081 25.0488 115.442 25.3084 115.016 25.8276C114.601 26.3365 114.393 27.0842 114.393 28.0708V30.3918C114.393 31.3265 114.606 32.069 115.032 32.6194C115.458 33.1698 116.102 33.445 116.964 33.445C117.296 33.445 117.633 33.4086 117.976 33.3359C118.329 33.2632 118.641 33.1646 118.911 33.04V30.1893H116.932V28.9898H120.157V33.8033ZM123.436 34.5354H122.081V23.9428H123.436V34.5354ZM125.972 34.5354V23.9428H127.39C128.335 25.2928 129.202 26.6532 129.991 28.024C130.791 29.3845 131.539 30.8072 132.234 32.2923L132.079 28.2421V23.9428H133.403V34.5354H131.985C131.258 33.0192 130.505 31.5445 129.726 30.1114C128.958 28.6679 128.117 27.2607 127.203 25.8899L127.296 30.2049V34.5354H125.972Z" fill="white" fill-opacity="0.5"/>
<path d="M1.26393 30.2699H27.1282V33.5992H1.26393V30.2699ZM12.1152 24.8442H16.1844V31.5955H12.1152V24.8442ZM4.19254 10.0162H24.1996V19.5419H8.29259V24.3202H4.22336V16.3359H20.1303V13.2839H4.19254V10.0162ZM4.22336 22.7171H24.8469V25.9849H4.22336V22.7171ZM32.274 10.7869H50.3389V14.0546H32.274V10.7869ZM29.6228 29.6842H55.4562V33.0135H29.6228V29.6842ZM48.1809 10.7869H52.281V14.1779C52.281 15.5138 52.2604 16.8702 52.2193 18.2472C52.1988 19.6241 52.1166 21.0936 51.9727 22.6555C51.8494 24.2174 51.6028 25.9849 51.2329 27.9578L47.1328 27.5879C47.5027 25.7588 47.7494 24.0736 47.8727 22.5322C48.0165 20.9908 48.0987 19.5419 48.1193 18.1855C48.1604 16.8085 48.1809 15.4727 48.1809 14.1779V10.7869ZM77.5879 8.1974H81.688V28.6977H77.5879V8.1974ZM62.6674 32.9519H82.4279V36.2504H62.6674V32.9519ZM62.6674 26.6631H66.7675V34.3083H62.6674V26.6631ZM66.1509 10.0162C67.6101 10.0162 68.9254 10.3245 70.0969 10.941C71.2683 11.5576 72.1931 12.4105 72.8713 13.4997C73.5701 14.589 73.9195 15.8426 73.9195 17.2607C73.9195 18.6376 73.5701 19.881 72.8713 20.9908C72.1931 22.08 71.2683 22.9432 70.0969 23.5803C68.9254 24.1969 67.6101 24.5051 66.1509 24.5051C64.6918 24.5051 63.3765 24.1969 62.205 23.5803C61.0336 22.9432 60.0985 22.08 59.3997 20.9908C58.7215 19.881 58.3824 18.6376 58.3824 17.2607C58.3824 15.8426 58.7215 14.589 59.3997 13.4997C60.0985 12.4105 61.0336 11.5576 62.205 10.941C63.3765 10.3245 64.6918 10.0162 66.1509 10.0162ZM66.1509 13.5306C65.4522 13.5306 64.8151 13.6847 64.2396 13.993C63.6642 14.2807 63.2121 14.702 62.8832 15.2569C62.5544 15.7912 62.39 16.4592 62.39 17.2607C62.39 18.0211 62.5544 18.6787 62.8832 19.2336C63.2121 19.768 63.6642 20.1893 64.2396 20.4976C64.8151 20.7853 65.4522 20.9291 66.1509 20.9291C66.8497 20.9291 67.4868 20.7853 68.0623 20.4976C68.6377 20.1893 69.0898 19.768 69.4187 19.2336C69.7475 18.6787 69.9119 18.0211 69.9119 17.2607C69.9119 16.4592 69.7475 15.7912 69.4187 15.2569C69.0898 14.702 68.6377 14.2807 68.0623 13.993C67.4868 13.6847 66.8497 13.5306 66.1509 13.5306Z" fill="white"/>
<rect y="76.9016" width="420" height="49.324" rx="9" fill="white"/>
<path d="M28.5915 102.686H29.6865V106.766H28.5915V102.686ZM33.6015 102.686H34.7115V106.766H33.6015V102.686ZM25.5465 106.541H37.7865V107.471H25.5465V106.541ZM31.6365 96.596C32.5865 96.596 33.4265 96.741 34.1565 97.031C34.8965 97.321 35.4715 97.721 35.8815 98.231C36.3015 98.741 36.5115 99.351 36.5115 100.061C36.5115 100.751 36.3015 101.356 35.8815 101.876C35.4715 102.386 34.8965 102.786 34.1565 103.076C33.4265 103.356 32.5865 103.496 31.6365 103.496C30.6865 103.496 29.8415 103.356 29.1015 103.076C28.3715 102.786 27.7965 102.386 27.3765 101.876C26.9665 101.356 26.7615 100.751 26.7615 100.061C26.7615 99.351 26.9665 98.741 27.3765 98.231C27.7965 97.721 28.3715 97.321 29.1015 97.031C29.8415 96.741 30.6865 96.596 31.6365 96.596ZM31.6365 97.481C30.8965 97.481 30.2365 97.591 29.6565 97.811C29.0865 98.021 28.6365 98.321 28.3065 98.711C27.9765 99.091 27.8115 99.541 27.8115 100.061C27.8115 100.561 27.9765 101.006 28.3065 101.396C28.6365 101.776 29.0865 102.076 29.6565 102.296C30.2365 102.506 30.8965 102.611 31.6365 102.611C32.3765 102.611 33.0315 102.506 33.6015 102.296C34.1815 102.076 34.6315 101.776 34.9515 101.396C35.2815 101.006 35.4465 100.561 35.4465 100.061C35.4465 99.541 35.2815 99.091 34.9515 98.711C34.6315 98.321 34.1815 98.021 33.6015 97.811C33.0315 97.591 32.3765 97.481 31.6365 97.481ZM49.6006 97.796H51.9256V98.726H49.6006V97.796ZM49.6006 100.661H51.9256V101.591H49.6006V100.661ZM43.2406 96.521C43.9206 96.521 44.5206 96.656 45.0406 96.926C45.5706 97.196 45.9856 97.571 46.2856 98.051C46.5856 98.521 46.7356 99.071 46.7356 99.701C46.7356 100.331 46.5856 100.881 46.2856 101.351C45.9856 101.821 45.5706 102.191 45.0406 102.461C44.5206 102.721 43.9206 102.851 43.2406 102.851C42.5706 102.851 41.9706 102.721 41.4406 102.461C40.9106 102.191 40.4956 101.821 40.1956 101.351C39.8956 100.881 39.7456 100.331 39.7456 99.701C39.7456 99.071 39.8956 98.521 40.1956 98.051C40.4956 97.571 40.9106 97.196 41.4406 96.926C41.9706 96.656 42.5706 96.521 43.2406 96.521ZM43.2406 97.466C42.7806 97.466 42.3656 97.561 41.9956 97.751C41.6356 97.941 41.3506 98.206 41.1406 98.546C40.9306 98.876 40.8256 99.261 40.8256 99.701C40.8256 100.131 40.9306 100.516 41.1406 100.856C41.3506 101.186 41.6356 101.446 41.9956 101.636C42.3656 101.826 42.7806 101.921 43.2406 101.921C43.7106 101.921 44.1256 101.826 44.4856 101.636C44.8456 101.446 45.1306 101.186 45.3406 100.856C45.5506 100.516 45.6556 100.131 45.6556 99.701C45.6556 99.261 45.5506 98.876 45.3406 98.546C45.1306 98.206 44.8456 97.941 44.4856 97.751C44.1256 97.561 43.7106 97.466 43.2406 97.466ZM48.8056 95.711H49.9156V103.736H48.8056V95.711ZM45.6406 104.186C46.5506 104.186 47.3356 104.286 47.9956 104.486C48.6556 104.686 49.1606 104.971 49.5106 105.341C49.8706 105.711 50.0506 106.161 50.0506 106.691C50.0506 107.221 49.8706 107.671 49.5106 108.041C49.1606 108.411 48.6556 108.696 47.9956 108.896C47.3356 109.096 46.5506 109.196 45.6406 109.196C44.7306 109.196 43.9456 109.096 43.2856 108.896C42.6256 108.696 42.1156 108.411 41.7556 108.041C41.3956 107.671 41.2156 107.221 41.2156 106.691C41.2156 106.161 41.3956 105.711 41.7556 105.341C42.1156 104.971 42.6256 104.686 43.2856 104.486C43.9456 104.286 44.7306 104.186 45.6406 104.186ZM45.6406 105.086C44.9606 105.086 44.3706 105.151 43.8706 105.281C43.3706 105.401 42.9856 105.581 42.7156 105.821C42.4456 106.061 42.3106 106.351 42.3106 106.691C42.3106 107.021 42.4456 107.311 42.7156 107.561C42.9856 107.801 43.3706 107.981 43.8706 108.101C44.3706 108.231 44.9606 108.296 45.6406 108.296C46.3206 108.296 46.9106 108.231 47.4106 108.101C47.9106 107.981 48.2956 107.801 48.5656 107.561C48.8356 107.311 48.9706 107.021 48.9706 106.691C48.9706 106.351 48.8356 106.061 48.5656 105.821C48.2956 105.581 47.9106 105.401 47.4106 105.281C46.9106 105.151 46.3206 105.086 45.6406 105.086ZM63.3347 95.711H64.4447V109.226H63.3347V95.711ZM59.3897 97.181H60.4847C60.4847 98.141 60.3647 99.076 60.1247 99.986C59.8847 100.886 59.5097 101.741 58.9997 102.551C58.4997 103.361 57.8497 104.111 57.0497 104.801C56.2597 105.491 55.3047 106.111 54.1847 106.661L53.5847 105.761C54.8947 105.131 55.9797 104.391 56.8397 103.541C57.6997 102.691 58.3397 101.746 58.7597 100.706C59.1797 99.666 59.3897 98.546 59.3897 97.346V97.181ZM54.1997 97.181H59.8397V98.096H54.1997V97.181ZM68.0838 96.776H74.0988V97.691H68.0838V96.776ZM70.1838 99.761H71.2788V103.136H70.1838V99.761ZM73.6488 96.776H74.7438V97.466C74.7438 97.906 74.7288 98.461 74.6988 99.131C74.6688 99.791 74.5638 100.571 74.3838 101.471L73.2888 101.366C73.4688 100.466 73.5738 99.701 73.6038 99.071C73.6338 98.431 73.6488 97.896 73.6488 97.466V96.776ZM76.6638 95.711H77.7888V105.896H76.6638V95.711ZM77.2638 100.151H79.7688V101.096H77.2638V100.151ZM69.3438 107.996H78.2238V108.911H69.3438V107.996ZM69.3438 104.966H70.4388V108.266H69.3438V104.966ZM67.3788 103.691L67.2588 102.761C68.0588 102.761 68.9438 102.751 69.9138 102.731C70.8838 102.711 71.8688 102.671 72.8688 102.611C73.8688 102.541 74.8238 102.446 75.7338 102.326L75.8088 103.151C74.8788 103.301 73.9138 103.416 72.9138 103.496C71.9238 103.576 70.9538 103.626 70.0038 103.646C69.0538 103.666 68.1788 103.681 67.3788 103.691ZM87.6228 99.566H91.5828V100.481H87.6228V99.566ZM91.2228 95.726H92.3328V105.731H91.2228V95.726ZM83.7078 107.996H92.6628V108.911H83.7078V107.996ZM83.7078 104.756H84.8028V108.446H83.7078V104.756ZM81.9378 96.626H83.0328V99.056H86.8878V96.626H87.9828V103.391H81.9378V96.626ZM83.0328 99.941V102.476H86.8878V99.941H83.0328ZM95.8069 97.751H106.742V98.666H95.8069V97.751ZM95.1919 106.691H107.432V107.606H95.1919V106.691ZM100.742 104.471H101.837V107.036H100.742V104.471ZM101.282 99.626C102.182 99.626 102.962 99.731 103.622 99.941C104.282 100.141 104.787 100.431 105.137 100.811C105.487 101.181 105.662 101.636 105.662 102.176C105.662 102.716 105.487 103.181 105.137 103.571C104.787 103.951 104.282 104.241 103.622 104.441C102.962 104.641 102.182 104.741 101.282 104.741C100.382 104.741 99.6019 104.641 98.9419 104.441C98.2819 104.241 97.7769 103.951 97.4269 103.571C97.0769 103.181 96.9019 102.716 96.9019 102.176C96.9019 101.636 97.0769 101.181 97.4269 100.811C97.7769 100.431 98.2819 100.141 98.9419 99.941C99.6019 99.731 100.382 99.626 101.282 99.626ZM101.282 100.511C100.612 100.511 100.032 100.581 99.5419 100.721C99.0519 100.851 98.6719 101.041 98.4019 101.291C98.1419 101.531 98.0119 101.826 98.0119 102.176C98.0119 102.526 98.1419 102.826 98.4019 103.076C98.6719 103.326 99.0519 103.521 99.5419 103.661C100.032 103.791 100.612 103.856 101.282 103.856C101.952 103.856 102.527 103.791 103.007 103.661C103.497 103.521 103.877 103.326 104.147 103.076C104.417 102.826 104.552 102.526 104.552 102.176C104.552 101.826 104.417 101.531 104.147 101.291C103.877 101.041 103.497 100.851 103.007 100.721C102.527 100.581 101.952 100.511 101.282 100.511ZM100.742 95.951H101.837V98.306H100.742V95.951Z" fill="#AAAAAA"/>
<rect y="144.722" width="420" height="49.324" rx="9" fill="white"/>
<path d="M29.1315 164.596C29.7915 164.596 30.3715 164.786 30.8715 165.166C31.3815 165.546 31.7765 166.091 32.0565 166.801C32.3465 167.501 32.4915 168.326 32.4915 169.276C32.4915 170.236 32.3465 171.066 32.0565 171.766C31.7765 172.466 31.3815 173.011 30.8715 173.401C30.3715 173.781 29.7915 173.971 29.1315 173.971C28.4715 173.971 27.8865 173.781 27.3765 173.401C26.8665 173.011 26.4665 172.466 26.1765 171.766C25.8965 171.066 25.7565 170.236 25.7565 169.276C25.7565 168.326 25.8965 167.501 26.1765 166.801C26.4665 166.091 26.8665 165.546 27.3765 165.166C27.8865 164.786 28.4715 164.596 29.1315 164.596ZM29.1315 165.586C28.6715 165.586 28.2665 165.741 27.9165 166.051C27.5765 166.351 27.3065 166.781 27.1065 167.341C26.9165 167.891 26.8215 168.536 26.8215 169.276C26.8215 170.016 26.9165 170.666 27.1065 171.226C27.3065 171.786 27.5815 172.221 27.9315 172.531C28.2815 172.841 28.6815 172.996 29.1315 172.996C29.5815 172.996 29.9765 172.841 30.3165 172.531C30.6665 172.221 30.9365 171.786 31.1265 171.226C31.3265 170.666 31.4265 170.016 31.4265 169.276C31.4265 168.536 31.3265 167.891 31.1265 167.341C30.9365 166.781 30.6665 166.351 30.3165 166.051C29.9765 165.741 29.5815 165.586 29.1315 165.586ZM34.7715 163.531H35.8815V177.046H34.7715V163.531ZM35.6265 168.976H38.1465V169.921H35.6265V168.976ZM49.3756 163.531H50.4856V177.061H49.3756V163.531ZM43.3906 164.596C44.0606 164.596 44.6506 164.786 45.1606 165.166C45.6706 165.546 46.0706 166.091 46.3606 166.801C46.6506 167.501 46.7956 168.326 46.7956 169.276C46.7956 170.236 46.6506 171.066 46.3606 171.766C46.0706 172.466 45.6706 173.011 45.1606 173.401C44.6506 173.781 44.0606 173.971 43.3906 173.971C42.7306 173.971 42.1406 173.781 41.6206 173.401C41.1106 173.011 40.7106 172.466 40.4206 171.766C40.1306 171.066 39.9856 170.236 39.9856 169.276C39.9856 168.326 40.1306 167.501 40.4206 166.801C40.7106 166.091 41.1106 165.546 41.6206 165.166C42.1406 164.786 42.7306 164.596 43.3906 164.596ZM43.3906 165.586C42.9306 165.586 42.5256 165.741 42.1756 166.051C41.8256 166.351 41.5506 166.781 41.3506 167.341C41.1506 167.891 41.0506 168.536 41.0506 169.276C41.0506 170.016 41.1506 170.666 41.3506 171.226C41.5506 171.786 41.8256 172.221 42.1756 172.531C42.5256 172.841 42.9306 172.996 43.3906 172.996C43.8506 172.996 44.2556 172.841 44.6056 172.531C44.9556 172.221 45.2306 171.786 45.4306 171.226C45.6306 170.666 45.7306 170.016 45.7306 169.276C45.7306 168.536 45.6306 167.891 45.4306 167.341C45.2306 166.781 44.9556 166.351 44.6056 166.051C44.2556 165.741 43.8506 165.586 43.3906 165.586ZM63.3047 163.531H64.4147V177.061H63.3047V163.531ZM54.2747 172.741H55.3547C56.2447 172.741 57.0447 172.731 57.7547 172.711C58.4747 172.681 59.1597 172.631 59.8097 172.561C60.4597 172.491 61.1247 172.391 61.8047 172.261L61.9247 173.221C61.2247 173.341 60.5397 173.436 59.8697 173.506C59.2097 173.576 58.5147 173.626 57.7847 173.656C57.0647 173.676 56.2547 173.686 55.3547 173.686H54.2747V172.741ZM54.2747 164.836H60.6347V165.766H55.3847V173.086H54.2747V164.836ZM80.7189 163.531H81.8439V170.776H80.7189V163.531ZM73.1889 171.466H74.2839V173.176H80.7489V171.466H81.8439V176.866H73.1889V171.466ZM74.2839 174.076V175.951H80.7489V174.076H74.2839ZM74.6139 164.191C75.2939 164.191 75.8939 164.321 76.4139 164.581C76.9439 164.841 77.3589 165.206 77.6589 165.676C77.9589 166.136 78.1089 166.676 78.1089 167.296C78.1089 167.896 77.9589 168.431 77.6589 168.901C77.3589 169.371 76.9439 169.736 76.4139 169.996C75.8939 170.256 75.2939 170.386 74.6139 170.386C73.9439 170.386 73.3439 170.256 72.8139 169.996C72.2839 169.736 71.8689 169.371 71.5689 168.901C71.2689 168.431 71.1189 167.896 71.1189 167.296C71.1189 166.676 71.2689 166.136 71.5689 165.676C71.8689 165.206 72.2839 164.841 72.8139 164.581C73.3439 164.321 73.9439 164.191 74.6139 164.191ZM74.6139 165.121C74.1539 165.121 73.7389 165.216 73.3689 165.406C73.0089 165.586 72.7239 165.841 72.5139 166.171C72.3039 166.491 72.1989 166.866 72.1989 167.296C72.1989 167.706 72.3039 168.076 72.5139 168.406C72.7239 168.736 73.0089 168.996 73.3689 169.186C73.7389 169.366 74.1539 169.456 74.6139 169.456C75.0839 169.456 75.4989 169.366 75.8589 169.186C76.2289 168.996 76.5139 168.736 76.7139 168.406C76.9239 168.076 77.0289 167.706 77.0289 167.296C77.0289 166.866 76.9239 166.491 76.7139 166.171C76.5139 165.841 76.2289 165.586 75.8589 165.406C75.4989 165.216 75.0839 165.121 74.6139 165.121ZM85.3029 170.281H86.2479C87.1479 170.281 87.9129 170.276 88.5429 170.266C89.1829 170.246 89.7629 170.211 90.2829 170.161C90.8129 170.111 91.3479 170.036 91.8879 169.936L92.0079 170.851C91.5879 170.921 91.1779 170.981 90.7779 171.031C90.3779 171.081 89.9579 171.116 89.5179 171.136C89.0879 171.156 88.6029 171.171 88.0629 171.181C87.5329 171.191 86.9279 171.196 86.2479 171.196H85.3029V170.281ZM85.2729 164.356H91.0629V168.106H86.3979V170.806H85.3029V167.236H89.9679V165.271H85.2729V164.356ZM94.6929 163.546H95.8029V171.841H94.6929V163.546ZM91.9779 165.571H94.9629V166.486H91.9779V165.571ZM91.9779 168.346H94.9629V169.261H91.9779V168.346ZM86.8029 172.591H95.8029V177.061H94.6929V173.506H86.8029V172.591Z" fill="#AAAAAA"/>
<rect y="212.542" width="420" height="49.324" rx="9" fill="white"/>
<path d="M35.4465 231.352H36.5565V244.882H35.4465V231.352ZM26.3265 232.507H27.4215V236.122H31.5315V232.507H32.6415V241.597H26.3265V232.507ZM27.4215 237.022V240.682H31.5315V237.022H27.4215ZM40.1806 232.117H46.4206V237.607H40.1806V232.117ZM45.3556 233.017H41.2606V236.707H45.3556V233.017ZM49.3906 231.352H50.5006V238.327H49.3906V231.352ZM41.8156 239.017H50.5006V242.212H42.9256V244.207H41.8456V241.372H49.4056V239.917H41.8156V239.017ZM41.8456 243.802H50.9806V244.702H41.8456V243.802ZM59.7647 235.207H63.7247V236.122H59.7647V235.207ZM63.3647 231.367H64.4747V241.372H63.3647V231.367ZM55.8497 243.637H64.8047V244.552H55.8497V243.637ZM55.8497 240.397H56.9447V244.087H55.8497V240.397ZM54.0797 232.267H55.1747V234.697H59.0297V232.267H60.1247V239.032H54.0797V232.267ZM55.1747 235.582V238.117H59.0297V235.582H55.1747ZM67.9488 233.392H78.8838V234.307H67.9488V233.392ZM67.3338 242.332H79.5738V243.247H67.3338V242.332ZM72.8838 240.112H73.9788V242.677H72.8838V240.112ZM73.4238 235.267C74.3238 235.267 75.1038 235.372 75.7638 235.582C76.4238 235.782 76.9288 236.072 77.2788 236.452C77.6288 236.822 77.8038 237.277 77.8038 237.817C77.8038 238.357 77.6288 238.822 77.2788 239.212C76.9288 239.592 76.4238 239.882 75.7638 240.082C75.1038 240.282 74.3238 240.382 73.4238 240.382C72.5238 240.382 71.7438 240.282 71.0838 240.082C70.4238 239.882 69.9188 239.592 69.5688 239.212C69.2188 238.822 69.0438 238.357 69.0438 237.817C69.0438 237.277 69.2188 236.822 69.5688 236.452C69.9188 236.072 70.4238 235.782 71.0838 235.582C71.7438 235.372 72.5238 235.267 73.4238 235.267ZM73.4238 236.152C72.7538 236.152 72.1738 236.222 71.6838 236.362C71.1938 236.492 70.8138 236.682 70.5438 236.932C70.2838 237.172 70.1538 237.467 70.1538 237.817C70.1538 238.167 70.2838 238.467 70.5438 238.717C70.8138 238.967 71.1938 239.162 71.6838 239.302C72.1738 239.432 72.7538 239.497 73.4238 239.497C74.0938 239.497 74.6688 239.432 75.1488 239.302C75.6388 239.162 76.0188 238.967 76.2888 238.717C76.5588 238.467 76.6938 238.167 76.6938 237.817C76.6938 237.467 76.5588 237.172 76.2888 236.932C76.0188 236.682 75.6388 236.492 75.1488 236.362C74.6688 236.222 74.0938 236.152 73.4238 236.152ZM72.8838 231.592H73.9788V233.947H72.8838V231.592ZM94.6479 231.352H95.7729V238.597H94.6479V231.352ZM87.1179 239.287H88.2129V240.997H94.6779V239.287H95.7729V244.687H87.1179V239.287ZM88.2129 241.897V243.772H94.6779V241.897H88.2129ZM88.5429 232.012C89.2229 232.012 89.8229 232.142 90.3429 232.402C90.8729 232.662 91.2879 233.027 91.5879 233.497C91.8879 233.957 92.0379 234.497 92.0379 235.117C92.0379 235.717 91.8879 236.252 91.5879 236.722C91.2879 237.192 90.8729 237.557 90.3429 237.817C89.8229 238.077 89.2229 238.207 88.5429 238.207C87.8729 238.207 87.2729 238.077 86.7429 237.817C86.2129 237.557 85.7979 237.192 85.4979 236.722C85.1979 236.252 85.0479 235.717 85.0479 235.117C85.0479 234.497 85.1979 233.957 85.4979 233.497C85.7979 233.027 86.2129 232.662 86.7429 232.402C87.2729 232.142 87.8729 232.012 88.5429 232.012ZM88.5429 232.942C88.0829 232.942 87.6679 233.037 87.2979 233.227C86.9379 233.407 86.6529 233.662 86.4429 233.992C86.2329 234.312 86.1279 234.687 86.1279 235.117C86.1279 235.527 86.2329 235.897 86.4429 236.227C86.6529 236.557 86.9379 236.817 87.2979 237.007C87.6679 237.187 88.0829 237.277 88.5429 237.277C89.0129 237.277 89.4279 237.187 89.7879 237.007C90.1579 236.817 90.4429 236.557 90.6429 236.227C90.8529 235.897 90.9579 235.527 90.9579 235.117C90.9579 234.687 90.8529 234.312 90.6429 233.992C90.4429 233.662 90.1579 233.407 89.7879 233.227C89.4279 233.037 89.0129 232.942 88.5429 232.942ZM99.232 238.102H100.177C101.077 238.102 101.842 238.097 102.472 238.087C103.112 238.067 103.692 238.032 104.212 237.982C104.742 237.932 105.277 237.857 105.817 237.757L105.937 238.672C105.517 238.742 105.107 238.802 104.707 238.852C104.307 238.902 103.887 238.937 103.447 238.957C103.017 238.977 102.532 238.992 101.992 239.002C101.462 239.012 100.857 239.017 100.177 239.017H99.232V238.102ZM99.202 232.177H104.992V235.927H100.327V238.627H99.232V235.057H103.897V233.092H99.202V232.177ZM108.622 231.367H109.732V239.662H108.622V231.367ZM105.907 233.392H108.892V234.307H105.907V233.392ZM105.907 236.167H108.892V237.082H105.907V236.167ZM100.732 240.412H109.732V244.882H108.622V241.327H100.732V240.412Z" fill="#AAAAAA"/>
<g clip-path="url(#clip0_12_366)">
<path d="M28.0901 285.119H28.8177V287.018C28.8177 287.585 28.7313 288.148 28.5587 288.707C28.3943 289.266 28.1641 289.796 27.8682 290.298C27.5722 290.791 27.2352 291.231 26.857 291.617C26.4871 291.995 26.0925 292.295 25.6733 292.517L25.1307 291.79C25.5171 291.593 25.887 291.325 26.2405 290.988C26.594 290.651 26.9063 290.265 27.1776 289.829C27.4571 289.394 27.6791 288.937 27.8435 288.46C28.0079 287.975 28.0901 287.495 28.0901 287.018V285.119ZM28.2504 285.119H28.978V287.018C28.978 287.462 29.0519 287.91 29.1999 288.362C29.3561 288.814 29.5657 289.246 29.8288 289.657C30.1001 290.068 30.4084 290.433 30.7536 290.754C31.1071 291.075 31.477 291.33 31.8634 291.519L31.3455 292.246C30.918 292.032 30.5152 291.745 30.1371 291.383C29.7671 291.013 29.4383 290.594 29.1506 290.125C28.8711 289.657 28.6491 289.159 28.4847 288.633C28.3285 288.099 28.2504 287.56 28.2504 287.018V285.119ZM25.5129 284.7H31.4811V285.476H25.5129V284.7ZM32.8869 283.553H33.7994V294.663H32.8869V283.553ZM33.5897 288.078H35.6614V288.855H33.5897V288.078ZM36.7625 289.077H46.7999V289.817H36.7625V289.077ZM41.3249 287.277H42.2128V289.385H41.3249V287.277ZM38.0326 286.981H45.6161V287.733H38.0326V286.981ZM38.0326 284.071H45.5298V284.811H38.9327V287.412H38.0326V284.071ZM41.7689 290.655C42.9526 290.655 43.8775 290.832 44.5433 291.186C45.2174 291.531 45.5545 292.02 45.5545 292.653C45.5545 293.286 45.2174 293.775 44.5433 294.12C43.8775 294.474 42.9526 294.651 41.7689 294.651C40.5851 294.651 39.6561 294.474 38.982 294.12C38.308 293.775 37.9709 293.286 37.9709 292.653C37.9709 292.02 38.308 291.531 38.982 291.186C39.6561 290.832 40.5851 290.655 41.7689 290.655ZM41.7689 291.383C41.177 291.383 40.6632 291.432 40.2275 291.531C39.8 291.63 39.4712 291.773 39.241 291.962C39.0108 292.152 38.8957 292.382 38.8957 292.653C38.8957 292.916 39.0108 293.146 39.241 293.344C39.4712 293.533 39.8 293.677 40.2275 293.775C40.6632 293.874 41.177 293.923 41.7689 293.923C42.3607 293.923 42.8704 293.874 43.2979 293.775C43.7336 293.677 44.0665 293.533 44.2967 293.344C44.5269 293.146 44.642 292.916 44.642 292.653C44.642 292.382 44.5269 292.152 44.2967 291.962C44.0665 291.773 43.7336 291.63 43.2979 291.531C42.8704 291.432 42.3607 291.383 41.7689 291.383ZM48.2216 292.505H58.2837V293.27H48.2216V292.505ZM52.7718 290.076H53.6719V292.826H52.7718V290.076ZM49.4547 284.391H57.0136V287.696H50.3919V289.99H49.4917V286.968H56.1135V285.143H49.4547V284.391ZM49.4917 289.595H57.2726V290.347H49.4917V289.595ZM60.7782 284.761H67.9425V285.513H60.7782V284.761ZM59.6808 292.246H69.7059V293.011H59.6808V292.246ZM67.4493 284.761H68.3495V285.834C68.3495 286.294 68.3412 286.792 68.3248 287.326C68.3166 287.852 68.2837 288.436 68.2261 289.077C68.1686 289.71 68.0658 290.433 67.9179 291.247L67.0054 291.149C67.1534 290.384 67.2561 289.685 67.3137 289.052C67.3794 288.419 67.4164 287.84 67.4246 287.314C67.4411 286.779 67.4493 286.286 67.4493 285.834V284.761ZM79.2907 283.565H80.2155V291.691H79.2907V283.565ZM73.1252 293.652H80.5608V294.404H73.1252V293.652ZM73.1252 290.865H74.0377V293.886H73.1252V290.865ZM74.272 284.354C74.8228 284.354 75.3119 284.469 75.7394 284.7C76.1751 284.922 76.5162 285.238 76.7629 285.649C77.0177 286.06 77.1451 286.533 77.1451 287.067C77.1451 287.593 77.0177 288.062 76.7629 288.473C76.5162 288.884 76.1751 289.209 75.7394 289.447C75.3119 289.677 74.8228 289.792 74.272 289.792C73.7294 289.792 73.2403 289.677 72.8046 289.447C72.3689 289.209 72.0236 288.884 71.7688 288.473C71.5222 288.062 71.3989 287.593 71.3989 287.067C71.3989 286.533 71.5222 286.06 71.7688 285.649C72.0236 285.238 72.3689 284.922 72.8046 284.7C73.2403 284.469 73.7294 284.354 74.272 284.354ZM74.272 285.143C73.8938 285.143 73.5527 285.226 73.2485 285.39C72.9526 285.554 72.7183 285.781 72.5457 286.068C72.373 286.356 72.2867 286.689 72.2867 287.067C72.2867 287.437 72.373 287.766 72.5457 288.054C72.7183 288.341 72.9526 288.567 73.2485 288.732C73.5527 288.896 73.8938 288.978 74.272 288.978C74.6501 288.978 74.9913 288.896 75.2955 288.732C75.5996 288.567 75.8339 288.341 75.9983 288.054C76.171 287.766 76.2573 287.437 76.2573 287.067C76.2573 286.689 76.171 286.356 75.9983 286.068C75.8339 285.781 75.5996 285.554 75.2955 285.39C74.9913 285.226 74.6501 285.143 74.272 285.143Z" fill="white"/>
</g>
<g clip-path="url(#clip1_12_366)">
<g clip-path="url(#clip2_12_366)">
<path d="M9.24821 298.474C14.1431 298.474 18.1111 294.506 18.1111 289.611C18.1111 284.716 14.1431 280.748 9.24821 280.748C4.35337 280.748 0.385315 284.716 0.385315 289.611C0.385315 294.506 4.35337 298.474 9.24821 298.474Z" fill="white" stroke="#CCCCCC" stroke-width="0.770687"/>
<path d="M5.00946 288.84L8.32673 292.309L13.487 286.914" stroke="#CCCCCC" stroke-width="1.54137" stroke-linecap="round" stroke-linejoin="round"/>
</g>
</g>
<g clip-path="url(#clip3_12_366)">
<path d="M131.592 284.428C132.134 284.428 132.611 284.584 133.022 284.897C133.441 285.209 133.766 285.657 133.996 286.241C134.235 286.816 134.354 287.495 134.354 288.276C134.354 289.065 134.235 289.747 133.996 290.322C133.766 290.898 133.441 291.346 133.022 291.667C132.611 291.979 132.134 292.135 131.592 292.135C131.049 292.135 130.568 291.979 130.149 291.667C129.73 291.346 129.401 290.898 129.162 290.322C128.932 289.747 128.817 289.065 128.817 288.276C128.817 287.495 128.932 286.816 129.162 286.241C129.401 285.657 129.73 285.209 130.149 284.897C130.568 284.584 131.049 284.428 131.592 284.428ZM131.592 285.242C131.214 285.242 130.881 285.37 130.593 285.624C130.313 285.871 130.091 286.224 129.927 286.685C129.771 287.137 129.693 287.667 129.693 288.276C129.693 288.884 129.771 289.418 129.927 289.879C130.091 290.339 130.317 290.697 130.605 290.951C130.893 291.206 131.222 291.334 131.592 291.334C131.962 291.334 132.286 291.206 132.566 290.951C132.854 290.697 133.076 290.339 133.232 289.879C133.396 289.418 133.478 288.884 133.478 288.276C133.478 287.667 133.396 287.137 133.232 286.685C133.076 286.224 132.854 285.871 132.566 285.624C132.286 285.37 131.962 285.242 131.592 285.242ZM136.228 283.553H137.141V294.663H136.228V283.553ZM136.931 288.029H139.003V288.806H136.931V288.029ZM148.242 283.553H149.155V294.675H148.242V283.553ZM143.322 284.428C143.873 284.428 144.358 284.584 144.777 284.897C145.196 285.209 145.525 285.657 145.764 286.241C146.002 286.816 146.121 287.495 146.121 288.276C146.121 289.065 146.002 289.747 145.764 290.322C145.525 290.898 145.196 291.346 144.777 291.667C144.358 291.979 143.873 292.135 143.322 292.135C142.78 292.135 142.295 291.979 141.867 291.667C141.448 291.346 141.119 290.898 140.881 290.322C140.642 289.747 140.523 289.065 140.523 288.276C140.523 287.495 140.642 286.816 140.881 286.241C141.119 285.657 141.448 285.209 141.867 284.897C142.295 284.584 142.78 284.428 143.322 284.428ZM143.322 285.242C142.944 285.242 142.611 285.37 142.323 285.624C142.036 285.871 141.81 286.224 141.645 286.685C141.481 287.137 141.398 287.667 141.398 288.276C141.398 288.884 141.481 289.418 141.645 289.879C141.81 290.339 142.036 290.697 142.323 290.951C142.611 291.206 142.944 291.334 143.322 291.334C143.7 291.334 144.033 291.206 144.321 290.951C144.609 290.697 144.835 290.339 144.999 289.879C145.164 289.418 145.246 288.884 145.246 288.276C145.246 287.667 145.164 287.137 144.999 286.685C144.835 286.224 144.609 285.871 144.321 285.624C144.033 285.37 143.7 285.242 143.322 285.242ZM159.701 283.553H160.614V294.675H159.701V283.553ZM152.278 291.124H153.166C153.898 291.124 154.555 291.116 155.139 291.099C155.731 291.075 156.294 291.034 156.828 290.976C157.363 290.918 157.909 290.836 158.468 290.729L158.567 291.519C157.991 291.617 157.428 291.695 156.878 291.753C156.335 291.81 155.764 291.852 155.164 291.876C154.572 291.893 153.906 291.901 153.166 291.901H152.278V291.124ZM152.278 284.626H157.506V285.39H153.191V291.408H152.278V284.626ZM171.21 283.553H172.122V294.675H171.21V283.553ZM168.744 287.622H171.493V288.374H168.744V287.622ZM165.883 285.106H166.623V286.894C166.623 287.478 166.536 288.054 166.364 288.621C166.199 289.188 165.973 289.718 165.686 290.211C165.398 290.705 165.065 291.145 164.687 291.531C164.309 291.917 163.91 292.226 163.491 292.456L162.936 291.728C163.33 291.531 163.704 291.264 164.058 290.927C164.411 290.581 164.724 290.191 164.995 289.755C165.266 289.32 165.48 288.859 165.636 288.374C165.801 287.881 165.883 287.388 165.883 286.894V285.106ZM166.068 285.106H166.795V286.894C166.795 287.355 166.873 287.819 167.03 288.288C167.186 288.748 167.4 289.188 167.671 289.607C167.942 290.027 168.254 290.401 168.608 290.729C168.961 291.05 169.335 291.305 169.73 291.494L169.188 292.221C168.76 292.008 168.357 291.716 167.979 291.346C167.601 290.976 167.268 290.553 166.98 290.076C166.693 289.591 166.466 289.081 166.302 288.547C166.146 288.004 166.068 287.453 166.068 286.894V285.106ZM163.343 284.7H169.348V285.464H163.343V284.7ZM177.268 284.737H178.008V285.674C178.008 286.348 177.876 286.973 177.613 287.548C177.35 288.123 176.984 288.625 176.516 289.052C176.055 289.48 175.521 289.805 174.913 290.027L174.457 289.299C174.999 289.11 175.48 288.835 175.899 288.473C176.327 288.103 176.66 287.68 176.898 287.203C177.145 286.718 177.268 286.208 177.268 285.674V284.737ZM177.416 284.737H178.168V285.661C178.168 286.155 178.283 286.623 178.513 287.067C178.744 287.503 179.06 287.885 179.463 288.214C179.874 288.543 180.347 288.802 180.881 288.991L180.449 289.706C179.841 289.5 179.311 289.2 178.859 288.806C178.407 288.403 178.053 287.934 177.798 287.4C177.543 286.866 177.416 286.286 177.416 285.661V284.737ZM174.74 284.391H180.659V285.143H174.74V284.391ZM182.151 283.553H183.064V290.273H182.151V283.553ZM182.817 286.426H184.741V287.19H182.817V286.426ZM179.549 290.581C180.297 290.581 180.943 290.664 181.485 290.828C182.028 290.984 182.443 291.21 182.731 291.506C183.027 291.802 183.175 292.168 183.175 292.604C183.175 293.031 183.027 293.397 182.731 293.701C182.443 294.005 182.028 294.236 181.485 294.392C180.943 294.556 180.297 294.638 179.549 294.638C178.801 294.638 178.152 294.556 177.601 294.392C177.058 294.236 176.639 294.005 176.343 293.701C176.055 293.397 175.912 293.031 175.912 292.604C175.912 292.168 176.055 291.802 176.343 291.506C176.639 291.21 177.058 290.984 177.601 290.828C178.152 290.664 178.801 290.581 179.549 290.581ZM179.549 291.321C178.99 291.321 178.505 291.375 178.094 291.482C177.683 291.58 177.367 291.724 177.145 291.913C176.923 292.102 176.812 292.332 176.812 292.604C176.812 292.875 176.923 293.109 177.145 293.307C177.367 293.496 177.683 293.64 178.094 293.738C178.505 293.845 178.99 293.898 179.549 293.898C180.108 293.898 180.593 293.845 181.004 293.738C181.415 293.64 181.732 293.496 181.954 293.307C182.176 293.109 182.287 292.875 182.287 292.604C182.287 292.332 182.176 292.102 181.954 291.913C181.732 291.724 181.415 291.58 181.004 291.482C180.593 291.375 180.108 291.321 179.549 291.321Z" fill="white"/>
</g>
<g clip-path="url(#clip4_12_366)">
<g clip-path="url(#clip5_12_366)">
<path d="M112.59 298.474C117.485 298.474 121.453 294.506 121.453 289.611C121.453 284.716 117.485 280.748 112.59 280.748C107.695 280.748 103.727 284.716 103.727 289.611C103.727 294.506 107.695 298.474 112.59 298.474Z" fill="white" stroke="#CCCCCC" stroke-width="0.770687"/>
<path d="M108.351 288.84L111.668 292.309L116.829 286.914" stroke="#CCCCCC" stroke-width="1.54137" stroke-linecap="round" stroke-linejoin="round"/>
</g>
</g>
<path d="M292.887 289.693H294.527V291.542H292.887V289.693ZM297.881 282.75H299.521V294.169H297.881V282.75ZM290.248 292.27L290.051 290.938C290.742 290.938 291.494 290.934 292.308 290.926C293.121 290.918 293.956 290.889 294.811 290.84C295.674 290.79 296.504 290.712 297.302 290.605L297.413 291.789C296.582 291.937 295.744 292.048 294.897 292.122C294.059 292.188 293.245 292.229 292.456 292.245C291.666 292.262 290.931 292.27 290.248 292.27ZM290.273 284.008H297.154V285.291H290.273V284.008ZM293.713 285.734C294.272 285.734 294.766 285.825 295.193 286.006C295.621 286.187 295.954 286.437 296.192 286.758C296.439 287.079 296.562 287.453 296.562 287.88C296.562 288.299 296.439 288.673 296.192 289.002C295.954 289.323 295.621 289.574 295.193 289.754C294.766 289.935 294.272 290.026 293.713 290.026C293.154 290.026 292.661 289.935 292.234 289.754C291.806 289.574 291.469 289.323 291.223 289.002C290.984 288.673 290.865 288.299 290.865 287.88C290.865 287.453 290.984 287.079 291.223 286.758C291.469 286.437 291.806 286.187 292.234 286.006C292.661 285.825 293.154 285.734 293.713 285.734ZM293.713 286.968C293.335 286.968 293.027 287.05 292.789 287.214C292.55 287.37 292.431 287.592 292.431 287.88C292.431 288.176 292.55 288.402 292.789 288.558C293.027 288.714 293.335 288.793 293.713 288.793C294.092 288.793 294.4 288.714 294.638 288.558C294.877 288.402 294.996 288.176 294.996 287.88C294.996 287.592 294.877 287.37 294.638 287.214C294.4 287.05 294.092 286.968 293.713 286.968ZM292.887 282.787H294.54V284.748H292.887V282.787ZM304.317 288.608H305.957V291.098H304.317V288.608ZM309.311 282.738H310.951V291.394H309.311V282.738ZM302.726 292.652H311.21V293.972H302.726V292.652ZM302.726 290.568H304.366V293.01H302.726V290.568ZM301.506 289.101L301.296 287.794C301.995 287.786 302.755 287.777 303.577 287.769C304.399 287.753 305.238 287.72 306.093 287.67C306.948 287.621 307.77 287.547 308.559 287.448L308.67 288.62C307.856 288.76 307.026 288.867 306.179 288.941C305.341 289.006 304.523 289.047 303.725 289.064C302.928 289.08 302.188 289.093 301.506 289.101ZM307.166 289.372H309.681V290.494H307.166V289.372ZM304.971 283.133C305.53 283.133 306.023 283.219 306.45 283.392C306.878 283.564 307.211 283.803 307.449 284.107C307.696 284.411 307.819 284.769 307.819 285.18C307.819 285.582 307.696 285.94 307.449 286.252C307.211 286.557 306.878 286.791 306.45 286.955C306.023 287.12 305.53 287.202 304.971 287.202C304.412 287.202 303.914 287.12 303.479 286.955C303.051 286.791 302.718 286.557 302.48 286.252C302.241 285.94 302.122 285.582 302.122 285.18C302.122 284.769 302.241 284.411 302.48 284.107C302.718 283.803 303.051 283.564 303.479 283.392C303.914 283.219 304.412 283.133 304.971 283.133ZM304.971 284.329C304.592 284.329 304.28 284.399 304.033 284.538C303.795 284.678 303.676 284.892 303.676 285.18C303.676 285.451 303.795 285.66 304.033 285.808C304.28 285.948 304.592 286.018 304.971 286.018C305.357 286.018 305.665 285.948 305.895 285.808C306.134 285.66 306.253 285.451 306.253 285.18C306.253 284.991 306.2 284.834 306.093 284.711C305.986 284.588 305.838 284.493 305.649 284.427C305.46 284.362 305.234 284.329 304.971 284.329ZM319.976 282.726H321.629V294.144H319.976V282.726ZM321.21 287.103H323.22V288.447H321.21V287.103ZM316.98 283.909H318.595C318.595 285.052 318.431 286.133 318.102 287.153C317.782 288.172 317.247 289.109 316.499 289.964C315.759 290.811 314.756 291.551 313.49 292.184L312.566 290.938C313.568 290.42 314.395 289.837 315.044 289.187C315.702 288.538 316.187 287.802 316.499 286.98C316.82 286.15 316.98 285.225 316.98 284.205V283.909ZM313.194 283.909H317.831V285.229H313.194V283.909ZM331.875 282.75H333.515V288.879H331.875V282.75ZM325.931 289.384H327.547V290.445H331.887V289.384H333.515V294.046H325.931V289.384ZM327.547 291.703V292.738H331.887V291.703H327.547ZM327.3 283.219C327.892 283.219 328.422 283.334 328.891 283.564C329.359 283.794 329.729 284.111 330.001 284.514C330.272 284.917 330.408 285.381 330.408 285.907C330.408 286.433 330.272 286.902 330.001 287.313C329.729 287.716 329.359 288.032 328.891 288.262C328.422 288.493 327.892 288.608 327.3 288.608C326.708 288.608 326.178 288.493 325.709 288.262C325.241 288.032 324.871 287.716 324.6 287.313C324.328 286.902 324.193 286.433 324.193 285.907C324.193 285.381 324.328 284.917 324.6 284.514C324.871 284.111 325.241 283.794 325.709 283.564C326.178 283.334 326.708 283.219 327.3 283.219ZM327.3 284.563C327.012 284.563 326.753 284.616 326.523 284.723C326.293 284.83 326.112 284.986 325.981 285.192C325.857 285.389 325.796 285.628 325.796 285.907C325.796 286.195 325.857 286.441 325.981 286.647C326.112 286.844 326.293 286.996 326.523 287.103C326.753 287.202 327.012 287.251 327.3 287.251C327.588 287.251 327.843 287.202 328.065 287.103C328.295 286.996 328.476 286.844 328.607 286.647C328.739 286.441 328.804 286.195 328.804 285.907C328.804 285.628 328.739 285.389 328.607 285.192C328.476 284.986 328.295 284.83 328.065 284.723C327.843 284.616 327.588 284.563 327.3 284.563Z" fill="white"/>
<path d="M354.711 293.071V284.116H355.727V293.071H354.711ZM358.224 293.071V284.116H360.426C361.348 284.116 362.118 284.291 362.738 284.642C363.358 284.992 363.823 285.498 364.133 286.159C364.451 286.82 364.61 287.619 364.61 288.557C364.61 289.495 364.451 290.302 364.133 290.979C363.823 291.656 363.362 292.174 362.751 292.533C362.139 292.892 361.38 293.071 360.475 293.071H358.224ZM359.239 292.227H360.34C361.066 292.227 361.666 292.084 362.139 291.799C362.62 291.505 362.979 291.081 363.216 290.527C363.452 289.972 363.57 289.315 363.57 288.557C363.57 287.798 363.452 287.15 363.216 286.612C362.979 286.073 362.62 285.661 362.139 285.376C361.666 285.09 361.066 284.948 360.34 284.948H359.239V292.227ZM365.175 295.249L368.956 283.382H369.69L365.922 295.249H365.175ZM371.08 293.071V284.116H373.563C374.24 284.116 374.828 284.201 375.325 284.373C375.823 284.536 376.206 284.805 376.475 285.18C376.753 285.555 376.891 286.065 376.891 286.709C376.891 287.329 376.757 287.843 376.487 288.251C376.218 288.651 375.835 288.948 375.337 289.144C374.848 289.34 374.273 289.438 373.612 289.438H372.095V293.071H371.08ZM372.095 288.618H373.465C374.281 288.618 374.885 288.467 375.276 288.165C375.676 287.864 375.876 287.378 375.876 286.709C375.876 286.041 375.672 285.58 375.264 285.327C374.856 285.074 374.24 284.948 373.417 284.948H372.095V288.618ZM379.754 293.071L377.821 284.116H378.861L379.839 289.095C379.937 289.568 380.031 290.049 380.121 290.539C380.219 291.02 380.313 291.505 380.402 291.995H380.451C380.557 291.505 380.663 291.02 380.769 290.539C380.883 290.049 380.994 289.568 381.1 289.095L382.372 284.116H383.314L384.599 289.095C384.713 289.568 384.823 290.049 384.929 290.539C385.035 291.02 385.145 291.505 385.259 291.995H385.321C385.41 291.505 385.496 291.02 385.578 290.539C385.667 290.049 385.753 289.568 385.834 289.095L386.838 284.116H387.804L385.92 293.071H384.709L383.302 287.492C383.22 287.134 383.143 286.795 383.069 286.477C382.996 286.151 382.923 285.812 382.849 285.461H382.8C382.727 285.812 382.649 286.151 382.568 286.477C382.486 286.795 382.409 287.134 382.335 287.492L380.941 293.071H379.754ZM394.322 284.789H395.056V285.278C395.056 285.898 394.926 286.473 394.665 287.003C394.404 287.533 394.036 287.99 393.563 288.373C393.098 288.757 392.568 289.05 391.973 289.254L391.532 288.532C392.071 288.361 392.548 288.116 392.964 287.798C393.388 287.48 393.718 287.105 393.955 286.673C394.2 286.24 394.322 285.775 394.322 285.278V284.789ZM394.469 284.789H395.215V285.278C395.215 285.727 395.329 286.155 395.558 286.563C395.794 286.962 396.116 287.317 396.524 287.627C396.94 287.937 397.409 288.169 397.931 288.324L397.515 289.034C396.912 288.846 396.381 288.569 395.925 288.202C395.468 287.835 395.109 287.403 394.848 286.905C394.595 286.399 394.469 285.857 394.469 285.278V284.789ZM391.826 284.299H397.699V285.033H391.826V284.299ZM394.322 282.929H395.227V284.605H394.322V282.929ZM399.13 282.978H400.036V289.401H399.13V282.978ZM399.791 285.743H401.699V286.501H399.791V285.743ZM396.182 290.294H396.952V290.6C396.952 291.024 396.842 291.424 396.622 291.799C396.41 292.166 396.116 292.496 395.741 292.79C395.366 293.075 394.942 293.316 394.469 293.512C393.996 293.716 393.498 293.863 392.976 293.952L392.634 293.255C393.082 293.182 393.519 293.063 393.943 292.9C394.367 292.737 394.746 292.537 395.08 292.301C395.423 292.064 395.692 291.803 395.888 291.518C396.084 291.224 396.182 290.918 396.182 290.6V290.294ZM396.341 290.294H397.111V290.6C397.111 290.918 397.209 291.22 397.405 291.505C397.609 291.791 397.878 292.052 398.213 292.288C398.547 292.525 398.922 292.729 399.338 292.9C399.762 293.071 400.199 293.194 400.647 293.267L400.305 293.965C399.791 293.867 399.297 293.716 398.824 293.512C398.351 293.316 397.927 293.075 397.552 292.79C397.177 292.496 396.879 292.166 396.659 291.799C396.447 291.424 396.341 291.024 396.341 290.6V290.294ZM393.05 290.013H400.244V290.759H393.05V290.013ZM410.874 282.978H411.78V294.001H410.874V282.978ZM407.657 284.177H408.55C408.55 284.96 408.452 285.722 408.256 286.465C408.06 287.199 407.755 287.896 407.339 288.557C406.931 289.217 406.401 289.829 405.748 290.392C405.104 290.955 404.325 291.461 403.411 291.909L402.922 291.175C403.99 290.661 404.875 290.058 405.577 289.364C406.278 288.671 406.8 287.9 407.143 287.052C407.485 286.204 407.657 285.29 407.657 284.311V284.177ZM403.424 284.177H408.024V284.923H403.424V284.177Z" fill="white"/>
<rect x="344.382" y="285.321" width="0.770687" height="7.70687" fill="#E5E5E5"/>
<rect x="437" y="76.9016" width="186.627" height="184.751" rx="9" fill="#088EE2"/>
<path d="M493.728 178.167H517.333V181.205H493.728V178.167ZM503.631 173.215H507.345V179.376H503.631V173.215ZM496.4 159.682H514.66V168.376H500.142V172.737H496.429V165.45H510.946V162.664H496.4V159.682ZM496.429 171.274H515.251V174.256H496.429V171.274ZM522.029 160.385H538.516V163.368H522.029V160.385ZM519.609 177.632H543.186V180.671H519.609V177.632ZM536.546 160.385H540.288V163.48C540.288 164.699 540.27 165.937 540.232 167.194C540.213 168.451 540.138 169.792 540.007 171.217C539.894 172.643 539.669 174.256 539.332 176.057L535.59 175.719C535.927 174.05 536.153 172.512 536.265 171.105C536.396 169.698 536.471 168.376 536.49 167.138C536.528 165.881 536.546 164.662 536.546 163.48V160.385ZM563.385 158.022H567.127V176.732H563.385V158.022ZM549.768 180.614H567.802V183.625H549.768V180.614ZM549.768 174.875H553.509V181.852H549.768V174.875ZM552.947 159.682C554.278 159.682 555.479 159.963 556.548 160.526C557.617 161.089 558.461 161.867 559.08 162.861C559.718 163.855 560.037 165 560.037 166.294C560.037 167.55 559.718 168.685 559.08 169.698C558.461 170.692 557.617 171.48 556.548 172.061C555.479 172.624 554.278 172.905 552.947 172.905C551.615 172.905 550.415 172.624 549.346 172.061C548.276 171.48 547.423 170.692 546.785 169.698C546.166 168.685 545.857 167.55 545.857 166.294C545.857 165 546.166 163.855 546.785 162.861C547.423 161.867 548.276 161.089 549.346 160.526C550.415 159.963 551.615 159.682 552.947 159.682ZM552.947 162.889C552.309 162.889 551.728 163.03 551.202 163.311C550.677 163.574 550.265 163.959 549.964 164.465C549.664 164.953 549.514 165.562 549.514 166.294C549.514 166.988 549.664 167.588 549.964 168.094C550.265 168.582 550.677 168.967 551.202 169.248C551.728 169.511 552.309 169.642 552.947 169.642C553.584 169.642 554.166 169.511 554.691 169.248C555.216 168.967 555.629 168.582 555.929 168.094C556.229 167.588 556.379 166.988 556.379 166.294C556.379 165.562 556.229 164.953 555.929 164.465C555.629 163.959 555.216 163.574 554.691 163.311C554.166 163.03 553.584 162.889 552.947 162.889Z" fill="white"/>
<defs>
<clipPath id="clip0_12_366">
<rect width="58" height="18.4965" fill="white" transform="translate(24.6621 280.363)"/>
</clipPath>
<clipPath id="clip1_12_366">
<rect width="18.4965" height="18.4965" fill="white" transform="translate(0 280.363)"/>
</clipPath>
<clipPath id="clip2_12_366">
<rect width="18.4965" height="18.4965" fill="white" transform="translate(0 280.363)"/>
</clipPath>
<clipPath id="clip3_12_366">
<rect width="58" height="18.4965" fill="white" transform="translate(128.003 280.363)"/>
</clipPath>
<clipPath id="clip4_12_366">
<rect width="18.4965" height="18.4965" fill="white" transform="translate(103.341 280.363)"/>
</clipPath>
<clipPath id="clip5_12_366">
<rect width="18.4965" height="18.4965" fill="white" transform="translate(103.341 280.363)"/>
</clipPath>
</defs>
</svg>
