<svg width="572" height="454" viewBox="0 0 572 454" fill="none" xmlns="http://www.w3.org/2000/svg">
<path d="M203.047 31.6852C204.171 31.9215 204.926 33.1223 204.664 34.2588C204.542 35.4249 203.502 36.1005 202.345 36.0064C158.818 31.7748 122.906 41.8062 103.555 66.9373C60.9802 122.493 112.619 233.452 218.944 314.937C325.236 396.564 446.078 417.639 488.62 362.225C507.385 337.716 508.251 301.997 494.21 262.549C493.877 261.436 494.485 260.074 495.633 259.57C496.781 259.067 497.981 259.617 498.487 260.617C523.33 312.018 526.547 360.066 502.12 391.877C467.934 436.374 388.091 438.192 301.865 402.21C273.421 397.688 241.577 391.357 208.177 383.362C94.1928 356.043 5.18208 319.911 9.54775 302.49C12.61 290.206 60.5955 290.512 128.201 301.169L127.877 302.605C74.2503 295.079 37.8327 295.435 35.3521 305.135C31.5476 320.72 115.961 354.217 223.925 379.951C243.02 384.506 261.577 388.516 279.209 391.948C252.152 378.726 224.807 361.896 198.356 341.596C79.3748 250.45 23.4223 123.687 71.2141 61.4812C96.2599 28.9068 145.041 19.9419 203.047 31.6852ZM463.75 217.654C464.191 217.008 465.028 217.185 465.35 217.696C477.735 237.768 482.992 251.898 482.992 251.898C498.474 287.861 500.106 321.045 484.055 345.167C466.006 372.27 428.495 382.095 382.808 375.844C381.551 375.578 381.799 373.855 382.98 373.809C415.913 374.407 442.439 364.628 456.492 343.486C469.867 323.383 469.973 296.039 459.192 266.394C452.487 249.001 447.968 241.242 446.68 239.195C446.466 238.854 446.563 238.43 446.799 238.037L463.75 217.654ZM266.591 64.3792C268.263 64.732 269.57 66.0436 269.739 67.8553L297.404 235.764C297.702 237.011 297.239 238.394 296.422 239.405L249.358 293.572C246.973 296.325 242.577 295.102 242.068 291.591L203.481 57.2885C203.014 54.2297 205.678 51.5351 208.606 52.1523L266.591 64.3792ZM372.302 87.2354C373.975 87.5881 375.282 88.8999 375.45 90.7115L403.116 258.621C403.414 259.868 403.09 261.28 402.134 262.263L355.07 316.429C352.684 319.182 348.289 317.959 347.779 314.448L309.192 80.1444C308.725 77.0859 311.389 74.3913 314.316 75.0083L372.302 87.2354ZM179.652 45.6521C180.381 45.6581 180.841 46.1986 180.991 46.8217L184.019 71.864C184.168 72.4871 183.557 73.2456 182.764 73.5218C156.96 75.9093 136.099 85.4047 123.759 102.32C108.984 122.862 108.945 151.102 121.086 181.618C121.557 182.753 119.905 183.588 119.295 182.424C97.51 141.736 93.5953 103.343 112.78 76.9296C126.472 57.9335 150.13 47.698 179.652 45.6521ZM513.835 117.701C516.908 118.347 518.047 122.293 515.998 124.828L437.304 221.581C434.877 224.481 430.441 223.4 429.827 219.712L418.149 148.447C417.884 147.057 418.21 145.642 419.169 144.657L451.861 107.042C452.886 105.775 454.478 105.221 456.015 105.544L513.835 117.701Z" fill="white" fill-opacity="0.05"/>
</svg>
