<svg width="194" height="45" viewBox="0 0 194 45" fill="none" xmlns="http://www.w3.org/2000/svg">
<path d="M184.287 8.09283H186.178V2.91148H190.159V8.10424H194V11.9731H190.159V18.8664C190.159 19.3229 190.394 19.6082 190.864 19.7223C191.334 19.8365 191.933 19.8821 192.673 19.8821H194V23.2831H193.941C193.436 23.2831 192.943 23.2831 192.485 23.2945C192.027 23.3059 191.58 23.3059 191.169 23.3059C190.324 23.3059 189.584 23.2603 188.949 23.1804C188.315 23.1005 187.798 22.9065 187.399 22.5983C186.988 22.3016 186.683 21.8451 186.483 21.2516C186.272 20.6582 186.178 19.8593 186.178 18.8436V11.9503H184.287V8.09283Z" fill="#0E4B8C"/>
<path d="M43.8016 2.35227H48.0299L54.9831 17.6681L61.948 2.35227H66.1763L62.2416 10.9802L65.2837 17.6681L72.2603 2.35227H76.4651L66.9397 23.3059H63.6276L60.1275 15.6366L56.6626 23.3173H53.327C52.0468 20.4984 50.931 18.0561 49.9913 15.979C49.0517 13.9133 48.2413 12.1443 47.5718 10.6607C46.9023 9.18845 46.3503 7.9673 45.9275 7.02005C45.5046 6.07279 45.164 5.30815 44.8939 4.73751C44.6355 4.16688 44.4358 3.74461 44.3066 3.47071C44.1774 3.1968 44.0952 3.00279 44.0365 2.87725C43.9778 2.75171 43.9425 2.67182 43.919 2.62617C43.8955 2.58052 43.8603 2.48922 43.8016 2.35227Z" fill="#202F56"/>
<path d="M81.9972 2.87727V6.00434H78.0155V2.87727H81.9972ZM78.0038 23.3173V8.09285H81.9854V23.3059H78.0038V23.3173Z" fill="#0E4B8C"/>
<path d="M88.692 8.09278V9.77044C89.1853 9.19981 89.7608 8.77754 90.442 8.50364C91.1232 8.22973 91.8397 8.09278 92.5914 8.09278C93.6602 8.09278 94.6703 8.26397 95.6099 8.61776C96.5496 8.96014 97.3717 9.45089 98.0882 10.09C98.7929 10.7177 99.3449 11.4823 99.756 12.3611C100.155 13.2399 100.367 14.1986 100.367 15.2485V23.3287H96.3851V15.2485C96.3851 14.735 96.2912 14.2784 96.0915 13.879C95.8918 13.4796 95.6217 13.1372 95.2693 12.8519C94.917 12.5665 94.5059 12.3497 94.0361 12.2013C93.5663 12.053 93.0612 11.9845 92.5327 11.9845C91.8397 11.9845 91.2524 12.0872 90.7709 12.3041C90.2893 12.5095 89.89 12.7948 89.5846 13.16C89.2792 13.5138 89.0443 13.9132 88.9034 14.3583C88.7624 14.8034 88.692 15.2599 88.692 15.7279V23.3401H84.7103V8.09278H88.692Z" fill="#0E4B8C"/>
<path d="M106.439 8.09278V9.77044C106.932 9.19981 107.508 8.77754 108.189 8.50364C108.87 8.22973 109.587 8.09278 110.339 8.09278C111.407 8.09278 112.417 8.26397 113.369 8.61776C114.308 8.96014 115.131 9.45089 115.847 10.09C116.552 10.7177 117.104 11.4823 117.515 12.3611C117.914 13.2399 118.126 14.1986 118.126 15.2485V23.3287H114.144V15.2485C114.144 14.735 114.05 14.2784 113.85 13.879C113.651 13.4796 113.381 13.1372 113.028 12.8519C112.676 12.5665 112.265 12.3497 111.795 12.2013C111.325 12.053 110.82 11.9845 110.292 11.9845C109.599 11.9845 109 12.0872 108.53 12.3041C108.048 12.5095 107.649 12.7948 107.343 13.16C107.038 13.5138 106.803 13.9132 106.662 14.3583C106.521 14.8034 106.451 15.2599 106.451 15.7279V23.3401H102.469V8.09278H106.439Z" fill="#0E4B8C"/>
<path d="M127.299 8.09278C128.52 8.09278 129.683 8.35527 130.763 8.88026C131.844 9.40524 132.76 10.1242 133.488 11.0601C134.24 11.9959 134.745 13.0345 134.992 14.1757C135.238 15.317 135.203 16.4697 134.874 17.6224H123.986C124.304 18.1588 124.738 18.581 125.278 18.9006C125.819 19.2201 126.394 19.4027 127.017 19.437C127.674 19.437 128.273 19.3343 128.814 19.1402C129.354 18.9348 129.836 18.5924 130.27 18.1017L133.324 20.5782C132.549 21.4798 131.633 22.1532 130.587 22.6211C129.53 23.089 128.438 23.3173 127.31 23.3173C126.711 23.3173 126.112 23.2488 125.513 23.1233C124.914 22.9977 124.351 22.7923 123.799 22.5184C122.988 22.1304 122.272 21.6282 121.661 21.0119C121.05 20.3842 120.557 19.6995 120.193 18.9348C119.829 18.1702 119.594 17.3713 119.5 16.5153C119.406 15.6594 119.465 14.8034 119.664 13.9475C119.876 13.0915 120.216 12.3041 120.698 11.5851C121.179 10.8661 121.755 10.2498 122.424 9.73621C123.094 9.21122 123.846 8.81178 124.691 8.52646C125.525 8.24115 126.394 8.09278 127.299 8.09278ZM130.611 13.7877C130.258 13.2171 129.777 12.772 129.201 12.4524C128.614 12.1329 127.992 11.9731 127.31 11.9731C126.629 11.9731 125.995 12.1329 125.419 12.4524C124.832 12.772 124.362 13.2171 124.01 13.7877H130.611Z" fill="#0E4B8C"/>
<path d="M136.742 8.09278H140.723V9.77044C141.628 8.77754 142.755 8.22973 144.118 8.12702V11.9731C143.519 12.0302 143.002 12.1671 142.567 12.3954C142.133 12.6236 141.781 12.9089 141.51 13.2627C141.24 13.6051 141.041 13.9931 140.911 14.4154C140.794 14.8377 140.723 15.2713 140.723 15.705V23.3173H136.742V8.09278Z" fill="#0E4B8C"/>
<path d="M146.514 2.35227H149.638L162.605 16.8235V2.35227H166.34V23.3059H163.216L150.272 8.84607V23.3173H146.514V2.35227Z" fill="#202F56"/>
<path d="M175.595 8.09278C176.817 8.09278 177.979 8.35527 179.06 8.88026C180.141 9.40524 181.057 10.1242 181.785 11.0601C182.537 11.9959 183.042 13.0345 183.288 14.1757C183.535 15.317 183.5 16.4697 183.171 17.6224H172.283C172.6 18.1588 173.035 18.581 173.575 18.9006C174.115 19.2201 174.691 19.4027 175.313 19.437C175.971 19.437 176.57 19.3343 177.11 19.1402C177.651 18.9348 178.132 18.5924 178.567 18.1017L181.62 20.5782C180.845 21.4798 179.929 22.1532 178.884 22.6211C177.827 23.089 176.734 23.3173 175.607 23.3173C175.008 23.3173 174.409 23.2488 173.81 23.1233C173.211 22.9977 172.647 22.7923 172.095 22.5184C171.285 22.1304 170.568 21.6282 169.957 21.0119C169.347 20.3842 168.853 19.6995 168.489 18.9348C168.125 18.1702 167.89 17.3713 167.796 16.5153C167.702 15.6594 167.761 14.8034 167.961 13.9475C168.172 13.0915 168.513 12.3041 168.994 11.5851C169.476 10.8661 170.051 10.2498 170.721 9.73621C171.39 9.21122 172.142 8.81178 172.988 8.52646C173.822 8.24115 174.691 8.09278 175.595 8.09278ZM178.907 13.7877C178.555 13.2171 178.073 12.772 177.498 12.4524C176.911 12.1329 176.288 11.9731 175.607 11.9731C174.926 11.9731 174.291 12.1329 173.716 12.4524C173.129 12.772 172.659 13.2171 172.306 13.7877H178.907Z" fill="#0E4B8C"/>
<path d="M18.514 26.7526C9.50535 26.5471 2.22329 25.3716 2.24678 24.1277C2.27027 23.3516 5.14786 22.7353 9.52884 22.4386V22.3245C3.98508 22.6098 0.179617 23.363 0.156126 24.3445C0.120891 25.7368 7.81404 27.0379 17.3277 27.2661C26.4655 27.483 33.959 26.6156 34.5815 25.3146C33.1133 26.3075 26.4655 26.9352 18.514 26.7526Z" fill="#939093"/>
<path d="M21.9084 14.6777L19.1248 19.6194C18.9838 19.8704 18.608 19.8476 18.5023 19.5851L11.0793 2.14657C10.9853 1.91832 11.1498 1.66724 11.3964 1.66724H16.2824C16.4234 1.66724 16.5526 1.74713 16.5996 1.88408L21.9202 14.3809C21.9671 14.4722 21.9554 14.5864 21.9084 14.6777Z" fill="#204A8A"/>
<path d="M30.6703 14.6776L27.8867 19.6193C27.7458 19.8704 27.3699 19.8475 27.2642 19.585L19.8412 2.14649C19.7472 1.91823 19.9117 1.66716 20.1583 1.66716H25.0443C25.1853 1.66716 25.3145 1.74705 25.3615 1.884L30.6821 14.3809C30.729 14.4722 30.7291 14.5863 30.6703 14.6776Z" fill="#204A8A"/>
<path d="M36.86 1.65604H31.9975C31.8683 1.65604 31.7509 1.72452 31.6921 1.83864L29.7659 5.26244C29.7072 5.35375 29.7072 5.46787 29.7542 5.57059L32.0093 10.8661C32.1267 11.14 32.5026 11.1514 32.6435 10.8889L37.1654 2.16961C37.2829 1.94136 37.1184 1.65604 36.86 1.65604Z" fill="#0299DB"/>
<path d="M38.0464 13.0117C37.9642 13.0687 37.9407 13.1829 37.9877 13.2628C39.8317 16.0589 40.4189 18.8093 39.3736 20.9891C37.0011 25.9194 26.9824 26.2504 17.0106 21.7081C7.0389 17.1773 0.884381 9.50799 3.25692 4.56631C4.33749 2.32943 7.01541 0.982731 10.5625 0.606113C10.6564 0.5947 10.7269 0.526224 10.7152 0.434923C10.7152 0.343622 10.6329 0.263733 10.539 0.263733C5.69994 0.297971 1.97669 1.7702 0.579004 4.66902C-2.08717 10.2042 4.70159 19.0147 15.8596 24.082C27.0176 29.1606 38.3283 28.5786 40.9945 23.0434C42.3569 20.2131 41.2176 16.5838 38.293 13.0459C38.2343 12.9774 38.1286 12.9546 38.0464 13.0117Z" fill="#0299DB"/>
<path d="M9.98694 3.60764L9.28223 1.72455C9.25874 1.6789 9.21176 1.64466 9.15303 1.65607C6.81572 2.29518 5.10091 3.47069 4.34922 5.15976C3.29214 7.51077 4.31398 10.4096 6.81572 13.1943C6.88619 13.2742 7.00365 13.1829 6.94492 13.103C5.40629 10.946 4.8895 8.76616 5.69992 6.94014C6.38115 5.43366 7.88454 4.36087 9.91647 3.756C9.9752 3.72176 10.0104 3.65329 9.98694 3.60764Z" fill="#204A8A"/>
<path d="M36.7544 12.5552C36.7544 12.5552 36.0732 11.5509 34.7107 10.2042C34.6755 10.1699 34.605 10.1699 34.5815 10.227L33.5949 12.0758C33.5832 12.1101 33.5832 12.1443 33.6067 12.1671C33.7476 12.3041 34.2527 12.8291 35.1101 14.0616C36.5195 16.173 37.0128 18.2843 36.3081 20.0533C35.5681 21.9136 33.6184 23.1005 30.964 23.5912C30.87 23.614 30.8818 23.751 30.9875 23.751C34.7694 23.4885 37.6001 22.119 38.5514 19.7337C39.3971 17.611 38.6571 15.0774 36.7544 12.5552Z" fill="#204A8A"/>
<path d="M137.31 37.29C137.31 38.1673 137.483 38.844 137.828 39.32C138.183 39.7867 138.724 40.02 139.452 40.02C139.769 40.02 140.082 39.9827 140.39 39.908C140.698 39.8333 141.067 39.7027 141.496 39.516L141.902 40.552C141.445 40.7573 141.011 40.9067 140.6 41C140.189 41.0933 139.793 41.14 139.41 41.14C138.309 41.14 137.473 40.7947 136.904 40.104C136.335 39.4133 136.05 38.4753 136.05 37.29V35.19C136.05 34.0047 136.335 33.0667 136.904 32.376C137.473 31.6853 138.309 31.34 139.41 31.34C139.793 31.34 140.189 31.3867 140.6 31.48C141.02 31.5733 141.445 31.7227 141.874 31.928L141.482 32.978C140.726 32.642 140.049 32.474 139.452 32.474C138.724 32.474 138.183 32.7073 137.828 33.174C137.483 33.6407 137.31 34.3127 137.31 35.19V37.29ZM148.102 37.108V37.948C148.102 38.9373 147.845 39.7167 147.332 40.286C146.828 40.8553 146.105 41.14 145.162 41.14C144.229 41.14 143.505 40.8553 142.992 40.286C142.479 39.7167 142.222 38.9373 142.222 37.948V37.108C142.222 36.1373 142.474 35.3673 142.978 34.798C143.491 34.2193 144.219 33.93 145.162 33.93C146.105 33.93 146.828 34.2193 147.332 34.798C147.845 35.3673 148.102 36.1373 148.102 37.108ZM146.912 37.108C146.912 36.4453 146.763 35.9273 146.464 35.554C146.165 35.1713 145.731 34.98 145.162 34.98C144.602 34.98 144.168 35.1713 143.86 35.554C143.561 35.9273 143.412 36.4453 143.412 37.108V37.948C143.412 38.6387 143.561 39.1707 143.86 39.544C144.168 39.9173 144.602 40.104 145.162 40.104C145.731 40.104 146.165 39.9173 146.464 39.544C146.763 39.1707 146.912 38.6387 146.912 37.948V37.108ZM152.82 35.008C152.559 35.008 152.251 35.0733 151.896 35.204C151.551 35.3347 151.131 35.6007 150.636 36.002V41H149.488V34.07H150.58V35.036C151.075 34.616 151.523 34.3267 151.924 34.168C152.335 34.0093 152.727 33.93 153.1 33.93C153.744 33.93 154.234 34.1353 154.57 34.546C154.916 34.9473 155.088 35.5213 155.088 36.268V41H153.94V36.436C153.94 35.484 153.567 35.008 152.82 35.008ZM158.48 40.118C159.414 40.118 159.88 39.8007 159.88 39.166C159.88 38.8953 159.796 38.6807 159.628 38.522C159.46 38.3633 159.152 38.228 158.704 38.116L157.934 37.92C157.365 37.78 156.94 37.5373 156.66 37.192C156.38 36.8373 156.24 36.4173 156.24 35.932C156.24 35.5773 156.32 35.2507 156.478 34.952C156.637 34.644 156.889 34.3967 157.234 34.21C157.58 34.0233 158.028 33.93 158.578 33.93C158.933 33.93 159.292 33.972 159.656 34.056C160.03 34.1307 160.408 34.2613 160.79 34.448L160.426 35.414C159.745 35.106 159.129 34.952 158.578 34.952C157.766 34.952 157.36 35.2553 157.36 35.862C157.36 36.0953 157.435 36.296 157.584 36.464C157.734 36.632 158.014 36.7673 158.424 36.87L159.194 37.066C159.81 37.2153 160.263 37.458 160.552 37.794C160.842 38.13 160.986 38.564 160.986 39.096C160.986 39.4787 160.902 39.8287 160.734 40.146C160.576 40.454 160.314 40.6967 159.95 40.874C159.596 41.0513 159.115 41.14 158.508 41.14C158.107 41.14 157.706 41.098 157.304 41.014C156.912 40.93 156.506 40.7947 156.086 40.608L156.394 39.656C156.796 39.8147 157.16 39.9313 157.486 40.006C157.813 40.0807 158.144 40.118 158.48 40.118ZM166.386 41V40.02C165.9 40.44 165.466 40.734 165.084 40.902C164.701 41.0607 164.318 41.14 163.936 41.14C163.32 41.14 162.848 40.9393 162.522 40.538C162.195 40.1273 162.032 39.5533 162.032 38.816V34.07H163.18V38.648C163.18 39.1333 163.264 39.4927 163.432 39.726C163.609 39.95 163.87 40.062 164.216 40.062C164.477 40.062 164.771 39.9967 165.098 39.866C165.424 39.7353 165.83 39.474 166.316 39.082V34.07H167.464V41H166.386ZM169.222 39.32V30.64H170.37V39.264C170.37 39.516 170.407 39.7073 170.482 39.838C170.566 39.9593 170.729 40.02 170.972 40.02H171.196V41.07H170.874C170.258 41.07 169.829 40.9067 169.586 40.58C169.343 40.2533 169.222 39.8333 169.222 39.32ZM176.035 40.748C175.513 41.0093 174.957 41.14 174.369 41.14C173.865 41.14 173.469 41.0373 173.179 40.832C172.899 40.6267 172.699 40.3513 172.577 40.006C172.465 39.6607 172.409 39.278 172.409 38.858V35.078H171.205V34.07H172.409V32.138H173.557V34.07H175.825V35.078H173.557V38.816C173.557 39.3013 173.637 39.6373 173.795 39.824C173.963 40.0013 174.22 40.09 174.565 40.09C174.733 40.09 174.906 40.0713 175.083 40.034C175.27 39.9873 175.471 39.9127 175.685 39.81L176.035 40.748ZM178.064 32.376H176.776V31.088H178.064V32.376ZM177.994 41H176.846V34.07H177.994V41ZM183.101 35.008C182.839 35.008 182.531 35.0733 182.177 35.204C181.831 35.3347 181.411 35.6007 180.917 36.002V41H179.769V34.07H180.861V35.036C181.355 34.616 181.803 34.3267 182.205 34.168C182.615 34.0093 183.007 33.93 183.381 33.93C184.025 33.93 184.515 34.1353 184.851 34.546C185.196 34.9473 185.369 35.5213 185.369 36.268V41H184.221V36.436C184.221 35.484 183.847 35.008 183.101 35.008ZM192.611 41.868C192.611 42.5493 192.331 43.0953 191.771 43.506C191.22 43.9167 190.459 44.122 189.489 44.122C189.003 44.122 188.495 44.0567 187.963 43.926C187.44 43.7953 186.945 43.5853 186.479 43.296L186.871 42.4C187.337 42.6613 187.785 42.8433 188.215 42.946C188.653 43.058 189.078 43.114 189.489 43.114C190.123 43.114 190.613 43.0113 190.959 42.806C191.304 42.6007 191.477 42.3253 191.477 41.98C191.477 41.728 191.393 41.532 191.225 41.392C191.057 41.2613 190.786 41.196 190.413 41.196H188.803C188.196 41.196 187.757 41.0513 187.487 40.762C187.216 40.4727 187.081 40.1553 187.081 39.81C187.081 39.5673 187.137 39.3293 187.249 39.096C187.361 38.8533 187.519 38.6153 187.725 38.382C187.398 38.186 187.137 37.92 186.941 37.584C186.745 37.2387 186.647 36.8233 186.647 36.338C186.647 35.806 186.759 35.3627 186.983 35.008C187.216 34.6533 187.524 34.3873 187.907 34.21C188.289 34.0233 188.719 33.93 189.195 33.93H189.433C189.759 33.93 190.058 33.9767 190.329 34.07H192.821V35.092L191.309 34.882C191.505 35.05 191.663 35.26 191.785 35.512C191.906 35.7547 191.967 36.0533 191.967 36.408C191.967 36.912 191.85 37.3367 191.617 37.682C191.393 38.0273 191.089 38.2933 190.707 38.48C190.324 38.6573 189.899 38.746 189.433 38.746H189.195C189.073 38.746 188.957 38.7413 188.845 38.732C188.733 38.7133 188.621 38.6947 188.509 38.676C188.238 38.9747 188.103 39.2687 188.103 39.558C188.103 39.9313 188.364 40.118 188.887 40.118H190.455C191.127 40.118 191.654 40.2673 192.037 40.566C192.419 40.8647 192.611 41.2987 192.611 41.868ZM189.433 37.752C189.797 37.752 190.119 37.6353 190.399 37.402C190.679 37.1687 190.819 36.814 190.819 36.338C190.819 35.8713 190.679 35.5213 190.399 35.288C190.119 35.0453 189.797 34.924 189.433 34.924H189.195C188.821 34.924 188.495 35.0453 188.215 35.288C187.935 35.5213 187.795 35.8713 187.795 36.338C187.795 36.814 187.935 37.1687 188.215 37.402C188.495 37.6353 188.821 37.752 189.195 37.752H189.433Z" fill="#0D4B8C"/>
</svg>
