<svg width="20" height="21" viewBox="0 0 20 21" fill="none" xmlns="http://www.w3.org/2000/svg">
<path d="M18.7208 20.3L15.6507 17.317C15.3224 17.5254 14.9673 17.6958 14.5854 17.8284C14.2033 17.961 13.8053 18.0273 13.3915 18.0273C12.4068 18.0273 11.562 17.6816 10.8572 16.9903C10.1524 16.299 9.80005 15.4704 9.80005 14.5045C9.80005 13.5386 10.1524 12.71 10.8572 12.0187C11.562 11.3275 12.4068 10.9818 13.3915 10.9818C14.3763 10.9818 15.221 11.3275 15.9258 12.0187C16.6306 12.71 16.983 13.5386 16.983 14.5045C16.983 14.9023 16.925 15.2953 16.8092 15.6835C16.6933 16.0718 16.5003 16.4174 16.2299 16.7204L19.3 19.7318L18.7208 20.3ZM13.3849 17.2318C14.1617 17.2318 14.8204 16.9688 15.361 16.4429C15.9017 15.9167 16.172 15.2728 16.172 14.5111C16.172 13.7491 15.9039 13.103 15.3677 12.5727C14.8313 12.0424 14.1748 11.7773 13.3982 11.7773C12.6214 11.7773 11.9627 12.0402 11.422 12.5662C10.8813 13.0923 10.611 13.7363 10.611 14.498C10.611 15.2599 10.8791 15.906 11.4153 16.4364C11.9517 16.9667 12.6082 17.2318 13.3849 17.2318ZM18.1415 9.16362H17.3305V3.36817C17.3305 3.1409 17.234 2.93256 17.0409 2.74317C16.8478 2.55378 16.6354 2.45908 16.4037 2.45908H13.5074V4.73181H4.9342V2.45908H2.03785C1.80615 2.45908 1.59375 2.55378 1.40066 2.74317C1.20757 2.93256 1.11102 3.1409 1.11102 3.36817V17.4591C1.11102 17.6864 1.20757 17.8947 1.40066 18.0841C1.59375 18.2735 1.80615 18.3682 2.03785 18.3682H7.65676V19.1636H2.03785C1.55996 19.1636 1.1509 18.9967 0.810674 18.6628C0.470257 18.3291 0.300049 17.9278 0.300049 17.4591V3.36817C0.300049 2.89942 0.470257 2.49809 0.810674 2.16419C1.1509 1.83048 1.55996 1.66362 2.03785 1.66362H7.56987C7.6471 1.28484 7.83536 0.962867 8.13465 0.697715C8.43394 0.432564 8.79598 0.299988 9.22078 0.299988C9.64558 0.299988 10.0076 0.432564 10.3069 0.697715C10.6062 0.962867 10.7945 1.28484 10.8717 1.66362H16.4037C16.8816 1.66362 17.2908 1.83048 17.6312 2.16419C17.9714 2.49809 18.1415 2.89942 18.1415 3.36817V9.16362ZM9.22599 2.79999C9.47353 2.79999 9.67937 2.71779 9.84349 2.5534C10.0076 2.38919 10.0897 2.18559 10.0897 1.9426C10.0897 1.6998 10.0059 1.4979 9.83828 1.33692C9.67087 1.17593 9.4633 1.09544 9.21557 1.09544C8.96803 1.09544 8.76219 1.17764 8.59807 1.34203C8.43394 1.50624 8.35188 1.70984 8.35188 1.95283C8.35188 2.19563 8.43568 2.39753 8.60328 2.55851C8.77069 2.7195 8.97826 2.79999 9.22599 2.79999Z" fill="black" stroke="black" stroke-width="0.6"/>
</svg>
