<svg width="14" height="19" viewBox="0 0 14 19" fill="none" xmlns="http://www.w3.org/2000/svg">
<path d="M0.300049 17.7V5.59999C0.300049 5.18332 0.445882 4.82915 0.737549 4.53749C1.02922 4.24582 1.38338 4.09999 1.80005 4.09999H8.57505C8.99172 4.09999 9.34588 4.24582 9.63755 4.53749C9.92922 4.82915 10.075 5.18332 10.075 5.59999V17.7L5.20005 15.15L0.300049 17.7ZM1.00005 16.525L5.20005 14.35L9.37505 16.525V5.59999C9.37505 5.36665 9.30005 5.17499 9.15005 5.02499C9.00005 4.87499 8.80838 4.79999 8.57505 4.79999H1.80005C1.56672 4.79999 1.37505 4.87499 1.22505 5.02499C1.07505 5.17499 1.00005 5.36665 1.00005 5.59999V16.525ZM13 14.275V1.79999C13 1.56665 12.925 1.37499 12.775 1.22499C12.625 1.07499 12.4334 0.999988 12.2 0.999988H3.02505V0.299988H12.2C12.6167 0.299988 12.9709 0.445821 13.2625 0.737488C13.5542 1.02915 13.7 1.38332 13.7 1.79999V14.275H13Z" fill="black"/>
<path d="M1.00005 4.79999H9.37505M0.300049 17.7V5.59999C0.300049 5.18332 0.445882 4.82915 0.737549 4.53749C1.02922 4.24582 1.38338 4.09999 1.80005 4.09999H8.57505C8.99172 4.09999 9.34588 4.24582 9.63755 4.53749C9.92922 4.82915 10.075 5.18332 10.075 5.59999V17.7L5.20005 15.15L0.300049 17.7ZM1.00005 16.525L5.20005 14.35L9.37505 16.525V5.59999C9.37505 5.36665 9.30005 5.17499 9.15005 5.02499C9.00005 4.87499 8.80838 4.79999 8.57505 4.79999H1.80005C1.56672 4.79999 1.37505 4.87499 1.22505 5.02499C1.07505 5.17499 1.00005 5.36665 1.00005 5.59999V16.525ZM13 14.275V1.79999C13 1.56665 12.925 1.37499 12.775 1.22499C12.625 1.07499 12.4334 0.999988 12.2 0.999988H3.02505V0.299988H12.2C12.6167 0.299988 12.9709 0.445821 13.2625 0.737488C13.5542 1.02915 13.7 1.38332 13.7 1.79999V14.275H13Z" stroke="black" stroke-width="0.6"/>
</svg>
