<svg width="18" height="18" viewBox="0 0 18 18" fill="none" xmlns="http://www.w3.org/2000/svg">
<path d="M7.24797 12.1833L13.1896 6.24165L12.7105 5.76249L7.24797 11.225L4.51672 8.49374L4.03755 8.9729L7.24797 12.1833ZM8.64162 16.975C7.48891 16.975 6.40495 16.7562 5.38976 16.3188C4.37456 15.8813 3.49154 15.2875 2.74068 14.5375C1.98967 13.7874 1.39518 12.9055 0.957226 11.8917C0.519108 10.8778 0.300049 9.79444 0.300049 8.64156C0.300049 7.48885 0.518788 6.40489 0.956268 5.3897C1.39375 4.3745 1.98751 3.49148 2.73757 2.74062C3.48763 1.98961 4.36953 1.39512 5.38329 0.957165C6.39721 0.519047 7.4806 0.299988 8.63348 0.299988C9.78619 0.299988 10.8701 0.518728 11.8853 0.956207C12.9005 1.39369 13.7836 1.98745 14.5344 2.73751C15.2854 3.48756 15.8799 4.36947 16.3179 5.38323C16.756 6.39714 16.975 7.48054 16.975 8.63341C16.975 9.78613 16.7563 10.8701 16.3188 11.8853C15.8814 12.9005 15.2876 13.7835 14.5375 14.5344C13.7875 15.2854 12.9056 15.8799 11.8918 16.3178C10.8779 16.7559 9.7945 16.975 8.64162 16.975ZM8.63755 16.3042C10.7778 16.3042 12.5907 15.5614 14.0761 14.076C15.5615 12.5906 16.3042 10.7778 16.3042 8.63749C16.3042 6.49721 15.5615 4.68436 14.0761 3.19895C12.5907 1.71353 10.7778 0.970821 8.63755 0.970821C6.49727 0.970821 4.68442 1.71353 3.19901 3.19895C1.71359 4.68436 0.970882 6.49721 0.970882 8.63749C0.970882 10.7778 1.71359 12.5906 3.19901 14.076C4.68442 15.5614 6.49727 16.3042 8.63755 16.3042Z" fill="black" stroke="black" stroke-width="0.6"/>
</svg>
