<svg width="29" height="36" viewBox="0 0 29 36" fill="none" xmlns="http://www.w3.org/2000/svg">
<path d="M14.5 36C12.3975 34.2928 10.1266 32.8398 7.68745 31.6408C5.24858 30.4418 2.68609 29.7392 0 29.5331V13.5518C2.80105 13.7325 5.4117 14.5086 7.83196 15.8802C10.2525 17.2518 12.4752 18.8377 14.5 20.6377C16.5248 18.8377 18.7475 17.2518 21.168 15.8802C23.5883 14.5086 26.199 13.7325 29 13.5518V29.5331C26.3087 29.7392 23.7449 30.4418 21.3086 31.6408C18.872 32.8398 16.6025 34.2928 14.5 36ZM14.5 33.9305C16.4268 32.4815 18.4679 31.2318 20.6233 30.1817C22.7787 29.1315 25.0484 28.437 27.4324 28.0981V15.4086C24.7094 15.8779 22.2822 16.8427 20.1506 18.3032C18.019 19.764 16.1355 21.3337 14.5 23.0123C12.8645 21.3337 10.981 19.764 8.84941 18.3032C6.71784 16.8427 4.29056 15.8779 1.56757 15.4086V28.0981C3.95158 28.4035 6.22128 29.0896 8.37669 30.1565C10.5321 31.2235 12.5732 32.4815 14.5 33.9305ZM14.5 13.7997C12.6284 13.7997 11.0401 13.1299 9.73509 11.7905C8.43009 10.4507 7.77758 8.8205 7.77758 6.89983C7.77758 4.97883 8.43009 3.3486 9.73509 2.00916C11.0401 0.669722 12.6284 0 14.5 0C16.3716 0 17.9599 0.669722 19.2649 2.00916C20.5699 3.3486 21.2224 4.97883 21.2224 6.89983C21.2224 8.8205 20.5699 10.4507 19.2649 11.7905C17.9599 13.1299 16.3716 13.7997 14.5 13.7997ZM14.5015 12.1907C15.9195 12.1907 17.1329 11.6725 18.1417 10.6361C19.1505 9.59966 19.6548 8.35374 19.6548 6.89832C19.6548 5.44291 19.15 4.19749 18.1402 3.16207C17.1304 2.12665 15.9165 1.60894 14.4985 1.60894C13.0805 1.60894 11.8671 2.12698 10.8583 3.16307C9.84955 4.1995 9.34515 5.44542 9.34515 6.90084C9.34515 8.35626 9.85004 9.60168 10.8598 10.6371C11.8696 11.6728 13.0835 12.1907 14.5015 12.1907Z" fill="#333333"/>
</svg>
