<svg width="24" height="24" viewBox="0 0 24 24" fill="none" xmlns="http://www.w3.org/2000/svg">
<path d="M13.2998 19.7498V17.6998H11.4998C9.4998 17.6998 7.7998 16.9998 6.3998 15.5998C4.9998 14.1998 4.2998 12.4998 4.2998 10.4998C4.2998 8.4998 4.9998 6.7998 6.3998 5.3998C7.7998 3.9998 9.4998 3.2998 11.4998 3.2998C12.4998 3.2998 13.4373 3.4873 14.3123 3.8623C15.1873 4.2373 15.9498 4.7498 16.5998 5.3998C17.2498 6.0498 17.7623 6.8123 18.1373 7.6873C18.5123 8.5623 18.6998 9.4998 18.6998 10.4998C18.6998 11.4498 18.5665 12.3623 18.2998 13.2373C18.0331 14.1123 17.6623 14.9456 17.1873 15.7373C16.7123 16.529 16.1415 17.2623 15.4748 17.9373C14.8081 18.6123 14.0831 19.2165 13.2998 19.7498ZM13.9998 18.3498C15.1831 17.3498 16.1456 16.179 16.8873 14.8373C17.629 13.4956 17.9998 12.0498 17.9998 10.4998C17.9998 8.68314 17.3706 7.14564 16.1123 5.8873C14.854 4.62897 13.3165 3.9998 11.4998 3.9998C9.68314 3.9998 8.14564 4.62897 6.8873 5.8873C5.62897 7.14564 4.9998 8.68314 4.9998 10.4998C4.9998 12.3165 5.62897 13.854 6.8873 15.1123C8.14564 16.3706 9.68314 16.9998 11.4998 16.9998H13.9998V18.3498ZM12.0123 15.2623C12.1373 15.1373 12.1998 14.9831 12.1998 14.7998C12.1998 14.6165 12.1373 14.4623 12.0123 14.3373C11.8873 14.2123 11.7331 14.1498 11.5498 14.1498C11.3665 14.1498 11.2123 14.2123 11.0873 14.3373C10.9623 14.4623 10.8998 14.6165 10.8998 14.7998C10.8998 14.9831 10.9623 15.1373 11.0873 15.2623C11.2123 15.3873 11.3665 15.4498 11.5498 15.4498C11.7331 15.4498 11.8873 15.3873 12.0123 15.2623ZM11.1998 12.5998H11.8998C11.9331 12.2165 12.0206 11.8998 12.1623 11.6498C12.304 11.3998 12.6165 11.0331 13.0998 10.5498C13.3831 10.2665 13.604 9.98314 13.7623 9.6998C13.9206 9.41647 13.9998 9.08314 13.9998 8.6998C13.9998 8.01647 13.7623 7.47064 13.2873 7.0623C12.8123 6.65397 12.2331 6.4498 11.5498 6.4498C10.9665 6.4498 10.4706 6.60814 10.0623 6.9248C9.65397 7.24147 9.3498 7.61647 9.1498 8.0498L9.7998 8.2998C9.9498 7.9998 10.1581 7.73314 10.4248 7.4998C10.6915 7.26647 11.0665 7.1498 11.5498 7.1498C12.1498 7.1498 12.5915 7.3123 12.8748 7.6373C13.1581 7.9623 13.2998 8.31647 13.2998 8.6998C13.2998 9.0498 13.2123 9.34147 13.0373 9.5748C12.8623 9.80814 12.6331 10.0665 12.3498 10.3498C11.8998 10.7498 11.5956 11.1248 11.4373 11.4748C11.279 11.8248 11.1998 12.1998 11.1998 12.5998Z" fill="#333333" stroke="#333333" stroke-width="0.6"/>
</svg>
