<svg width="30" height="28" viewBox="0 0 30 28" fill="none" xmlns="http://www.w3.org/2000/svg">
<path d="M1.53833 24.6667V1.53834V20.2629V16.9325V24.6667ZM2.56417 26.205C1.84361 26.205 1.23611 25.9578 0.741667 25.4633C0.247222 24.9689 0 24.364 0 23.6488V2.55625C0 1.84097 0.247222 1.23611 0.741667 0.741669C1.23611 0.247224 1.84097 0 2.55625 0H23.6487C24.364 0 24.9689 0.247224 25.4633 0.741669C25.9578 1.23611 26.205 1.84361 26.205 2.56417V15.91H24.6667V2.56417C24.6667 2.30778 24.5599 2.07264 24.3462 1.85875C24.1324 1.64514 23.8972 1.53834 23.6408 1.53834H2.56417C2.30778 1.53834 2.07264 1.64514 1.85875 1.85875C1.64514 2.07264 1.53833 2.30778 1.53833 2.56417V23.6408C1.53833 23.8972 1.64514 24.1324 1.85875 24.3463C2.07264 24.5599 2.30778 24.6667 2.56417 24.6667H13.0896V26.205H2.56417ZM21.7771 27.8463L17.3604 23.4408L18.4471 22.3588L21.7771 25.6892L28.4421 19.0288L29.545 20.1154L21.7771 27.8463ZM6.705 14.3125C7.05 14.3125 7.34056 14.1971 7.57667 13.9663C7.81278 13.7354 7.93083 13.4475 7.93083 13.1025C7.93083 12.7575 7.81278 12.4669 7.57667 12.2308C7.34056 11.9947 7.05 11.8767 6.705 11.8767C6.36 11.8767 6.07208 11.9947 5.84125 12.2308C5.61042 12.4669 5.495 12.7575 5.495 13.1025C5.495 13.4475 5.61042 13.7354 5.84125 13.9663C6.07208 14.1971 6.36 14.3125 6.705 14.3125ZM6.705 8.1075C7.05 8.1075 7.34056 7.99208 7.57667 7.76125C7.81278 7.53042 7.93083 7.2425 7.93083 6.8975C7.93083 6.55222 7.81278 6.26153 7.57667 6.02542C7.34056 5.78931 7.05 5.67125 6.705 5.67125C6.36 5.67125 6.07208 5.78931 5.84125 6.02542C5.61042 6.26153 5.495 6.55222 5.495 6.8975C5.495 7.2425 5.61042 7.53042 5.84125 7.76125C6.07208 7.99208 6.36 8.1075 6.705 8.1075ZM11.7821 13.8588H20.6025V12.3204H11.7821V13.8588ZM11.7821 7.67958H20.6025V6.14083H11.7821V7.67958Z" fill="#333333"/>
</svg>
