<svg width="361" height="185" viewBox="0 0 361 185" fill="none" xmlns="http://www.w3.org/2000/svg">
<rect x="0.404" y="0.404" width="360.192" height="184.192" rx="6.06" fill="white"/>
<rect x="0.404" y="0.404" width="360.192" height="184.192" rx="6.06" stroke="#C3C3C3" stroke-width="0.808"/>
<path d="M42.1406 21.7211V23.0649C42.1406 24.8461 42.1406 26.8461 41.5625 29.8618L39.5625 29.6586C40.1016 26.9711 40.125 24.9711 40.1406 23.2993H31.7656V21.7211H42.1406ZM43.3906 31.3461V32.9711H30.4219V31.3461H35.0625V26.4555H37.0469V31.3461H43.3906ZM56.4688 20.5024V28.8305H54.5781V25.393H53.2969V28.768H51.4219V20.7524H53.2969V23.768H54.5781V20.5024H56.4688ZM56.4688 29.3774V34.7055H54.4844V30.9868H46.5469V29.3774H56.4688ZM50.4531 21.4711C50.4531 25.0493 48.7344 27.4555 45.0312 28.9243L44.0938 27.4399C46.7734 26.4555 48.1172 24.9868 48.4219 23.0649H44.7812V21.4711H50.4531ZM70.2969 20.4868V31.1274H68.4062V20.4868H70.2969ZM67.4219 20.7055V30.7055H65.5312V25.3618H63.7969V23.7368H65.5312V20.7055H67.4219ZM70.6562 32.8618V34.4555H60.6562V29.8774H62.6562V32.8618H70.6562ZM62.5625 23.2993C62.5625 24.9399 63.2656 26.5649 65.0938 27.4086L63.9844 28.9399C62.8438 28.4008 62.0781 27.5102 61.6094 26.4243C61.1094 27.6586 60.2578 28.6977 59 29.2836L57.9062 27.768C59.8438 26.8305 60.625 24.9868 60.625 23.2993V21.4399H62.5625V23.2993ZM83.9062 20.4868V34.7368H81.9375V27.1118H79.4375V25.5024H81.9375V20.4868H83.9062ZM79.2031 21.6743V23.2836H74.5469V25.643H78.6875V27.2055H74.5469V29.893C76.5156 29.8774 78.0938 29.8071 79.8594 29.5336L80.0625 31.1274C77.9844 31.4399 76.125 31.518 73.6875 31.518H72.5625V21.6743H79.2031Z" fill="black"/>
<path d="M37.9219 65.9664C33.6797 65.9664 31.1016 62.8023 31.1016 57.2476C31.1016 51.6929 33.6797 48.5289 37.9219 48.5289C42.1641 48.5289 44.7422 51.7164 44.7422 57.2476C44.7422 62.8257 42.1641 65.9664 37.9219 65.9664ZM37.9219 63.0601C39.8906 63.0601 41.1562 61.1617 41.1328 57.2476C41.1328 53.3804 39.8906 51.4117 37.9219 51.4117C35.9531 51.4117 34.7109 53.3804 34.7109 57.2476C34.6875 61.1617 35.9531 63.0601 37.9219 63.0601ZM47.1797 65.732L47.1562 63.1773L53.25 57.5757C54.8438 56.0523 55.6875 55.1148 55.6875 53.7789C55.6875 52.2789 54.5391 51.3414 52.9922 51.3414C51.3984 51.3414 50.3672 52.3492 50.3672 53.9664H47.0156C46.9922 50.6382 49.4531 48.5289 53.0391 48.5289C56.6719 48.5289 59.0859 50.5914 59.0859 53.5445C59.0859 55.4664 58.1484 57.0601 54.6562 60.2242L52.0781 62.732V62.8257H59.3203V65.732H47.1797ZM69.75 55.8648V58.6304H62.0156V55.8648H69.75ZM79.1719 65.9664C75.6562 65.9429 72.3281 63.857 72.3281 57.6461C72.3281 51.9273 75.0703 48.5289 79.3125 48.5289C82.7344 48.5289 85.0547 50.6851 85.4062 53.4742H81.9375C81.6562 52.2789 80.6719 51.5523 79.3125 51.5523C77.0156 51.5523 75.7969 53.6382 75.7734 56.9664H75.9375C76.7109 55.4664 78.3984 54.5757 80.2734 54.5757C83.3203 54.5757 85.5938 56.8726 85.5938 60.0601C85.5938 63.5054 82.9922 65.9898 79.1719 65.9664ZM79.1484 63.1773C80.8828 63.1773 82.1719 61.8648 82.1719 60.1539C82.1719 58.4664 80.9297 57.1304 79.1953 57.1304C77.4609 57.1304 76.1484 58.4898 76.125 60.1539C76.1484 61.8179 77.4141 63.1773 79.1484 63.1773ZM94.2188 48.5289C97.7344 48.5523 101.062 50.6382 101.062 56.8023C101.086 62.5679 98.3438 65.9664 94.0781 65.9664C90.6562 65.9664 88.3359 63.8336 87.9844 60.9507H91.4531C91.7344 62.1929 92.7188 62.9429 94.0781 62.9429C96.3984 62.9429 97.6172 60.8804 97.6172 57.482H97.4766C96.6797 58.982 95.0156 59.8726 93.1172 59.8726C90.0703 59.8726 87.8203 57.5757 87.7969 54.4117C87.7969 50.9898 90.375 48.5054 94.2188 48.5289ZM94.2422 51.2945C92.5078 51.2945 91.2188 52.6304 91.2422 54.3179C91.2422 55.982 92.4844 57.2945 94.2188 57.2945C95.9297 57.2945 97.2656 55.9351 97.2656 54.2945C97.2422 52.6773 95.9766 51.2945 94.2422 51.2945ZM109.688 65.9664C106.148 65.9664 103.57 63.8804 103.5 60.9507H106.922C106.992 62.2867 108.211 63.1773 109.688 63.1773C111.445 63.1773 112.688 61.9351 112.688 60.1773C112.688 58.3726 111.422 57.1304 109.641 57.107C108.375 57.107 107.484 57.5757 106.969 58.5367H103.781L104.695 48.7632H115.148V51.6461H107.602L107.133 55.9351H107.273C107.906 55.0914 109.172 54.5054 110.672 54.5054C113.789 54.5054 116.109 56.8257 116.109 60.0836C116.109 63.5054 113.508 65.9664 109.688 65.9664ZM124.781 65.9664C121.055 65.9664 118.383 63.9039 118.312 60.9507H121.875C121.945 62.2164 123.164 63.0601 124.805 63.0601C126.492 63.0601 127.711 62.0992 127.688 60.7398C127.711 59.357 126.469 58.3726 124.477 58.3726H122.906V55.7711H124.477C126.141 55.7711 127.312 54.857 127.312 53.5211C127.312 52.232 126.328 51.3414 124.828 51.3414C123.328 51.3414 122.086 52.1851 122.039 53.4742H118.664C118.711 50.5445 121.359 48.5289 124.828 48.5289C128.367 48.5289 130.734 50.6148 130.711 53.3101C130.734 55.2086 129.398 56.5679 127.5 56.8961V57.0367C129.984 57.3414 131.367 58.8648 131.344 60.9742C131.367 63.8804 128.602 65.9664 124.781 65.9664ZM141.75 55.8648V58.6304H134.016V55.8648H141.75ZM144.117 65.732L144.094 63.1773L150.188 57.5757C151.781 56.0523 152.625 55.1148 152.625 53.7789C152.625 52.2789 151.477 51.3414 149.93 51.3414C148.336 51.3414 147.305 52.3492 147.305 53.9664H143.953C143.93 50.6382 146.391 48.5289 149.977 48.5289C153.609 48.5289 156.023 50.5914 156.023 53.5445C156.023 55.4664 155.086 57.0601 151.594 60.2242L149.016 62.732V62.8257H156.258V65.732H144.117ZM158.109 62.732V59.9429L165.281 48.7632H169.711V59.8961H171.867V62.732H169.711V65.732H166.359V62.732H158.109ZM161.672 59.8961H166.406V52.6304H166.242L161.672 59.7554V59.8961ZM180.398 65.9664C176.859 65.9664 174.281 63.8804 174.211 60.9507H177.633C177.703 62.2867 178.922 63.1773 180.398 63.1773C182.156 63.1773 183.398 61.9351 183.398 60.1773C183.398 58.3726 182.133 57.1304 180.352 57.107C179.086 57.107 178.195 57.5757 177.68 58.5367H174.492L175.406 48.7632H185.859V51.6461H178.312L177.844 55.9351H177.984C178.617 55.0914 179.883 54.5054 181.383 54.5054C184.5 54.5054 186.82 56.8257 186.82 60.0836C186.82 63.5054 184.219 65.9664 180.398 65.9664ZM189.211 65.732L189.188 63.1773L195.281 57.5757C196.875 56.0523 197.719 55.1148 197.719 53.7789C197.719 52.2789 196.57 51.3414 195.023 51.3414C193.43 51.3414 192.398 52.3492 192.398 53.9664H189.047C189.023 50.6382 191.484 48.5289 195.07 48.5289C198.703 48.5289 201.117 50.5914 201.117 53.5445C201.117 55.4664 200.18 57.0601 196.688 60.2242L194.109 62.732V62.8257H201.352V65.732H189.211Z" fill="#00619E"/>
<path d="M43.6758 84.4937V93.7222H42.0059V92.9664H38.9297V91.9117H42.0059V84.4937H43.6758ZM30.5449 90.2945C33.5859 90.3121 37.4531 90.2769 40.8457 89.9078L40.9336 90.98C39.4482 91.1822 37.9102 91.3052 36.3984 91.3843V93.7574H34.7461V91.4547C33.3223 91.4898 31.9688 91.4986 30.7383 91.4898L30.5449 90.2945ZM43.6758 94.2496V97.6422H34.6055V98.855H44.1504V100.068H32.9707V96.5347H42.0234V95.4097H32.9004V94.2496H43.6758ZM35.6602 84.7574C37.998 84.7574 39.5801 85.689 39.5977 87.1304C39.5801 88.607 37.998 89.4859 35.6602 89.4859C33.2695 89.4859 31.7051 88.607 31.7227 87.1304C31.7051 85.689 33.2695 84.7574 35.6602 84.7574ZM35.6602 85.8824C34.2012 85.8824 33.2871 86.3746 33.2871 87.1304C33.2871 87.8863 34.2012 88.3609 35.6602 88.3609C37.084 88.3609 38.0156 87.8863 38.0156 87.1304C38.0156 86.3746 37.084 85.8824 35.6602 85.8824ZM52.3242 91.5601V93.1773H46.6816V91.5601H52.3242ZM66.6152 85.2672V86.4625C66.6152 87.7017 66.6152 89.108 66.2109 91.0152H68.4434V92.3863H54.0293V91.0152H64.5234C64.9453 89.1783 64.9629 87.8336 64.9629 86.6382H55.8398V85.2672H66.6152ZM66.6328 94.3902V100.033H55.7871V94.3902H66.6328ZM57.4219 95.7086V98.6793H64.9805V95.7086H57.4219Z" fill="#333333"/>
<path d="M43.7109 115.476V124.652H42.041V120.697H39.0879V119.308H42.041V115.476H43.7109ZM43.7109 125.39V131.033H33.3223V125.39H43.7109ZM34.9746 126.709V129.679H42.0762V126.709H34.9746ZM36.2227 118.166C36.2227 120.134 37.6465 122.086 40.0195 122.912L39.1582 124.23C37.3916 123.606 36.082 122.34 35.3965 120.785C34.7109 122.516 33.3311 123.905 31.459 124.564L30.5977 123.246C33.0234 122.419 34.5176 120.328 34.5176 118.166V117.796H31.1074V116.425H39.5977V117.796H36.2227V118.166ZM59.1973 115.494V124.406H57.5273V115.494H59.1973ZM59.1973 125.25V131.033H48.8438V125.25H59.1973ZM50.4961 126.586V129.679H57.5625V126.586H50.4961ZM51.8672 117.621C51.8496 119.748 53.3789 121.664 55.7695 122.472L54.9434 123.755C53.1152 123.149 51.7441 121.901 51.0234 120.275C50.3203 122.006 48.9229 123.386 47.0332 124.054L46.207 122.736C48.668 121.91 50.1621 119.818 50.1621 117.621V116.091H51.8672V117.621ZM67.4766 119.484C67.459 122.367 69.1992 125.25 71.6426 126.339L70.6406 127.658C68.8301 126.796 67.3975 125.03 66.668 122.877C65.9297 125.179 64.4795 127.086 62.5898 128.009L61.5703 126.603C64.0488 125.496 65.7891 122.49 65.7891 119.484V116.794H67.4766V119.484ZM74.7363 115.476V131.261H73.0664V115.476H74.7363ZM89.625 115.476V120.134H91.9102V121.523H89.625V126.919H87.9375V115.476H89.625ZM85.3535 116.671C85.3535 120.802 82.541 123.808 77.9355 125.197L77.2324 123.861C80.915 122.753 83.209 120.662 83.543 118.06H77.9004V116.671H85.3535ZM90.2754 129.539V130.892H79.623V125.742H81.3105V129.539H90.2754Z" fill="#333333"/>
<path d="M44.9414 155.353V156.707H38.543V162.209H36.9082V156.707H30.5801V155.353H44.9414ZM43.5879 147.408V148.744H38.7188C38.7451 150.695 41.1709 152.435 44.1504 152.839L43.5352 154.158C40.9512 153.753 38.7188 152.479 37.7695 150.677C36.7939 152.479 34.5703 153.753 32.0215 154.158L31.3887 152.839C34.333 152.435 36.7588 150.695 36.8203 148.744H31.916V147.408H43.5879ZM58.5117 146.476V149.763H60.7969V151.152H58.5117V154.439H56.8418V146.476H58.5117ZM54.1172 147.32V153.701H46.752V147.32H54.1172ZM48.3867 148.656V152.365H52.4824V148.656H48.3867ZM58.5117 155.16V159.15H50.0039V160.697H59.0566V162.033H48.3691V157.902H56.8594V156.461H48.334V155.16H58.5117ZM67.1074 147.408L63.0117 162.648H61.3418L65.4375 147.408H67.1074ZM75.0352 156.373C78.4453 156.373 80.5898 157.445 80.6074 159.291C80.5898 161.119 78.4453 162.209 75.0352 162.191C71.6602 162.209 69.498 161.119 69.498 159.291C69.498 157.445 71.6602 156.373 75.0352 156.373ZM75.0352 157.638C72.6445 157.638 71.1504 158.253 71.168 159.291C71.1504 160.31 72.6445 160.908 75.0352 160.908C77.4434 160.908 78.9375 160.31 78.9551 159.291C78.9375 158.253 77.4434 157.638 75.0352 157.638ZM80.4844 147.25V148.568C80.4844 149.834 80.4844 151.134 80.0449 152.752L78.4102 152.576C78.832 150.967 78.832 149.807 78.832 148.586H69.6211V147.25H80.4844ZM82.2773 153.718V155.072H67.9512V153.718H73.6992V150.765H75.334V153.718H82.2773ZM97.043 148.164V149.5H84.2285V148.164H89.8359V146.406H91.4883V148.164H97.043ZM97.9043 156.548V157.902H94.2656V162.244H92.5781V157.902H88.7812V162.244H87.1113V157.902H83.4902V156.548H97.9043ZM90.6621 150.308C93.9316 150.308 95.9004 151.24 95.9004 152.945C95.9004 154.632 93.9316 155.582 90.6621 155.582C87.375 155.582 85.4062 154.632 85.4238 152.945C85.4062 151.24 87.375 150.308 90.6621 150.308ZM90.6621 151.574C88.3945 151.591 87.1465 152.048 87.1465 152.945C87.1465 153.824 88.3945 154.298 90.6621 154.298C92.9121 154.298 94.1602 153.824 94.1777 152.945C94.1602 152.048 92.9121 151.591 90.6621 151.574ZM103.512 147.003C105.885 147.021 107.625 148.48 107.643 150.537C107.625 152.611 105.885 154.052 103.512 154.052C101.121 154.052 99.3633 152.611 99.3633 150.537C99.3633 148.48 101.121 147.021 103.512 147.003ZM103.512 148.41C102.053 148.392 100.98 149.253 100.998 150.537C100.98 151.837 102.053 152.699 103.512 152.699C104.953 152.699 106.025 151.837 106.025 150.537C106.025 149.253 104.953 148.392 103.512 148.41ZM112.107 146.476V154.492H110.438V146.476H112.107ZM112.107 155.212V159.185H103.424V160.697H112.635V162.033H101.807V157.937H110.455V156.548H101.754V155.212H112.107ZM132.551 148.164V149.5H119.736V148.164H125.344V146.406H126.996V148.164H132.551ZM133.412 156.548V157.902H129.773V162.244H128.086V157.902H124.289V162.244H122.619V157.902H118.998V156.548H133.412ZM126.17 150.308C129.439 150.308 131.408 151.24 131.408 152.945C131.408 154.632 129.439 155.582 126.17 155.582C122.883 155.582 120.914 154.632 120.932 152.945C120.914 151.24 122.883 150.308 126.17 150.308ZM126.17 151.574C123.902 151.591 122.654 152.048 122.654 152.945C122.654 153.824 123.902 154.298 126.17 154.298C128.42 154.298 129.668 153.824 129.686 152.945C129.668 152.048 128.42 151.591 126.17 151.574ZM148.951 155.511V156.865H142.518V162.209H140.883V156.865H134.537V155.511H148.951ZM147.141 147.32V153.507H136.348V147.32H147.141ZM137.982 148.656V152.207H145.471V148.656H137.982Z" fill="#333333"/>
<path d="M112.507 98.9078C109.553 98.9078 107.831 96.5347 107.831 92.3687C107.831 88.2379 109.589 85.8297 112.507 85.8297C115.425 85.8297 117.182 88.2379 117.182 92.3687C117.182 96.5347 115.442 98.9078 112.507 98.9078ZM112.507 97.2379C114.229 97.2379 115.249 95.5504 115.249 92.3687C115.249 89.2047 114.212 87.4644 112.507 87.4644C110.802 87.4644 109.764 89.2047 109.764 92.3687C109.764 95.5504 110.784 97.2379 112.507 97.2379ZM123.563 85.8297C125.901 85.8472 128.362 87.2535 128.362 91.9117C128.362 96.3765 126.446 98.9078 123.387 98.9078C121.05 98.9078 119.397 97.4664 119.098 95.3922H121.014C121.278 96.4644 122.104 97.2203 123.387 97.2203C125.356 97.2203 126.499 95.4976 126.516 92.5972H126.358C125.673 93.6695 124.477 94.3199 123.106 94.3199C120.821 94.3199 118.993 92.5797 118.993 90.1363C118.993 87.7105 120.803 85.8121 123.563 85.8297ZM123.563 87.4468C122.016 87.4468 120.874 88.6422 120.874 90.1011C120.874 91.5777 121.981 92.7379 123.528 92.7379C125.057 92.7379 126.253 91.4898 126.253 90.0836C126.253 88.7125 125.128 87.4468 123.563 87.4468ZM131.649 97.0972C130.964 97.0972 130.384 96.5347 130.401 95.8492C130.384 95.1636 130.964 94.6011 131.649 94.6011C132.317 94.6011 132.897 95.1636 132.897 95.8492C132.897 96.5347 132.317 97.0972 131.649 97.0972ZM131.649 90.1539C130.964 90.1539 130.384 89.5914 130.401 88.9058C130.384 88.2203 130.964 87.6578 131.649 87.6578C132.317 87.6578 132.897 88.2203 132.897 88.9058C132.897 89.5914 132.317 90.1539 131.649 90.1539ZM139.577 98.9078C136.624 98.9078 134.901 96.5347 134.901 92.3687C134.901 88.2379 136.659 85.8297 139.577 85.8297C142.495 85.8297 144.253 88.2379 144.253 92.3687C144.253 96.5347 142.512 98.9078 139.577 98.9078ZM139.577 97.2379C141.3 97.2379 142.319 95.5504 142.319 92.3687C142.319 89.2047 141.282 87.4644 139.577 87.4644C137.872 87.4644 136.835 89.2047 136.835 92.3687C136.835 95.5504 137.854 97.2379 139.577 97.2379ZM150.686 98.9078C147.733 98.9078 146.01 96.5347 146.01 92.3687C146.01 88.2379 147.768 85.8297 150.686 85.8297C153.604 85.8297 155.362 88.2379 155.362 92.3687C155.362 96.5347 153.622 98.9078 150.686 98.9078ZM150.686 97.2379C152.409 97.2379 153.428 95.5504 153.428 92.3687C153.428 89.2047 152.391 87.4644 150.686 87.4644C148.981 87.4644 147.944 89.2047 147.944 92.3687C147.944 95.5504 148.964 97.2379 150.686 97.2379ZM162.323 92.0347C162.903 91.3843 163.624 91.0504 164.415 91.0504C165.786 91.0504 166.999 92.0523 168.335 92.0523C169.143 92.0523 169.846 91.7007 170.391 90.9976V92.6851C169.794 93.3355 169.091 93.6695 168.3 93.6695C166.928 93.6695 165.698 92.6675 164.362 92.6675C163.571 92.6675 162.885 93.0191 162.323 93.7222V92.0347ZM182.432 86.0054V98.732H180.481V87.939H180.411L177.37 89.9254V88.0797L180.534 86.0054H182.432ZM190.114 98.9078C187.354 98.9078 185.421 97.4136 185.438 95.3394C185.421 93.7047 186.598 92.3687 188.093 92.1402V92.0699C186.792 91.7711 185.913 90.6109 185.913 89.2222C185.913 87.2711 187.688 85.8297 190.114 85.8297C192.522 85.8297 194.28 87.2711 194.298 89.2222C194.28 90.6109 193.401 91.7711 192.118 92.0699V92.1402C193.594 92.3687 194.772 93.7047 194.79 95.3394C194.772 97.4136 192.839 98.9078 190.114 98.9078ZM190.114 97.3082C191.766 97.3082 192.821 96.4468 192.821 95.1988C192.821 93.8804 191.678 92.9312 190.114 92.9312C188.532 92.9312 187.372 93.8804 187.407 95.1988C187.372 96.4468 188.427 97.3082 190.114 97.3082ZM190.114 91.4019C191.45 91.4019 192.399 90.5933 192.399 89.398C192.399 88.2203 191.468 87.4117 190.114 87.4117C188.708 87.4117 187.794 88.2027 187.794 89.398C187.794 90.5933 188.76 91.4019 190.114 91.4019ZM198.042 97.0972C197.356 97.0972 196.776 96.5347 196.794 95.8492C196.776 95.1636 197.356 94.6011 198.042 94.6011C198.71 94.6011 199.29 95.1636 199.29 95.8492C199.29 96.5347 198.71 97.0972 198.042 97.0972ZM198.042 90.1539C197.356 90.1539 196.776 89.5914 196.794 88.9058C196.776 88.2203 197.356 87.6578 198.042 87.6578C198.71 87.6578 199.29 88.2203 199.29 88.9058C199.29 89.5914 198.71 90.1539 198.042 90.1539ZM205.969 98.9078C203.016 98.9078 201.294 96.5347 201.294 92.3687C201.294 88.2379 203.052 85.8297 205.969 85.8297C208.887 85.8297 210.645 88.2379 210.645 92.3687C210.645 96.5347 208.905 98.9078 205.969 98.9078ZM205.969 97.2379C207.692 97.2379 208.712 95.5504 208.712 92.3687C208.712 89.2047 207.675 87.4644 205.969 87.4644C204.264 87.4644 203.227 89.2047 203.227 92.3687C203.227 95.5504 204.247 97.2379 205.969 97.2379ZM217.079 98.9078C214.126 98.9078 212.403 96.5347 212.403 92.3687C212.403 88.2379 214.161 85.8297 217.079 85.8297C219.997 85.8297 221.755 88.2379 221.755 92.3687C221.755 96.5347 220.014 98.9078 217.079 98.9078ZM217.079 97.2379C218.802 97.2379 219.821 95.5504 219.821 92.3687C219.821 89.2047 218.784 87.4644 217.079 87.4644C215.374 87.4644 214.337 89.2047 214.337 92.3687C214.337 95.5504 215.356 97.2379 217.079 97.2379Z" fill="#777777"/>
<path d="M112.911 117.005V129.732H110.96V118.939H110.889L107.848 120.925V119.08L111.012 117.005H112.911ZM116.145 129.732V128.326L120.557 123.878C121.946 122.419 122.649 121.611 122.649 120.503C122.649 119.255 121.63 118.447 120.294 118.447C118.887 118.447 117.973 119.343 117.973 120.697H116.145C116.128 118.377 117.903 116.83 120.329 116.83C122.79 116.83 124.477 118.377 124.495 120.451C124.477 121.875 123.809 123 121.419 125.355L118.835 127.974V128.08H124.706V129.732H116.145ZM128.098 128.097C127.413 128.097 126.833 127.535 126.85 126.849C126.833 126.164 127.413 125.601 128.098 125.601C128.766 125.601 129.346 126.164 129.346 126.849C129.346 127.535 128.766 128.097 128.098 128.097ZM128.098 121.154C127.413 121.154 126.833 120.591 126.85 119.906C126.833 119.22 127.413 118.658 128.098 118.658C128.766 118.658 129.346 119.22 129.346 119.906C129.346 120.591 128.766 121.154 128.098 121.154ZM136.026 129.908C133.073 129.908 131.35 127.535 131.35 123.369C131.35 119.238 133.108 116.83 136.026 116.83C138.944 116.83 140.702 119.238 140.702 123.369C140.702 127.535 138.962 129.908 136.026 129.908ZM136.026 128.238C137.749 128.238 138.768 126.55 138.768 123.369C138.768 120.205 137.731 118.464 136.026 118.464C134.321 118.464 133.284 120.205 133.284 123.369C133.284 126.55 134.303 128.238 136.026 128.238ZM147.135 129.908C144.182 129.908 142.46 127.535 142.46 123.369C142.46 119.238 144.218 116.83 147.135 116.83C150.053 116.83 151.811 119.238 151.811 123.369C151.811 127.535 150.071 129.908 147.135 129.908ZM147.135 128.238C148.858 128.238 149.878 126.55 149.878 123.369C149.878 120.205 148.841 118.464 147.135 118.464C145.43 118.464 144.393 120.205 144.393 123.369C144.393 126.55 145.413 128.238 147.135 128.238ZM158.772 123.035C159.352 122.384 160.073 122.05 160.864 122.05C162.235 122.05 163.448 123.052 164.784 123.052C165.593 123.052 166.296 122.701 166.841 121.998V123.685C166.243 124.336 165.54 124.669 164.749 124.669C163.378 124.669 162.147 123.668 160.811 123.668C160.02 123.668 159.335 124.019 158.772 124.722V123.035ZM178.882 117.005V129.732H176.93V118.939H176.86L173.819 120.925V119.08L176.983 117.005H178.882ZM186.634 129.908C183.997 129.908 182.116 128.484 182.046 126.41H184.014C184.085 127.535 185.192 128.238 186.616 128.238C188.145 128.238 189.27 127.394 189.27 126.164C189.27 124.916 188.216 124.002 186.405 124.002H185.315V122.419H186.405C187.846 122.419 188.866 121.611 188.866 120.398C188.866 119.238 188.005 118.447 186.651 118.447C185.368 118.447 184.243 119.15 184.19 120.31H182.327C182.38 118.236 184.296 116.83 186.669 116.83C189.165 116.83 190.747 118.412 190.729 120.293C190.747 121.734 189.85 122.789 188.479 123.123V123.211C190.219 123.457 191.221 124.617 191.221 126.234C191.221 128.361 189.27 129.908 186.634 129.908ZM194.596 128.097C193.911 128.097 193.331 127.535 193.348 126.849C193.331 126.164 193.911 125.601 194.596 125.601C195.264 125.601 195.844 126.164 195.844 126.849C195.844 127.535 195.264 128.097 194.596 128.097ZM194.596 121.154C193.911 121.154 193.331 120.591 193.348 119.906C193.331 119.22 193.911 118.658 194.596 118.658C195.264 118.658 195.844 119.22 195.844 119.906C195.844 120.591 195.264 121.154 194.596 121.154ZM202.524 129.908C199.571 129.908 197.848 127.535 197.848 123.369C197.848 119.238 199.606 116.83 202.524 116.83C205.442 116.83 207.2 119.238 207.2 123.369C207.2 127.535 205.46 129.908 202.524 129.908ZM202.524 128.238C204.247 128.238 205.266 126.55 205.266 123.369C205.266 120.205 204.229 118.464 202.524 118.464C200.819 118.464 199.782 120.205 199.782 123.369C199.782 126.55 200.802 128.238 202.524 128.238ZM213.634 129.908C210.68 129.908 208.958 127.535 208.958 123.369C208.958 119.238 210.716 116.83 213.634 116.83C216.552 116.83 218.309 119.238 218.309 123.369C218.309 127.535 216.569 129.908 213.634 129.908ZM213.634 128.238C215.356 128.238 216.376 126.55 216.376 123.369C216.376 120.205 215.339 118.464 213.634 118.464C211.928 118.464 210.891 120.205 210.891 123.369C210.891 126.55 211.911 128.238 213.634 128.238Z" fill="#777777"/>
</svg>
