<svg width="348" height="250" viewBox="0 0 348 250" fill="none" xmlns="http://www.w3.org/2000/svg">
<rect x="0.5" y="0.5" width="347" height="249" rx="7.5" fill="white"/>
<rect x="0.5" y="0.5" width="347" height="249" rx="7.5" stroke="#C3C3C3"/>
<path d="M47.1758 36.0664V37.7461C47.1758 39.9727 47.1758 42.4727 46.4531 46.2422L43.9531 45.9883C44.627 42.6289 44.6562 40.1289 44.6758 38.0391H34.207V36.0664H47.1758ZM48.7383 48.0977V50.1289H32.5273V48.0977H38.3281V41.9844H40.8086V48.0977H48.7383ZM65.0859 34.543V44.9531H62.7227V40.6562H61.1211V44.875H58.7773V34.8555H61.1211V38.625H62.7227V34.543H65.0859ZM65.0859 45.6367V52.2969H62.6055V47.6484H52.6836V45.6367H65.0859ZM57.5664 35.7539C57.5664 40.2266 55.418 43.2344 50.7891 45.0703L49.6172 43.2148C52.9668 41.9844 54.6465 40.1484 55.0273 37.7461H50.4766V35.7539H57.5664ZM82.3711 34.5234V47.8242H80.0078V34.5234H82.3711ZM78.7773 34.7969V47.2969H76.4141V40.6172H74.2461V38.5859H76.4141V34.7969H78.7773ZM82.8203 49.9922V51.9844H70.3203V46.2617H72.8203V49.9922H82.8203ZM72.7031 38.0391C72.7031 40.0898 73.582 42.1211 75.8672 43.1758L74.4805 45.0898C73.0547 44.416 72.0977 43.3027 71.5117 41.9453C70.8867 43.4883 69.8223 44.7871 68.25 45.5195L66.8828 43.625C69.3047 42.4531 70.2812 40.1484 70.2812 38.0391V35.7148H72.7031V38.0391ZM99.3828 34.5234V52.3359H96.9219V42.8047H93.7969V40.793H96.9219V34.5234H99.3828ZM93.5039 36.0078V38.0195H87.6836V40.9688H92.8594V42.9219H87.6836V46.2812C90.1445 46.2617 92.1172 46.1738 94.3242 45.832L94.5781 47.8242C91.9805 48.2148 89.6562 48.3125 86.6094 48.3125H85.2031V36.0078H93.5039Z" fill="black"/>
<path d="M42.5625 93.8125C36.9062 93.8125 33.4688 89.5938 33.4688 82.1875C33.4688 74.7812 36.9062 70.5625 42.5625 70.5625C48.2188 70.5625 51.6562 74.8125 51.6562 82.1875C51.6562 89.625 48.2188 93.8125 42.5625 93.8125ZM42.5625 89.9375C45.1875 89.9375 46.875 87.4062 46.8438 82.1875C46.8438 77.0312 45.1875 74.4062 42.5625 74.4062C39.9375 74.4062 38.2812 77.0312 38.2812 82.1875C38.25 87.4062 39.9375 89.9375 42.5625 89.9375ZM54.9062 93.5L54.875 90.0938L63 82.625C65.125 80.5938 66.25 79.3438 66.25 77.5625C66.25 75.5625 64.7188 74.3125 62.6562 74.3125C60.5312 74.3125 59.1562 75.6562 59.1562 77.8125H54.6875C54.6562 73.375 57.9375 70.5625 62.7188 70.5625C67.5625 70.5625 70.7812 73.3125 70.7812 77.25C70.7812 79.8125 69.5312 81.9375 64.875 86.1562L61.4375 89.5V89.625H71.0938V93.5H54.9062ZM85 80.3438V84.0312H74.6875V80.3438H85ZM97.5625 93.8125C92.875 93.7812 88.4375 91 88.4375 82.7188C88.4375 75.0938 92.0938 70.5625 97.75 70.5625C102.312 70.5625 105.406 73.4375 105.875 77.1562H101.25C100.875 75.5625 99.5625 74.5938 97.75 74.5938C94.6875 74.5938 93.0625 77.375 93.0312 81.8125H93.25C94.2812 79.8125 96.5312 78.625 99.0312 78.625C103.094 78.625 106.125 81.6875 106.125 85.9375C106.125 90.5312 102.656 93.8438 97.5625 93.8125ZM97.5312 90.0938C99.8438 90.0938 101.562 88.3438 101.562 86.0625C101.562 83.8125 99.9062 82.0312 97.5938 82.0312C95.2812 82.0312 93.5312 83.8438 93.5 86.0625C93.5312 88.2812 95.2188 90.0938 97.5312 90.0938ZM117.625 70.5625C122.312 70.5938 126.75 73.375 126.75 81.5938C126.781 89.2812 123.125 93.8125 117.438 93.8125C112.875 93.8125 109.781 90.9688 109.312 87.125H113.938C114.312 88.7812 115.625 89.7812 117.438 89.7812C120.531 89.7812 122.156 87.0312 122.156 82.5H121.969C120.906 84.5 118.688 85.6875 116.156 85.6875C112.094 85.6875 109.094 82.625 109.062 78.4062C109.062 73.8438 112.5 70.5312 117.625 70.5625ZM117.656 74.25C115.344 74.25 113.625 76.0312 113.656 78.2812C113.656 80.5 115.312 82.25 117.625 82.25C119.906 82.25 121.688 80.4375 121.688 78.25C121.656 76.0938 119.969 74.25 117.656 74.25ZM138.25 93.8125C133.531 93.8125 130.094 91.0312 130 87.125H134.562C134.656 88.9062 136.281 90.0938 138.25 90.0938C140.594 90.0938 142.25 88.4375 142.25 86.0938C142.25 83.6875 140.562 82.0312 138.188 82C136.5 82 135.312 82.625 134.625 83.9062H130.375L131.594 70.875H145.531V74.7188H135.469L134.844 80.4375H135.031C135.875 79.3125 137.562 78.5312 139.562 78.5312C143.719 78.5312 146.812 81.625 146.812 85.9688C146.812 90.5312 143.344 93.8125 138.25 93.8125ZM158.375 93.8125C153.406 93.8125 149.844 91.0625 149.75 87.125H154.5C154.594 88.8125 156.219 89.9375 158.406 89.9375C160.656 89.9375 162.281 88.6562 162.25 86.8438C162.281 85 160.625 83.6875 157.969 83.6875H155.875V80.2188H157.969C160.188 80.2188 161.75 79 161.75 77.2188C161.75 75.5 160.438 74.3125 158.438 74.3125C156.438 74.3125 154.781 75.4375 154.719 77.1562H150.219C150.281 73.25 153.812 70.5625 158.438 70.5625C163.156 70.5625 166.312 73.3438 166.281 76.9375C166.312 79.4688 164.531 81.2812 162 81.7188V81.9062C165.312 82.3125 167.156 84.3438 167.125 87.1562C167.156 91.0312 163.469 93.8125 158.375 93.8125ZM181 80.3438V84.0312H170.688V80.3438H181ZM184.156 93.5L184.125 90.0938L192.25 82.625C194.375 80.5938 195.5 79.3438 195.5 77.5625C195.5 75.5625 193.969 74.3125 191.906 74.3125C189.781 74.3125 188.406 75.6562 188.406 77.8125H183.938C183.906 73.375 187.188 70.5625 191.969 70.5625C196.812 70.5625 200.031 73.3125 200.031 77.25C200.031 79.8125 198.781 81.9375 194.125 86.1562L190.688 89.5V89.625H200.344V93.5H184.156ZM202.812 89.5V85.7812L212.375 70.875H218.281V85.7188H221.156V89.5H218.281V93.5H213.812V89.5H202.812ZM207.562 85.7188H213.875V76.0312H213.656L207.562 85.5312V85.7188ZM232.531 93.8125C227.812 93.8125 224.375 91.0312 224.281 87.125H228.844C228.938 88.9062 230.562 90.0938 232.531 90.0938C234.875 90.0938 236.531 88.4375 236.531 86.0938C236.531 83.6875 234.844 82.0312 232.469 82C230.781 82 229.594 82.625 228.906 83.9062H224.656L225.875 70.875H239.812V74.7188H229.75L229.125 80.4375H229.312C230.156 79.3125 231.844 78.5312 233.844 78.5312C238 78.5312 241.094 81.625 241.094 85.9688C241.094 90.5312 237.625 93.8125 232.531 93.8125ZM244.281 93.5L244.25 90.0938L252.375 82.625C254.5 80.5938 255.625 79.3438 255.625 77.5625C255.625 75.5625 254.094 74.3125 252.031 74.3125C249.906 74.3125 248.531 75.6562 248.531 77.8125H244.062C244.031 73.375 247.312 70.5625 252.094 70.5625C256.938 70.5625 260.156 73.3125 260.156 77.25C260.156 79.8125 258.906 81.9375 254.25 86.1562L250.812 89.5V89.625H260.469V93.5H244.281Z" fill="#00619E"/>
<path d="M45.6758 127.262V136.49H44.0059V135.734H40.9297V134.68H44.0059V127.262H45.6758ZM32.5449 133.062C35.5859 133.08 39.4531 133.045 42.8457 132.676L42.9336 133.748C41.4482 133.95 39.9102 134.073 38.3984 134.152V136.525H36.7461V134.223C35.3223 134.258 33.9688 134.267 32.7383 134.258L32.5449 133.062ZM45.6758 137.018V140.41H36.6055V141.623H46.1504V142.836H34.9707V139.303H44.0234V138.178H34.9004V137.018H45.6758ZM37.6602 127.525C39.998 127.525 41.5801 128.457 41.5977 129.898C41.5801 131.375 39.998 132.254 37.6602 132.254C35.2695 132.254 33.7051 131.375 33.7227 129.898C33.7051 128.457 35.2695 127.525 37.6602 127.525ZM37.6602 128.65C36.2012 128.65 35.2871 129.143 35.2871 129.898C35.2871 130.654 36.2012 131.129 37.6602 131.129C39.084 131.129 40.0156 130.654 40.0156 129.898C40.0156 129.143 39.084 128.65 37.6602 128.65ZM54.3242 134.328V135.945H48.6816V134.328H54.3242ZM68.6152 128.035V129.23C68.6152 130.47 68.6152 131.876 68.2109 133.783H70.4434V135.154H56.0293V133.783H66.5234C66.9453 131.946 66.9629 130.602 66.9629 129.406H57.8398V128.035H68.6152ZM68.6328 137.158V142.801H57.7871V137.158H68.6328ZM59.4219 138.477V141.447H66.9805V138.477H59.4219Z" fill="#333333"/>
<path d="M45.7109 162.244V171.42H44.041V167.465H41.0879V166.076H44.041V162.244H45.7109ZM45.7109 172.158V177.801H35.3223V172.158H45.7109ZM36.9746 173.477V176.447H44.0762V173.477H36.9746ZM38.2227 164.934C38.2227 166.902 39.6465 168.854 42.0195 169.68L41.1582 170.998C39.3916 170.374 38.082 169.108 37.3965 167.553C36.7109 169.284 35.3311 170.673 33.459 171.332L32.5977 170.014C35.0234 169.188 36.5176 167.096 36.5176 164.934V164.564H33.1074V163.193H41.5977V164.564H38.2227V164.934ZM61.1973 162.262V171.174H59.5273V162.262H61.1973ZM61.1973 172.018V177.801H50.8438V172.018H61.1973ZM52.4961 173.354V176.447H59.5625V173.354H52.4961ZM53.8672 164.389C53.8496 166.516 55.3789 168.432 57.7695 169.24L56.9434 170.523C55.1152 169.917 53.7441 168.669 53.0234 167.043C52.3203 168.774 50.9229 170.154 49.0332 170.822L48.207 169.504C50.668 168.678 52.1621 166.586 52.1621 164.389V162.859H53.8672V164.389ZM69.4766 166.252C69.459 169.135 71.1992 172.018 73.6426 173.107L72.6406 174.426C70.8301 173.564 69.3975 171.798 68.668 169.645C67.9297 171.947 66.4795 173.854 64.5898 174.777L63.5703 173.371C66.0488 172.264 67.7891 169.258 67.7891 166.252V163.562H69.4766V166.252ZM76.7363 162.244V178.029H75.0664V162.244H76.7363ZM91.625 162.244V166.902H93.9102V168.291H91.625V173.688H89.9375V162.244H91.625ZM87.3535 163.439C87.3535 167.57 84.541 170.576 79.9355 171.965L79.2324 170.629C82.915 169.521 85.209 167.43 85.543 164.828H79.9004V163.439H87.3535ZM92.2754 176.307V177.66H81.623V172.51H83.3105V176.307H92.2754Z" fill="#333333"/>
<path d="M46.9414 206.121V207.475H40.543V212.977H38.9082V207.475H32.5801V206.121H46.9414ZM45.5879 198.176V199.512H40.7188C40.7451 201.463 43.1709 203.203 46.1504 203.607L45.5352 204.926C42.9512 204.521 40.7188 203.247 39.7695 201.445C38.7939 203.247 36.5703 204.521 34.0215 204.926L33.3887 203.607C36.333 203.203 38.7588 201.463 38.8203 199.512H33.916V198.176H45.5879ZM60.5117 197.244V200.531H62.7969V201.92H60.5117V205.207H58.8418V197.244H60.5117ZM56.1172 198.088V204.469H48.752V198.088H56.1172ZM50.3867 199.424V203.133H54.4824V199.424H50.3867ZM60.5117 205.928V209.918H52.0039V211.465H61.0566V212.801H50.3691V208.67H58.8594V207.229H50.334V205.928H60.5117ZM69.1074 198.176L65.0117 213.416H63.3418L67.4375 198.176H69.1074ZM77.0352 207.141C80.4453 207.141 82.5898 208.213 82.6074 210.059C82.5898 211.887 80.4453 212.977 77.0352 212.959C73.6602 212.977 71.498 211.887 71.498 210.059C71.498 208.213 73.6602 207.141 77.0352 207.141ZM77.0352 208.406C74.6445 208.406 73.1504 209.021 73.168 210.059C73.1504 211.078 74.6445 211.676 77.0352 211.676C79.4434 211.676 80.9375 211.078 80.9551 210.059C80.9375 209.021 79.4434 208.406 77.0352 208.406ZM82.4844 198.018V199.336C82.4844 200.602 82.4844 201.902 82.0449 203.52L80.4102 203.344C80.832 201.735 80.832 200.575 80.832 199.354H71.6211V198.018H82.4844ZM84.2773 204.486V205.84H69.9512V204.486H75.6992V201.533H77.334V204.486H84.2773ZM99.043 198.932V200.268H86.2285V198.932H91.8359V197.174H93.4883V198.932H99.043ZM99.9043 207.316V208.67H96.2656V213.012H94.5781V208.67H90.7812V213.012H89.1113V208.67H85.4902V207.316H99.9043ZM92.6621 201.076C95.9316 201.076 97.9004 202.008 97.9004 203.713C97.9004 205.4 95.9316 206.35 92.6621 206.35C89.375 206.35 87.4062 205.4 87.4238 203.713C87.4062 202.008 89.375 201.076 92.6621 201.076ZM92.6621 202.342C90.3945 202.359 89.1465 202.816 89.1465 203.713C89.1465 204.592 90.3945 205.066 92.6621 205.066C94.9121 205.066 96.1602 204.592 96.1777 203.713C96.1602 202.816 94.9121 202.359 92.6621 202.342ZM105.512 197.771C107.885 197.789 109.625 199.248 109.643 201.305C109.625 203.379 107.885 204.82 105.512 204.82C103.121 204.82 101.363 203.379 101.363 201.305C101.363 199.248 103.121 197.789 105.512 197.771ZM105.512 199.178C104.053 199.16 102.98 200.021 102.998 201.305C102.98 202.605 104.053 203.467 105.512 203.467C106.953 203.467 108.025 202.605 108.025 201.305C108.025 200.021 106.953 199.16 105.512 199.178ZM114.107 197.244V205.26H112.438V197.244H114.107ZM114.107 205.98V209.953H105.424V211.465H114.635V212.801H103.807V208.705H112.455V207.316H103.754V205.98H114.107ZM134.551 198.932V200.268H121.736V198.932H127.344V197.174H128.996V198.932H134.551ZM135.412 207.316V208.67H131.773V213.012H130.086V208.67H126.289V213.012H124.619V208.67H120.998V207.316H135.412ZM128.17 201.076C131.439 201.076 133.408 202.008 133.408 203.713C133.408 205.4 131.439 206.35 128.17 206.35C124.883 206.35 122.914 205.4 122.932 203.713C122.914 202.008 124.883 201.076 128.17 201.076ZM128.17 202.342C125.902 202.359 124.654 202.816 124.654 203.713C124.654 204.592 125.902 205.066 128.17 205.066C130.42 205.066 131.668 204.592 131.686 203.713C131.668 202.816 130.42 202.359 128.17 202.342ZM150.951 206.279V207.633H144.518V212.977H142.883V207.633H136.537V206.279H150.951ZM149.141 198.088V204.275H138.348V198.088H149.141ZM139.982 199.424V202.975H147.471V199.424H139.982Z" fill="#333333"/>
<path d="M133.555 141.676C130.602 141.676 128.879 139.303 128.879 135.137C128.879 131.006 130.637 128.598 133.555 128.598C136.473 128.598 138.23 131.006 138.23 135.137C138.23 139.303 136.49 141.676 133.555 141.676ZM133.555 140.006C135.277 140.006 136.297 138.318 136.297 135.137C136.297 131.973 135.26 130.232 133.555 130.232C131.85 130.232 130.812 131.973 130.812 135.137C130.812 138.318 131.832 140.006 133.555 140.006ZM144.611 128.598C146.949 128.615 149.41 130.021 149.41 134.68C149.41 139.145 147.494 141.676 144.436 141.676C142.098 141.676 140.445 140.234 140.146 138.16H142.062C142.326 139.232 143.152 139.988 144.436 139.988C146.404 139.988 147.547 138.266 147.564 135.365H147.406C146.721 136.438 145.525 137.088 144.154 137.088C141.869 137.088 140.041 135.348 140.041 132.904C140.041 130.479 141.852 128.58 144.611 128.598ZM144.611 130.215C143.064 130.215 141.922 131.41 141.922 132.869C141.922 134.346 143.029 135.506 144.576 135.506C146.105 135.506 147.301 134.258 147.301 132.852C147.301 131.48 146.176 130.215 144.611 130.215ZM152.697 139.865C152.012 139.865 151.432 139.303 151.449 138.617C151.432 137.932 152.012 137.369 152.697 137.369C153.365 137.369 153.945 137.932 153.945 138.617C153.945 139.303 153.365 139.865 152.697 139.865ZM152.697 132.922C152.012 132.922 151.432 132.359 151.449 131.674C151.432 130.988 152.012 130.426 152.697 130.426C153.365 130.426 153.945 130.988 153.945 131.674C153.945 132.359 153.365 132.922 152.697 132.922ZM160.625 141.676C157.672 141.676 155.949 139.303 155.949 135.137C155.949 131.006 157.707 128.598 160.625 128.598C163.543 128.598 165.301 131.006 165.301 135.137C165.301 139.303 163.561 141.676 160.625 141.676ZM160.625 140.006C162.348 140.006 163.367 138.318 163.367 135.137C163.367 131.973 162.33 130.232 160.625 130.232C158.92 130.232 157.883 131.973 157.883 135.137C157.883 138.318 158.902 140.006 160.625 140.006ZM171.734 141.676C168.781 141.676 167.059 139.303 167.059 135.137C167.059 131.006 168.816 128.598 171.734 128.598C174.652 128.598 176.41 131.006 176.41 135.137C176.41 139.303 174.67 141.676 171.734 141.676ZM171.734 140.006C173.457 140.006 174.477 138.318 174.477 135.137C174.477 131.973 173.439 130.232 171.734 130.232C170.029 130.232 168.992 131.973 168.992 135.137C168.992 138.318 170.012 140.006 171.734 140.006ZM183.371 134.803C183.951 134.152 184.672 133.818 185.463 133.818C186.834 133.818 188.047 134.82 189.383 134.82C190.191 134.82 190.895 134.469 191.439 133.766V135.453C190.842 136.104 190.139 136.438 189.348 136.438C187.977 136.438 186.746 135.436 185.41 135.436C184.619 135.436 183.934 135.787 183.371 136.49V134.803ZM203.48 128.773V141.5H201.529V130.707H201.459L198.418 132.693V130.848L201.582 128.773H203.48ZM211.162 141.676C208.402 141.676 206.469 140.182 206.486 138.107C206.469 136.473 207.646 135.137 209.141 134.908V134.838C207.84 134.539 206.961 133.379 206.961 131.99C206.961 130.039 208.736 128.598 211.162 128.598C213.57 128.598 215.328 130.039 215.346 131.99C215.328 133.379 214.449 134.539 213.166 134.838V134.908C214.643 135.137 215.82 136.473 215.838 138.107C215.82 140.182 213.887 141.676 211.162 141.676ZM211.162 140.076C212.814 140.076 213.869 139.215 213.869 137.967C213.869 136.648 212.727 135.699 211.162 135.699C209.58 135.699 208.42 136.648 208.455 137.967C208.42 139.215 209.475 140.076 211.162 140.076ZM211.162 134.17C212.498 134.17 213.447 133.361 213.447 132.166C213.447 130.988 212.516 130.18 211.162 130.18C209.756 130.18 208.842 130.971 208.842 132.166C208.842 133.361 209.809 134.17 211.162 134.17ZM219.09 139.865C218.404 139.865 217.824 139.303 217.842 138.617C217.824 137.932 218.404 137.369 219.09 137.369C219.758 137.369 220.338 137.932 220.338 138.617C220.338 139.303 219.758 139.865 219.09 139.865ZM219.09 132.922C218.404 132.922 217.824 132.359 217.842 131.674C217.824 130.988 218.404 130.426 219.09 130.426C219.758 130.426 220.338 130.988 220.338 131.674C220.338 132.359 219.758 132.922 219.09 132.922ZM227.018 141.676C224.064 141.676 222.342 139.303 222.342 135.137C222.342 131.006 224.1 128.598 227.018 128.598C229.936 128.598 231.693 131.006 231.693 135.137C231.693 139.303 229.953 141.676 227.018 141.676ZM227.018 140.006C228.74 140.006 229.76 138.318 229.76 135.137C229.76 131.973 228.723 130.232 227.018 130.232C225.312 130.232 224.275 131.973 224.275 135.137C224.275 138.318 225.295 140.006 227.018 140.006ZM238.127 141.676C235.174 141.676 233.451 139.303 233.451 135.137C233.451 131.006 235.209 128.598 238.127 128.598C241.045 128.598 242.803 131.006 242.803 135.137C242.803 139.303 241.062 141.676 238.127 141.676ZM238.127 140.006C239.85 140.006 240.869 138.318 240.869 135.137C240.869 131.973 239.832 130.232 238.127 130.232C236.422 130.232 235.385 131.973 235.385 135.137C235.385 138.318 236.404 140.006 238.127 140.006Z" fill="#777777"/>
<path d="M133.959 163.773V176.5H132.008V165.707H131.938L128.896 167.693V165.848L132.061 163.773H133.959ZM137.193 176.5V175.094L141.605 170.646C142.994 169.188 143.697 168.379 143.697 167.271C143.697 166.023 142.678 165.215 141.342 165.215C139.936 165.215 139.021 166.111 139.021 167.465H137.193C137.176 165.145 138.951 163.598 141.377 163.598C143.838 163.598 145.525 165.145 145.543 167.219C145.525 168.643 144.857 169.768 142.467 172.123L139.883 174.742V174.848H145.754V176.5H137.193ZM149.146 174.865C148.461 174.865 147.881 174.303 147.898 173.617C147.881 172.932 148.461 172.369 149.146 172.369C149.814 172.369 150.395 172.932 150.395 173.617C150.395 174.303 149.814 174.865 149.146 174.865ZM149.146 167.922C148.461 167.922 147.881 167.359 147.898 166.674C147.881 165.988 148.461 165.426 149.146 165.426C149.814 165.426 150.395 165.988 150.395 166.674C150.395 167.359 149.814 167.922 149.146 167.922ZM157.074 176.676C154.121 176.676 152.398 174.303 152.398 170.137C152.398 166.006 154.156 163.598 157.074 163.598C159.992 163.598 161.75 166.006 161.75 170.137C161.75 174.303 160.01 176.676 157.074 176.676ZM157.074 175.006C158.797 175.006 159.816 173.318 159.816 170.137C159.816 166.973 158.779 165.232 157.074 165.232C155.369 165.232 154.332 166.973 154.332 170.137C154.332 173.318 155.352 175.006 157.074 175.006ZM168.184 176.676C165.23 176.676 163.508 174.303 163.508 170.137C163.508 166.006 165.266 163.598 168.184 163.598C171.102 163.598 172.859 166.006 172.859 170.137C172.859 174.303 171.119 176.676 168.184 176.676ZM168.184 175.006C169.906 175.006 170.926 173.318 170.926 170.137C170.926 166.973 169.889 165.232 168.184 165.232C166.479 165.232 165.441 166.973 165.441 170.137C165.441 173.318 166.461 175.006 168.184 175.006ZM179.82 169.803C180.4 169.152 181.121 168.818 181.912 168.818C183.283 168.818 184.496 169.82 185.832 169.82C186.641 169.82 187.344 169.469 187.889 168.766V170.453C187.291 171.104 186.588 171.438 185.797 171.438C184.426 171.438 183.195 170.436 181.859 170.436C181.068 170.436 180.383 170.787 179.82 171.49V169.803ZM199.93 163.773V176.5H197.979V165.707H197.908L194.867 167.693V165.848L198.031 163.773H199.93ZM207.682 176.676C205.045 176.676 203.164 175.252 203.094 173.178H205.062C205.133 174.303 206.24 175.006 207.664 175.006C209.193 175.006 210.318 174.162 210.318 172.932C210.318 171.684 209.264 170.77 207.453 170.77H206.363V169.188H207.453C208.895 169.188 209.914 168.379 209.914 167.166C209.914 166.006 209.053 165.215 207.699 165.215C206.416 165.215 205.291 165.918 205.238 167.078H203.375C203.428 165.004 205.344 163.598 207.717 163.598C210.213 163.598 211.795 165.18 211.777 167.061C211.795 168.502 210.898 169.557 209.527 169.891V169.979C211.268 170.225 212.27 171.385 212.27 173.002C212.27 175.129 210.318 176.676 207.682 176.676ZM215.645 174.865C214.959 174.865 214.379 174.303 214.396 173.617C214.379 172.932 214.959 172.369 215.645 172.369C216.312 172.369 216.893 172.932 216.893 173.617C216.893 174.303 216.312 174.865 215.645 174.865ZM215.645 167.922C214.959 167.922 214.379 167.359 214.396 166.674C214.379 165.988 214.959 165.426 215.645 165.426C216.312 165.426 216.893 165.988 216.893 166.674C216.893 167.359 216.312 167.922 215.645 167.922ZM223.572 176.676C220.619 176.676 218.896 174.303 218.896 170.137C218.896 166.006 220.654 163.598 223.572 163.598C226.49 163.598 228.248 166.006 228.248 170.137C228.248 174.303 226.508 176.676 223.572 176.676ZM223.572 175.006C225.295 175.006 226.314 173.318 226.314 170.137C226.314 166.973 225.277 165.232 223.572 165.232C221.867 165.232 220.83 166.973 220.83 170.137C220.83 173.318 221.85 175.006 223.572 175.006ZM234.682 176.676C231.729 176.676 230.006 174.303 230.006 170.137C230.006 166.006 231.764 163.598 234.682 163.598C237.6 163.598 239.357 166.006 239.357 170.137C239.357 174.303 237.617 176.676 234.682 176.676ZM234.682 175.006C236.404 175.006 237.424 173.318 237.424 170.137C237.424 166.973 236.387 165.232 234.682 165.232C232.977 165.232 231.939 166.973 231.939 170.137C231.939 173.318 232.959 175.006 234.682 175.006Z" fill="#777777"/>
<path d="M215 158H229.653L253.692 209.908L277.836 158H292.489L278.879 187.36L289.308 210.012L313.451 158.103H328L295.096 229H283.52L271.526 202.839L259.533 228.639H247.956C243.524 219.093 239.665 210.786 236.38 203.82C233.095 196.854 230.383 190.765 228.036 185.76C225.69 180.755 223.813 176.679 222.353 173.428L218.807 165.688C217.868 163.779 217.19 162.334 216.773 161.406L215.73 159.754L215.313 158.877C215.156 158.619 215.052 158.31 215 158Z" fill="#333333" fill-opacity="0.05"/>
</svg>
