<svg width="372" height="250" viewBox="0 0 372 250" fill="none" xmlns="http://www.w3.org/2000/svg">
<rect width="372" height="250" rx="8" fill="#00619E"/>
<g clip-path="url(#clip0_36_2928)">
<path d="M30 59.1895H34.7904L42.6494 76.5218L50.5425 59.1895H55.3329L50.8834 68.9928L54.293 76.5563L62.1861 59.2239H66.9424L56.1853 82.8966H52.4007L48.4797 74.1615L44.5587 82.776H40.7741C39.3251 79.5886 38.0636 76.8147 36.9896 74.4888C35.9156 72.1629 35.0291 70.1299 34.2619 68.4587C33.4948 66.7874 32.8811 65.4264 32.4037 64.3409L31.2445 61.7566C30.9376 61.1191 30.716 60.6367 30.5796 60.3266L30.2387 59.7752L30.1023 59.4823C30.0511 59.3962 30.017 59.2928 30 59.1895Z" fill="white"/>
<path d="M72.8579 59.155V62.7903H68.5278V59.155H72.8579ZM68.5278 82.8966V65.2196H72.8579V82.8966H68.5278Z" fill="white"/>
<path d="M80.5974 65.2197V67.1666C81.1089 66.5291 81.7567 66.0295 82.5068 65.7021C83.2228 65.392 84.007 65.2197 84.7912 65.2197C85.9163 65.2197 87.0244 65.4265 88.0643 65.8227C89.0531 66.219 89.9737 66.8048 90.7579 67.5456C91.525 68.2865 92.1387 69.1824 92.5649 70.1817C93.0252 71.2671 93.2639 72.4387 93.2298 73.6275V83.0001H88.9508V73.5241C88.9679 72.9728 88.8485 72.4214 88.6269 71.9218C88.4223 71.4739 88.1155 71.0604 87.7404 70.733C87.3483 70.3884 86.9051 70.13 86.4107 69.9749C85.8652 69.7854 85.2856 69.6993 84.7059 69.7165C84.0411 69.6993 83.3933 69.8199 82.7796 70.0955C82.2852 70.3195 81.8419 70.6641 81.501 71.0776C81.16 71.4911 80.9214 71.9563 80.7679 72.4731C80.6145 72.99 80.5293 73.5241 80.5293 74.0582V82.8967H76.2673V65.2197H80.5974Z" fill="white"/>
<path d="M106.851 78.4C107.891 78.4 108.914 78.176 109.851 77.7108C110.806 77.2628 111.641 76.5909 112.289 75.7467L115.596 78.6239C114.54 79.9678 113.21 81.036 111.693 81.7768C110.192 82.5177 108.522 82.9139 106.851 82.8967C105.334 82.8967 103.817 82.5866 102.419 81.9836C101.055 81.3806 99.8274 80.5191 98.7875 79.4337C97.7476 78.331 96.9122 77.0561 96.3326 75.6605C95.1222 72.6972 95.1222 69.372 96.3326 66.4086C96.9122 65.013 97.7476 63.7381 98.7875 62.6526C99.8274 61.5844 101.055 60.723 102.419 60.12C103.817 59.4997 105.317 59.1724 106.851 59.1896C110.261 59.1896 113.483 60.7747 115.596 63.4624L112.289 66.3396C111.641 65.4954 110.806 64.8235 109.851 64.3755C108.044 63.4969 105.93 63.4624 104.089 64.2549C103.254 64.634 102.487 65.1681 101.839 65.84C101.191 66.5119 100.663 67.3045 100.305 68.1659C99.9467 69.0791 99.7592 70.0439 99.7592 71.0259C99.7592 72.008 99.9467 72.99 100.305 73.9032C100.663 74.7819 101.191 75.5744 101.839 76.2463C102.487 76.9183 103.254 77.4524 104.089 77.8314C104.959 78.2104 105.896 78.4 106.851 78.4Z" fill="white"/>
<path d="M122.109 59.1895V67.1665C122.62 66.5462 123.268 66.0466 124.001 65.702C124.734 65.3747 125.535 65.2024 126.337 65.2196C127.462 65.2196 128.57 65.4264 129.627 65.8226C130.615 66.2189 131.519 66.8047 132.303 67.5455C133.07 68.2864 133.701 69.1823 134.11 70.1816C134.571 71.267 134.809 72.4386 134.775 73.6274V82.9999H130.462V73.524C130.479 72.9727 130.36 72.4213 130.138 71.9217C129.934 71.4565 129.627 71.0602 129.252 70.7329C128.86 70.3883 128.416 70.1299 127.922 69.9748C127.376 69.7853 126.797 69.6991 126.217 69.7164C125.552 69.6991 124.904 69.8197 124.308 70.0954C123.813 70.3194 123.37 70.6467 123.012 71.0775C122.688 71.4737 122.45 71.9389 122.296 72.4386C122.143 72.9554 122.058 73.4895 122.058 74.0236V82.8621H117.779V59.1895H122.109Z" fill="white"/>
<path d="M145.549 65.2197C146.862 65.2197 148.14 65.5298 149.3 66.1329C150.476 66.7359 151.482 67.5973 152.266 68.6655C153.903 70.8364 154.465 73.6619 153.766 76.298H141.952C142.293 76.901 142.77 77.4179 143.35 77.7797C143.913 78.1587 144.56 78.3655 145.242 78.3999C145.907 78.3999 146.572 78.2965 147.186 78.0553C147.799 77.7797 148.345 77.3662 148.771 76.8321L152.078 79.7093C150.493 81.7079 148.089 82.8794 145.549 82.8967C144.884 82.8967 144.237 82.8278 143.589 82.6727C142.941 82.5349 142.31 82.2937 141.731 81.9835C140.861 81.5528 140.077 80.967 139.412 80.2606C138.764 79.5543 138.219 78.7273 137.827 77.8486C137.417 76.9699 137.162 76.0051 137.059 75.0403C136.957 74.041 137.025 73.0417 137.247 72.0596C137.452 71.0776 137.844 70.1472 138.372 69.303C138.884 68.4932 139.514 67.7696 140.247 67.1494C140.98 66.5291 141.833 66.0295 142.753 65.7194C143.657 65.392 144.595 65.2197 145.549 65.2197ZM149.129 71.8184C148.754 71.181 148.226 70.6469 147.595 70.2851C146.333 69.527 144.748 69.527 143.486 70.2851C142.856 70.6469 142.327 71.181 141.952 71.8184H149.129Z" fill="white"/>
<path d="M164.216 78.4C164.813 78.4 165.393 78.2449 165.921 77.9865C166.484 77.7108 166.978 77.3145 167.37 76.8321L170.678 79.7094C169.109 81.7251 166.688 82.8967 164.148 82.8967C163.006 82.9139 161.881 82.6727 160.841 82.2076C156.579 80.1745 154.619 75.1264 156.392 70.7158C156.818 69.6648 157.449 68.7173 158.233 67.9075C159 67.0977 159.92 66.4603 160.926 66.0123C161.966 65.5471 163.091 65.3059 164.234 65.3059C166.774 65.3059 169.194 66.4775 170.763 68.4933L167.456 71.3705C167.063 70.8881 166.569 70.4918 166.006 70.2162C165.478 69.9577 164.898 69.8027 164.302 69.8027C163.722 69.7854 163.142 69.9061 162.597 70.1473C162.103 70.3712 161.642 70.6814 161.267 71.0604C160.875 71.4567 160.585 71.9391 160.381 72.4559C160.159 73.0073 160.04 73.5931 160.057 74.1788C160.04 74.7646 160.159 75.3504 160.381 75.9017C160.585 76.4186 160.875 76.901 161.267 77.2973C162.034 78.1071 163.108 78.5722 164.234 78.555L164.216 78.4Z" fill="white"/>
<path d="M182.082 71.5771L189.788 82.8966H184.316C183.378 81.501 182.611 80.2605 181.793 79.1751L179.832 76.3495L178.417 74.1615C178.008 73.5757 177.667 73.0933 177.377 72.7142V82.8276H173.047V59.1895H177.377V70.0437L178.008 69.4752L179.065 68.5965C179.491 68.2347 180.071 67.7867 180.77 67.2526L183.327 65.2196H190.146L182.082 71.5771Z" fill="white"/>
<path d="M30 38.0151H99.9637" stroke="white" stroke-width="3.5" stroke-miterlimit="10"/>
<path d="M199.011 58.4832V62.5664H203V64.6511H199.011V68.9928H196.812V64.6511H192.874V62.5664H196.863V58.4832H199.011Z" fill="white"/>
</g>
<path d="M35.2031 103.613C35.2031 106.127 36.4863 108.693 38.6133 109.836L37.8223 110.873C36.2666 110.029 35.1416 108.412 34.5703 106.531C34.0078 108.535 32.8916 110.275 31.3359 111.225L30.5098 110.17C32.6367 108.939 33.8848 106.197 33.9023 103.613V102.84H30.9316V101.697H33.9023V99.377H35.2207V101.697H38.1387V102.84H35.2031V103.613ZM43.9922 98.7969V114.424H42.6738V98.7969H43.9922ZM40.8281 99.1836V113.615H39.5273V106.145H37.0664V104.967H39.5273V99.1836H40.8281ZM59.5664 98.7969V114.424H58.248V98.7969H59.5664ZM56.4023 99.2188V113.633H55.084V108.219H52.1836V107.076H55.084V104.299H52.4473C51.6826 106.944 49.9688 109.282 47.0156 111.049L46.1719 110.047C49.5732 108.034 51.2783 105.213 51.5508 101.943H46.875V100.801H52.9219C52.9219 101.601 52.8516 102.392 52.7109 103.156H55.084V99.2188H56.4023ZM67.1777 101.68C67.1777 103.719 68.7422 105.652 71.0273 106.443L70.3066 107.533C68.54 106.9 67.1777 105.591 66.5098 103.982C65.833 105.784 64.3916 107.226 62.5371 107.902L61.8164 106.812C64.1191 105.986 65.7891 103.895 65.7891 101.697V101.012H62.2559V99.8867H70.6758V101.012H67.1777V101.68ZM74.7012 108.992V114.424H73.3125V110.135H64.1895V108.992H74.7012ZM74.7012 98.7969V108.166H73.3125V104.053H70.1836V102.893H73.3125V98.7969H74.7012ZM90.2051 98.8145V110.24H88.834V98.8145H90.2051ZM90.6973 112.93V114.09H80.1152V109.08H81.4863V112.93H90.6973ZM81.7676 99.9043C84.1055 99.9043 85.8633 101.486 85.8633 103.736C85.8633 106.021 84.1055 107.586 81.7676 107.586C79.4297 107.586 77.6719 106.021 77.6719 103.736C77.6719 101.486 79.4297 99.9043 81.7676 99.9043ZM81.7676 101.117C80.1855 101.117 79.0078 102.207 79.0254 103.736C79.0078 105.301 80.1855 106.373 81.7676 106.373C83.3145 106.373 84.5098 105.301 84.5098 103.736C84.5098 102.207 83.3145 101.117 81.7676 101.117ZM105.498 100.062C105.48 104.105 103.389 107.129 98.3613 108.816L97.7988 107.709C100.479 106.83 102.185 105.591 103.143 104.053L97.957 104.492L97.7109 103.35L103.635 103.068C103.854 102.479 103.995 101.855 104.057 101.205H98.502V100.062H105.498ZM110.332 98.8145V110.416H108.943V104.949H105.463V103.789H108.943V98.8145H110.332ZM110.771 112.93V114.09H100.453V109.256H101.859V112.93H110.771ZM125.889 98.7969V106.883H124.5V102.822H121.02V101.68H124.5V98.7969H125.889ZM125.889 107.674V111.4H117.152V113.105H126.469V114.213H115.799V110.346H124.518V108.781H115.764V107.674H125.889ZM118.26 100.783C118.242 102.84 119.859 104.703 122.145 105.459L121.406 106.531C119.675 105.916 118.295 104.686 117.609 103.104C116.941 104.888 115.526 106.25 113.672 106.918L112.916 105.811C115.271 105.037 116.889 103.068 116.906 100.783V99.3066H118.26V100.783ZM136.893 99.957V101.082H130.793V103.051H136.453V104.176H130.793V106.232C134.124 106.232 135.97 106.171 138.176 105.811L138.316 106.936C136.031 107.305 134.115 107.375 130.67 107.375H129.404V99.957H136.893ZM141.393 98.8145V108.5H140.021V98.8145H141.393ZM136.207 108.729C139.459 108.711 141.463 109.748 141.463 111.541C141.463 113.369 139.459 114.389 136.207 114.389C132.885 114.389 130.916 113.369 130.916 111.541C130.916 109.748 132.885 108.711 136.207 108.729ZM136.207 109.818C133.746 109.818 132.287 110.469 132.287 111.541C132.287 112.648 133.746 113.299 136.207 113.299C138.598 113.299 140.109 112.648 140.109 111.541C140.109 110.469 138.598 109.818 136.207 109.818ZM162.855 107.076V108.201H156.492V111.26H155.121V108.201H148.547V107.076H162.855ZM161.256 112.93V114.09H150.375V109.818H151.746V112.93H161.256ZM151.834 99.3066V101.311H159.568V99.3066H160.939V105.547H150.463V99.3066H151.834ZM151.834 104.422H159.568V102.365H151.834V104.422ZM169.447 101.311C169.447 103.473 171.047 105.459 173.314 106.232L172.559 107.34C170.818 106.698 169.465 105.362 168.797 103.701C168.138 105.547 166.731 106.988 164.895 107.709L164.139 106.566C166.512 105.723 168.076 103.666 168.094 101.258V99.6055H169.447V101.311ZM177.076 108.904V114.424H175.688V110.012H166.564V108.904H177.076ZM177.076 98.7969V108.043H175.688V103.244H172.207V102.084H175.688V98.7969H177.076ZM188.449 99.9922V101.135H186.85V106.127C187.579 106.083 188.282 106.021 188.959 105.934L189.029 106.988C185.988 107.463 182.42 107.498 179.889 107.498L179.713 106.338L181.734 106.32V101.135H180.152V99.9922H188.449ZM192.633 98.7969V108.447H191.244V105.547H188.607V104.404H191.244V102.752H188.607V101.609H191.244V98.7969H192.633ZM187.447 108.781C190.717 108.781 192.686 109.801 192.686 111.576C192.686 113.369 190.717 114.389 187.447 114.389C184.178 114.389 182.209 113.369 182.209 111.576C182.209 109.801 184.178 108.781 187.447 108.781ZM187.447 109.854C185.039 109.854 183.562 110.504 183.58 111.576C183.562 112.666 185.039 113.299 187.447 113.299C189.855 113.299 191.314 112.666 191.314 111.576C191.314 110.504 189.855 109.854 187.447 109.854ZM183.07 106.303C183.87 106.285 184.696 106.259 185.514 106.215V101.135H183.07V106.303ZM207.328 98.7969V105.16H209.859V106.32H207.328V114.424H205.957V98.7969H207.328ZM203.285 100.484C203.285 104.914 201.211 108.939 196.113 111.453L195.34 110.363C199.383 108.351 201.58 105.345 201.896 101.645H196.061V100.484H203.285ZM229.617 111.242V112.42H215.309V111.242H229.617ZM228.246 100.379V101.521H225.768V106.988H228.211V108.113H216.609V106.988H219.053V101.521H216.574V100.379H228.246ZM220.424 106.988H224.414V101.521H220.424V106.988ZM245.174 111.33V112.49H230.865V111.33H237.299V108.377H232.658V103.561H242.01V101.1H232.623V99.957H243.363V104.686H234.029V107.234H243.732V108.377H238.652V111.33H245.174ZM258.744 100.467V102.031C258.744 104 258.744 106.232 258.164 109.625L256.758 109.484C257.391 106.285 257.391 103.947 257.391 102.031V101.609H247.969V100.467H258.744ZM260.66 110.979V112.121H246.422V110.979H260.66ZM275.25 98.8145V108.131H273.932V103.93H271.734V107.92H270.451V99.1133H271.734V102.787H273.932V98.8145H275.25ZM275.25 108.869V114.213H264.932V108.869H275.25ZM266.285 109.994V113.088H273.896V109.994H266.285ZM268.588 99.834V104.088H264.035V106.338C266.092 106.329 267.665 106.232 269.52 105.863L269.678 106.988C267.656 107.375 265.986 107.428 263.719 107.428H262.699V103.016H267.27V100.959H262.664V99.834H268.588ZM44.0098 121.797V137.424H42.6738V121.797H44.0098ZM40.8105 122.184V136.615H39.4922V128.934H36.082V127.773H39.4922V122.184H40.8105ZM37.1367 123.73V124.873H32.584V132.502C34.834 132.493 36.2578 132.396 37.9453 132.027L38.0859 133.205C36.2754 133.574 34.7461 133.645 32.2324 133.662H31.248V123.73H37.1367ZM59.0742 121.797V137.459H57.6855V121.797H59.0742ZM50.7598 123.01C53.0801 123.027 54.75 125.137 54.75 128.459C54.75 131.781 53.0801 133.891 50.7598 133.891C48.4219 133.891 46.7695 131.781 46.7695 128.459C46.7695 125.137 48.4219 123.027 50.7598 123.01ZM50.7598 124.24C49.1953 124.258 48.1055 125.91 48.1055 128.459C48.1055 131.008 49.1953 132.66 50.7598 132.66C52.3242 132.66 53.4141 131.008 53.4141 128.459C53.4141 125.91 52.3242 124.258 50.7598 124.24ZM74.7012 121.797V137.459H73.3301V128.846H70.0254V127.703H73.3301V121.797H74.7012ZM69.7617 123.238V124.381H63.8555V127.633H69.0762V128.758H63.8555V132.537C66.7295 132.537 68.5576 132.44 70.7109 132.062L70.8691 133.205C68.6016 133.574 66.6855 133.68 63.6621 133.68H62.4668V123.238H69.7617ZM94.7402 121.797V137.424H93.3516V121.797H94.7402ZM90.1172 123.502C90.0996 128.002 88.0078 131.975 82.7695 134.488L82.0137 133.363C86.2412 131.359 88.3945 128.362 88.7109 124.627H82.7344V123.502H90.1172ZM109.594 121.814V126.543H111.949V127.703H109.594V133.293H108.223V121.814H109.594ZM110.314 135.93V137.09H99.8203V132.168H101.174V135.93H110.314ZM99.3984 122.939V125.576H103.951V122.939H105.322V130.656H98.0449V122.939H99.3984ZM99.3984 129.531H103.951V126.666H99.3984V129.531ZM120.053 122.816C123.322 122.816 125.766 124.521 125.766 127.105C125.766 129.707 123.322 131.412 120.053 131.395C116.783 131.412 114.34 129.707 114.34 127.105C114.34 124.521 116.783 122.816 120.053 122.816ZM120.053 123.941C117.539 123.924 115.641 125.242 115.658 127.105C115.641 129.004 117.539 130.27 120.053 130.27C122.549 130.27 124.43 129.004 124.43 127.105C124.43 125.242 122.549 123.924 120.053 123.941ZM127.242 134.189V135.35H112.934V134.189H127.242ZM142.799 134.33V135.49H128.49V134.33H134.924V131.377H130.283V126.561H139.635V124.1H130.248V122.957H140.988V127.686H131.654V130.234H141.357V131.377H136.277V134.33H142.799ZM156.457 122.869V129.549H149.232V122.869H156.457ZM150.586 123.994V128.424H155.121V123.994H150.586ZM160.781 121.797V125.559H163.137V126.719H160.781V130.727H159.41V121.797H160.781ZM161.062 131.641V132.766H156.633C156.782 134.436 159.111 135.895 161.66 136.299L161.15 137.371C158.865 136.993 156.791 135.859 155.895 134.295C155.007 135.868 152.95 136.984 150.674 137.354L150.146 136.299C152.73 135.895 155.016 134.462 155.191 132.766H150.762V131.641H161.062ZM178.359 129.531V130.656H171.908V132.379H176.619V137.213H165.861V132.379H170.555V130.656H164.121V129.531H178.359ZM171.908 121.709V123.273H176.918V124.381H171.996C172.093 126.121 174.58 127.29 177.516 127.562L177.111 128.6C174.51 128.327 172.189 127.431 171.24 125.875C170.282 127.431 167.962 128.327 165.369 128.6L164.947 127.562C167.9 127.29 170.37 126.121 170.484 124.381H165.598V123.273H170.555V121.709H171.908ZM167.232 133.486V136.088H175.266V133.486H167.232ZM191.982 126.578V128.635H198.434V129.76H184.195V128.635H190.629V126.578H191.982ZM192 122.518C192 124.539 194.777 126.033 197.625 126.35L197.133 127.404C194.672 127.07 192.29 126.007 191.314 124.293C190.312 126.007 187.922 127.07 185.479 127.404L184.986 126.35C187.834 126.033 190.611 124.539 190.611 122.518V121.92H192V122.518ZM196.605 131.061V134.611H187.324V136.158H197.08V137.248H185.953V133.574H195.252V132.133H185.918V131.061H196.605ZM212.303 122.43V126.49H202.881V128.512H212.637V129.654H201.492V125.4H210.896V123.555H201.457V122.43H212.303ZM214.043 131.307V132.414H207.539V137.459H206.168V132.414H199.734V131.307H214.043ZM220.652 124.697C220.652 126.982 222.217 129.145 224.484 130.041L223.711 131.113C221.988 130.401 220.652 128.978 220.002 127.193C219.325 129.118 217.919 130.647 216.1 131.395L215.344 130.287C217.664 129.391 219.281 127.141 219.299 124.697V122.693H220.652V124.697ZM228.264 121.814V133.486H226.875V128.477H223.658V127.352H226.875V125.277H223.658V124.135H226.875V121.814H228.264ZM228.615 135.93V137.09H218.156V132.273H219.545V135.93H228.615Z" fill="white"/>
<rect x="30" y="165" width="312" height="50" rx="25" fill="white"/>
<path d="M78.7969 194.656V196.727H62.5273V194.656H78.7969ZM77.4297 182.586V184.578H74.9297V189.969H77.3516V191.922H63.875V189.969H66.2578V184.578H63.7969V182.586H77.4297ZM68.7578 189.969H72.4688V184.578H68.7578V189.969ZM96.082 194.773V196.824H79.8125V194.773H86.668V192.098H81.6875V186.121H91.7461V184.168H81.668V182.176H94.207V188.074H84.1875V190.066H94.6172V192.098H89.1484V194.773H96.082ZM111.316 182.664V184.793C111.316 187.234 111.316 189.656 110.672 193.328L108.152 193.113C108.816 189.695 108.816 187.156 108.836 184.793V184.656H98.7773V182.664H111.316ZM113.309 194.422V196.473H97.0977V194.422H113.309ZM129.656 181.043V191.512H127.293V187.215H125.75V191.375H123.426V181.355H125.75V185.223H127.293V181.043H129.656ZM129.656 192.234V198.602H117.527V192.234H129.656ZM120.008 194.207V196.609H127.195V194.207H120.008ZM121.863 182.078V187.371H117.508V188.973C119.451 188.953 120.896 188.875 122.586 188.562L122.801 190.516C120.73 190.867 118.973 190.906 116.336 190.906H115.105V185.516H119.461V184.012H115.086V182.078H121.863ZM150.301 181.023V187.664H152.918V189.754H150.301V198.797H147.801V181.023H150.301ZM139.324 182.43V186.766H143.016V182.43H145.496V194.676H136.844V182.43H139.324ZM139.324 192.664H143.016V188.699H139.324V192.664ZM169.832 194.773V196.824H153.562V194.773H160.418V192.098H155.438V186.121H165.496V184.168H155.418V182.176H167.957V188.074H157.938V190.066H168.367V192.098H162.898V194.773H169.832ZM184.871 181.023V187.84H187.391V189.891H184.871V198.758H182.371V181.023H184.871ZM180.125 182.84C180.105 188.152 178.035 192.762 172.059 195.691L170.652 193.777C174.861 191.668 177.117 188.836 177.586 184.871H171.668V182.84H180.125ZM203.074 181.023V198.797H200.555V181.023H203.074ZM197.742 182.879C197.742 188.27 195.848 192.742 189.5 195.75L188.191 193.758C192.781 191.59 194.803 188.777 195.203 184.832H189.148V182.879H197.742Z" fill="#00619E"/>
<path d="M295 196L301 190L295 184" stroke="#00619E" stroke-width="2" stroke-linecap="round" stroke-linejoin="round"/>
<defs>
<clipPath id="clip0_36_2928">
<rect width="173" height="48" fill="white" transform="translate(30 35)"/>
</clipPath>
</defs>
</svg>
