<svg width="372" height="185" viewBox="0 0 372 185" fill="none" xmlns="http://www.w3.org/2000/svg">
<rect width="372" height="185" rx="8" fill="#00619E"/>
<g clip-path="url(#clip0_54_92)">
<path d="M30 40.6895H34.7904L42.6494 58.0219L50.5425 40.6895H55.3329L50.8834 50.4928L54.293 58.0563L62.1861 40.724H66.9424L56.1853 64.3966H52.4007L48.4797 55.6615L44.5587 64.276H40.7741C39.3251 61.0886 38.0636 58.3148 36.9896 55.9889C35.9156 53.663 35.0291 51.6299 34.2619 49.9587C33.4948 48.2875 32.8811 46.9264 32.4037 45.841L31.2445 43.2566C30.9376 42.6192 30.716 42.1367 30.5796 41.8266L30.2387 41.2753L30.1023 40.9824C30.0511 40.8963 30.017 40.7929 30 40.6895Z" fill="white"/>
<path d="M72.8579 40.6551V44.2904H68.5278V40.6551H72.8579ZM68.5278 64.3967V46.7197H72.8579V64.3967H68.5278Z" fill="white"/>
<path d="M80.5974 46.7197V48.6665C81.1089 48.0291 81.7567 47.5294 82.5068 47.2021C83.2228 46.892 84.007 46.7197 84.7912 46.7197C85.9163 46.7197 87.0244 46.9264 88.0643 47.3227C89.0531 47.7189 89.9737 48.3047 90.7579 49.0456C91.525 49.7864 92.1387 50.6823 92.5649 51.6816C93.0252 52.767 93.2639 53.9386 93.2298 55.1274V64.5H88.9508V55.024C88.9679 54.4727 88.8485 53.9214 88.6269 53.4217C88.4223 52.9738 88.1155 52.5603 87.7404 52.2329C87.3483 51.8884 86.9051 51.6299 86.4107 51.4749C85.8652 51.2853 85.2856 51.1992 84.7059 51.2164C84.0411 51.1992 83.3933 51.3198 82.7796 51.5955C82.2852 51.8194 81.8419 52.164 81.501 52.5775C81.16 52.991 80.9214 53.4562 80.7679 53.9731C80.6145 54.4899 80.5293 55.024 80.5293 55.5581V64.3966H76.2673V46.7197H80.5974Z" fill="white"/>
<path d="M106.851 59.8998C107.891 59.8998 108.914 59.6759 109.851 59.2107C110.806 58.7627 111.641 58.0908 112.289 57.2466L115.596 60.1238C114.54 61.4677 113.21 62.5359 111.693 63.2767C110.192 64.0176 108.522 64.4138 106.851 64.3966C105.334 64.3966 103.817 64.0865 102.419 63.4835C101.055 62.8804 99.8274 62.019 98.7875 60.9336C97.7476 59.8309 96.9122 58.556 96.3326 57.1604C95.1222 54.197 95.1222 50.8718 96.3326 47.9084C96.9122 46.5129 97.7476 45.2379 98.7875 44.1525C99.8274 43.0843 101.055 42.2229 102.419 41.6199C103.817 40.9996 105.317 40.6723 106.851 40.6895C110.261 40.6895 113.483 42.2746 115.596 44.9623L112.289 47.8395C111.641 46.9953 110.806 46.3234 109.851 45.8754C108.044 44.9967 105.93 44.9623 104.089 45.7548C103.254 46.1339 102.487 46.668 101.839 47.3399C101.191 48.0118 100.663 48.8043 100.305 49.6658C99.9467 50.5789 99.7592 51.5438 99.7592 52.5258C99.7592 53.5079 99.9467 54.4899 100.305 55.4031C100.663 56.2817 101.191 57.0743 101.839 57.7462C102.487 58.4181 103.254 58.9522 104.089 59.3313C104.959 59.7103 105.896 59.8998 106.851 59.8998Z" fill="white"/>
<path d="M122.109 40.6895V48.6665C122.62 48.0463 123.268 47.5467 124.001 47.2021C124.734 46.8747 125.535 46.7024 126.337 46.7197C127.462 46.7197 128.57 46.9264 129.627 47.3227C130.615 47.7189 131.519 48.3047 132.303 49.0456C133.07 49.7864 133.701 50.6823 134.11 51.6816C134.571 52.767 134.809 53.9386 134.775 55.1274V64.5H130.462V55.024C130.479 54.4727 130.36 53.9214 130.138 53.4217C129.934 52.9566 129.627 52.5603 129.252 52.2329C128.86 51.8884 128.416 51.6299 127.922 51.4749C127.376 51.2853 126.797 51.1992 126.217 51.2164C125.552 51.1992 124.904 51.3198 124.308 51.5955C123.813 51.8195 123.37 52.1468 123.012 52.5775C122.688 52.9738 122.45 53.439 122.296 53.9386C122.143 54.4555 122.058 54.9896 122.058 55.5237V64.3622H117.779V40.6895H122.109Z" fill="white"/>
<path d="M145.549 46.7197C146.862 46.7197 148.14 47.0298 149.3 47.6328C150.476 48.2358 151.482 49.0973 152.266 50.1655C153.903 52.3363 154.465 55.1619 153.766 57.7979H141.952C142.293 58.4009 142.77 58.9178 143.35 59.2796C143.913 59.6586 144.56 59.8654 145.242 59.8999C145.907 59.8999 146.572 59.7965 147.186 59.5553C147.799 59.2796 148.345 58.8661 148.771 58.332L152.078 61.2093C150.493 63.2078 148.089 64.3794 145.549 64.3966C144.884 64.3966 144.237 64.3277 143.589 64.1726C142.941 64.0348 142.31 63.7936 141.731 63.4835C140.861 63.0528 140.077 62.467 139.412 61.7606C138.764 61.0542 138.219 60.2272 137.827 59.3485C137.417 58.4698 137.162 57.505 137.059 56.5402C136.957 55.5409 137.025 54.5416 137.247 53.5596C137.452 52.5775 137.844 51.6472 138.372 50.8029C138.884 49.9932 139.514 49.2696 140.247 48.6493C140.98 48.0291 141.833 47.5294 142.753 47.2193C143.657 46.892 144.595 46.7197 145.549 46.7197ZM149.129 53.3184C148.754 52.6809 148.226 52.1468 147.595 51.785C146.333 51.0269 144.748 51.0269 143.486 51.785C142.856 52.1468 142.327 52.6809 141.952 53.3184H149.129Z" fill="white"/>
<path d="M164.216 59.8998C164.813 59.8998 165.393 59.7448 165.921 59.4863C166.484 59.2107 166.978 58.8144 167.37 58.332L170.678 61.2092C169.109 63.225 166.688 64.3966 164.148 64.3966C163.006 64.4138 161.881 64.1726 160.841 63.7074C156.579 61.6744 154.619 56.6263 156.392 52.2157C156.818 51.1647 157.449 50.2171 158.233 49.4074C159 48.5976 159.92 47.9601 160.926 47.5122C161.966 47.047 163.091 46.8058 164.234 46.8058C166.774 46.8058 169.194 47.9774 170.763 49.9932L167.456 52.8704C167.063 52.388 166.569 51.9917 166.006 51.7161C165.478 51.4576 164.898 51.3026 164.302 51.3026C163.722 51.2853 163.142 51.4059 162.597 51.6471C162.103 51.8711 161.642 52.1812 161.267 52.5603C160.875 52.9565 160.585 53.439 160.381 53.9558C160.159 54.5071 160.04 55.0929 160.057 55.6787C160.04 56.2645 160.159 56.8503 160.381 57.4016C160.585 57.9185 160.875 58.4009 161.267 58.7972C162.034 59.6069 163.108 60.0721 164.234 60.0549L164.216 59.8998Z" fill="white"/>
<path d="M182.082 53.0772L189.788 64.3966H184.316C183.378 63.0011 182.611 61.7606 181.793 60.6752L179.832 57.8496L178.417 55.6615C178.008 55.0757 177.667 54.5933 177.377 54.2143V64.3277H173.047V40.6895H177.377V51.5438L178.008 50.9752L179.065 50.0965C179.491 49.7347 180.071 49.2868 180.77 48.7527L183.327 46.7197H190.146L182.082 53.0772Z" fill="white"/>
<path d="M30 19.5151H99.9637" stroke="white" stroke-width="3.5" stroke-miterlimit="10"/>
<path d="M199.011 39.9832V44.0664H203V46.1511H199.011V50.4928H196.812V46.1511H192.874V44.0664H196.863V39.9832H199.011Z" fill="white"/>
</g>
<path d="M34.625 80.1562C34.625 82.3906 35.7656 84.6719 37.6562 85.6875L36.9531 86.6094C35.5703 85.8594 34.5703 84.4219 34.0625 82.75C33.5625 84.5312 32.5703 86.0781 31.1875 86.9219L30.4531 85.9844C32.3438 84.8906 33.4531 82.4531 33.4688 80.1562V79.4688H30.8281V78.4531H33.4688V76.3906H34.6406V78.4531H37.2344V79.4688H34.625V80.1562ZM42.4375 75.875V89.7656H41.2656V75.875H42.4375ZM39.625 76.2188V89.0469H38.4688V82.4062H36.2812V81.3594H38.4688V76.2188H39.625ZM56.2812 75.875V89.7656H55.1094V75.875H56.2812ZM53.4688 76.25V89.0625H52.2969V84.25H49.7188V83.2344H52.2969V80.7656H49.9531C49.2734 83.1172 47.75 85.1953 45.125 86.7656L44.375 85.875C47.3984 84.0859 48.9141 81.5781 49.1562 78.6719H45V77.6562H50.375C50.375 78.3672 50.3125 79.0703 50.1875 79.75H52.2969V76.25H53.4688ZM63.0469 78.4375C63.0469 80.25 64.4375 81.9688 66.4688 82.6719L65.8281 83.6406C64.2578 83.0781 63.0469 81.9141 62.4531 80.4844C61.8516 82.0859 60.5703 83.3672 58.9219 83.9688L58.2812 83C60.3281 82.2656 61.8125 80.4062 61.8125 78.4531V77.8438H58.6719V76.8438H66.1562V77.8438H63.0469V78.4375ZM69.7344 84.9375V89.7656H68.5V85.9531H60.3906V84.9375H69.7344ZM69.7344 75.875V84.2031H68.5V80.5469H65.7188V79.5156H68.5V75.875H69.7344ZM83.5156 75.8906V86.0469H82.2969V75.8906H83.5156ZM83.9531 88.4375V89.4688H74.5469V85.0156H75.7656V88.4375H83.9531ZM76.0156 76.8594C78.0938 76.8594 79.6562 78.2656 79.6562 80.2656C79.6562 82.2969 78.0938 83.6875 76.0156 83.6875C73.9375 83.6875 72.375 82.2969 72.375 80.2656C72.375 78.2656 73.9375 76.8594 76.0156 76.8594ZM76.0156 77.9375C74.6094 77.9375 73.5625 78.9062 73.5781 80.2656C73.5625 81.6562 74.6094 82.6094 76.0156 82.6094C77.3906 82.6094 78.4531 81.6562 78.4531 80.2656C78.4531 78.9062 77.3906 77.9375 76.0156 77.9375ZM97.1094 77C97.0938 80.5938 95.2344 83.2812 90.7656 84.7812L90.2656 83.7969C92.6484 83.0156 94.1641 81.9141 95.0156 80.5469L90.4062 80.9375L90.1875 79.9219L95.4531 79.6719C95.6484 79.1484 95.7734 78.5938 95.8281 78.0156H90.8906V77H97.1094ZM101.406 75.8906V86.2031H100.172V81.3438H97.0781V80.3125H100.172V75.8906H101.406ZM101.797 88.4375V89.4688H92.625V85.1719H93.875V88.4375H101.797ZM115.234 75.875V83.0625H114V79.4531H110.906V78.4375H114V75.875H115.234ZM115.234 83.7656V87.0781H107.469V88.5938H115.75V89.5781H106.266V86.1406H114.016V84.75H106.234V83.7656H115.234ZM108.453 77.6406C108.438 79.4688 109.875 81.125 111.906 81.7969L111.25 82.75C109.711 82.2031 108.484 81.1094 107.875 79.7031C107.281 81.2891 106.023 82.5 104.375 83.0938L103.703 82.1094C105.797 81.4219 107.234 79.6719 107.25 77.6406V76.3281H108.453V77.6406ZM125.016 76.9062V77.9062H119.594V79.6562H124.625V80.6562H119.594V82.4844C122.555 82.4844 124.195 82.4297 126.156 82.1094L126.281 83.1094C124.25 83.4375 122.547 83.5 119.484 83.5H118.359V76.9062H125.016ZM129.016 75.8906V84.5H127.797V75.8906H129.016ZM124.406 84.7031C127.297 84.6875 129.078 85.6094 129.078 87.2031C129.078 88.8281 127.297 89.7344 124.406 89.7344C121.453 89.7344 119.703 88.8281 119.703 87.2031C119.703 85.6094 121.453 84.6875 124.406 84.7031ZM124.406 85.6719C122.219 85.6719 120.922 86.25 120.922 87.2031C120.922 88.1875 122.219 88.7656 124.406 88.7656C126.531 88.7656 127.875 88.1875 127.875 87.2031C127.875 86.25 126.531 85.6719 124.406 85.6719ZM148.094 83.2344V84.2344H142.438V86.9531H141.219V84.2344H135.375V83.2344H148.094ZM146.672 88.4375V89.4688H137V85.6719H138.219V88.4375H146.672ZM138.297 76.3281V78.1094H145.172V76.3281H146.391V81.875H137.078V76.3281H138.297ZM138.297 80.875H145.172V79.0469H138.297V80.875ZM153.953 78.1094C153.953 80.0312 155.375 81.7969 157.391 82.4844L156.719 83.4688C155.172 82.8984 153.969 81.7109 153.375 80.2344C152.789 81.875 151.539 83.1562 149.906 83.7969L149.234 82.7812C151.344 82.0312 152.734 80.2031 152.75 78.0625V76.5938H153.953V78.1094ZM160.734 84.8594V89.7656H159.5V85.8438H151.391V84.8594H160.734ZM160.734 75.875V84.0938H159.5V79.8281H156.406V78.7969H159.5V75.875H160.734ZM170.844 76.9375V77.9531H169.422V82.3906C170.07 82.3516 170.695 82.2969 171.297 82.2188L171.359 83.1562C168.656 83.5781 165.484 83.6094 163.234 83.6094L163.078 82.5781L164.875 82.5625V77.9531H163.469V76.9375H170.844ZM174.562 75.875V84.4531H173.328V81.875H170.984V80.8594H173.328V79.3906H170.984V78.375H173.328V75.875H174.562ZM169.953 84.75C172.859 84.75 174.609 85.6562 174.609 87.2344C174.609 88.8281 172.859 89.7344 169.953 89.7344C167.047 89.7344 165.297 88.8281 165.297 87.2344C165.297 85.6562 167.047 84.75 169.953 84.75ZM169.953 85.7031C167.812 85.7031 166.5 86.2812 166.516 87.2344C166.5 88.2031 167.812 88.7656 169.953 88.7656C172.094 88.7656 173.391 88.2031 173.391 87.2344C173.391 86.2812 172.094 85.7031 169.953 85.7031ZM166.062 82.5469C166.773 82.5312 167.508 82.5078 168.234 82.4688V77.9531H166.062V82.5469ZM187.625 75.875V81.5312H189.875V82.5625H187.625V89.7656H186.406V75.875H187.625ZM184.031 77.375C184.031 81.3125 182.188 84.8906 177.656 87.125L176.969 86.1562C180.562 84.3672 182.516 81.6953 182.797 78.4062H177.609V77.375H184.031ZM207.438 86.9375V87.9844H194.719V86.9375H207.438ZM206.219 77.2812V78.2969H204.016V83.1562H206.188V84.1562H195.875V83.1562H198.047V78.2969H195.844V77.2812H206.219ZM199.266 83.1562H202.812V78.2969H199.266V83.1562ZM221.266 87.0156V88.0469H208.547V87.0156H214.266V84.3906H210.141V80.1094H218.453V77.9219H210.109V76.9062H219.656V81.1094H211.359V83.375H219.984V84.3906H215.469V87.0156H221.266ZM233.328 77.3594V78.75C233.328 80.5 233.328 82.4844 232.812 85.5L231.562 85.375C232.125 82.5312 232.125 80.4531 232.125 78.75V78.375H223.75V77.3594H233.328ZM235.031 86.7031V87.7188H222.375V86.7031H235.031ZM248 75.8906V84.1719H246.828V80.4375H244.875V83.9844H243.734V76.1562H244.875V79.4219H246.828V75.8906H248ZM248 84.8281V89.5781H238.828V84.8281H248ZM240.031 85.8281V88.5781H246.797V85.8281H240.031ZM242.078 76.7969V80.5781H238.031V82.5781C239.859 82.5703 241.258 82.4844 242.906 82.1562L243.047 83.1562C241.25 83.5 239.766 83.5469 237.75 83.5469H236.844V79.625H240.906V77.7969H236.812V76.7969H242.078ZM42.4531 96.875V110.766H41.2656V96.875H42.4531ZM39.6094 97.2188V110.047H38.4375V103.219H35.4062V102.188H38.4375V97.2188H39.6094ZM36.3438 98.5938V99.6094H32.2969V106.391C34.2969 106.383 35.5625 106.297 37.0625 105.969L37.1875 107.016C35.5781 107.344 34.2188 107.406 31.9844 107.422H31.1094V98.5938H36.3438ZM55.8438 96.875V110.797H54.6094V96.875H55.8438ZM48.4531 97.9531C50.5156 97.9688 52 99.8438 52 102.797C52 105.75 50.5156 107.625 48.4531 107.625C46.375 107.625 44.9062 105.75 44.9062 102.797C44.9062 99.8438 46.375 97.9688 48.4531 97.9531ZM48.4531 99.0469C47.0625 99.0625 46.0938 100.531 46.0938 102.797C46.0938 105.062 47.0625 106.531 48.4531 106.531C49.8438 106.531 50.8125 105.062 50.8125 102.797C50.8125 100.531 49.8438 99.0625 48.4531 99.0469ZM69.7344 96.875V110.797H68.5156V103.141H65.5781V102.125H68.5156V96.875H69.7344ZM65.3438 98.1562V99.1719H60.0938V102.062H64.7344V103.062H60.0938V106.422C62.6484 106.422 64.2734 106.336 66.1875 106L66.3281 107.016C64.3125 107.344 62.6094 107.438 59.9219 107.438H58.8594V98.1562H65.3438ZM87.5469 96.875V110.766H86.3125V96.875H87.5469ZM83.4375 98.3906C83.4219 102.391 81.5625 105.922 76.9062 108.156L76.2344 107.156C79.9922 105.375 81.9062 102.711 82.1875 99.3906H76.875V98.3906H83.4375ZM100.75 96.8906V101.094H102.844V102.125H100.75V107.094H99.5312V96.8906H100.75ZM101.391 109.438V110.469H92.0625V106.094H93.2656V109.438H101.391ZM91.6875 97.8906V100.234H95.7344V97.8906H96.9531V104.75H90.4844V97.8906H91.6875ZM91.6875 103.75H95.7344V101.203H91.6875V103.75ZM110.047 97.7812C112.953 97.7812 115.125 99.2969 115.125 101.594C115.125 103.906 112.953 105.422 110.047 105.406C107.141 105.422 104.969 103.906 104.969 101.594C104.969 99.2969 107.141 97.7812 110.047 97.7812ZM110.047 98.7812C107.812 98.7656 106.125 99.9375 106.141 101.594C106.125 103.281 107.812 104.406 110.047 104.406C112.266 104.406 113.938 103.281 113.938 101.594C113.938 99.9375 112.266 98.7656 110.047 98.7812ZM116.438 107.891V108.922H103.719V107.891H116.438ZM130.266 108.016V109.047H117.547V108.016H123.266V105.391H119.141V101.109H127.453V98.9219H119.109V97.9062H128.656V102.109H120.359V104.375H128.984V105.391H124.469V108.016H130.266ZM142.406 97.8281V103.766H135.984V97.8281H142.406ZM137.188 98.8281V102.766H141.219V98.8281H137.188ZM146.25 96.875V100.219H148.344V101.25H146.25V104.812H145.031V96.875H146.25ZM146.5 105.625V106.625H142.562C142.695 108.109 144.766 109.406 147.031 109.766L146.578 110.719C144.547 110.383 142.703 109.375 141.906 107.984C141.117 109.383 139.289 110.375 137.266 110.703L136.797 109.766C139.094 109.406 141.125 108.133 141.281 106.625H137.344V105.625H146.5ZM161.875 103.75V104.75H156.141V106.281H160.328V110.578H150.766V106.281H154.938V104.75H149.219V103.75H161.875ZM156.141 96.7969V98.1875H160.594V99.1719H156.219C156.305 100.719 158.516 101.758 161.125 102L160.766 102.922C158.453 102.68 156.391 101.883 155.547 100.5C154.695 101.883 152.633 102.68 150.328 102.922L149.953 102C152.578 101.758 154.773 100.719 154.875 99.1719H150.531V98.1875H154.938V96.7969H156.141ZM151.984 107.266V109.578H159.125V107.266H151.984ZM173.984 101.125V102.953H179.719V103.953H167.062V102.953H172.781V101.125H173.984ZM174 97.5156C174 99.3125 176.469 100.641 179 100.922L178.562 101.859C176.375 101.562 174.258 100.617 173.391 99.0938C172.5 100.617 170.375 101.562 168.203 101.859L167.766 100.922C170.297 100.641 172.766 99.3125 172.766 97.5156V96.9844H174V97.5156ZM178.094 105.109V108.266H169.844V109.641H178.516V110.609H168.625V107.344H176.891V106.062H168.594V105.109H178.094ZM192.047 97.4375V101.047H183.672V102.844H192.344V103.859H182.438V100.078H190.797V98.4375H182.406V97.4375H192.047ZM193.594 105.328V106.312H187.812V110.797H186.594V106.312H180.875V105.328H193.594ZM199.469 99.4531C199.469 101.484 200.859 103.406 202.875 104.203L202.188 105.156C200.656 104.523 199.469 103.258 198.891 101.672C198.289 103.383 197.039 104.742 195.422 105.406L194.75 104.422C196.812 103.625 198.25 101.625 198.266 99.4531V97.6719H199.469V99.4531ZM206.234 96.8906V107.266H205V102.812H202.141V101.812H205V99.9688H202.141V98.9531H205V96.8906H206.234ZM206.547 109.438V110.469H197.25V106.188H198.484V109.438H206.547Z" fill="white"/>
<rect x="30" y="128.5" width="312" height="40" rx="20" fill="white"/>
<path d="M77.1172 152.891V154.754H62.4746V152.891H77.1172ZM75.8867 142.027V143.82H73.6367V148.672H75.8164V150.43H63.6875V148.672H65.832V143.82H63.6172V142.027H75.8867ZM68.082 148.672H71.4219V143.82H68.082V148.672ZM92.6738 152.996V154.842H78.0312V152.996H84.2012V150.588H79.7188V145.209H88.7715V143.451H79.7012V141.658H90.9863V146.967H81.9688V148.76H91.3555V150.588H86.4336V152.996H92.6738ZM106.385 142.098V144.014C106.385 146.211 106.385 148.391 105.805 151.695L103.537 151.502C104.135 148.426 104.135 146.141 104.152 144.014V143.891H95.0996V142.098H106.385ZM108.178 152.68V154.525H93.5879V152.68H108.178ZM122.891 140.639V150.061H120.764V146.193H119.375V149.938H117.283V140.92H119.375V144.4H120.764V140.639H122.891ZM122.891 150.711V156.441H111.975V150.711H122.891ZM114.207 152.486V154.648H120.676V152.486H114.207ZM115.877 141.57V146.334H111.957V147.775C113.706 147.758 115.007 147.688 116.527 147.406L116.721 149.164C114.857 149.48 113.275 149.516 110.902 149.516H109.795V144.664H113.715V143.311H109.777V141.57H115.877ZM141.471 140.621V146.598H143.826V148.479H141.471V156.617H139.221V140.621H141.471ZM131.592 141.887V145.789H134.914V141.887H137.146V152.908H129.359V141.887H131.592ZM131.592 151.098H134.914V147.529H131.592V151.098ZM159.049 152.996V154.842H144.406V152.996H150.576V150.588H146.094V145.209H155.146V143.451H146.076V141.658H157.361V146.967H148.344V148.76H157.73V150.588H152.809V152.996H159.049ZM172.584 140.621V146.756H174.852V148.602H172.584V156.582H170.334V140.621H172.584ZM168.312 142.256C168.295 147.037 166.432 151.186 161.053 153.822L159.787 152.1C163.575 150.201 165.605 147.652 166.027 144.084H160.701V142.256H168.312ZM188.967 140.621V156.617H186.699V140.621H188.967ZM184.168 142.291C184.168 147.143 182.463 151.168 176.75 153.875L175.572 152.082C179.703 150.131 181.522 147.6 181.883 144.049H176.434V142.291H184.168Z" fill="#00619E"/>
<path d="M295 154.5L301 148.5L295 142.5" stroke="#00619E" stroke-width="2" stroke-linecap="round" stroke-linejoin="round"/>
<defs>
<clipPath id="clip0_54_92">
<rect width="173" height="48" fill="white" transform="translate(30 16.5)"/>
</clipPath>
</defs>
</svg>
