<svg id="레이어_1" data-name="레이어 1" xmlns="http://www.w3.org/2000/svg" viewBox="0 0 780.93 247.01"><defs><style>.cls-1{fill:#1f2f56;}.cls-2,.cls-7{fill:#0d4a8b;}.cls-3{fill:#928f92;}.cls-4{fill:#204a88;}.cls-5{fill:#008ec5;}.cls-6{opacity:0.99;}.cls-7{stroke:#0b4b8c;stroke-miterlimit:10;stroke-width:4px;}</style></defs><path class="cls-1" d="M224.17,88.15h12.92l21.21,48.13,21.28-48.13H292.5l-12,27.12,9.28,21,21.29-48.13h12.83L294.82,154h-10.1L274,129.89,263.43,154H253.24q-5.88-13.29-10.18-23t-7.38-16.71q-3.06-6.94-5-11.43t-3.14-7.18c-.8-1.8-1.4-3.13-1.78-4s-.67-1.48-.83-1.87a7.66,7.66,0,0,0-.38-.79C224.46,88.85,224.34,88.57,224.17,88.15Z"/><path class="cls-2" d="M340.77,89.79v9.84H328.61V89.79ZM328.61,154V106.19h12.16V154Z"/><path class="cls-2" d="M361.23,106.19v5.26a13.82,13.82,0,0,1,5.35-4,16.73,16.73,0,0,1,6.56-1.3,25.87,25.87,0,0,1,9.23,1.64,23,23,0,0,1,7.55,4.62,21.47,21.47,0,0,1,5.09,7.12,21.85,21.85,0,0,1,1.86,9.06V154H384.7V128.63a9.85,9.85,0,0,0-.91-4.32,9.53,9.53,0,0,0-2.5-3.23,11,11,0,0,0-3.75-2,15,15,0,0,0-4.58-.69,13.11,13.11,0,0,0-5.39,1,10,10,0,0,0-3.63,2.68,10.8,10.8,0,0,0-2.07,3.75,14.43,14.43,0,0,0-.64,4.32V154H349.06V106.19Z"/><path class="cls-2" d="M415.42,106.19v5.26a13.89,13.89,0,0,1,5.35-4,16.77,16.77,0,0,1,6.56-1.3,25.79,25.79,0,0,1,9.23,1.64,23,23,0,0,1,7.55,4.62,21.49,21.49,0,0,1,5.1,7.12,22,22,0,0,1,1.85,9.06V154H438.89V128.63a10,10,0,0,0-.9-4.32,9.56,9.56,0,0,0-2.51-3.23,10.94,10.94,0,0,0-3.75-2,14.91,14.91,0,0,0-4.57-.69,13.16,13.16,0,0,0-5.4,1,10.05,10.05,0,0,0-3.62,2.68,10.64,10.64,0,0,0-2.07,3.75,14.44,14.44,0,0,0-.65,4.32V154H403.25V106.19Z"/><path class="cls-2" d="M479.11,106.19a24.18,24.18,0,0,1,23.47,19.12,23.1,23.1,0,0,1-.34,10.83H469a11.43,11.43,0,0,0,3.93,4,11.21,11.21,0,0,0,5.3,1.68,14.9,14.9,0,0,0,5.48-1,11.08,11.08,0,0,0,4.45-3.28l9.32,7.77a23.59,23.59,0,0,1-8.37,6.43,23.85,23.85,0,0,1-10,2.2,25.34,25.34,0,0,1-5.48-.6,21.78,21.78,0,0,1-5.22-1.9,22.65,22.65,0,0,1-6.52-4.75,24.59,24.59,0,0,1-4.49-6.51,23.94,23.94,0,0,1-1.59-15.67,22.91,22.91,0,0,1,3.15-7.42,24.6,24.6,0,0,1,5.26-5.82,23,23,0,0,1,6.9-3.8A24.19,24.19,0,0,1,479.11,106.19Zm10.09,17.86a11.82,11.82,0,0,0-4.31-4.18,11.82,11.82,0,0,0-11.56,0,11.78,11.78,0,0,0-4.32,4.18Z"/><path class="cls-2" d="M507.93,106.19H520.1v5.26a15,15,0,0,1,10.35-5.17v12.08a12.15,12.15,0,0,0-4.74,1.34,10,10,0,0,0-3.24,2.71,10.85,10.85,0,0,0-1.81,3.63,14.58,14.58,0,0,0-.56,4.06V154H507.93Z"/><path class="cls-1" d="M537.77,88.15h9.53l39.58,45.47V88.15h11.4V154h-9.53l-39.5-45.46V154H537.77Z"/><path class="cls-2" d="M626.57,106.19A24.18,24.18,0,0,1,650,125.31a23,23,0,0,1-.34,10.83H616.47a11.43,11.43,0,0,0,3.93,4,11.22,11.22,0,0,0,5.31,1.68,15,15,0,0,0,5.48-1,11,11,0,0,0,4.44-3.28l9.32,7.77a23.59,23.59,0,0,1-8.37,6.43,23.85,23.85,0,0,1-10,2.2,25.34,25.34,0,0,1-5.48-.6,21.94,21.94,0,0,1-5.22-1.9,22.79,22.79,0,0,1-6.52-4.75,24.32,24.32,0,0,1-4.48-6.51,23.86,23.86,0,0,1-1.6-15.67,22.91,22.91,0,0,1,3.15-7.42,24.81,24.81,0,0,1,5.26-5.82,23.13,23.13,0,0,1,6.91-3.8A24.13,24.13,0,0,1,626.57,106.19Zm10.1,17.86a11.85,11.85,0,0,0-4.32-4.18,11.82,11.82,0,0,0-11.56,0,11.93,11.93,0,0,0-4.32,4.18Z"/><path class="cls-2" d="M653.11,106.19h5.78V89.88h12.17v16.31H682.8v12.17H671.06V140a2.51,2.51,0,0,0,2.16,2.67,24,24,0,0,0,5.52.52h4.06v10.7h-.18c-1.55,0-3,0-4.44.05s-2.75,0-4,0a51.48,51.48,0,0,1-6.78-.39,9.73,9.73,0,0,1-4.74-1.81,8.61,8.61,0,0,1-2.81-4.23,24.36,24.36,0,0,1-1-7.55V118.36h-5.78Z"/><path class="cls-3" d="M147,164.81c-27.51-.66-49.74-4.34-49.65-8.23.06-2.44,8.88-4.37,22.23-5.32v-.36c-16.92.91-28.53,3.28-28.6,6.33-.11,4.37,23.36,8.47,52.42,9.17,27.89.67,50.77-2,52.67-6.12C191.53,163.42,171.25,165.39,147,164.81Z"/><path class="cls-4" d="M157.33,126.87l-8.49,15.52a1.05,1.05,0,0,1-1.91-.11l-22.66-54.8a1.09,1.09,0,0,1,1-1.52h14.9a1.06,1.06,0,0,1,1,.67l16.25,39.27A1.14,1.14,0,0,1,157.33,126.87Z"/><path class="cls-4" d="M184.1,126.87l-8.49,15.52a1.05,1.05,0,0,1-1.91-.11L151,87.48A1.1,1.1,0,0,1,152,86h14.91a1.06,1.06,0,0,1,1,.67l16.25,39.27A1.14,1.14,0,0,1,184.1,126.87Z"/><path class="cls-5" d="M203,86H188.12a1,1,0,0,0-.92.56l-5.87,10.75a1.12,1.12,0,0,0-.06,1l6.88,16.62a1,1,0,0,0,1.92.08l13.84-27.37A1.09,1.09,0,0,0,203,86Z"/><path class="cls-5" d="M206.59,121.63h0a.58.58,0,0,0-.16.81c5.61,8.77,7.41,17.43,4.21,24.26-7.25,15.51-37.81,16.52-68.26,2.28s-49.24-38.37-42-53.87c3.29-7,11.49-11.26,22.3-12.43a.52.52,0,0,0,.48-.53.54.54,0,0,0-.54-.54c-14.77.1-26.16,4.74-30.41,13.83-8.14,17.39,12.58,45.07,46.66,61s68.6,14.12,76.73-3.26c4.16-8.89.69-20.28-8.24-31.43A.59.59,0,0,0,206.59,121.63Z"/><path class="cls-4" d="M120.94,92.07l-2.17-5.92a.32.32,0,0,0-.39-.2c-7.12,2-12.35,5.71-14.65,11-3.22,7.39-.1,16.5,7.53,25.23a.24.24,0,0,0,.38-.3c-4.69-6.78-6.28-13.63-3.78-19.38,2.06-4.74,6.65-8.1,12.87-10A.32.32,0,0,0,120.94,92.07Z"/><path class="cls-4" d="M202.67,120.21a55.83,55.83,0,0,0-6.24-7.4.25.25,0,0,0-.4.06l-3,5.79a.23.23,0,0,0,0,.28,41.77,41.77,0,0,1,4.59,6c4.3,6.64,5.82,13.25,3.67,18.81-2.27,5.85-8.22,9.59-16.32,11.11a.24.24,0,0,0,.06.48c11.56-.84,20.18-5.11,23.1-12.63C210.72,136.09,208.47,128.12,202.67,120.21Z"/><g class="cls-6"><path class="cls-7" d="M597.25,192.36H585.46v8.82h-2v-8.82h-9.29v-1.92h23.11Zm-8.47-20.91a6.77,6.77,0,0,1,2.63.49,5.89,5.89,0,0,1,2,1.43,6.35,6.35,0,0,1,1.32,2.23,8.45,8.45,0,0,1,.46,2.88,8.22,8.22,0,0,1-.46,2.82,6.49,6.49,0,0,1-1.32,2.22,6.19,6.19,0,0,1-2,1.44,6.6,6.6,0,0,1-2.63.51h-8.23a6.55,6.55,0,0,1-2.62-.51,5.74,5.74,0,0,1-2-1.44,6.76,6.76,0,0,1-1.29-2.22,8.22,8.22,0,0,1-.46-2.82,8.45,8.45,0,0,1,.46-2.88,6.6,6.6,0,0,1,1.29-2.23,5.47,5.47,0,0,1,2-1.43,6.72,6.72,0,0,1,2.62-.49Zm-.54,12.1a6,6,0,0,0,2-.31,4.22,4.22,0,0,0,1.56-.92,4.56,4.56,0,0,0,1-1.58,6.23,6.23,0,0,0,.37-2.26,4.92,4.92,0,0,0-1.4-3.86,5.1,5.1,0,0,0-3.53-1.25H581a4.88,4.88,0,0,0-3.43,1.25,5,5,0,0,0-1.37,3.86,6.46,6.46,0,0,0,.36,2.26,4.26,4.26,0,0,0,1,1.58,4.18,4.18,0,0,0,1.53.92,5.53,5.53,0,0,0,1.9.31Zm14.26-12.1h2v29.73h-2Z"/><path class="cls-7" d="M614.57,198.36c-2,0-3.05-1.09-3.05-3.29V171.45h2V194a6.69,6.69,0,0,0,.09,1.22,1.49,1.49,0,0,0,.31.73,1.08,1.08,0,0,0,.65.38,5,5,0,0,0,1.15.1h14.67v1.92Zm25-15.63H630v-1.92h9.5v-9.36h2v29.73h-2Z"/><path class="cls-7" d="M651.26,186.84c-2,0-3-1.09-3-3.29v-12.1h2v11.07a7.81,7.81,0,0,0,.08,1.22,1.67,1.67,0,0,0,.31.74,1.13,1.13,0,0,0,.65.37,5,5,0,0,0,1.15.11h10.73v1.88Zm14,6a3.8,3.8,0,0,0,.37,1.69,5.14,5.14,0,0,0,1,1.41,7.71,7.71,0,0,0,1.48,1.13,17.17,17.17,0,0,0,1.76.91,13.93,13.93,0,0,0,4.58,1.08c1.59.1,3.09.16,4.51.16v2h-1.8c-.7,0-1.34,0-1.94-.07a25.5,25.5,0,0,1-3.1-.43,15.79,15.79,0,0,1-3.2-1,13.71,13.71,0,0,1-2.71-1.48,7.09,7.09,0,0,1-2-2.09,6.82,6.82,0,0,1-2,2.09,14.58,14.58,0,0,1-2.74,1.48,16.08,16.08,0,0,1-3.21,1,25.5,25.5,0,0,1-3.1.43c-.59.05-1.24.07-1.94.07h-1.8v-2c1.42,0,2.92-.06,4.51-.16a13.87,13.87,0,0,0,4.58-1.08,16.36,16.36,0,0,0,1.77-.91,7.34,7.34,0,0,0,1.47-1.13,5.14,5.14,0,0,0,1-1.41,3.81,3.81,0,0,0,.38-1.69V190h2.06ZM669.47,179h-7.55V177h7.55v-5.59h2V187.8h-2Zm7.47-7.51h2V187.8h-2Z"/></g><path class="cls-1" d="M393.93,70l-.2-3.7h5.37a134.46,134.46,0,0,0,13.94-.9l.48,3.64a113.74,113.74,0,0,1-14.81,1Zm1-15.54v-.51c0-5.55,3.67-8.11,8.26-8.11s8.2,2.56,8.2,8.11v.51c0,5.49-3.67,8.07-8.2,8.07S395,59.94,395,54.45Zm12.38-.06v-.45c0-3-1.89-4.44-4.12-4.44s-4.15,1.41-4.15,4.44v.45c0,3,1.85,4.43,4.15,4.43S407.33,57.42,407.33,54.39Zm7.88,20V44.56h4.08v29.8Z"/><path class="cls-1" d="M444.68,68.55h7.09v3.73H423.69V68.55h7.11V64.82h4v3.73h6V64.82h3.95ZM444.43,53v-3H426.82V46.41h21.69V56.52H431v3.1h18.12v3.57H427V53Z"/><path class="cls-1" d="M455.88,50.49V46.76h14.7V49.7c0,8.48-4.65,15.82-13.08,21.28L455,67.75c7.88-4.94,11.43-11.61,11.43-17.26Zm19.81-5.93h4.08v29.8h-4.08Z"/><path class="cls-1" d="M502.84,62.52a112.19,112.19,0,0,1-14.39,1h-4.54l-.22-3.73h5.43V53.36h4.08v6.29c2.94-.13,6.25-.38,9.19-.73ZM496.07,57a59.42,59.42,0,0,0,.8-7.59H485.48V46h15.38v1.5a57.7,57.7,0,0,1-.9,10Zm-3.29,9v4.69h17.27v3.7H488.73V66Zm15.86-12.83h4v3.73h-4v10.5h-4.08V44.56h4.08Z"/><path class="cls-1" d="M523.6,72.6v-26h3.95l12.86,18.95V46.57h4.05v26h-4L527.65,53.65V72.6Z"/><path class="cls-1" d="M548.16,64.24V61.85c0-5.8,4.12-8.77,8.87-8.77s8.9,3,8.9,8.77v2.39c0,5.84-4.15,8.84-8.9,8.84S548.16,70.08,548.16,64.24Zm13.66-.09V62c0-3.48-2.24-5.17-4.79-5.17s-4.75,1.69-4.75,5.17v2.17c0,3.48,2.2,5.2,4.75,5.2S561.82,67.63,561.82,64.15Z"/><path class="cls-1" d="M569,70.5a2.59,2.59,0,1,1,5.17,0,2.59,2.59,0,0,1-5.17,0Z"/><path class="cls-1" d="M584.43,72.6V52l-5.33,4.18-2.29-3,8.36-6.54h3.38v26Z"/><path class="cls-1" d="M615.44,65.33c1.12-.13,2.26-.26,3.35-.42l.45,3.67A104.45,104.45,0,0,1,605,69.64h-4.4l-.19-3.74h3.09V50.33h-2.68V46.6h17.27v3.73h-2.62Zm-4-15h-4.05V65.87c1.28,0,2.65-.09,4.05-.19Zm17.81,5V59H625V74.36h-4.05V44.56H625V55.34Z"/><path class="cls-1" d="M631.07,68.55h28.07v3.73H631.07Zm25.46-8v3.61H634.35V46.41h21.54v3.67H638.4v3.35h17.49V57H638.4v3.51Z"/><path class="cls-1" d="M669.48,65.9A70.67,70.67,0,0,0,680.2,65l.48,3.6a69.49,69.49,0,0,1-11.87,1.06h-5.72v-23h4.12V65.9Zm13.59-21.34h4.08v29.8h-4.08V57.19h-8.94V53.46h8.94Z"/></svg>