<svg id="레이어_1" data-name="레이어 1" xmlns="http://www.w3.org/2000/svg" viewBox="0 0 899.69 320.79"><defs><style>.cls-1{fill:#dbdddd;}.cls-2{opacity:0.99;}</style></defs><path class="cls-1" d="M229.11,112.14h17.33l28.42,64.51,28.54-64.51h17.33l-16.1,36.35,12.43,28.16,28.54-64.51h17.21l-39,88.28H310.29L296,168.1l-14.21,32.32H268.09q-7.89-17.83-13.66-30.9t-9.88-22.39q-4.11-9.33-6.72-15.33t-4.22-9.62q-1.61-3.63-2.39-5.35c-.52-1.15-.89-2-1.11-2.5s-.39-.87-.5-1.07A10.27,10.27,0,0,1,229.11,112.14Z"/><path class="cls-1" d="M385.45,114.33v13.19H369.13V114.33Zm-16.32,86.09v-64.1h16.32v64.1Z"/><path class="cls-1" d="M412.87,136.32v7.05a18.56,18.56,0,0,1,7.17-5.32,22.59,22.59,0,0,1,8.79-1.73,34.64,34.64,0,0,1,12.38,2.19,31.12,31.12,0,0,1,10.13,6.2,28.85,28.85,0,0,1,6.82,9.54,29.34,29.34,0,0,1,2.49,12.15v34H444.34v-34a13.3,13.3,0,0,0-1.22-5.79,12.82,12.82,0,0,0-3.35-4.33,14.58,14.58,0,0,0-5-2.72,19.86,19.86,0,0,0-6.13-.93,17.68,17.68,0,0,0-7.23,1.33,13.47,13.47,0,0,0-4.86,3.59,14.38,14.38,0,0,0-2.78,5,19.55,19.55,0,0,0-.86,5.79v32H396.55v-64.1Z"/><path class="cls-1" d="M485.53,136.32v7.05a18.56,18.56,0,0,1,7.17-5.32,22.59,22.59,0,0,1,8.79-1.73,34.64,34.64,0,0,1,12.38,2.19,31,31,0,0,1,10.13,6.2,28.85,28.85,0,0,1,6.82,9.54,29.34,29.34,0,0,1,2.49,12.15v34H517v-34a13.3,13.3,0,0,0-1.22-5.79,12.82,12.82,0,0,0-3.35-4.33,14.58,14.58,0,0,0-5-2.72,19.91,19.91,0,0,0-6.13-.93A17.68,17.68,0,0,0,494,154a13.47,13.47,0,0,0-4.86,3.59,14.38,14.38,0,0,0-2.78,5,19.55,19.55,0,0,0-.86,5.79v32H469.21v-64.1Z"/><path class="cls-1" d="M570.91,136.32a32.43,32.43,0,0,1,31.47,25.62,30.83,30.83,0,0,1-.46,14.53H557.38a15.31,15.31,0,0,0,5.26,5.38,15.11,15.11,0,0,0,7.12,2.25,20.15,20.15,0,0,0,7.34-1.27,14.91,14.91,0,0,0,6-4.4l12.5,10.42a31.73,31.73,0,0,1-11.22,8.62,32.22,32.22,0,0,1-13.43,2.95,34.32,34.32,0,0,1-7.34-.81,28.54,28.54,0,0,1-7-2.55,30.54,30.54,0,0,1-8.74-6.36,32.79,32.79,0,0,1-6-8.74,32.12,32.12,0,0,1-2.14-21,30.93,30.93,0,0,1,4.23-10A33.32,33.32,0,0,1,551,143.2a31,31,0,0,1,9.26-5.09A32.43,32.43,0,0,1,570.91,136.32Zm13.54,24a15.85,15.85,0,0,0-5.78-5.61,15.83,15.83,0,0,0-15.51,0,15.78,15.78,0,0,0-5.78,5.61Z"/><path class="cls-1" d="M609.56,136.32h16.31v7.05a20.18,20.18,0,0,1,13.89-6.94v16.2a16.53,16.53,0,0,0-6.37,1.79,13.53,13.53,0,0,0-4.34,3.65,14.24,14.24,0,0,0-2.43,4.86,20,20,0,0,0-.75,5.44v32H609.56Z"/><path class="cls-1" d="M649.57,112.14h12.77l53.06,61V112.14h15.29v88.28H717.91l-52.95-61v61H649.57Z"/><path class="cls-1" d="M768.62,136.32a32.43,32.43,0,0,1,31.47,25.62,30.83,30.83,0,0,1-.46,14.53H755.09a15.31,15.31,0,0,0,5.26,5.38,15.11,15.11,0,0,0,7.12,2.25,20.23,20.23,0,0,0,7.34-1.27,14.91,14.91,0,0,0,6-4.4l12.5,10.42A31.67,31.67,0,0,1,782,197.47a32.14,32.14,0,0,1-13.42,2.95,34.32,34.32,0,0,1-7.34-.81,28.54,28.54,0,0,1-7-2.55,30.54,30.54,0,0,1-8.74-6.36,32.79,32.79,0,0,1-6-8.74,32.12,32.12,0,0,1-2.14-21,30.93,30.93,0,0,1,4.23-10,33.1,33.1,0,0,1,7-7.81,31,31,0,0,1,9.26-5.09A32.43,32.43,0,0,1,768.62,136.32Zm13.54,24a15.88,15.88,0,0,0-5.79-5.61,15.81,15.81,0,0,0-15.5,0,15.78,15.78,0,0,0-5.78,5.61Z"/><path class="cls-1" d="M804.2,136.32H812V114.45h16.31v21.87H844v16.31H828.27v29a3.37,3.37,0,0,0,2.89,3.59,32.82,32.82,0,0,0,7.41.69H844V200.3h-.24c-2.08,0-4.07,0-5.95.06s-3.69.06-5.38.06a70.51,70.51,0,0,1-9.09-.52,13.19,13.19,0,0,1-6.36-2.43,11.64,11.64,0,0,1-3.76-5.67A32.52,32.52,0,0,1,812,181.67v-29H804.2Z"/><path class="cls-1" d="M125.58,214.91c-36.89-.88-66.69-5.83-66.56-11,.07-3.26,11.89-5.86,29.79-7.12v-.49c-22.68,1.22-38.25,4.4-38.34,8.49-.15,5.85,31.32,11.35,70.28,12.29,37.39.9,68.07-2.74,70.61-8.21C185.34,213.05,158.15,215.69,125.58,214.91Z"/><path class="cls-1" d="M139.49,164l-11.38,20.81a1.41,1.41,0,0,1-2.55-.15L95.17,111.24a1.47,1.47,0,0,1,1.31-2h20a1.43,1.43,0,0,1,1.32.9l21.78,52.66A1.46,1.46,0,0,1,139.49,164Z"/><path class="cls-1" d="M175.38,164,164,184.85a1.41,1.41,0,0,1-2.55-.15l-30.4-73.46a1.47,1.47,0,0,1,1.32-2h20a1.44,1.44,0,0,1,1.32.9l21.78,52.66A1.5,1.5,0,0,1,175.38,164Z"/><path class="cls-1" d="M200.69,109.19H180.78a1.42,1.42,0,0,0-1.24.75l-7.87,14.41a1.5,1.5,0,0,0-.07,1.29l9.22,22.29a1.41,1.41,0,0,0,2.58.1L202,111.34A1.47,1.47,0,0,0,200.69,109.19Z"/><path class="cls-1" d="M205.54,157h0a.79.79,0,0,0-.22,1.08c7.52,11.76,9.94,23.37,5.66,32.53-9.73,20.79-50.71,22.15-91.52,3.05s-66-51.43-56.3-72.22c4.42-9.45,15.41-15.09,29.91-16.66a.71.71,0,0,0,.64-.72.72.72,0,0,0-.73-.71c-19.8.12-35.06,6.35-40.77,18.53-10.9,23.31,16.87,60.43,62.56,81.81s92,18.92,102.88-4.39c5.57-11.9.92-27.18-11.05-42.13A.78.78,0,0,0,205.54,157Z"/><path class="cls-1" d="M90.7,117.39l-2.9-7.94a.43.43,0,0,0-.52-.27c-9.55,2.71-16.57,7.65-19.65,14.74-4.32,9.92-.14,22.13,10.09,33.84a.33.33,0,0,0,.52-.41c-6.29-9.09-8.43-18.27-5.07-26,2.77-6.36,8.92-10.87,17.25-13.43A.42.42,0,0,0,90.7,117.39Z"/><path class="cls-1" d="M200.29,155.11a75.14,75.14,0,0,0-8.37-9.92.33.33,0,0,0-.53.08l-4,7.76a.34.34,0,0,0,.06.39,55.23,55.23,0,0,1,6.15,8c5.77,8.9,7.81,17.77,4.92,25.23-3,7.84-11,12.85-21.87,14.89a.33.33,0,0,0,.08.65c15.5-1.12,27.06-6.85,31-16.93C211.07,176.4,208.06,165.72,200.29,155.11Z"/><g class="cls-2"><path class="cls-1" d="M729.32,251.85H713.5v11.82h-2.71V251.85H698.33v-2.57h31Zm-11.36-28a9.08,9.08,0,0,1,3.52.66,7.84,7.84,0,0,1,2.73,1.91,8.51,8.51,0,0,1,1.77,3,11.33,11.33,0,0,1,.62,3.86A10.92,10.92,0,0,1,726,237a8.51,8.51,0,0,1-1.77,3,8,8,0,0,1-2.73,1.93,8.74,8.74,0,0,1-3.52.69h-11a8.74,8.74,0,0,1-3.52-.69,7.59,7.59,0,0,1-2.69-1.93,8.88,8.88,0,0,1-1.72-3,10.92,10.92,0,0,1-.62-3.79,11.33,11.33,0,0,1,.62-3.86,8.88,8.88,0,0,1,1.72-3,7.42,7.42,0,0,1,2.69-1.91,9.08,9.08,0,0,1,3.52-.66ZM717.22,240a8.09,8.09,0,0,0,2.65-.42,5.56,5.56,0,0,0,2.09-1.24,5.87,5.87,0,0,0,1.38-2.11,8.24,8.24,0,0,0,.5-3c0-2.33-.62-4-1.88-5.17a6.87,6.87,0,0,0-4.74-1.68h-9.7a6.54,6.54,0,0,0-4.59,1.68q-1.84,1.68-1.84,5.17a8.7,8.7,0,0,0,.48,3,5.46,5.46,0,0,0,1.36,2.11,5.6,5.6,0,0,0,2,1.24,7.5,7.5,0,0,0,2.55.42Zm19.13-16.23h2.71v39.86h-2.71Z"/><path class="cls-1" d="M752.53,259.9q-4.1,0-4.09-4.42V223.81h2.71v30.25a8.9,8.9,0,0,0,.12,1.63,2.14,2.14,0,0,0,.41,1,1.56,1.56,0,0,0,.88.5,6.35,6.35,0,0,0,1.54.14h19.67v2.58Zm33.47-21H773.27v-2.57H786V223.81h2.71v39.86H786Z"/><path class="cls-1" d="M801.72,244.45c-2.72,0-4.09-1.47-4.09-4.41V223.81h2.67v14.85a10.15,10.15,0,0,0,.11,1.63,2.25,2.25,0,0,0,.42,1,1.56,1.56,0,0,0,.87.5,7,7,0,0,0,1.54.14h14.39v2.53Zm18.72,8.09a5.08,5.08,0,0,0,.5,2.28,7,7,0,0,0,1.36,1.88,9.81,9.81,0,0,0,2,1.52,24,24,0,0,0,2.37,1.22,18.79,18.79,0,0,0,6.14,1.44q3.19.21,6,.21v2.62h-2.41c-.93,0-1.8,0-2.6-.09a34.61,34.61,0,0,1-4.16-.57,22.73,22.73,0,0,1-4.3-1.31,18.74,18.74,0,0,1-3.63-2A9.61,9.61,0,0,1,819.1,257a9.24,9.24,0,0,1-2.66,2.81,20.13,20.13,0,0,1-3.68,2,22.51,22.51,0,0,1-4.3,1.31,34.34,34.34,0,0,1-4.16.57c-.8.06-1.66.09-2.6.09h-2.41v-2.62q2.85,0,6-.21a18.79,18.79,0,0,0,6.14-1.44,24,24,0,0,0,2.37-1.22,9.81,9.81,0,0,0,2-1.52,7,7,0,0,0,1.36-1.88,5.09,5.09,0,0,0,.51-2.28v-3.82h2.76Zm5.7-18.66H816V231.3h10.12v-7.49h2.66v21.93h-2.66Zm10-10.07h2.66v21.93h-2.66Z"/></g><path class="cls-1" d="M456.71,87.78l-.26-5h7.19a182.19,182.19,0,0,0,18.69-1.2l.64,4.87a152.12,152.12,0,0,1-19.85,1.29ZM458.08,67v-.69c0-7.44,4.92-10.87,11.07-10.87s11,3.43,11,10.87V67c0,7.35-4.92,10.82-11,10.82S458.08,74.3,458.08,67Zm16.59-.09v-.6c0-4.06-2.52-5.94-5.52-5.94s-5.56,1.88-5.56,5.94v.6c0,4.06,2.49,6,5.56,6S474.67,70.92,474.67,66.86Zm10.57,26.78v-40h5.48v40Z"/><path class="cls-1" d="M524.76,85.85h9.49v5H496.61v-5h9.54v-5h5.3v5h8v-5h5.31ZM524.42,65V61H500.8V56.17h29.09V69.73H506.45v4.15h24.3v4.79H501V65Z"/><path class="cls-1" d="M539.76,61.64v-5h19.73v3.93c0,11.38-6.25,21.22-17.54,28.53l-3.34-4.32c10.57-6.63,15.31-15.57,15.31-23.14Zm26.57-8h5.47v40h-5.47Z"/><path class="cls-1" d="M602.73,77.77a152,152,0,0,1-19.3,1.32h-6.07l-.3-5h7.27v-8.6h5.48v8.43c3.93-.17,8.38-.52,12.32-1Zm-9.07-7.4a82.24,82.24,0,0,0,1.07-10.18H579.45V55.57h20.62v2A78.18,78.18,0,0,1,598.87,71Zm-4.41,12v6.29h23.14v5H583.82V82.39Zm21.26-17.2h5.35v5h-5.35V84.27H605V53.68h5.48Z"/><path class="cls-1" d="M630.56,91.29V56.38h5.31l17.24,25.41V56.38h5.43V91.29h-5.31L636,65.88V91.29Z"/><path class="cls-1" d="M663.49,80.08V76.87c0-7.78,5.52-11.76,11.9-11.76s11.93,4,11.93,11.76v3.21c0,7.83-5.56,11.85-11.93,11.85S663.49,87.91,663.49,80.08ZM681.8,80V77c0-4.66-3-6.93-6.41-6.93S669,72.38,669,77V80c0,4.66,3,7,6.38,7S681.8,84.61,681.8,80Z"/><path class="cls-1" d="M691.47,88.46a3.47,3.47,0,1,1,3.46,3.47A3.48,3.48,0,0,1,691.47,88.46Z"/><path class="cls-1" d="M712.12,91.29V63.61L705,69.21l-3.08-4.06,11.21-8.77h4.53V91.29Z"/><path class="cls-1" d="M753.7,81.53c1.49-.17,3-.34,4.49-.55l.6,4.92a141.22,141.22,0,0,1-19.12,1.41h-5.91l-.25-5h4.15V61.43h-3.6v-5h23.15v5H753.7Zm-5.31-20.1H743V82.26c1.71,0,3.55-.13,5.43-.26Zm23.87,6.71v5h-5.77V93.64h-5.44v-40h5.44V68.14Z"/><path class="cls-1" d="M774.65,85.85h37.64v5H774.65Zm34.14-10.78v4.84H779.06V56.17h28.87v4.92H784.49v4.49h23.44v4.79H784.49v4.7Z"/><path class="cls-1" d="M826.15,82.3a94,94,0,0,0,14.37-1.24l.64,4.84a93.88,93.88,0,0,1-15.91,1.41h-7.66V56.42h5.52V82.3Zm18.22-28.62h5.47v40h-5.47v-23h-12v-5h12Z"/></svg>