<svg id="레이어_1" data-name="레이어 1" xmlns="http://www.w3.org/2000/svg" viewBox="0 0 50 13.34"><defs><style>.cls-1{fill:#1f2f56;}.cls-2,.cls-6{fill:#0d4a8b;}.cls-3{fill:#928f92;}.cls-4{fill:#204a88;}.cls-5{fill:#008ec5;}.cls-6{stroke:#0b4b8c;stroke-miterlimit:10;stroke-width:0.25px;}</style></defs><path class="cls-1" d="M11.14,3.7h1.08l1.77,4,1.77-4h1.08L15.84,6l.77,1.75,1.77-4h1.07L17,9.18h-.84l-.89-2-.89,2h-.84c-.33-.73-.61-1.37-.85-1.92L12.1,5.87l-.42-1c-.1-.25-.19-.45-.26-.6A2.86,2.86,0,0,0,11.27,4l-.07-.16a.16.16,0,0,0,0-.06A.13.13,0,0,0,11.14,3.7Z"/><path class="cls-2" d="M20.86,3.83v.82h-1V3.83Zm-1,5.35v-4h1v4Z"/><path class="cls-2" d="M22.56,5.2v.44A1.19,1.19,0,0,1,23,5.31a1.42,1.42,0,0,1,.55-.11,2.19,2.19,0,0,1,.77.14,1.85,1.85,0,0,1,.62.38,1.8,1.8,0,0,1,.43.59,1.91,1.91,0,0,1,.15.76V9.18h-1V7.07a.86.86,0,0,0-.08-.36.79.79,0,0,0-.2-.27,1.09,1.09,0,0,0-.32-.17,1.16,1.16,0,0,0-.38-.06,1,1,0,0,0-.45.09.84.84,0,0,0-.3.22.79.79,0,0,0-.17.31,1.13,1.13,0,0,0-.06.36v2h-1v-4Z"/><path class="cls-2" d="M27.08,5.2v.44a1.06,1.06,0,0,1,.45-.33,1.41,1.41,0,0,1,.54-.11,2.15,2.15,0,0,1,.77.14,2,2,0,0,1,.63.38,2,2,0,0,1,.43.59,1.91,1.91,0,0,1,.15.76V9.18H29V7.07A.86.86,0,0,0,29,6.71a.71.71,0,0,0-.21-.27,1,1,0,0,0-.31-.17,1.21,1.21,0,0,0-.38-.06,1,1,0,0,0-.45.09.84.84,0,0,0-.3.22,1,1,0,0,0-.18.31,1.49,1.49,0,0,0-.05.36v2h-1v-4Z"/><path class="cls-2" d="M32.39,5.2a2.06,2.06,0,0,1,.88.2A1.93,1.93,0,0,1,34,6a1.89,1.89,0,0,1,.38.81,1.72,1.72,0,0,1,0,.9H31.55a1,1,0,0,0,.32.34,1,1,0,0,0,.45.14,1.29,1.29,0,0,0,.45-.08.86.86,0,0,0,.37-.27l.78.64a1.92,1.92,0,0,1-.7.54,2,2,0,0,1-.83.18,1.75,1.75,0,0,1-.46,0A1.57,1.57,0,0,1,31.5,9a2.22,2.22,0,0,1-.55-.4A2,2,0,0,1,30.58,8a2.25,2.25,0,0,1-.18-.64,1.92,1.92,0,0,1,.05-.67,2,2,0,0,1,.26-.62,2.06,2.06,0,0,1,1-.8A2.19,2.19,0,0,1,32.39,5.2Zm.84,1.49a.93.93,0,0,0-.36-.35,1,1,0,0,0-.48-.13,1,1,0,0,0-.48.13.93.93,0,0,0-.36.35Z"/><path class="cls-2" d="M34.79,5.2h1v.44a1.26,1.26,0,0,1,.87-.43v1a1.36,1.36,0,0,0-.4.11.87.87,0,0,0-.27.23.85.85,0,0,0-.15.3,1.33,1.33,0,0,0-.05.34v2h-1Z"/><path class="cls-1" d="M37.28,3.7h.79l3.3,3.79V3.7h1V9.18h-.8L38.23,5.4V9.18h-.95Z"/><path class="cls-2" d="M44.68,5.2a2.06,2.06,0,0,1,.88.2,2,2,0,0,1,.69.58,1.89,1.89,0,0,1,.38.81,2,2,0,0,1,0,.9H43.83a1.07,1.07,0,0,0,.33.34,1,1,0,0,0,.44.14,1.34,1.34,0,0,0,.46-.08.86.86,0,0,0,.37-.27l.78.64a1.92,1.92,0,0,1-.7.54,2,2,0,0,1-.83.18,2.11,2.11,0,0,1-.9-.2,2.36,2.36,0,0,1-.54-.4A2,2,0,0,1,42.87,8a1.75,1.75,0,0,1-.18-.64,2.18,2.18,0,0,1,0-.67,2,2,0,0,1,.71-1.1A2,2,0,0,1,44,5.31,2.14,2.14,0,0,1,44.68,5.2Zm.84,1.49a.93.93,0,0,0-.36-.35,1,1,0,0,0-1,0,1.09,1.09,0,0,0-.36.35Z"/><path class="cls-2" d="M46.89,5.2h.48V3.84h1V5.2h1v1h-1V8a.21.21,0,0,0,.18.22,2,2,0,0,0,.46,0h.34v.9h-.72a4.61,4.61,0,0,1-.56,0,.84.84,0,0,1-.4-.15.74.74,0,0,1-.23-.35A2.15,2.15,0,0,1,47.37,8V6.21h-.48Z"/><path class="cls-3" d="M4.71,10.08C2.41,10,.56,9.72.57,9.4S1.31,9,2.42,9v0C1,9,0,9.2,0,9.45s2,.71,4.37.77,4.23-.17,4.39-.51A11.36,11.36,0,0,1,4.71,10.08Z"/><path class="cls-4" d="M5.57,6.92l-.71,1.3a.08.08,0,0,1-.15,0L2.82,3.64a.09.09,0,0,1,.08-.13H4.14a.09.09,0,0,1,.08.06L5.58,6.84A.08.08,0,0,1,5.57,6.92Z"/><path class="cls-4" d="M7.8,6.92l-.7,1.3a.09.09,0,0,1-.16,0L5.05,3.64a.09.09,0,0,1,.08-.13H6.37a.09.09,0,0,1,.08.06L7.81,6.84A.08.08,0,0,1,7.8,6.92Z"/><path class="cls-5" d="M9.38,3.51H8.14a.1.1,0,0,0-.08.05l-.49.9a.11.11,0,0,0,0,.08l.57,1.38a.09.09,0,0,0,.16,0L9.45,3.65A.1.1,0,0,0,9.38,3.51Z"/><path class="cls-5" d="M9.68,6.49h0a0,0,0,0,0,0,.06,2.16,2.16,0,0,1,.36,2C9.41,9.87,6.86,10,4.33,8.77S.22,5.57.83,4.28a2.18,2.18,0,0,1,1.86-1,0,0,0,0,0,0,0,0,0,0,0,0,0-.05A2.64,2.64,0,0,0,.15,4.3C-.53,5.75,1.2,8.06,4,9.39s5.71,1.17,6.39-.27A2.57,2.57,0,0,0,9.74,6.5,0,0,0,0,0,9.68,6.49Z"/><path class="cls-4" d="M2.54,4l-.18-.49,0,0a1.76,1.76,0,0,0-1.22.92,2.05,2.05,0,0,0,.62,2.1s.05,0,0,0a1.66,1.66,0,0,1-.32-1.62,1.61,1.61,0,0,1,1.07-.83S2.54,4,2.54,4Z"/><path class="cls-4" d="M9.35,6.37a4.66,4.66,0,0,0-.52-.62s0,0,0,0l-.25.48s0,0,0,0a3.28,3.28,0,0,1,.38.5,1.75,1.75,0,0,1,.31,1.57,1.7,1.7,0,0,1-1.36.92s0,0,0,0a2,2,0,0,0,1.93-1A2,2,0,0,0,9.35,6.37Z"/><path class="cls-6" d="M42.23,12.38h-1v.73h-.17v-.73h-.77v-.16h1.92Zm-.7-1.74a.54.54,0,0,1,.22,0,.66.66,0,0,1,.17.12A.78.78,0,0,1,42,11a1,1,0,0,1,0,.24.88.88,0,0,1,0,.24.78.78,0,0,1-.11.18.66.66,0,0,1-.17.12.54.54,0,0,1-.22.05h-.69a.54.54,0,0,1-.22-.05.48.48,0,0,1-.16-.12.42.42,0,0,1-.11-.18.61.61,0,0,1,0-.24.67.67,0,0,1,0-.24.42.42,0,0,1,.11-.18.48.48,0,0,1,.16-.12.54.54,0,0,1,.22,0Zm-.05,1a.47.47,0,0,0,.17,0,.35.35,0,0,0,.13-.08.32.32,0,0,0,.08-.13.5.5,0,0,0,0-.19.44.44,0,0,0-.11-.32.44.44,0,0,0-.3-.1h-.6a.41.41,0,0,0-.29.1.44.44,0,0,0-.11.32.5.5,0,0,0,0,.19.32.32,0,0,0,.08.13.35.35,0,0,0,.13.08.41.41,0,0,0,.16,0Zm1.19-1h.17v2.47h-.17Z"/><path class="cls-6" d="M43.68,12.88a.24.24,0,0,1-.26-.27v-2h.17v1.88a.31.31,0,0,0,0,.1.11.11,0,0,0,0,.06.07.07,0,0,0,.06,0H45v.16Zm2.08-1.3H45v-.16h.8v-.78h.16v2.47h-.16Z"/><path class="cls-6" d="M46.73,11.92c-.17,0-.25-.09-.25-.27v-1h.16v.92s0,.08,0,.1a.16.16,0,0,0,0,.06.05.05,0,0,0,0,0h1v.16Zm1.17.5a.32.32,0,0,0,0,.14.36.36,0,0,0,.08.12l.12.1.15.07a1.24,1.24,0,0,0,.38.09H49v.17h-.31l-.26,0L48.2,13a.78.78,0,0,1-.22-.12.69.69,0,0,1-.17-.17.52.52,0,0,1-.16.17,1,1,0,0,1-.23.12,1.43,1.43,0,0,1-.27.09l-.26,0h-.31V13H47a1.24,1.24,0,0,0,.38-.09l.15-.07.12-.1a.36.36,0,0,0,.08-.12.32.32,0,0,0,0-.14v-.23h.18Zm.35-1.16h-.63V11.1h.63v-.46h.17V12h-.17Zm.62-.62H49V12h-.17Z"/><path class="cls-1" d="M25.29,2.18l0-.31h.45a10.09,10.09,0,0,0,1.16-.07l0,.3a8.75,8.75,0,0,1-1.23.08ZM25.37.89v0a.63.63,0,0,1,.69-.68.62.62,0,0,1,.68.68v0a.62.62,0,0,1-.68.67A.63.63,0,0,1,25.37.89Zm1,0v0a.34.34,0,1,0-.68,0v0a.34.34,0,1,0,.68,0Zm.66,1.67V.07h.34V2.55Z"/><path class="cls-1" d="M29.52,2.06h.59v.31H27.77V2.06h.59V1.75h.33v.31h.5V1.75h.33Zm0-1.29V.52H28V.22h1.8v.84H28.38v.26h1.51v.3H28V.77Z"/><path class="cls-1" d="M30.45.56V.25h1.22V.49a2.09,2.09,0,0,1-1.08,1.77L30.38,2A1.82,1.82,0,0,0,31.33.56ZM32.1.07h.34V2.55H32.1Z"/><path class="cls-1" d="M34.36,1.56a9.77,9.77,0,0,1-1.19.08h-.38l0-.31h.45V.8h.34v.52c.24,0,.52,0,.77-.06ZM33.8,1.1a6.33,6.33,0,0,0,.07-.63h-.95V.18H34.2V.31a4.33,4.33,0,0,1-.08.83Zm-.27.75v.39H35v.31H33.19v-.7ZM34.85.78h.33v.31h-.33V2h-.34V.07h.34Z"/><path class="cls-1" d="M36.09,2.4V.23h.33l1.07,1.58V.23h.34V2.4H37.5L36.43.82V2.4Z"/><path class="cls-1" d="M38.14,1.7V1.51a.74.74,0,1,1,1.48,0V1.7a.74.74,0,1,1-1.48,0Zm1.14,0V1.52a.4.4,0,1,0-.8,0V1.7a.4.4,0,1,0,.8,0Z"/><path class="cls-1" d="M39.88,2.22A.21.21,0,0,1,40.09,2a.21.21,0,0,1,.22.21.22.22,0,1,1-.43,0Z"/><path class="cls-1" d="M41.16,2.4V.68L40.72,1,40.53.78l.69-.55h.29V2.4Z"/><path class="cls-1" d="M43.75,1.79l.27,0,0,.31a9.64,9.64,0,0,1-1.19.08h-.36l0-.31h.26V.55h-.22V.24H44V.55h-.21ZM43.42.55h-.34V1.84l.34,0ZM44.9,1v.31h-.36V2.55H44.2V.07h.34V1Z"/><path class="cls-1" d="M45.05,2.06h2.34v.31H45.05Zm2.12-.67v.3H45.32V.22h1.8V.53H45.66V.8h1.46v.3H45.66v.29Z"/><path class="cls-1" d="M48.25,1.84a5.78,5.78,0,0,0,.89-.07l0,.3a6.11,6.11,0,0,1-1,.08h-.47V.24h.34v1.6ZM49.38.07h.34V2.55h-.34V1.12h-.74V.81h.74Z"/></svg>