<svg width="48" height="34" viewBox="0 0 48 34" fill="none" xmlns="http://www.w3.org/2000/svg">
<path d="M46.9963 5.2502C46.4432 3.18254 44.8191 1.55766 42.7526 1.00418C39.0109 3.00588e-07 23.9999 0 23.9999 0C23.9999 0 8.98912 3.00588e-07 5.24727 1.00418C3.18077 1.55766 1.5568 3.18254 1.00362 5.2502C3.00421e-07 8.99412 0 16.8101 0 16.8101C0 16.8101 3.00421e-07 24.6261 1.00362 28.3701C1.5568 30.4377 3.18077 32.0626 5.24727 32.616C8.98912 33.6202 23.9999 33.6202 23.9999 33.6202C23.9999 33.6202 39.0109 33.6202 42.7526 32.616C44.8191 32.0626 46.4432 30.4377 46.9963 28.3701C48 24.6261 48 16.8101 48 16.8101C48 16.8101 47.996 8.99412 46.9963 5.2502Z" fill="#FF0000"/>
<path d="M19.1954 24.0139L31.6656 16.8108L19.1954 9.60754V24.0139Z" fill="white"/>
</svg>
