<svg width="18" height="18" viewBox="0 0 18 18" fill="none" xmlns="http://www.w3.org/2000/svg">
<path d="M5.3998 13.0998L8.9998 9.4998L12.5998 13.0998L13.0998 12.5998L9.4998 8.9998L13.0998 5.3998L12.5998 4.8998L8.9998 8.4998L5.3998 4.8998L4.8998 5.3998L8.4998 8.9998L4.8998 12.5998L5.3998 13.0998ZM9.00406 17.6998C7.80122 17.6998 6.67014 17.4716 5.61081 17.0151C4.55147 16.5586 3.63005 15.939 2.84655 15.1563C2.06289 14.3736 1.44255 13.4534 0.985555 12.3956C0.528388 11.3376 0.299805 10.2071 0.299805 9.00406C0.299805 7.80122 0.528055 6.67014 0.984555 5.61081C1.44105 4.55147 2.06064 3.63005 2.8433 2.84655C3.62597 2.06289 4.54622 1.44255 5.60405 0.985555C6.66206 0.528388 7.79255 0.299805 8.99555 0.299805C10.1984 0.299805 11.3295 0.528055 12.3888 0.984555C13.4481 1.44106 14.3696 2.06064 15.1531 2.8433C15.9367 3.62597 16.5571 4.54622 17.0141 5.60405C17.4712 6.66205 17.6998 7.79255 17.6998 8.99555C17.6998 10.1984 17.4716 11.3295 17.0151 12.3888C16.5586 13.4481 15.939 14.3696 15.1563 15.1531C14.3736 15.9367 13.4534 16.5571 12.3956 17.0141C11.3376 17.4712 10.2071 17.6998 9.00406 17.6998ZM8.9998 16.9998C11.2331 16.9998 13.1248 16.2248 14.6748 14.6748C16.2248 13.1248 16.9998 11.2331 16.9998 8.9998C16.9998 6.76647 16.2248 4.8748 14.6748 3.3248C13.1248 1.7748 11.2331 0.999805 8.9998 0.999805C6.76647 0.999805 4.8748 1.7748 3.3248 3.3248C1.7748 4.8748 0.999805 6.76647 0.999805 8.9998C0.999805 11.2331 1.7748 13.1248 3.3248 14.6748C4.8748 16.2248 6.76647 16.9998 8.9998 16.9998Z" fill="#333333" stroke="#333333" stroke-width="0.6"/>
</svg>
