<svg width="24" height="24" viewBox="0 0 24 24" fill="none" xmlns="http://www.w3.org/2000/svg">
<path d="M20.7248 21.2002L18.0248 18.5252C17.7581 18.7419 17.4623 18.9085 17.1373 19.0252C16.8123 19.1419 16.4665 19.2002 16.0998 19.2002C15.2405 19.2002 14.5048 18.8952 13.8928 18.2852C13.2808 17.6752 12.9748 16.9419 12.9748 16.0852C12.9748 15.2285 13.2798 14.496 13.8898 13.8877C14.4998 13.2794 15.2331 12.9752 16.0898 12.9752C16.9465 12.9752 17.679 13.2787 18.2873 13.8857C18.8956 14.4929 19.1998 15.2227 19.1998 16.0752C19.1998 16.4405 19.1415 16.786 19.0248 17.1117C18.9081 17.4374 18.7415 17.7335 18.5248 18.0002L21.1998 20.7002L20.7248 21.2002ZM5.8998 19.2252C5.0473 19.2252 4.31755 18.921 3.71055 18.3127C3.10339 17.7044 2.7998 16.9585 2.7998 16.0752C2.7998 15.2227 3.10339 14.4929 3.71055 13.8857C4.31755 13.2787 5.0473 12.9752 5.8998 12.9752C6.78314 12.9752 7.52897 13.2787 8.1373 13.8857C8.74564 14.4929 9.0498 15.2227 9.0498 16.0752C9.0498 16.9585 8.74564 17.7044 8.1373 18.3127C7.52897 18.921 6.78314 19.2252 5.8998 19.2252ZM5.8998 18.5252C6.5998 18.5252 7.18314 18.2919 7.6498 17.8252C8.11647 17.3585 8.3498 16.7752 8.3498 16.0752C8.3498 15.4152 8.11647 14.8502 7.6498 14.3802C7.18314 13.9102 6.5998 13.6752 5.8998 13.6752C5.2398 13.6752 4.6748 13.9102 4.2048 14.3802C3.7348 14.8502 3.4998 15.4152 3.4998 16.0752C3.4998 16.7752 3.7348 17.3585 4.2048 17.8252C4.6748 18.2919 5.2398 18.5252 5.8998 18.5252ZM16.0998 18.5252C16.7598 18.5252 17.3248 18.2919 17.7948 17.8252C18.2648 17.3585 18.4998 16.7752 18.4998 16.0752C18.4998 15.4152 18.2648 14.8502 17.7948 14.3802C17.3248 13.9102 16.7598 13.6752 16.0998 13.6752C15.3998 13.6752 14.8165 13.9102 14.3498 14.3802C13.8831 14.8502 13.6498 15.4152 13.6498 16.0752C13.6498 16.7752 13.8831 17.3585 14.3498 17.8252C14.8165 18.2919 15.3998 18.5252 16.0998 18.5252ZM5.8998 9.0752C5.0473 9.0752 4.31755 8.77103 3.71055 8.1627C3.10339 7.55436 2.7998 6.80853 2.7998 5.9252C2.7998 5.0727 3.10339 4.34286 3.71055 3.73569C4.31755 3.12869 5.0473 2.8252 5.8998 2.8252C6.78314 2.8252 7.52897 3.12869 8.1373 3.73569C8.74564 4.34286 9.0498 5.0727 9.0498 5.9252C9.0498 6.80853 8.74564 7.55436 8.1373 8.1627C7.52897 8.77103 6.78314 9.0752 5.8998 9.0752ZM16.0998 9.0752C15.2165 9.0752 14.4706 8.77103 13.8623 8.1627C13.254 7.55436 12.9498 6.80853 12.9498 5.9252C12.9498 5.0727 13.254 4.34286 13.8623 3.73569C14.4706 3.12869 15.2165 2.8252 16.0998 2.8252C16.9523 2.8252 17.6821 3.12869 18.2893 3.73569C18.8963 4.34286 19.1998 5.0727 19.1998 5.9252C19.1998 6.80853 18.8963 7.55436 18.2893 8.1627C17.6821 8.77103 16.9523 9.0752 16.0998 9.0752ZM5.8998 8.3752C6.5998 8.3752 7.18314 8.14186 7.6498 7.6752C8.11647 7.20853 8.3498 6.6252 8.3498 5.9252C8.3498 5.2652 8.11647 4.7002 7.6498 4.2302C7.18314 3.7602 6.5998 3.5252 5.8998 3.5252C5.2398 3.5252 4.6748 3.7602 4.2048 4.2302C3.7348 4.7002 3.4998 5.2652 3.4998 5.9252C3.4998 6.6252 3.7348 7.20853 4.2048 7.6752C4.6748 8.14186 5.2398 8.3752 5.8998 8.3752ZM16.0998 8.3752C16.7598 8.3752 17.3248 8.14186 17.7948 7.6752C18.2648 7.20853 18.4998 6.6252 18.4998 5.9252C18.4998 5.2652 18.2648 4.7002 17.7948 4.2302C17.3248 3.7602 16.7598 3.5252 16.0998 3.5252C15.3998 3.5252 14.8165 3.7602 14.3498 4.2302C13.8831 4.7002 13.6498 5.2652 13.6498 5.9252C13.6498 6.6252 13.8831 7.20853 14.3498 7.6752C14.8165 8.14186 15.3998 8.3752 16.0998 8.3752Z" fill="#333333" stroke="#333333" stroke-width="0.6"/>
</svg>
