<svg width="30" height="30" viewBox="0 0 30 30" fill="none" xmlns="http://www.w3.org/2000/svg">
<path d="M15 19.3125L11.125 15.4375L11.75 14.8125L14.5625 17.625V6.625H15.4375V17.625L18.25 14.8125L18.875 15.4375L15 19.3125ZM8.5 23.375C7.95833 23.375 7.51042 23.1979 7.15625 22.8438C6.80208 22.4896 6.625 22.0417 6.625 21.5V18.6875H7.5V21.5C7.5 21.75 7.60417 21.9792 7.8125 22.1875C8.02083 22.3958 8.25 22.5 8.5 22.5H21.5C21.75 22.5 21.9792 22.3958 22.1875 22.1875C22.3958 21.9792 22.5 21.75 22.5 21.5V18.6875H23.375V21.5C23.375 22.0417 23.1979 22.4896 22.8438 22.8438C22.4896 23.1979 22.0417 23.375 21.5 23.375H8.5Z" fill="#333333" stroke="#333333" stroke-width="0.6"/>
</svg>
